<svg width="64" height="64" viewBox="0 0 64 64" fill="none" xmlns="http://www.w3.org/2000/svg">
<circle cx="32" cy="32" r="32" fill="url(#paint0_linear)"/>
<circle cx="32" cy="32" r="32" fill="url(#paint1_radial)"/>
<g filter="url(#filter0_d)">
<path d="M42.8453 20.3505H37.3176C36.9965 18.9754 36.4489 17.692 35.7166 16.5919H42.8454C44.3897 16.5919 45.6414 15.3402 45.6414 13.7959C45.6414 12.2517 44.3896 11 42.8453 11H20.1544C18.6102 11 17.3584 12.2518 17.3584 13.796C17.3584 15.3402 18.6102 16.592 20.1544 16.592H25.499C28.1103 16.592 30.3693 18.1504 31.4219 20.3506H20.1544C18.6102 20.3506 17.3584 21.6023 17.3584 23.1466C17.3584 24.6908 18.6102 25.9426 20.1544 25.9426H31.43C30.381 28.1427 28.1173 29.7011 25.499 29.7011H20.1544C18.6102 29.7011 17.3584 30.9071 17.3584 32.4512C17.3584 33.2649 17.7063 33.9743 18.2611 34.4852L33.2887 51.0854C33.8407 51.6955 34.6003 52 35.363 52C36.0318 52 36.7029 51.7586 37.2379 51.2746C38.3831 50.2386 38.4716 48.469 37.4356 47.324L26.4369 35.211C31.7571 34.7996 36.1286 30.8928 37.322 25.9425H42.8453C44.3896 25.9425 45.6414 24.6907 45.6414 23.1465C45.6414 21.6023 44.3896 20.3505 42.8453 20.3505Z" fill="#FFDB6C"/>
<path d="M43.8998 11.8805C43.8943 13.4301 42.5966 14.6664 41.0469 14.6664H36.3113C35.3036 14.6664 34.6246 15.6876 35.0042 16.6211C35.1093 16.8796 35.2059 17.1435 35.2936 17.4122C35.4893 18.0129 36.0415 18.4249 36.6732 18.4249H36.6952C36.4218 17.7735 36.0941 17.158 35.7168 16.5914H42.7866C44.3147 16.5914 45.6051 15.3901 45.6408 13.8623C45.6695 12.6289 44.8994 11.5714 43.8115 11.1709C43.87 11.3977 43.9006 11.6354 43.8998 11.8805Z" fill="#FFB04C"/>
<path d="M20.1551 16.5907H25.4997C26.9557 16.5907 28.3018 17.0756 29.3906 17.8857C28.2464 15.9743 26.1505 14.6657 23.7579 14.6657H18.4133C18.0738 14.6657 17.7484 14.605 17.4473 14.4941C17.7578 15.6999 18.8525 16.5907 20.1551 16.5907Z" fill="#FFB04C"/>
<path d="M43.8126 20.5205C43.871 20.7471 43.9017 20.9849 43.9008 21.2299C43.8953 22.7795 42.5976 24.0158 41.0479 24.0158H36.8782C36.1407 24.0158 35.4832 24.4804 35.2375 25.1758C33.6868 29.5654 29.5935 32.9057 24.6963 33.2844L26.4438 35.2089C31.7614 34.7951 36.1302 30.8894 37.3232 25.9409H42.7876C44.3157 25.9409 45.606 24.7396 45.6418 23.2119C45.6706 21.9785 44.9004 20.9211 43.8126 20.5205Z" fill="#FFB04C"/>
<path d="M35.7943 45.5146C36.7234 46.6603 36.604 48.3472 35.497 49.3486C34.962 49.8326 34.2909 50.0741 33.6221 50.0741C32.8595 50.0741 32.0998 49.7696 31.5479 49.1595L33.2896 51.0846C33.8416 51.6946 34.6013 51.9991 35.3639 51.9991C36.0327 51.9991 36.7038 51.7578 37.2388 51.2737C38.384 50.2377 38.4724 48.4682 37.4365 47.3231L35.7943 45.5146Z" fill="#FFB04C"/>
<path d="M28.3112 25.9257C29.0284 25.2335 28.5245 24.0172 27.5277 24.0172H18.4133C18.0738 24.0172 17.7484 23.9566 17.4473 23.8457C17.7577 25.0514 18.8524 25.9423 20.155 25.9423H28.2939C28.2997 25.9368 28.3055 25.9313 28.3112 25.9257Z" fill="#FFB04C"/>
</g>
<defs>
<filter id="filter0_d" x="7" y="11" width="49" height="49" filterUnits="userSpaceOnUse" color-interpolation-filters="sRGB">
<feFlood flood-opacity="0" result="BackgroundImageFix"/>
<feColorMatrix in="SourceAlpha" type="matrix" values="0 0 0 0 0 0 0 0 0 0 0 0 0 0 0 0 0 0 127 0"/>
<feOffset dy="4"/>
<feGaussianBlur stdDeviation="2"/>
<feColorMatrix type="matrix" values="0 0 0 0 0 0 0 0 0 0 0 0 0 0 0 0 0 0 0.25 0"/>
<feBlend mode="normal" in2="BackgroundImageFix" result="effect1_dropShadow"/>
<feBlend mode="normal" in="SourceGraphic" in2="effect1_dropShadow" result="shape"/>
</filter>
<linearGradient id="paint0_linear" x1="6.929" y1="56.1827" x2="78.8559" y2="23.1195" gradientUnits="userSpaceOnUse">
<stop stop-color="#FF7373"/>
<stop offset="1" stop-color="#FF7A00"/>
</linearGradient>
<radialGradient id="paint1_radial" cx="0" cy="0" r="1" gradientUnits="userSpaceOnUse" gradientTransform="translate(11 6.5) rotate(48.7806) scale(80.4317)">
<stop stop-color="#383838"/>
<stop offset="1"/>
</radialGradient>
</defs>
</svg>
