<svg xmlns="http://www.w3.org/2000/svg" width="54" height="64" fill="none" viewBox="0 0 54 64">
    <g clip-path="url(#clip0)">
        <path stroke="#009377" stroke-miterlimit="22.926" stroke-width="1.5" d="M17.97 28.285H.212v17.752h17.76V28.285z"/>
        <path fill="#009377" fill-rule="evenodd" stroke="#009377" stroke-miterlimit="22.926" d="M18.005 28.443l4.397 8.797 4.397 8.797H9.213l4.398-8.797 4.394-8.797z" clip-rule="evenodd"/>
        <path stroke="#009377" stroke-miterlimit="22.926" stroke-width="1.5" d="M53.49 28.285H35.73v17.752h17.76V28.285z"/>
        <path fill="#009377" fill-rule="evenodd" stroke="#009377" stroke-miterlimit="22.926" d="M35.696 28.443L31.3 37.24l-4.398 8.797h17.584L40.09 37.24l-4.393-8.797z" clip-rule="evenodd"/>
        <path stroke="#009377" stroke-miterlimit="22.926" stroke-width="1.5" d="M17.97 46.037H.212V63.79h17.76V46.037z"/>
        <path fill="#009377" fill-rule="evenodd" stroke="#009377" stroke-miterlimit="22.926" d="M9.091 46.195l4.396 8.797 4.398 8.797H.3l4.398-8.797 4.393-8.797z" clip-rule="evenodd"/>
        <path stroke="#009377" stroke-miterlimit="22.926" stroke-width="1.5" d="M35.73 46.037H17.97V63.79h17.76V46.037z"/>
        <path fill="#009377" fill-rule="evenodd" stroke="#009377" stroke-miterlimit="22.926" d="M26.85 46.195l4.397 8.797 4.397 8.797H18.06l4.397-8.797 4.394-8.797z" clip-rule="evenodd"/>
        <path stroke="#009377" stroke-miterlimit="22.926" stroke-width="1.5" d="M53.49 46.037H35.73V63.79h17.76V46.037z"/>
        <path fill="#009377" fill-rule="evenodd" stroke="#009377" stroke-miterlimit="22.926" d="M44.61 46.195l4.396 8.797 4.398 8.797H35.819l4.398-8.797 4.393-8.797z" clip-rule="evenodd"/>
        <path stroke="#009377" stroke-miterlimit="22.926" stroke-width="1.5" d="M17.97 10.532H.212v17.752h17.76V10.532z"/>
        <path stroke="#009377" stroke-miterlimit="22.926" stroke-width="1.5" d="M35.73 10.532H17.97v17.752h17.76V10.532z"/>
        <path fill="#009377" fill-rule="evenodd" stroke="#009377" stroke-miterlimit="22.926" stroke-width="1.5" d="M26.85 10.69l4.397 8.797 4.397 8.797H18.06l4.397-8.797 4.394-8.797z" clip-rule="evenodd"/>
        <path stroke="#009377" stroke-miterlimit="22.926" stroke-width="1.5" d="M53.49 10.532H35.73v17.752h17.76V10.532z"/>
        <path fill="#009377" d="M5.899 5.585h3.603l-1.694-3.69-1.91 3.69zM2.117 9.4v-.655c.345-.04.675-.16.964-.353.307-.252.557-.567.733-.924L7.844.001h2.13L13.9 7.619c.147.327.378.61.67.82.32.177.676.282 1.042.307V9.4H9.175v-.655c.403 0 .805-.055 1.194-.164.092-.022.175-.074.236-.148.06-.073.094-.165.097-.26-.019-.14-.06-.277-.124-.404-.008-.014-.014-.028-.018-.043l-.658-1.485h-4.33L5.029 7.41l-.018.045c-.115.201-.19.423-.221.653 0 .093.029.183.082.259.054.075.13.132.218.163.355.125.727.197 1.103.215V9.4H2.117z"/>
        <path fill="#009377" d="M18.632.642h-.17v7.02c0 .436.104.717.313.845.21.127.69.204 1.455.238v.656h-4.634v-.656c.763-.034 1.248-.114 1.451-.238.203-.125.306-.409.306-.846V1.738c0-.436-.103-.717-.306-.845S16.36.69 15.596.654V0h5.779l2.912 6.32L27.01 0h5.833v.655c-.77.035-1.257.113-1.463.243-.206.13-.312.409-.312.84V7.66c0 .432.106.714.315.84.209.128.697.209 1.46.244v.655h-6.703v-.655c.764-.035 1.249-.114 1.452-.239.203-.125.306-.408.306-.845V.64h-.143l-3.763 8.758h-1.33L18.632.642zM38.66 7.661c0 .422.106.694.318.826.213.13.69.215 1.43.258V9.4h-6.596v-.655c.658-.044 1.083-.13 1.276-.258.19-.132.288-.404.288-.826V1.74c0-.42-.097-.694-.288-.825-.191-.132-.619-.215-1.276-.259V0h12.085l.258 3.161H45.15c-.085-.398-.254-.774-.497-1.1-.242-.328-.552-.6-.909-.797-.727-.407-1.747-.61-3.06-.609-.833 0-1.381.065-1.64.192-.258.127-.384.425-.384.892v2.456h.743c.77 0 1.35-.149 1.737-.447.207-.177.377-.395.498-.64.122-.244.192-.51.208-.783h.906v4.419h-.906c-.016-.273-.086-.54-.208-.784-.12-.244-.29-.462-.498-.639-.388-.299-.967-.448-1.737-.447h-.744v2.787zM48.427 1.739c0-.42-.097-.694-.288-.825-.191-.132-.619-.215-1.276-.259V0h6.394v.655c-.645.04-1.064.121-1.258.25-.194.129-.287.406-.287.834V7.66c0 .428.097.707.287.834.191.127.613.21 1.258.25V9.4h-6.394v-.655c.658-.044 1.083-.13 1.276-.258.19-.132.288-.407.288-.826V1.74z"/>
        <path stroke="#009377" stroke-miterlimit="22.926" stroke-width="1.5" d="M17.97 28.285H.212v17.752h17.76V28.285z"/>
        <path fill="#009377" fill-rule="evenodd" stroke="#009377" stroke-miterlimit="22.926" d="M18.005 28.443l4.397 8.797 4.397 8.797H9.213l4.398-8.797 4.394-8.797z" clip-rule="evenodd"/>
        <path stroke="#009377" stroke-miterlimit="22.926" stroke-width="1.5" d="M53.49 28.285H35.73v17.752h17.76V28.285z"/>
        <path fill="#009377" fill-rule="evenodd" stroke="#009377" stroke-miterlimit="22.926" d="M35.696 28.443L31.3 37.24l-4.398 8.797h17.584L40.09 37.24l-4.393-8.797z" clip-rule="evenodd"/>
        <path stroke="#009377" stroke-miterlimit="22.926" stroke-width="1.5" d="M17.97 46.037H.212V63.79h17.76V46.037z"/>
        <path fill="#009377" fill-rule="evenodd" stroke="#009377" stroke-miterlimit="22.926" d="M9.091 46.195l4.396 8.797 4.398 8.797H.3l4.398-8.797 4.393-8.797z" clip-rule="evenodd"/>
        <path stroke="#009377" stroke-miterlimit="22.926" stroke-width="1.5" d="M35.73 46.037H17.97V63.79h17.76V46.037z"/>
        <path fill="#009377" fill-rule="evenodd" stroke="#009377" stroke-miterlimit="22.926" d="M26.85 46.195l4.397 8.797 4.397 8.797H18.06l4.397-8.797 4.394-8.797z" clip-rule="evenodd"/>
        <path stroke="#009377" stroke-miterlimit="22.926" stroke-width="1.5" d="M53.49 46.037H35.73V63.79h17.76V46.037z"/>
        <path fill="#009377" fill-rule="evenodd" stroke="#009377" stroke-miterlimit="22.926" d="M44.61 46.195l4.396 8.797 4.398 8.797H35.819l4.398-8.797 4.393-8.797z" clip-rule="evenodd"/>
        <path stroke="#009377" stroke-miterlimit="22.926" stroke-width="1.5" d="M17.97 10.532H.212v17.752h17.76V10.532z"/>
        <path stroke="#009377" stroke-miterlimit="22.926" stroke-width="1.5" d="M35.73 10.532H17.97v17.752h17.76V10.532z"/>
        <path fill="#009377" fill-rule="evenodd" stroke="#009377" stroke-miterlimit="22.926" stroke-width="1.5" d="M26.85 10.69l4.397 8.797 4.397 8.797H18.06l4.397-8.797 4.394-8.797z" clip-rule="evenodd"/>
        <path stroke="#009377" stroke-miterlimit="22.926" stroke-width="1.5" d="M53.49 10.532H35.73v17.752h17.76V10.532z"/>
        <path fill="#009377" d="M5.899 5.585h3.603l-1.694-3.69-1.91 3.69zM2.117 9.4v-.655c.345-.04.675-.16.964-.353.307-.252.557-.567.733-.924L7.844.001h2.13L13.9 7.619c.147.327.378.61.67.82.32.177.676.282 1.042.307V9.4H9.175v-.655c.403 0 .805-.055 1.194-.164.092-.022.175-.074.236-.148.06-.073.094-.165.097-.26-.019-.14-.06-.277-.124-.404-.008-.014-.014-.028-.018-.043l-.658-1.485h-4.33L5.029 7.41l-.018.045c-.115.201-.19.423-.221.653 0 .093.029.183.082.259.054.075.13.132.218.163.355.125.727.197 1.103.215V9.4H2.117z"/>
        <path fill="#009377" d="M18.632.642h-.17v7.02c0 .436.104.717.313.845.21.127.69.204 1.455.238v.656h-4.634v-.656c.763-.034 1.248-.114 1.451-.238.203-.125.306-.409.306-.846V1.738c0-.436-.103-.717-.306-.845S16.36.69 15.596.654V0h5.779l2.912 6.32L27.01 0h5.833v.655c-.77.035-1.257.113-1.463.243-.206.13-.312.409-.312.84V7.66c0 .432.106.714.315.84.209.128.697.209 1.46.244v.655h-6.703v-.655c.764-.035 1.249-.114 1.452-.239.203-.125.306-.408.306-.845V.64h-.143l-3.763 8.758h-1.33L18.632.642zM38.66 7.661c0 .422.106.694.318.826.213.13.69.215 1.43.258V9.4h-6.596v-.655c.658-.044 1.083-.13 1.276-.258.19-.132.288-.404.288-.826V1.74c0-.42-.097-.694-.288-.825-.191-.132-.619-.215-1.276-.259V0h12.085l.258 3.161H45.15c-.085-.398-.254-.774-.497-1.1-.242-.328-.552-.6-.909-.797-.727-.407-1.747-.61-3.06-.609-.833 0-1.381.065-1.64.192-.258.127-.384.425-.384.892v2.456h.743c.77 0 1.35-.149 1.737-.447.207-.177.377-.395.498-.64.122-.244.192-.51.208-.783h.906v4.419h-.906c-.016-.273-.086-.54-.208-.784-.12-.244-.29-.462-.498-.639-.388-.299-.967-.448-1.737-.447h-.744v2.787zM48.427 1.739c0-.42-.097-.694-.288-.825-.191-.132-.619-.215-1.276-.259V0h6.394v.655c-.645.04-1.064.121-1.258.25-.194.129-.287.406-.287.834V7.66c0 .428.097.707.287.834.191.127.613.21 1.258.25V9.4h-6.394v-.655c.658-.044 1.083-.13 1.276-.258.19-.132.288-.407.288-.826V1.74z"/>
    </g>
    <defs>
        <clipPath id="clip0">
            <path fill="#fff" d="M0 0H53.701V64H0z"/>
        </clipPath>
    </defs>
</svg>
