<svg width="288" height="105" viewBox="0 0 288 105" fill="none" xmlns="http://www.w3.org/2000/svg">
<g clip-path="url(#clip0)">
<path d="M79.5343 38.3413C79.4885 38.3413 79.4419 38.3377 79.3952 38.3304C78.1824 38.1397 77.2473 37.4659 76.3428 36.8144C75.8008 36.4239 75.2887 36.0549 74.7488 35.8145C72.9982 35.035 71.12 35.6786 69.1661 37.7273C68.8269 38.0827 68.2641 38.0959 67.9088 37.7571C67.5534 37.4182 67.5402 36.8553 67.879 36.5C71.0282 33.1982 73.7463 33.4214 75.4722 34.19C76.1795 34.505 76.791 34.9455 77.3824 35.3716C78.1514 35.9256 78.8778 36.4489 79.6714 36.5737C80.1564 36.65 80.488 37.1052 80.4117 37.5903C80.3426 38.0285 79.9645 38.3413 79.5343 38.3413Z" fill="#655E67"/>
<path d="M78.4558 49.5008C78.2133 49.5008 77.9718 49.4023 77.7963 49.2084C76.6068 47.8943 76.1483 46.2328 75.705 44.626C75.5901 44.2094 75.4814 43.8158 75.3603 43.4269C74.8422 41.7646 73.6884 40.3377 72.3493 39.7029C71.3385 39.2239 70.2829 39.2001 69.2117 39.632C68.7557 39.8157 68.238 39.5953 68.0546 39.14C67.8708 38.6845 68.0912 38.1664 68.5465 37.9828C70.0757 37.366 71.6537 37.4052 73.1111 38.0959C74.9114 38.9492 76.3869 40.7443 77.0581 42.8976C77.188 43.3145 77.3056 43.7407 77.4193 44.1529C77.8253 45.6243 78.2088 47.014 79.1148 48.0149C79.4443 48.3789 79.4165 48.9412 79.0523 49.2708C78.8821 49.4249 78.6685 49.5008 78.4558 49.5008Z" fill="#655E67"/>
<path d="M69.0256 24.7513C67.9208 23.7791 66.6424 23.4473 65.3169 24.2601C64.5054 24.7577 63.55 24.8314 62.7328 24.348C62.137 23.9956 61.4844 23.8013 60.8001 23.8013C60.1158 23.8013 59.4632 23.9958 58.8674 24.348C58.0502 24.8314 57.0948 24.7577 56.2833 24.2601C54.9579 23.4474 53.6793 23.7792 52.5745 24.7513C50.8422 26.2759 50.1933 28.7971 52.2911 32.3665C53.7905 34.9177 55.8041 36.4913 57.4636 36.6254C58.3569 37.7425 63.2434 37.7425 64.1367 36.6254C65.7962 36.4913 67.8098 34.9177 69.3092 32.3665C71.4069 28.7972 70.7581 26.2759 69.0256 24.7513Z" fill="#C77E67"/>
<path d="M67.3978 40.2007H54.2031C54.2031 40.2007 39.2817 58.0492 39.2817 65.2888C39.2817 73.3879 46.473 77.2831 50.317 77.2831H71.284C75.1279 77.2831 82.3193 73.3879 82.3193 65.2888C82.3192 58.0492 67.3978 40.2007 67.3978 40.2007Z" fill="#C77E67"/>
<path d="M69.0257 24.7511C67.921 23.7789 66.6424 23.4471 65.3169 24.2599C65.232 24.3119 65.1452 24.3583 65.0575 24.4009C65.1912 24.506 65.3227 24.6224 65.4512 24.7511C66.9754 26.2757 67.5463 28.7969 65.7006 32.3663C64.3814 34.9175 62.6097 36.4911 61.1496 36.6252C60.8846 37.002 60.2192 37.2511 59.4243 37.3738C61.1994 37.6147 63.5445 37.3655 64.1365 36.6252C65.796 36.4911 67.8096 34.9175 69.309 32.3663C71.407 28.797 70.7581 26.2757 69.0257 24.7511Z" fill="#AC583E"/>
<path d="M67.3978 40.1997H64.019C64.019 40.1997 77.1473 58.0482 77.1473 65.2878C77.1473 73.3869 70.8202 77.2821 67.4381 77.2821H71.2839C75.1279 77.2821 82.3191 73.3869 82.3191 65.2878C82.3191 58.0483 67.3978 40.1997 67.3978 40.1997Z" fill="#AC583E"/>
<path d="M69.604 42.9424C68.2757 41.2504 67.3976 40.1997 67.3976 40.1997H54.2029C54.2029 40.1997 53.3249 41.2503 51.9966 42.9424H69.604Z" fill="#AC583E"/>
<path d="M60.7996 38.6304C60.0463 38.6304 59.387 38.2524 59.0436 37.6559C58.5402 37.3032 57.808 36.3215 57.1834 33.3947C56.9881 32.4802 56.8561 31.6024 56.7909 30.7858C56.7519 30.2962 57.1172 29.8678 57.6068 29.8287C58.0963 29.7882 58.5247 30.155 58.5638 30.6444C58.6227 31.3841 58.7434 32.1844 58.9227 33.0234C59.3679 35.1099 59.86 35.9746 60.0354 36.1639C60.2959 36.2617 60.4981 36.4773 60.5768 36.7491C60.6064 36.851 60.7918 36.8521 60.7997 36.8521C60.8076 36.8521 60.9931 36.851 61.0227 36.7491C61.1014 36.4773 61.3038 36.2617 61.5642 36.1639C61.7396 35.9747 62.2316 35.1101 62.6769 33.0236C62.8552 32.1878 62.9765 31.3868 63.0374 30.6427C63.0773 30.1533 63.5089 29.7889 63.9959 29.829C64.4855 29.869 64.8498 30.2982 64.8097 30.7876C64.7428 31.6076 64.6104 32.4846 64.416 33.3947C63.7913 36.3215 63.059 37.3032 62.5556 37.6559C62.2123 38.2526 61.553 38.6304 60.7996 38.6304Z" fill="#7B3F2C"/>
<path d="M65.2946 53.9072H63.7576C63.6386 53.2383 63.3679 52.6097 62.9607 52.0635H65.2946C65.7858 52.0635 66.1837 51.6655 66.1837 51.1744C66.1837 50.6833 65.7857 50.2852 65.2946 50.2852H56.3051C55.814 50.2852 55.416 50.6832 55.416 51.1743C55.416 51.6653 55.8141 52.0635 56.3051 52.0635H59.4266C60.1268 52.0641 60.785 52.337 61.2802 52.8321C61.5859 53.1377 61.8062 53.5058 61.9307 53.9073H56.3051C55.814 53.9073 55.416 54.3053 55.416 54.7964C55.416 55.2875 55.8141 55.6855 56.3051 55.6855H61.8956C61.5223 56.7578 60.5073 57.5292 59.3162 57.5292H57.4701C56.9082 57.5292 56.4073 57.8436 56.1629 58.3496C55.9186 58.8556 55.9839 59.4433 56.3335 59.8834L61.7619 66.717C61.9375 66.938 62.1969 67.0532 62.4587 67.0532C62.6525 67.0532 62.8477 66.9901 63.0112 66.8602C63.3957 66.5548 63.4598 65.9953 63.1544 65.6109L58.147 59.3073H59.3162C61.4943 59.3073 63.3168 57.7494 63.7364 55.6854H65.2946C65.7858 55.6854 66.1837 55.2873 66.1837 54.7963C66.1838 54.3052 65.7858 53.9072 65.2946 53.9072Z" fill="#F0E9E6"/>
<path d="M50.9702 37.8742C50.9702 39.1591 52.0118 40.2006 53.2966 40.2006H68.3045C69.5894 40.2006 70.6309 39.159 70.6309 37.8742C70.6309 36.5893 69.5893 35.5479 68.3045 35.5479H53.2966C52.0117 35.5479 50.9702 36.5893 50.9702 37.8742Z" fill="#655E67"/>
<path d="M68.304 35.5479H65.0278C66.3126 35.5479 67.3542 36.5895 67.3542 37.8742C67.3542 39.159 66.3126 40.2006 65.0278 40.2006H68.304C69.5889 40.2006 70.6304 39.159 70.6304 37.8742C70.6304 36.5895 69.5889 35.5479 68.304 35.5479Z" fill="#544F56"/>
<path d="M85.7167 71.5332H70.1913C68.6039 71.5332 67.3169 72.8202 67.3169 74.4076C67.3169 75.9951 68.6039 77.282 70.1913 77.282H85.7167C87.3041 77.282 88.5911 75.9951 88.5911 74.4076C88.5911 72.8201 87.3041 71.5332 85.7167 71.5332Z" fill="#F7E365"/>
<path d="M85.717 71.5332H82.4199C84.0074 71.5332 85.2943 72.8202 85.2943 74.4076C85.2943 75.9952 84.0074 77.282 82.4199 77.282H85.717C87.3045 77.282 88.5915 75.9951 88.5915 74.4076C88.5915 72.8201 87.3045 71.5332 85.717 71.5332Z" fill="#ECC52E"/>
<path d="M85.7171 65.7856H70.1918C68.6044 65.7856 67.3174 67.0726 67.3174 68.6601C67.3174 70.2475 68.6044 71.5345 70.1918 71.5345H85.7171C87.3046 71.5345 88.5916 70.2475 88.5916 68.6601C88.5916 67.0726 87.3046 65.7856 85.7171 65.7856Z" fill="#F7E365"/>
<path d="M85.7167 69.3332H70.1913C68.9936 69.3332 67.9675 68.6006 67.5354 67.5591C67.3948 67.898 67.3169 68.2696 67.3169 68.6594C67.3169 70.2468 68.6039 71.5338 70.1913 71.5338H85.7167C87.3041 71.5338 88.5911 70.2468 88.5911 68.6594C88.5911 68.2696 88.513 67.898 88.3725 67.5591C87.9405 68.6006 86.9143 69.3332 85.7167 69.3332Z" fill="#ECC52E"/>
<path d="M85.717 65.7852H82.4199C84.0074 65.7852 85.2943 67.0721 85.2943 68.6596C85.2943 70.247 84.0074 71.534 82.4199 71.534H85.717C87.3045 71.534 88.5915 70.247 88.5915 68.6596C88.5915 67.0721 87.3045 65.7852 85.717 65.7852Z" fill="#ECC52E"/>
<path d="M97.8193 72.9703L90.0567 59.5251C89.2629 58.1503 87.5049 57.6792 86.13 58.473C84.7553 59.2667 84.2842 61.0247 85.078 62.3996L92.8406 75.845C93.6344 77.2197 95.3924 77.6909 96.7671 76.897C98.142 76.1032 98.6131 74.3452 97.8193 72.9703Z" fill="#F7E365"/>
<path d="M97.8192 72.971L96.1706 70.1157C96.9643 71.4905 96.4933 73.2485 95.1185 74.0423C93.7437 74.8361 91.9857 74.365 91.1919 72.9903L92.8405 75.8456C93.6342 77.2203 95.3922 77.6915 96.767 76.8976C98.1419 76.1039 98.6129 74.3458 97.8192 72.971Z" fill="#ECC52E"/>
</g>
<circle cx="27.6756" cy="77.3241" r="27.6756" fill="white"/>
<g clip-path="url(#clip1)">
<path d="M25.5116 64.2558C25.2513 64.2558 25.0325 64.0535 25.0158 63.7902C24.9983 63.516 25.2063 63.2798 25.4804 63.2622C25.6866 63.249 25.9392 63.1725 26.063 62.6936C26.1646 62.3007 26.0681 61.915 25.9486 61.5567C25.8565 61.2801 25.6956 60.9664 25.5254 60.6343C25.0786 59.7629 24.5227 58.6786 25.0129 57.65C25.3319 56.981 26.112 56.6283 26.752 56.8644C27.0097 56.9594 27.1417 57.2452 27.0466 57.503C26.9517 57.7607 26.6659 57.8927 26.4081 57.7976C26.2519 57.7402 26.0056 57.8789 25.9107 58.078C25.6321 58.6625 26.0278 59.4342 26.4103 60.1805C26.5902 60.5312 26.7761 60.8937 26.8922 61.2422C27.0519 61.7213 27.1926 62.298 27.0258 62.9427C26.8224 63.7294 26.2821 64.2077 25.5437 64.2548C25.5329 64.2554 25.5222 64.2558 25.5116 64.2558Z" fill="#DB8137"/>
<path d="M28.9393 64.2557C28.6791 64.2557 28.4603 64.0534 28.4435 63.7901C28.4259 63.516 28.634 63.2797 28.9081 63.2621C29.1143 63.2489 29.3668 63.1724 29.4907 62.6935C29.5923 62.3007 29.4958 61.9149 29.3764 61.5565C29.2842 61.2801 29.1234 60.9664 28.9531 60.6343C28.5063 59.7629 27.9503 58.6786 28.4407 57.6499C28.7596 56.9809 29.5396 56.6284 30.1797 56.8643C30.4374 56.9593 30.5693 57.2452 30.4743 57.5029C30.3793 57.7607 30.0935 57.8926 29.8357 57.7975C29.6795 57.7401 29.4333 57.8788 29.3385 58.0779C29.0597 58.6625 29.4554 59.4342 29.8381 60.1805C30.0178 60.5311 30.2038 60.8937 30.3199 61.242C30.4796 61.7213 30.6203 62.2981 30.4536 62.9426C30.2501 63.7293 29.7098 64.2076 28.9714 64.2547C28.9607 64.2553 28.9499 64.2557 28.9393 64.2557Z" fill="#DB8137"/>
<path d="M39.2527 82.9538C39.0314 82.9538 38.9164 82.6859 39.0725 82.5289C39.7696 81.8275 40.2007 80.8615 40.2007 79.7944C40.2007 77.6507 38.463 75.913 36.3194 75.913H36.1544C35.9468 75.913 35.8283 75.6745 35.9553 75.5104C36.4626 74.8546 36.7648 74.0321 36.7648 73.1388C36.7648 71.1517 35.2715 69.514 33.346 69.2853C33.2159 69.2699 33.1182 69.1593 33.1221 69.0283C33.1229 69.0033 33.1234 68.9855 33.1235 68.9766C33.1501 67.734 33.0315 66.1456 32.3169 65.0198C32.1947 64.8273 31.9224 64.8104 31.77 64.98C31.5316 65.2453 31.1253 65.4805 30.9303 65.5898C30.4363 65.8669 29.8596 65.9307 29.3044 65.9702C28.7148 66.012 28.0926 66.1875 27.59 66.5042C26.8087 66.9964 26.2634 67.7706 25.9722 68.639C25.9639 68.664 25.9207 68.8444 25.8726 69.061C25.8472 69.1757 25.7454 69.2573 25.6278 69.2573H22.4666C20.323 69.2573 18.5852 70.995 18.5852 73.1387C18.5852 74.032 18.8874 74.8545 19.3947 75.5103C19.5217 75.6745 19.4031 75.9129 19.1956 75.9129H19.0306C16.887 75.9129 15.1492 77.6506 15.1492 79.7943C15.1492 80.8614 15.5804 81.8273 16.2775 82.5288C16.4336 82.6859 16.3186 82.9538 16.0972 82.9538C13.9624 82.9538 12.2158 84.7004 12.2158 86.8351C12.2158 88.9699 13.9624 90.7165 16.0972 90.7165H39.2527C41.3875 90.7165 43.1341 88.9699 43.1341 86.8351C43.1341 84.7004 41.3874 82.9538 39.2527 82.9538Z" fill="#DB8137"/>
<path d="M43.1346 86.8345C43.1346 88.9691 41.3877 90.7161 39.253 90.7161H38.0239C39.0544 90.0162 39.7343 88.8358 39.7343 87.5035C39.7343 86.4359 39.2977 85.4658 38.5938 84.7618C37.8905 84.0586 36.9205 83.622 35.8528 83.622C35.6314 83.622 35.5166 83.3538 35.6727 83.1971C36.3697 82.4952 36.8008 81.5293 36.8008 80.4623C36.8008 79.3905 36.3663 78.4205 35.6637 77.7179C34.9612 77.0153 33.9911 76.5808 32.9193 76.5808H32.7543C32.5467 76.5808 32.4285 76.3423 32.5549 76.1779C33.0623 75.5228 33.3648 74.6999 33.3648 73.8068C33.3648 72.8135 32.9915 71.9066 32.3776 71.2205C31.7637 70.5337 30.9091 70.0676 29.946 69.9535C29.816 69.9377 29.7178 69.827 29.7219 69.6963C29.7225 69.6709 29.7233 69.6531 29.7233 69.6447C29.748 68.5097 29.6504 67.0866 29.0894 65.9908C29.1616 65.9818 29.233 65.9743 29.3045 65.9695C29.86 65.9297 30.4368 65.8657 30.9304 65.5886C31.1257 65.4793 31.5319 65.2441 31.7705 64.9788C31.9224 64.8097 32.1946 64.8262 32.3171 65.0187C33.0314 66.1447 33.1503 67.7328 33.1235 68.9758C33.1235 68.9847 33.1228 69.0025 33.1221 69.0274C33.1186 69.158 33.2163 69.2687 33.3462 69.2845C34.3093 69.3994 35.1639 69.8654 35.7778 70.5522C36.3917 71.2383 36.765 72.1444 36.765 73.1378C36.765 74.0309 36.4625 74.8537 35.9551 75.5096C35.8286 75.674 35.9469 75.9118 36.1545 75.9118H36.3195C37.3913 75.9118 38.3613 76.3463 39.0639 77.0489C39.7665 77.7507 40.201 78.7215 40.201 79.7933C40.201 80.8603 39.77 81.8261 39.0729 82.5281C38.9168 82.6849 39.0316 82.9529 39.253 82.9529C40.3206 82.9529 41.2906 83.3895 41.994 84.0935C42.6981 84.7969 43.1346 85.7669 43.1346 86.8345Z" fill="#D86C1A"/>
</g>
<g clip-path="url(#clip2)">
<path d="M74.126 34.3918C75.2173 34.5492 76.5015 34.9651 77.9552 35.6299C78.2656 35.7714 78.5838 35.9246 78.9099 36.0892C80.0616 36.6722 81.2861 37.3836 82.5516 38.2046C82.9294 38.4495 83.2679 38.6766 83.5576 38.8752C84.2399 39.3437 84.6559 39.6547 84.68 39.6733C84.7394 39.7177 84.7894 39.7716 84.83 39.8319C84.8974 39.9322 84.9368 40.0502 84.9416 40.1736C84.9494 40.3719 84.8667 40.5625 84.7177 40.6924C84.1052 41.2278 83.4102 41.6816 82.6535 42.0419C82.3258 42.1979 81.9346 42.057 81.7789 41.7313C81.6228 41.4037 81.7621 41.0115 82.0897 40.8555C82.4776 40.6716 82.846 40.4586 83.1911 40.2202C83.0747 40.1382 82.9442 40.0476 82.8025 39.9499C82.522 39.7588 82.197 39.5406 81.8371 39.3068C80.6109 38.5112 79.4273 37.8229 78.3173 37.2613C78.0366 37.12 77.7273 36.9692 77.3994 36.8206C75.259 35.8485 72.3159 34.9111 71.2479 36.4682C70.7247 37.2306 70.6611 37.9971 71.057 38.7457C71.9612 40.4554 74.9417 41.7369 77.9962 41.7323L78.9943 41.6728C79.3562 41.6509 79.6674 41.9269 79.6893 42.2889C79.7112 42.6508 79.4352 42.962 79.0732 42.9839L78.0559 43.0447C78.0438 43.0454 78.0312 43.0455 78.0185 43.0456C74.4475 43.057 71.0308 41.5065 69.8961 39.36C69.2718 38.1794 69.368 36.8888 70.1651 35.7259C70.9542 34.5746 72.2877 34.126 74.126 34.3918Z" fill="#DB5C6E"/>
<path d="M84.8301 39.8317C84.8976 39.9319 84.9369 40.0503 84.9415 40.174C84.9487 40.3718 84.8663 40.5623 84.7173 40.6926C84.1046 41.2279 83.4102 41.682 82.6534 42.0418C82.3258 42.1976 81.9341 42.0572 81.7785 41.7309C81.6228 41.4035 81.7621 41.0117 82.0895 40.8559C82.4773 40.6715 82.8456 40.4586 83.1908 40.2196C82.842 39.9751 82.3786 39.6582 81.8365 39.3064C80.6108 38.5106 79.4268 37.8225 78.3172 37.2614C76.2059 36.1942 72.4798 34.6721 71.2478 36.468C70.7249 37.2304 70.6606 37.9968 71.0565 38.7455C71.961 40.4556 74.9414 41.7371 77.996 41.7326L78.9943 41.6725C79.3563 41.6508 79.6671 41.9265 79.6891 42.2884C79.7109 42.6503 79.4351 42.9614 79.0731 42.9832L78.0559 43.0444C78.0435 43.0452 78.031 43.0455 78.0185 43.0456C74.4473 43.0569 71.0305 41.5063 69.8957 39.3594C69.2715 38.1791 69.3671 36.8885 70.1649 35.7252C70.9543 34.5744 72.287 34.1258 74.1261 34.3917C75.4499 34.583 77.0592 35.1542 78.9096 36.0894C80.0612 36.6719 81.2865 37.3837 82.5515 38.2049C83.8156 39.0253 84.6451 39.6471 84.6798 39.6732C84.7391 39.7178 84.7897 39.7715 84.8301 39.8317Z" fill="#DB5C6E"/>
<path d="M90.0611 28.2706C89.52 28.2089 88.9706 28.2826 88.4671 28.4893C86.6794 29.2233 82.3312 31.505 77.9433 37.5732C77.3871 38.3419 77.1962 39.3172 77.4216 40.2388C79.1984 47.5134 82.3658 51.266 83.745 52.6189C84.1332 53.001 84.6143 53.2763 85.139 53.4223C94.9409 56.1608 103.01 57.7877 112.881 58.9971C114.423 59.1861 115.886 58.255 116.359 56.7757C118.425 50.3129 119.72 43.6991 120.242 36.9342C120.361 35.3855 119.358 33.9717 117.858 33.5656C108.26 30.9641 100.172 29.4299 90.0611 28.2706ZM86.779 40.6862C86.5095 42.0632 85.1745 42.9612 83.7975 42.6917C82.4204 42.4222 81.5225 41.0873 81.7919 39.7101C82.0615 38.333 83.3964 37.4351 84.7735 37.7046C86.1505 37.9741 87.0486 39.3091 86.779 40.6862Z" fill="#FFD064"/>
<path d="M83.7448 52.6188C84.1335 53.0009 84.6141 53.2762 85.1386 53.4223C94.941 56.1613 103.011 57.7873 112.881 58.9975C114.423 59.1865 115.886 58.2546 116.359 56.7757C116.395 56.6636 116.431 56.5509 116.466 56.4394C115.789 57.1032 114.731 57.444 113.614 57.2946C103.545 55.945 95.294 54.2888 85.2479 51.6173C84.7104 51.4756 84.2133 51.2221 83.8067 50.8788C82.6557 49.9111 80.3024 47.5857 78.3675 43.4596C80.1644 48.6508 82.5858 51.4818 83.7448 52.6188Z" fill="#FFC250"/>
<path d="M86.9372 38.414C87.3941 39.0934 87.5925 39.9467 87.4232 40.8119C87.0846 42.5422 85.4015 43.6744 83.6712 43.3357C82.833 43.1717 82.1089 42.691 81.6322 41.9823C81.1555 41.2737 80.9833 40.4219 81.1473 39.5836C81.4859 37.8533 83.169 36.7212 84.8993 37.0598C85.7645 37.2292 86.4801 37.7346 86.9372 38.414ZM82.7217 41.2494C83.0027 41.6671 83.4294 41.9503 83.9234 42.047C84.9432 42.2466 85.9351 41.5794 86.1346 40.5596C86.3341 39.5398 85.6668 38.548 84.6472 38.3486C83.6275 38.1489 82.6355 38.8162 82.4361 39.8359C82.3394 40.3298 82.4408 40.8318 82.7217 41.2494Z" fill="#FFC250"/>
<path d="M77.9552 35.6294C78.2656 35.7709 78.5838 35.924 78.9099 36.0886C80.0617 36.6717 81.2862 37.3831 82.5516 38.2041C82.9295 38.4489 83.2679 38.676 83.5577 38.8746C83.3857 39.2731 83.1315 39.6402 82.8024 39.9492C82.5219 39.7581 82.1969 39.5399 81.8371 39.3061C80.6108 38.5104 79.4272 37.8222 78.3172 37.2606C78.0365 37.1192 77.7272 36.9685 77.3993 36.8198C77.5005 36.3932 77.6877 35.9876 77.9552 35.6294Z" fill="#DB5C6E"/>
<path d="M90.3485 46.3598L88.8332 41.9075L88.937 41.3733L89.2041 41.4253C89.8516 41.5512 90.3633 41.5541 90.7395 41.4341C91.1237 41.3156 91.3913 41.0191 91.5424 40.5445L89.1873 40.0865L89.3384 39.3096L91.6813 39.7652C91.6885 39.2963 91.5378 38.9268 91.2292 38.6568C90.9286 38.3884 90.4708 38.1944 89.8557 38.0747L89.5886 38.0228L89.7397 37.2459L94.7656 38.2232L94.6145 39.0002L92.3201 38.554C92.6471 38.9452 92.7944 39.419 92.7618 39.9754L94.3642 40.287L94.2131 41.0639L92.635 40.757C92.4634 41.3368 92.1471 41.754 91.686 42.0087C91.2346 42.2569 90.6765 42.3626 90.0117 42.3257L91.5867 46.6006L90.3485 46.3598ZM97.4979 47.9013C96.9638 47.7975 96.5148 47.601 96.1511 47.3119C95.7874 47.0227 95.5187 46.6765 95.3452 46.2732C95.1732 45.8618 95.107 45.4248 95.1466 44.9621L96.3849 45.2029C96.3918 45.599 96.5116 45.9331 96.7443 46.2051C96.977 46.4772 97.3037 46.6541 97.7246 46.7359C98.3154 46.8508 98.8424 46.6888 99.3058 46.2497C99.7707 45.8026 100.138 45.0382 100.407 43.9567L100.322 43.9402C100.053 44.2407 99.7402 44.4696 99.382 44.6267C99.0239 44.7838 98.5535 44.8057 97.9708 44.6924C97.4852 44.598 97.0621 44.3981 96.7015 44.0928C96.3425 43.7794 96.0818 43.3927 95.9192 42.9328C95.7567 42.4728 95.7282 41.9717 95.8336 41.4295C95.9343 40.9115 96.1438 40.4609 96.4619 40.0776C96.7816 39.6862 97.177 39.4019 97.6482 39.2248C98.1291 39.0411 98.6609 39.006 99.2436 39.1193C99.9882 39.2641 100.566 39.5529 100.978 39.9856C101.39 40.4103 101.65 40.9522 101.757 41.6114C101.874 42.264 101.851 43.0071 101.689 43.8407C101.507 44.7795 101.217 45.5758 100.822 46.2295C100.434 46.8848 99.9544 47.3628 99.3836 47.6633C98.8225 47.9574 98.1939 48.0367 97.4979 47.9013ZM98.4621 43.5911C98.9639 43.6887 99.3944 43.6128 99.7537 43.3635C100.123 43.1077 100.353 42.7451 100.444 42.2757C100.537 41.7982 100.459 41.3757 100.212 41.0084C99.9736 40.6345 99.6037 40.3988 99.1019 40.3012C98.6002 40.2037 98.1656 40.2787 97.7983 40.5265C97.439 40.7758 97.2129 41.1392 97.1201 41.6167C97.0272 42.0941 97.0998 42.5198 97.3379 42.8937C97.5856 43.261 97.9604 43.4935 98.4621 43.5911ZM102.171 48.6589L102.369 47.6392C103.332 47.1377 104.179 46.6683 104.911 46.2311C105.651 45.7954 106.249 45.3532 106.706 44.9045C107.163 44.4558 107.443 43.9644 107.547 43.4302C107.634 42.9851 107.576 42.6127 107.374 42.313C107.173 42.0053 106.858 41.8097 106.43 41.7263C105.936 41.6302 105.525 41.7141 105.196 41.9778C104.869 42.2334 104.664 42.5757 104.581 43.0046L103.331 42.7614C103.455 42.1641 103.678 41.6867 104 41.3293C104.321 40.9718 104.709 40.7281 105.162 40.5979C105.624 40.4693 106.122 40.457 106.656 40.5608C107.522 40.7293 108.144 41.0938 108.522 41.6545C108.902 42.2071 109.016 42.8718 108.865 43.6488C108.769 44.1425 108.567 44.5987 108.259 45.0175C107.96 45.4298 107.597 45.8085 107.169 46.1536C106.74 46.4986 106.276 46.8156 105.774 47.1045C105.281 47.3949 104.787 47.6684 104.292 47.9249L108.128 48.6709L107.913 49.7756L102.171 48.6589Z" fill="#96711C"/>
</g>
<g clip-path="url(#clip3)">
<path d="M237.534 34.8076C237.489 34.8076 237.442 34.804 237.395 34.7967C236.182 34.606 235.247 33.9322 234.343 33.2807C233.801 32.8902 233.289 32.5212 232.749 32.2808C230.998 31.5013 229.12 32.1449 227.166 34.1936C226.827 34.549 226.264 34.5622 225.909 34.2234C225.553 33.8845 225.54 33.3216 225.879 32.9663C229.028 29.6645 231.746 29.8877 233.472 30.6563C234.18 30.9713 234.791 31.4118 235.382 31.8379C236.151 32.3919 236.878 32.9152 237.671 33.04C238.156 33.1163 238.488 33.5715 238.412 34.0566C238.343 34.4948 237.964 34.8076 237.534 34.8076Z" fill="#655E67"/>
<path d="M236.456 45.9671C236.213 45.9671 235.972 45.8686 235.796 45.6747C234.607 44.3606 234.148 42.6991 233.705 41.0923C233.59 40.6757 233.481 40.2822 233.36 39.8932C232.842 38.2309 231.688 36.804 230.349 36.1692C229.338 35.6902 228.283 35.6664 227.212 36.0983C226.756 36.282 226.238 36.0616 226.055 35.6063C225.871 35.1508 226.091 34.6327 226.547 34.4491C228.076 33.8323 229.654 33.8715 231.111 34.5622C232.911 35.4155 234.387 37.2106 235.058 39.3639C235.188 39.7809 235.306 40.207 235.419 40.6192C235.825 42.0906 236.209 43.4803 237.115 44.4812C237.444 44.8452 237.416 45.4075 237.052 45.7371C236.882 45.8912 236.669 45.9671 236.456 45.9671Z" fill="#655E67"/>
<path d="M227.026 21.2176C225.921 20.2454 224.642 19.9136 223.317 20.7264C222.505 21.224 221.55 21.2977 220.733 20.8143C220.137 20.462 219.484 20.2676 218.8 20.2676C218.116 20.2676 217.463 20.4621 216.867 20.8143C216.05 21.2977 215.095 21.224 214.283 20.7264C212.958 19.9137 211.679 20.2455 210.575 21.2176C208.842 22.7422 208.193 25.2634 210.291 28.8328C211.791 31.384 213.804 32.9576 215.464 33.0917C216.357 34.2088 221.243 34.2088 222.137 33.0917C223.796 32.9576 225.81 31.384 227.309 28.8328C229.407 25.2635 228.758 22.7422 227.026 21.2176Z" fill="#C77E67"/>
<path d="M225.398 36.667H212.203C212.203 36.667 197.282 54.5155 197.282 61.7551C197.282 69.8542 204.473 73.7494 208.317 73.7494H229.284C233.128 73.7494 240.319 69.8542 240.319 61.7551C240.319 54.5155 225.398 36.667 225.398 36.667Z" fill="#C77E67"/>
<path d="M227.026 21.2174C225.921 20.2452 224.642 19.9134 223.317 20.7262C223.232 20.7782 223.145 20.8246 223.058 20.8672C223.191 20.9723 223.323 21.0887 223.451 21.2174C224.975 22.742 225.546 25.2632 223.701 28.8326C222.381 31.3838 220.61 32.9574 219.15 33.0915C218.885 33.4683 218.219 33.7174 217.424 33.8401C219.199 34.081 221.545 33.8318 222.136 33.0915C223.796 32.9574 225.81 31.3838 227.309 28.8326C229.407 25.2634 228.758 22.742 227.026 21.2174Z" fill="#AC583E"/>
<path d="M225.398 36.666H222.019C222.019 36.666 235.147 54.5145 235.147 61.7542C235.147 69.8532 228.82 73.7484 225.438 73.7484H229.284C233.128 73.7484 240.319 69.8532 240.319 61.7542C240.319 54.5146 225.398 36.666 225.398 36.666Z" fill="#AC583E"/>
<path d="M227.604 39.4087C226.276 37.7167 225.398 36.666 225.398 36.666H212.203C212.203 36.666 211.325 37.7166 209.997 39.4087H227.604Z" fill="#AC583E"/>
<path d="M218.8 35.0967C218.046 35.0967 217.387 34.7188 217.044 34.1222C216.54 33.7696 215.808 32.7878 215.183 29.861C214.988 28.9466 214.856 28.0687 214.791 27.2521C214.752 26.7625 215.117 26.3341 215.607 26.2951C216.096 26.2545 216.525 26.6213 216.564 27.1108C216.623 27.8504 216.743 28.6507 216.923 29.4897C217.368 31.5762 217.86 32.4409 218.035 32.6302C218.296 32.7281 218.498 32.9436 218.577 33.2154C218.606 33.3173 218.792 33.3184 218.8 33.3184C218.808 33.3184 218.993 33.3173 219.023 33.2154C219.101 32.9436 219.304 32.7281 219.564 32.6302C219.74 32.441 220.232 31.5764 220.677 29.4899C220.855 28.6541 220.977 27.8532 221.037 27.109C221.077 26.6196 221.509 26.2552 221.996 26.2953C222.485 26.3353 222.85 26.7645 222.81 27.2539C222.743 28.0739 222.61 28.9509 222.416 29.861C221.791 32.7878 221.059 33.7696 220.556 34.1222C220.212 34.7189 219.553 35.0967 218.8 35.0967Z" fill="#7B3F2C"/>
<path d="M223.295 50.3735H221.758C221.639 49.7046 221.368 49.076 220.961 48.5298H223.295C223.786 48.5298 224.184 48.1318 224.184 47.6407C224.184 47.1497 223.786 46.7515 223.295 46.7515H214.305C213.814 46.7515 213.416 47.1495 213.416 47.6406C213.416 48.1317 213.814 48.5298 214.305 48.5298H217.427C218.127 48.5304 218.785 48.8033 219.28 49.2984C219.586 49.604 219.806 49.9721 219.931 50.3736H214.305C213.814 50.3736 213.416 50.7717 213.416 51.2627C213.416 51.7538 213.814 52.1518 214.305 52.1518H219.896C219.522 53.2241 218.507 53.9955 217.316 53.9955H215.47C214.908 53.9955 214.407 54.3099 214.163 54.8159C213.919 55.3219 213.984 55.9096 214.333 56.3497L219.762 63.1833C219.938 63.4043 220.197 63.5195 220.459 63.5195C220.653 63.5195 220.848 63.4564 221.011 63.3265C221.396 63.0211 221.46 62.4617 221.154 62.0772L216.147 55.7736H217.316C219.494 55.7736 221.317 54.2157 221.736 52.1517H223.295C223.786 52.1517 224.184 51.7537 224.184 51.2626C224.184 50.7715 223.786 50.3735 223.295 50.3735Z" fill="#F0E9E6"/>
<path d="M208.97 34.3406C208.97 35.6255 210.012 36.667 211.297 36.667H226.305C227.589 36.667 228.631 35.6253 228.631 34.3406C228.631 33.0557 227.589 32.0142 226.305 32.0142H211.297C210.012 32.0142 208.97 33.0557 208.97 34.3406Z" fill="#655E67"/>
<path d="M226.304 32.0142H223.028C224.313 32.0142 225.354 33.0558 225.354 34.3406C225.354 35.6253 224.313 36.667 223.028 36.667H226.304C227.589 36.667 228.63 35.6253 228.63 34.3406C228.63 33.0558 227.589 32.0142 226.304 32.0142Z" fill="#544F56"/>
<path d="M243.716 67.9995H228.191C226.603 67.9995 225.316 69.2865 225.316 70.8739C225.316 72.4614 226.603 73.7483 228.191 73.7483H243.716C245.304 73.7483 246.591 72.4614 246.591 70.8739C246.591 69.2864 245.304 67.9995 243.716 67.9995Z" fill="#F7E365"/>
<path d="M243.717 68H240.419C242.007 68 243.294 69.287 243.294 70.8744C243.294 72.462 242.007 73.7488 240.419 73.7488H243.717C245.304 73.7488 246.591 72.4619 246.591 70.8744C246.591 69.2869 245.304 68 243.717 68Z" fill="#ECC52E"/>
<path d="M243.717 62.2515H228.191C226.604 62.2515 225.317 63.5384 225.317 65.1259C225.317 66.7133 226.604 68.0003 228.191 68.0003H243.717C245.304 68.0003 246.591 66.7133 246.591 65.1259C246.591 63.5384 245.304 62.2515 243.717 62.2515Z" fill="#F7E365"/>
<path d="M243.717 65.7995H228.191C226.994 65.7995 225.967 65.0669 225.535 64.0254C225.395 64.3643 225.317 64.7359 225.317 65.1257C225.317 66.7131 226.604 68.0001 228.191 68.0001H243.717C245.304 68.0001 246.591 66.7131 246.591 65.1257C246.591 64.7359 246.513 64.3643 246.373 64.0254C245.941 65.0669 244.914 65.7995 243.717 65.7995Z" fill="#ECC52E"/>
<path d="M243.717 62.2515H240.42C242.007 62.2515 243.294 63.5384 243.294 65.1259C243.294 66.7133 242.007 68.0003 240.42 68.0003H243.717C245.304 68.0003 246.591 66.7133 246.591 65.1259C246.591 63.5384 245.304 62.2515 243.717 62.2515Z" fill="#ECC52E"/>
<path d="M255.819 69.4366L248.057 55.9914C247.263 54.6166 245.505 54.1455 244.13 54.9393C242.755 55.7331 242.284 57.4911 243.078 58.8659L250.841 72.3113C251.634 73.686 253.392 74.1572 254.767 73.3633C256.142 72.5695 256.613 70.8115 255.819 69.4366Z" fill="#F7E365"/>
<path d="M255.819 69.4369L254.17 66.5815C254.964 67.9563 254.493 69.7143 253.118 70.5082C251.743 71.3019 249.985 70.8308 249.191 69.4561L250.84 72.3114C251.634 73.6862 253.392 74.1573 254.766 73.3635C256.141 72.5697 256.612 70.8116 255.819 69.4369Z" fill="#ECC52E"/>
</g>
<circle cx="185.676" cy="73.7904" r="27.6756" fill="white"/>
<g clip-path="url(#clip4)">
<path d="M200.061 58.8012C199.795 58.7302 199.605 58.4961 199.591 58.2217L199.561 57.65C199.545 57.3762 199.355 57.1434 199.09 57.073C198.825 57.0026 198.544 57.1108 198.395 57.3409L198.084 57.8196C197.934 58.0509 197.652 58.1591 197.386 58.0869L196.835 57.939C196.568 57.8661 196.285 57.9743 196.135 58.2066C195.984 58.4388 196.001 58.7414 196.177 58.955L196.536 59.3996C196.67 59.5667 196.71 59.7906 196.642 59.994L200.296 58.8648L200.061 58.8012Z" fill="#FFE165"/>
<path d="M200.612 58.9481L200.294 58.8628L196.642 59.9867C196.628 60.0397 196.606 60.0906 196.579 60.138L196.268 60.6161C196.118 60.8471 196.133 61.1488 196.307 61.363C196.481 61.577 196.773 61.6545 197.03 61.5546L197.562 61.35C197.818 61.2508 198.11 61.3277 198.283 61.5407L198.642 61.985C198.815 62.1989 199.106 62.277 199.363 62.1784C199.62 62.0798 199.784 61.8272 199.77 61.5525L199.74 60.981C199.726 60.7063 199.89 60.4536 200.146 60.3551L200.679 60.1504C200.932 60.0497 201.093 59.7979 201.078 59.5254C201.063 59.2525 200.875 59.02 200.612 58.9481Z" fill="#FFD839"/>
<path d="M179.479 59.6082C179.655 59.3949 179.672 59.0919 179.522 58.8597C179.371 58.6275 179.088 58.5193 178.821 58.5925L176.107 59.322C176.024 59.3425 175.938 59.3456 175.853 59.3307L172.236 66.104L172.202 66.769C172.187 67.0437 172.352 67.2967 172.609 67.3953C172.865 67.4939 173.157 67.4161 173.33 67.2019L175.098 65.0182C175.271 64.8055 175.563 64.7286 175.819 64.8278L178.442 65.8342C178.699 65.9341 178.991 65.8566 179.165 65.6426C179.339 65.4287 179.355 65.1267 179.204 64.8957L177.669 62.5369C177.519 62.3062 177.535 62.0052 177.708 61.7912L179.479 59.6082Z" fill="#FF9811"/>
<path d="M175.409 59.056L173.879 56.6997C173.728 56.4718 173.448 56.3661 173.185 56.4367C172.921 56.5074 172.732 56.7387 172.716 57.0113L172.565 59.8178C172.551 60.0928 172.361 60.3272 172.096 60.3982L169.382 61.124C169.116 61.195 168.926 61.4294 168.912 61.7041C168.897 61.9792 169.061 62.2322 169.318 62.3304L171.941 63.3369C172.198 63.4355 172.362 63.6885 172.348 63.9632L172.235 66.104L175.85 59.3307C175.67 59.3069 175.51 59.2067 175.409 59.056Z" fill="#FFAF46"/>
<path d="M191.393 70.0578L186.706 62.8415C186.406 62.3798 185.844 62.1637 185.312 62.306C184.78 62.4486 184.401 62.9171 184.372 63.4668L183.922 72.0601C183.893 72.6092 183.514 73.0777 182.983 73.22L174.671 75.4471C174.139 75.5891 173.759 76.0576 173.73 76.6073C173.701 77.157 174.03 77.663 174.544 77.8599L182.578 80.9433C183.092 81.1405 183.42 81.6459 183.391 82.1956L182.99 89.8457L191.946 70.5195C191.72 70.4234 191.528 70.2628 191.393 70.0578Z" fill="#FFD839"/>
<path d="M202.414 70.3918C202.76 69.9642 202.791 69.363 202.492 68.902C202.193 68.4409 201.631 68.2245 201.1 68.3662L192.787 70.593C192.507 70.6658 192.21 70.6398 191.947 70.5192L182.99 89.8454L182.94 90.7883C182.911 91.338 183.239 91.8437 183.753 92.0408C184.267 92.2377 184.849 92.0818 185.195 91.6539L190.61 84.9668C190.956 84.5392 191.539 84.3833 192.052 84.5802L200.086 87.6642C200.599 87.8623 201.182 87.707 201.529 87.2794C201.876 86.8519 201.908 86.2498 201.608 85.7878L196.92 78.5702C196.621 78.1088 196.653 77.5067 196.999 77.0792L202.414 70.3918Z" fill="#FFCD00"/>
</g>
<g clip-path="url(#clip5)">
<path d="M230.108 31.5767C231.192 31.3737 232.541 31.353 234.132 31.5133C234.471 31.5471 234.822 31.5894 235.183 31.64C236.462 31.8203 237.85 32.0986 239.313 32.4674C239.75 32.5772 240.143 32.683 240.482 32.7775C241.278 33.0008 241.773 33.161 241.801 33.1708C241.872 33.1937 241.937 33.2286 241.994 33.2726C242.091 33.3457 242.166 33.4447 242.21 33.5599C242.282 33.7452 242.265 33.9523 242.166 34.1232C241.759 34.8277 241.247 35.4813 240.647 36.0666C240.388 36.32 239.972 36.3128 239.719 36.0548C239.466 35.795 239.471 35.3789 239.731 35.1255C240.039 34.8263 240.319 34.5058 240.568 34.1688C240.432 34.1288 240.279 34.0851 240.113 34.0384C239.786 33.9479 239.408 33.8463 238.992 33.7411C237.575 33.3836 236.233 33.114 235.001 32.9406C234.689 32.8974 234.348 32.8544 233.99 32.8195C231.65 32.5901 228.562 32.6523 228.053 34.4707C227.804 35.3612 227.991 36.1072 228.608 36.688C230.015 38.0146 233.25 38.266 236.139 37.2761L237.065 36.8978C237.4 36.7603 237.784 36.9211 237.921 37.2567C238.059 37.5922 237.898 37.9757 237.562 38.1133L236.619 38.499C236.608 38.5037 236.596 38.5078 236.584 38.512C233.208 39.6748 229.473 39.3097 227.707 37.644C226.735 36.728 226.41 35.4753 226.789 34.1174C227.165 32.7731 228.282 31.9183 230.108 31.5767Z" fill="#DB5C6E"/>
<path d="M241.995 33.2723C242.091 33.3454 242.166 33.4447 242.21 33.5604C242.281 33.7452 242.265 33.9522 242.166 34.1235C241.758 34.8279 241.247 35.4817 240.647 36.0665C240.387 36.3196 239.971 36.3132 239.719 36.0545C239.466 35.7948 239.471 35.3791 239.731 35.126C240.038 34.8262 240.318 34.5059 240.568 34.1684C240.159 34.0495 239.618 33.899 238.992 33.7409C237.575 33.3831 236.232 33.1139 235.001 32.9407C232.658 32.6118 228.64 32.3732 228.053 34.4705C227.804 35.3609 227.991 36.107 228.607 36.688C230.015 38.0148 233.249 38.2662 236.139 37.2764L237.065 36.8975C237.4 36.7602 237.783 36.9209 237.921 37.2563C238.058 37.5918 237.898 37.9752 237.562 38.1127L236.619 38.4988C236.608 38.5035 236.596 38.5079 236.584 38.5119C233.208 39.6749 229.473 39.3095 227.706 37.6435C226.735 36.7278 226.409 35.4753 226.789 34.1168C227.165 32.7729 228.281 31.9183 230.108 31.5766C231.423 31.3306 233.13 31.3521 235.183 31.6403C236.461 31.8201 237.851 32.0985 239.313 32.4676C240.774 32.8363 241.76 33.1573 241.801 33.1708C241.872 33.1939 241.937 33.2284 241.995 33.2723Z" fill="#DB5C6E"/>
<path d="M243.216 20.642C242.684 20.7582 242.187 21.0052 241.777 21.3632C240.322 22.6347 236.943 26.1973 234.747 33.3567C234.469 34.2637 234.603 35.2484 235.113 36.0481C239.142 42.3604 243.351 44.8904 245.093 45.726C245.584 45.9624 246.128 46.0678 246.672 46.0367C256.833 45.4663 264.996 44.4027 274.729 42.3629C276.249 42.0444 277.333 40.6911 277.304 39.1382C277.174 32.3544 276.266 25.6767 274.578 19.1049C274.191 17.6006 272.785 16.5863 271.235 16.6857C261.31 17.32 253.16 18.4772 243.216 20.642ZM244.115 33.4525C244.304 34.8428 243.33 36.1236 241.94 36.3127C240.549 36.502 239.269 35.5281 239.08 34.1377C238.89 32.7473 239.864 31.4667 241.255 31.2774C242.645 31.0883 243.926 32.0622 244.115 33.4525Z" fill="#FFD064"/>
<path d="M245.092 45.7265C245.583 45.9628 246.127 46.0682 246.671 46.0374C256.833 45.4673 264.995 44.4028 274.728 42.3638C276.249 42.0453 277.333 40.6912 277.304 39.1386C277.302 39.021 277.299 38.9028 277.296 38.7859C276.87 39.6325 275.978 40.2967 274.873 40.5156C264.906 42.4868 256.563 43.581 246.192 44.2936C245.637 44.3328 245.085 44.2534 244.589 44.0596C243.188 43.5149 240.21 42.0732 237.047 38.792C240.423 43.1259 243.628 45.0242 245.092 45.7265Z" fill="#FFC250"/>
<path d="M243.532 31.2507C244.183 31.7463 244.646 32.4901 244.765 33.3636C245.003 35.1106 243.775 36.7252 242.028 36.963C241.182 37.0781 240.341 36.8568 239.662 36.3398C238.982 35.8229 238.544 35.0722 238.429 34.2258C238.191 32.4788 239.419 30.8641 241.166 30.6264C242.039 30.5076 242.88 30.7551 243.532 31.2507ZM240.456 35.2946C240.857 35.5993 241.352 35.7297 241.851 35.6618C242.881 35.5217 243.604 34.5701 243.464 33.5406C243.324 32.5109 242.372 31.7874 241.343 31.9276C240.313 32.0676 239.59 33.0192 239.73 34.0488C239.798 34.5475 240.056 34.9899 240.456 35.2946Z" fill="#FFC250"/>
<path d="M234.131 31.5135C234.471 31.5473 234.821 31.5896 235.183 31.6402C236.461 31.8205 237.85 32.0988 239.313 32.4676C239.749 32.5775 240.143 32.6833 240.481 32.7778C240.447 33.2104 240.325 33.6399 240.113 34.0385C239.786 33.9481 239.408 33.8465 238.992 33.7413C237.574 33.3838 236.232 33.1142 235 32.9407C234.689 32.8975 234.348 32.8546 233.989 32.8197C233.947 32.3833 233.994 31.9389 234.131 31.5135Z" fill="#DB5C6E"/>
<path d="M249.324 37.672L246.453 33.9467L246.379 33.4076L246.649 33.3706C247.302 33.2809 247.787 33.1186 248.105 32.8836C248.43 32.6475 248.588 32.2805 248.578 31.7826L246.201 32.1089L246.093 31.3247L248.458 31.0001C248.313 30.5539 248.051 30.2528 247.672 30.0968C247.301 29.9397 246.805 29.9038 246.184 29.989L245.915 30.026L245.807 29.2419L250.879 28.5455L250.987 29.3296L248.671 29.6476C249.107 29.9123 249.4 30.3132 249.548 30.8504L251.165 30.6284L251.273 31.4125L249.68 31.6312C249.705 32.2353 249.54 32.7323 249.186 33.1221C248.839 33.5027 248.345 33.7827 247.703 33.9623L250.573 37.5005L249.324 37.672ZM253.86 37.0492L253.701 35.8853L255.82 35.5943L255.013 29.7132L253.042 30.3583L252.897 29.3046L255.305 28.1127L256.101 28.0034L257.119 35.416L259.398 35.1031L259.558 36.2671L253.86 37.0492ZM264.094 35.7941C263.432 35.8849 262.828 35.7848 262.28 35.4938C261.741 35.2017 261.291 34.7434 260.93 34.1187C260.569 33.486 260.326 32.7162 260.202 31.8096C260.076 30.8947 260.103 30.088 260.281 29.3894C260.46 28.6908 260.77 28.1281 261.21 27.7014C261.659 27.2736 262.215 27.0143 262.876 26.9235C263.546 26.8315 264.151 26.9316 264.69 27.2237C265.229 27.5159 265.679 27.9742 266.04 28.5988C266.4 29.2234 266.643 29.9932 266.769 30.908C266.893 31.8147 266.867 32.6214 266.689 33.3282C266.51 34.0268 266.201 34.5895 265.76 35.0161C265.319 35.4428 264.764 35.7021 264.094 35.7941ZM261.525 31.6279C261.588 32.0853 261.686 32.4963 261.819 32.8608C261.952 33.2253 262.111 33.5364 262.296 33.7939L263.712 28.1943C263.495 28.1244 263.271 28.1051 263.043 28.1365C262.471 28.215 262.041 28.5694 261.753 29.1998C261.464 29.822 261.388 30.6314 261.525 31.6279ZM263.929 34.5934C264.313 34.5407 264.634 34.3634 264.892 34.0617C265.15 33.7599 265.328 33.3569 265.425 32.8525C265.53 32.3389 265.536 31.7513 265.445 31.0897C265.383 30.6322 265.285 30.2213 265.151 29.8568C265.018 29.4922 264.859 29.1853 264.675 28.9359L263.26 34.5355C263.477 34.6055 263.7 34.6248 263.929 34.5934ZM271.441 34.7855C270.852 34.8662 270.319 34.8272 269.839 34.6683C269.368 34.5083 268.979 34.2538 268.673 33.9046C268.367 33.5555 268.18 33.1318 268.112 32.6335C268.039 32.1026 268.117 31.6384 268.345 31.2409C268.58 30.834 268.864 30.5371 269.196 30.35L269.186 30.2765C268.828 30.151 268.521 29.9476 268.266 29.6663C268.011 29.3851 267.853 29.0239 267.793 28.5829C267.736 28.1663 267.794 27.7713 267.967 27.398C268.139 27.0165 268.416 26.6956 268.796 26.4353C269.175 26.1669 269.651 25.9934 270.223 25.9149C270.786 25.8376 271.287 25.877 271.724 26.0333C272.161 26.1815 272.514 26.416 272.782 26.737C273.058 27.0486 273.225 27.4127 273.282 27.8293C273.342 28.2704 273.288 28.6607 273.118 29.0002C272.948 29.3398 272.708 29.6183 272.396 29.8358L272.406 29.9093C272.785 29.9988 273.138 30.2083 273.466 30.5378C273.793 30.859 273.993 31.2851 274.066 31.8161C274.135 32.3143 274.069 32.7728 273.868 33.1914C273.676 33.609 273.37 33.9589 272.951 34.2411C272.532 34.5233 272.029 34.7048 271.441 34.7855ZM270.729 29.6028C271.186 29.54 271.53 29.3723 271.758 29.0995C271.995 28.8256 272.088 28.5008 272.037 28.1251C271.985 27.7493 271.808 27.4615 271.506 27.2617C271.212 27.0607 270.837 26.9916 270.379 27.0544C269.922 27.1172 269.575 27.2855 269.338 27.5594C269.109 27.8322 269.02 28.1564 269.072 28.5321C269.123 28.9079 269.296 29.1962 269.59 29.3972C269.892 29.5971 270.272 29.6656 270.729 29.6028ZM271.279 33.6093C271.785 33.5398 272.177 33.3571 272.452 33.0613C272.727 32.7573 272.832 32.3725 272.768 31.9069C272.704 31.4413 272.5 31.1032 272.154 30.8926C271.808 30.6739 271.382 30.5993 270.875 30.6688C270.369 30.7383 269.978 30.9251 269.704 31.2291C269.428 31.5249 269.323 31.9056 269.386 32.3712C269.45 32.8367 269.655 33.1789 270.002 33.3977C270.347 33.6083 270.773 33.6788 271.279 33.6093Z" fill="#96711C"/>
</g>
<defs>
<clipPath id="clip0">
<rect width="58.9223" height="58.9223" fill="white" transform="translate(39.2817 21.0801)"/>
</clipPath>
<clipPath id="clip1">
<rect width="33.925" height="33.925" fill="white" transform="translate(10.7129 56.7905)"/>
</clipPath>
<clipPath id="clip2">
<rect width="44.1682" height="44.1682" fill="white" transform="translate(92.6709 73.5469) rotate(-123.927)"/>
</clipPath>
<clipPath id="clip3">
<rect width="58.9223" height="58.9223" fill="white" transform="translate(197.281 17.5464)"/>
</clipPath>
<clipPath id="clip4">
<rect width="35.7105" height="35.7105" fill="white" transform="translate(167.886 56.4146)"/>
</clipPath>
<clipPath id="clip5">
<rect width="44.1682" height="44.1682" fill="white" transform="translate(260.293 62.6558) rotate(-142.749)"/>
</clipPath>
</defs>
</svg>
