<svg width="305" height="142" viewBox="0 0 305 142" fill="none" xmlns="http://www.w3.org/2000/svg">
<path d="M26.99 136.81V132H28.1V139H27.15L23.86 133.91V139H22.75V132H23.86V132.01L23.87 132L26.99 136.81ZM37.6604 139.13C37.0071 139.13 36.4037 138.97 35.8504 138.65C35.2971 138.323 34.8571 137.883 34.5304 137.33C34.2104 136.777 34.0504 136.173 34.0504 135.52C34.0504 134.867 34.2104 134.263 34.5304 133.71C34.8571 133.157 35.2971 132.72 35.8504 132.4C36.4037 132.073 37.0071 131.91 37.6604 131.91C38.3137 131.91 38.9171 132.073 39.4704 132.4C40.0237 132.72 40.4604 133.157 40.7804 133.71C41.1071 134.263 41.2704 134.867 41.2704 135.52C41.2704 136.173 41.1071 136.777 40.7804 137.33C40.4604 137.883 40.0237 138.323 39.4704 138.65C38.9171 138.97 38.3137 139.13 37.6604 139.13ZM37.6604 138.02C38.1137 138.02 38.5304 137.91 38.9104 137.69C39.2971 137.463 39.6004 137.16 39.8204 136.78C40.0471 136.393 40.1604 135.973 40.1604 135.52C40.1604 135.067 40.0471 134.65 39.8204 134.27C39.6004 133.883 39.2971 133.58 38.9104 133.36C38.5304 133.133 38.1137 133.02 37.6604 133.02C37.2071 133.02 36.7871 133.133 36.4004 133.36C36.0204 133.58 35.7171 133.883 35.4904 134.27C35.2704 134.65 35.1604 135.067 35.1604 135.52C35.1604 135.973 35.2704 136.393 35.4904 136.78C35.7171 137.16 36.0204 137.463 36.4004 137.69C36.7871 137.91 37.2071 138.02 37.6604 138.02ZM53.3276 137.28L54.7576 132H55.8976L53.9576 139H52.7476L51.1976 133.88L49.6476 139H48.4376L46.4976 132H47.6376L49.0676 137.28L50.6176 132H51.7776L53.3276 137.28Z" fill="#FFBA70"/>
<path d="M150.689 132V137.95H152.659V139H147.459V137.95H149.579V133.17L148.369 133.82L147.799 132.95L149.579 132.01V132H150.689ZM170.565 132H171.825L169.295 136.41V139H168.185V136.43L165.645 132H166.905L168.735 135.16L170.565 132ZM178.588 135.98V137.95H181.618V139H177.478V132H181.568V133.05H178.588V134.93H181.318V135.98H178.588ZM193.59 139H192.4L191.83 137.49H188.92L188.35 139H187.15L189.77 132H190.97L193.59 139ZM190.38 133.59L189.31 136.44H191.44L190.38 133.59ZM203.257 139L201.837 136.49H200.297V139H199.187V132H201.967C202.373 132 202.747 132.1 203.087 132.3C203.433 132.5 203.707 132.773 203.907 133.12C204.113 133.46 204.217 133.833 204.217 134.24C204.217 134.673 204.103 135.07 203.877 135.43C203.65 135.79 203.35 136.063 202.977 136.25L204.527 139H203.257ZM200.297 133.06V135.43H201.967C202.293 135.43 202.573 135.313 202.807 135.08C203.04 134.847 203.157 134.567 203.157 134.24C203.157 133.913 203.04 133.637 202.807 133.41C202.573 133.177 202.293 133.06 201.967 133.06H200.297ZM219.154 132V137.95H222.224V139H218.044V132H219.154ZM234.195 139H233.005L232.435 137.49H229.525L228.955 139H227.755L230.375 132H231.575L234.195 139ZM230.985 133.59L229.915 136.44H232.045L230.985 133.59ZM243.326 132V133.05H241.326V139H240.216V133.05H238.226V132H243.326ZM250.267 135.98V137.95H253.297V139H249.157V132H253.247V133.05H250.267V134.93H252.997V135.98H250.267ZM263.452 139L262.032 136.49H260.492V139H259.382V132H262.162C262.569 132 262.942 132.1 263.282 132.3C263.629 132.5 263.902 132.773 264.102 133.12C264.309 133.46 264.412 133.833 264.412 134.24C264.412 134.673 264.299 135.07 264.072 135.43C263.845 135.79 263.545 136.063 263.172 136.25L264.722 139H263.452ZM260.492 133.06V135.43H262.162C262.489 135.43 262.769 135.313 263.002 135.08C263.235 134.847 263.352 134.567 263.352 134.24C263.352 133.913 263.235 133.637 263.002 133.41C262.769 133.177 262.489 133.06 262.162 133.06H260.492Z" fill="#FFBA70"/>
<g clip-path="url(#clip0)">
<path d="M71.9025 73.8884H8.12622C5.93506 73.8884 4.15894 75.6646 4.15894 77.8557V81.3311C4.15894 82.1935 4.8584 82.8923 5.72083 82.8923H74.3079C75.1703 82.8923 75.8698 82.1935 75.8698 81.3311V77.8557C75.8698 75.6652 74.0936 73.8884 71.9025 73.8884Z" fill="#912C2C"/>
<path d="M71.9025 73.8884H66.5582V82.8923H74.3079C75.1703 82.8923 75.8698 82.1929 75.8698 81.3304V77.8557C75.8698 75.6646 74.0936 73.8884 71.9025 73.8884Z" fill="#7C1E1E"/>
<path d="M74.5709 69.1497C76.6364 69.1497 78.3771 70.8654 78.3789 73.0187C78.3807 76.0942 74.8749 77.7214 70.802 77.1251C66.9977 76.5685 66.9495 74.8186 63.0975 74.8186C59.245 74.8186 59.245 77.1251 55.3931 77.1251C51.5405 77.1251 51.5405 74.8186 47.6886 74.8186C43.8367 74.8186 43.8367 77.1251 39.9841 77.1251C36.1322 77.1251 36.1322 74.8186 32.2797 74.8186C28.4277 74.8186 28.4277 77.1251 24.5758 77.1251C20.7233 77.1251 20.7233 74.8186 16.8707 74.8186C13.0188 74.8186 12.9706 76.5685 9.16626 77.1251C5.09338 77.7214 1.58753 76.0942 1.58997 73.0187C1.59119 70.8654 3.33252 69.1497 5.39795 69.1497H74.5709Z" fill="#A0E557"/>
<path d="M78.3789 73.0187C78.3771 70.8654 76.6364 69.1497 74.5709 69.1497H68.7897V76.6277C69.3365 76.8297 69.9817 77.0055 70.802 77.1251C74.8749 77.7214 78.3807 76.0942 78.3789 73.0187Z" fill="#93CC4A"/>
<path d="M76.7523 82.093H3.24768C1.45447 82.093 0 83.5469 0 85.3407C0 94.6663 7.55981 102.225 16.8848 102.225H63.1152C72.4402 102.225 80 94.6663 80 85.3413C80 83.5469 78.5455 82.093 76.7523 82.093Z" fill="#EFA335"/>
<path d="M76.7523 82.093H70.7056V88.589C70.7056 96.1207 64.6002 102.226 57.0685 102.226H63.1152C72.4402 102.225 80 94.6663 80 85.3413C80 83.5469 78.5455 82.093 76.7523 82.093Z" fill="#FD8F31"/>
<path d="M71.8884 65.0154H8.11157C5.92102 65.0154 4.1449 63.2393 4.1449 61.0487V57.5734C4.1449 56.7109 4.84375 56.0115 5.70618 56.0115H74.2938C75.1562 56.0115 75.8551 56.7109 75.8551 57.5734V61.0487C75.8551 63.2393 74.079 65.0154 71.8884 65.0154Z" fill="#FC4E51"/>
<path d="M74.2938 56.012H66.5729V62.6099C66.5729 63.9386 65.4962 65.0153 64.1675 65.0153H71.8884C74.079 65.0153 75.8551 63.2391 75.8551 61.0486V57.5732C75.8551 56.7108 75.1562 56.012 74.2938 56.012Z" fill="#EA3942"/>
<path d="M75.2379 64.2615H4.8363C3.24023 64.2615 1.88403 65.5676 1.91394 67.1637C1.94323 68.7122 3.20666 69.9579 4.76184 69.9579H49.4927C50.2196 69.9579 50.9221 70.2173 51.4739 70.6903L57.8221 76.1298C59.6764 77.7185 62.445 77.5995 64.1558 75.8575L69.0575 70.8685C69.63 70.2856 70.4125 69.9579 71.2291 69.9579H75.1635C76.7601 69.9579 78.1157 68.6511 78.0858 67.0551C78.0565 65.5072 76.7931 64.2615 75.2379 64.2615Z" fill="#FCCF3F"/>
<path d="M40 27.6562C2.75757 27.6703 0 52.2382 0 55.7172C0 57.511 1.45447 58.9655 3.24768 58.9655H76.7523C78.5455 58.9655 80 57.511 80 55.7172C80 52.2382 77.2424 27.6703 40 27.6562Z" fill="#EFA335"/>
<path d="M79.9994 55.625C79.9994 55.6146 79.9988 55.6036 79.9988 55.5933C79.9982 55.5701 79.9982 55.5463 79.9976 55.5219C79.9969 55.5103 79.9969 55.498 79.9963 55.4865C79.9957 55.4608 79.9951 55.4352 79.9939 55.4083C79.9933 55.3961 79.9927 55.3839 79.9927 55.3717C79.9915 55.343 79.9902 55.3131 79.9884 55.2826C79.9884 55.2716 79.9878 55.2612 79.9872 55.2502C79.9854 55.2142 79.9835 55.1776 79.9811 55.1398C79.9811 55.1337 79.9805 55.127 79.9799 55.1208C79.9658 54.8853 79.9438 54.6118 79.9103 54.3054C79.9103 54.3048 79.9103 54.3042 79.9103 54.3042C79.2273 48.0273 73.9014 27.6691 40 27.6562C38.3868 27.6569 36.8396 27.7045 35.3528 27.7936C57.915 29.1449 66.1633 40.257 69.1156 48.1549C70.3577 51.4783 67.8729 55.0153 64.3256 55.0153H3.24768C1.9104 55.0153 0.762329 54.2065 0.264282 53.0511C0.0567627 54.2841 0 55.2179 0 55.7172C0 57.511 1.45447 58.9655 3.24768 58.9655H76.7523C78.5455 58.9655 80 57.511 80 55.7172C80 55.6879 79.9994 55.6573 79.9994 55.625Z" fill="#FD8F31"/>
<path d="M75.238 64.2615H68.7897V71.1414L69.057 70.8685C69.6295 70.2856 70.4126 69.9579 71.2292 69.9579H75.1636C76.7596 69.9579 78.1158 68.6511 78.0859 67.0551C78.0566 65.5072 76.7932 64.2615 75.238 64.2615Z" fill="#EFC03C"/>
</g>
<g clip-path="url(#clip1)">
<path d="M69.9302 42.1254C70.9351 41.385 72.3008 40.6996 74.0011 40.0801C74.3637 39.9475 74.7419 39.818 75.1356 39.6916C76.5275 39.2461 78.08 38.8464 79.7526 38.5024C80.2518 38.3995 80.7051 38.3136 81.0965 38.2434C82.0188 38.0788 82.6013 37.9989 82.6356 37.9946C82.7188 37.9832 82.802 37.987 82.8825 38.0033C83.0166 38.0306 83.1422 38.0944 83.244 38.19C83.408 38.3437 83.4928 38.5631 83.4759 38.7862C83.4077 39.7047 83.2082 40.6228 82.8845 41.5147C82.7445 41.9009 82.317 42.0982 81.9327 41.9595C81.5465 41.8194 81.3471 41.3925 81.4871 41.0064C81.6537 40.5499 81.7814 40.0853 81.87 39.6189C81.711 39.6453 81.5339 39.676 81.3419 39.7099C80.9639 39.7787 80.5286 39.8612 80.0527 39.9587C78.4318 40.292 76.9306 40.6778 75.5895 41.1074C75.2509 41.2166 74.8818 41.3408 74.4993 41.4816C72.0013 42.3993 68.8839 43.9828 69.2605 46.0868C69.4447 47.1172 70.0026 47.7856 70.9168 48.0744C73.0045 48.734 76.4257 47.3981 78.8841 44.9667L79.6415 44.1255C79.9158 43.8201 80.3861 43.7952 80.6914 44.0697C80.9967 44.344 81.0215 44.8142 80.7471 45.1196L79.9754 45.9771C79.9663 45.9874 79.9561 45.9975 79.946 46.0076C77.0764 48.8549 73.0899 50.3208 70.4691 49.4923C69.0276 49.0368 68.0793 47.92 67.7976 46.349C67.5187 44.7937 68.2371 43.3722 69.9302 42.1254Z" fill="#DB5C6E"/>
<path d="M82.8828 38.003C83.0169 38.0302 83.1427 38.0943 83.2447 38.1905C83.4077 38.3441 83.4927 38.5632 83.4762 38.7866C83.4077 39.7052 83.2088 40.6231 82.8848 41.5147C82.7445 41.9006 82.3171 42.0988 81.9324 41.9594C81.5466 41.8192 81.3475 41.3927 81.4876 41.0069C81.6537 40.55 81.7813 40.0856 81.8697 39.6187C81.3942 39.6988 80.7687 39.8117 80.0522 39.9588C78.4317 40.2916 76.9303 40.678 75.5898 41.1075C73.0398 41.9253 68.8264 43.6598 69.2606 46.0866C69.4451 47.1169 70.0023 47.7858 70.9165 48.0746C73.0049 48.7342 76.4259 47.3984 78.8846 44.9671L79.6416 44.1252C79.9162 43.82 80.3859 43.7952 80.6912 44.0695C80.9964 44.3439 81.0214 44.8138 80.7469 45.1191L79.9756 45.9769C79.9662 45.9874 79.9563 45.9976 79.9463 46.0076C77.0766 48.8551 73.0898 50.3208 70.4687 49.4921C69.0275 49.0367 68.0788 47.9203 67.7973 46.3485C67.5191 44.7935 68.2367 43.3727 69.9306 42.1253C71.1497 41.2274 72.9011 40.4087 75.136 39.6919C76.5273 39.2462 78.0806 38.8461 79.753 38.5027C81.4241 38.1593 82.587 38.0013 82.6357 37.9948C82.719 37.9836 82.8024 37.9867 82.8828 38.003Z" fill="#DB5C6E"/>
<path d="M77.9105 24.5262C77.4253 24.9066 77.041 25.4026 76.7993 25.9694C75.9417 27.9819 74.2501 33.2771 75.5359 41.6562C75.6985 42.7179 76.3198 43.6558 77.234 44.2196C84.448 48.6716 89.9838 49.1791 92.1708 49.1735C92.7875 49.173 93.3941 49.0126 93.9331 48.7132C104.011 43.1302 111.809 38.028 120.727 31.1579C122.12 30.0848 122.559 28.1715 121.765 26.6028C118.294 19.7511 114.081 13.3909 109.125 7.52226C107.991 6.17908 106.058 5.83732 104.526 6.7017C94.7214 12.2333 86.9825 17.4246 77.9105 24.5262ZM85.1326 37.1431C86.0098 38.4673 85.6473 40.2522 84.3232 41.1294C82.9989 42.0067 81.214 41.6443 80.3367 40.32C79.4595 38.9957 79.822 37.2108 81.1462 36.3335C82.4705 35.4564 84.2554 35.8188 85.1326 37.1431Z" fill="#FFD064"/>
<path d="M92.1709 49.1734C92.7879 49.1725 93.3941 49.0124 93.933 48.7133C104.012 43.1304 111.809 38.0273 120.728 31.1579C122.121 30.085 122.56 28.1708 121.765 26.6025C121.705 26.4836 121.645 26.3645 121.584 26.2466C121.566 27.3195 120.984 28.4358 119.965 29.2029C110.775 36.1178 102.808 41.3403 92.5866 47.1714C92.0406 47.4843 91.4385 47.6752 90.8379 47.7215C89.1408 47.8563 85.3957 47.8522 80.5566 46.0639C86.131 48.8205 90.3329 49.1779 92.1709 49.1734Z" fill="#FFC250"/>
<path d="M83.4546 35.1858C84.363 35.3702 85.2012 35.9004 85.7523 36.7324C86.8546 38.3963 86.3976 40.6467 84.7337 41.749C83.9276 42.2829 82.9619 42.471 82.0143 42.2786C81.0669 42.0862 80.2511 41.5364 79.717 40.7303C78.6148 39.0664 79.0717 36.816 80.7356 35.7138C81.5677 35.1626 82.5462 35.0013 83.4546 35.1858ZM82.3101 40.8218C82.8686 40.9352 83.4377 40.8243 83.9127 40.5096C84.8934 39.8601 85.1627 38.5338 84.513 37.5533C83.8633 36.5725 82.5371 36.3035 81.5567 36.953C80.576 37.6026 80.3067 38.9288 80.9564 39.9094C81.271 40.3844 81.7518 40.7084 82.3101 40.8218Z" fill="#FFC250"/>
<path d="M74.0011 40.0802C74.3637 39.9475 74.742 39.8181 75.1357 39.6916C76.5275 39.2462 78.08 38.8465 79.7526 38.5025C80.2518 38.3996 80.7051 38.3136 81.0966 38.2434C81.2746 38.7013 81.3616 39.1993 81.3418 39.7099C80.9638 39.7788 80.5284 39.8613 80.0525 39.9588C78.4316 40.292 76.9305 40.6779 75.5894 41.1074C75.2507 41.2166 74.8816 41.3409 74.4992 41.4816C74.2416 41.0574 74.0702 40.5816 74.0011 40.0802Z" fill="#DB5C6E"/>
<path d="M92.5307 38.8958L87.7705 36.5112L87.4297 35.998L87.6863 35.8276C88.3083 35.4145 88.7231 35.0102 88.9309 34.6145C89.1465 34.2136 89.1266 33.7619 88.8712 33.2592L86.6087 34.7618L86.113 34.0155L88.3638 32.5206C87.9969 32.1368 87.5817 31.9588 87.1183 31.9864C86.6627 32.009 86.1394 32.2164 85.5485 32.6089L85.292 32.7793L84.7963 32.0329L89.6244 28.8263L90.1201 29.5726L87.916 31.0365C88.4905 31.0919 88.9858 31.3568 89.4017 31.8312L90.9411 30.8088L91.4369 31.5552L89.9208 32.5621C90.2433 33.1658 90.3199 33.7536 90.1507 34.3254C89.984 34.8842 89.6181 35.413 89.0529 35.9116L93.7202 38.1058L92.5307 38.8958ZM96.8954 35.997L96.2448 35.0173C96.6222 33.848 96.9321 32.7962 97.1745 31.8622C97.4246 30.9229 97.5555 30.0909 97.5671 29.3661C97.5787 28.6414 97.4142 28.0224 97.0734 27.5093C96.7894 27.0816 96.4468 26.8274 96.0457 26.7464C95.6395 26.6577 95.2303 26.7502 94.8182 27.0238C94.344 27.3388 94.0792 27.7331 94.0241 28.2067C93.9637 28.6726 94.0704 29.1115 94.344 29.5236L93.1428 30.3214C92.7685 29.7409 92.5689 29.1788 92.5439 28.6351C92.519 28.0915 92.6376 27.5869 92.8999 27.1214C93.1699 26.6508 93.5615 26.2451 94.0747 25.9043C94.9066 25.3517 95.6977 25.1512 96.4482 25.3027C97.1934 25.4463 97.8139 25.8914 98.3096 26.6378C98.6246 27.112 98.8243 27.6404 98.9087 28.223C98.9957 28.7927 99.0038 29.3868 98.9328 30.0053C98.8618 30.6239 98.7391 31.2488 98.5645 31.8801C98.3978 32.5063 98.2168 33.1195 98.0216 33.7197L101.707 31.2721L102.412 32.3334L96.8954 35.997ZM106.664 29.7112C106.034 30.1295 105.368 30.3251 104.667 30.2979C103.973 30.2657 103.289 30.0199 102.614 29.5605C101.934 29.0934 101.307 28.4283 100.734 27.5653C100.156 26.6945 99.7858 25.859 99.6242 25.0589C99.4625 24.2587 99.5013 23.5327 99.7406 22.8808C99.9876 22.2237 100.426 21.686 101.056 21.2678C101.693 20.8443 102.359 20.6488 103.053 20.681C103.746 20.7133 104.431 20.9591 105.105 21.4185C105.78 21.8779 106.407 22.5429 106.985 23.4137C107.558 24.2767 107.928 25.1122 108.095 25.9201C108.257 26.7203 108.218 27.4463 107.979 28.0982C107.739 28.7502 107.301 29.2878 106.664 29.7112ZM101.994 26.7288C102.283 27.1642 102.585 27.5349 102.9 27.8409C103.216 28.1469 103.531 28.3856 103.847 28.557L102.534 22.1518C102.277 22.1876 102.04 22.2777 101.823 22.4223C101.278 22.7838 101.015 23.3567 101.031 24.1411C101.043 24.9177 101.364 25.7802 101.994 26.7288ZM105.904 28.5683C106.27 28.3256 106.51 27.987 106.625 27.5523C106.739 27.1176 106.722 26.6192 106.573 26.0573C106.426 25.4823 106.144 24.88 105.726 24.2502C105.436 23.8148 105.134 23.4441 104.819 23.1381C104.504 22.8321 104.191 22.5973 103.881 22.4337L105.193 28.8389C105.45 28.8031 105.687 28.7129 105.904 28.5683ZM113.656 25.067C113.027 25.4852 112.361 25.6808 111.659 25.6537C110.966 25.6214 110.282 25.3756 109.607 24.9163C108.927 24.4491 108.3 23.784 107.727 22.921C107.149 22.0503 106.779 21.2148 106.617 20.4146C106.455 19.6145 106.494 18.8884 106.733 18.2365C106.98 17.5794 107.419 17.0418 108.049 16.6235C108.686 16.2001 109.352 16.0045 110.045 16.0368C110.739 16.0691 111.423 16.3149 112.098 16.7743C112.773 17.2336 113.4 17.8987 113.978 18.7695C114.551 19.6325 114.921 20.468 115.088 21.2759C115.25 22.0761 115.211 22.8021 114.972 23.454C114.732 24.1059 114.294 24.6436 113.656 25.067ZM108.986 22.0845C109.276 22.5199 109.578 22.8906 109.893 23.1966C110.208 23.5026 110.524 23.7413 110.839 23.9127L109.526 17.5075C109.27 17.5433 109.033 17.6335 108.815 17.7781C108.271 18.1395 108.007 18.7125 108.024 19.4968C108.036 20.2734 108.357 21.136 108.986 22.0845ZM112.897 23.9241C113.263 23.6814 113.503 23.3427 113.617 22.908C113.732 22.4733 113.715 21.975 113.566 21.413C113.419 20.8381 113.137 20.2357 112.718 19.606C112.429 19.1706 112.127 18.7999 111.812 18.4939C111.496 18.1879 111.184 17.9531 110.873 17.7894L112.186 24.1947C112.443 24.1589 112.68 24.0687 112.897 23.9241Z" fill="#96711C"/>
</g>
<g clip-path="url(#clip2)">
<path d="M238.902 73.8884H175.126C172.935 73.8884 171.159 75.6646 171.159 77.8557V81.3311C171.159 82.1935 171.858 82.8923 172.721 82.8923H241.308C242.17 82.8923 242.87 82.1935 242.87 81.3311V77.8557C242.87 75.6652 241.094 73.8884 238.902 73.8884Z" fill="#912C2C"/>
<path d="M238.902 73.8884H233.558V82.8923H241.308C242.17 82.8923 242.87 82.1929 242.87 81.3304V77.8557C242.87 75.6646 241.094 73.8884 238.902 73.8884Z" fill="#7C1E1E"/>
<path d="M241.571 69.1497C243.636 69.1497 245.377 70.8654 245.379 73.0187C245.381 76.0942 241.875 77.7214 237.802 77.1251C233.998 76.5685 233.949 74.8186 230.098 74.8186C226.245 74.8186 226.245 77.1251 222.393 77.1251C218.541 77.1251 218.541 74.8186 214.689 74.8186C210.837 74.8186 210.837 77.1251 206.984 77.1251C203.132 77.1251 203.132 74.8186 199.28 74.8186C195.428 74.8186 195.428 77.1251 191.576 77.1251C187.723 77.1251 187.723 74.8186 183.871 74.8186C180.019 74.8186 179.971 76.5685 176.166 77.1251C172.093 77.7214 168.588 76.0942 168.59 73.0187C168.591 70.8654 170.333 69.1497 172.398 69.1497H241.571Z" fill="#A0E557"/>
<path d="M245.379 73.0187C245.377 70.8654 243.636 69.1497 241.571 69.1497H235.79V76.6277C236.337 76.8297 236.982 77.0055 237.802 77.1251C241.875 77.7214 245.381 76.0942 245.379 73.0187Z" fill="#93CC4A"/>
<path d="M243.752 82.093H170.248C168.454 82.093 167 83.5469 167 85.3407C167 94.6663 174.56 102.225 183.885 102.225H230.115C239.44 102.225 247 94.6663 247 85.3413C247 83.5469 245.546 82.093 243.752 82.093Z" fill="#EFA335"/>
<path d="M243.752 82.093H237.706V88.589C237.706 96.1207 231.6 102.226 224.068 102.226H230.115C239.44 102.225 247 94.6663 247 85.3413C247 83.5469 245.546 82.093 243.752 82.093Z" fill="#FD8F31"/>
<path d="M238.888 65.0154H175.112C172.921 65.0154 171.145 63.2393 171.145 61.0487V57.5734C171.145 56.7109 171.844 56.0115 172.706 56.0115H241.294C242.156 56.0115 242.855 56.7109 242.855 57.5734V61.0487C242.855 63.2393 241.079 65.0154 238.888 65.0154Z" fill="#FC4E51"/>
<path d="M241.294 56.012H233.573V62.6099C233.573 63.9386 232.496 65.0153 231.167 65.0153H238.888C241.079 65.0153 242.855 63.2391 242.855 61.0486V57.5732C242.855 56.7108 242.156 56.012 241.294 56.012Z" fill="#EA3942"/>
<path d="M242.238 64.2615H171.836C170.24 64.2615 168.884 65.5676 168.914 67.1637C168.943 68.7122 170.207 69.9579 171.762 69.9579H216.493C217.22 69.9579 217.922 70.2173 218.474 70.6903L224.822 76.1298C226.676 77.7185 229.445 77.5995 231.156 75.8575L236.058 70.8685C236.63 70.2856 237.412 69.9579 238.229 69.9579H242.163C243.76 69.9579 245.116 68.6511 245.086 67.0551C245.057 65.5072 243.793 64.2615 242.238 64.2615Z" fill="#FCCF3F"/>
<path d="M207 27.6562C169.758 27.6703 167 52.2382 167 55.7172C167 57.511 168.454 58.9655 170.248 58.9655H243.752C245.546 58.9655 247 57.511 247 55.7172C247 52.2382 244.242 27.6703 207 27.6562Z" fill="#EFA335"/>
<path d="M246.999 55.625C246.999 55.6146 246.999 55.6036 246.999 55.5933C246.998 55.5701 246.998 55.5463 246.998 55.5219C246.997 55.5103 246.997 55.498 246.996 55.4865C246.996 55.4608 246.995 55.4352 246.994 55.4083C246.993 55.3961 246.993 55.3839 246.993 55.3717C246.991 55.343 246.99 55.3131 246.988 55.2826C246.988 55.2716 246.988 55.2612 246.987 55.2502C246.985 55.2142 246.984 55.1776 246.981 55.1398C246.981 55.1337 246.98 55.127 246.98 55.1208C246.966 54.8853 246.944 54.6118 246.91 54.3054C246.91 54.3048 246.91 54.3042 246.91 54.3042C246.227 48.0273 240.901 27.6691 207 27.6562C205.387 27.6569 203.84 27.7045 202.353 27.7936C224.915 29.1449 233.163 40.257 236.116 48.1549C237.358 51.4783 234.873 55.0153 231.326 55.0153H170.248C168.91 55.0153 167.762 54.2065 167.264 53.0511C167.057 54.2841 167 55.2179 167 55.7172C167 57.511 168.454 58.9655 170.248 58.9655H243.752C245.546 58.9655 247 57.511 247 55.7172C247 55.6879 246.999 55.6573 246.999 55.625Z" fill="#FD8F31"/>
<path d="M242.238 64.2615H235.79V71.1414L236.057 70.8685C236.63 70.2856 237.413 69.9579 238.229 69.9579H242.164C243.76 69.9579 245.116 68.6511 245.086 67.0551C245.057 65.5072 243.793 64.2615 242.238 64.2615Z" fill="#EFC03C"/>
</g>
<g clip-path="url(#clip3)">
<path d="M241.831 44.1684C243.01 43.7581 244.518 43.507 246.325 43.4177C246.711 43.3982 247.11 43.3863 247.524 43.3819C248.985 43.3677 250.586 43.4447 252.286 43.6105C252.793 43.6597 253.252 43.7116 253.646 43.7602C254.576 43.8756 255.156 43.9714 255.19 43.9775C255.273 43.9912 255.351 44.0194 255.423 44.0588C255.543 44.1245 255.645 44.2226 255.714 44.344C255.825 44.5393 255.841 44.774 255.759 44.9821C255.422 45.8394 254.96 46.6575 254.388 47.4139C254.14 47.7414 253.673 47.8036 253.347 47.5574C253.019 47.3095 252.955 46.8427 253.203 46.5153C253.497 46.1284 253.756 45.7223 253.979 45.303C253.819 45.2812 253.641 45.2582 253.447 45.2338C253.066 45.1878 252.625 45.138 252.142 45.0904C250.495 44.9297 248.947 44.8546 247.539 44.8686C247.183 44.8728 246.794 44.8824 246.387 44.9039C243.729 45.0422 240.283 45.6335 240.021 47.7549C239.892 48.7937 240.228 49.5972 241.016 50.1432C242.815 51.3904 246.478 51.1254 249.546 49.5293L250.518 48.9495C250.87 48.7389 251.327 48.8541 251.537 49.2065C251.748 49.5588 251.632 50.0153 251.28 50.2259L250.289 50.8171C250.278 50.8242 250.265 50.8308 250.252 50.8375C246.669 52.7095 242.428 52.9315 240.169 51.3654C238.926 50.5042 238.351 49.157 238.546 47.573C238.739 46.0048 239.845 44.8591 241.831 44.1684Z" fill="#DB5C6E"/>
<path d="M255.424 44.0587C255.544 44.1244 255.645 44.2228 255.714 44.3448C255.824 44.5398 255.841 44.7742 255.759 44.9827C255.422 45.84 254.961 46.6581 254.388 47.4141C254.14 47.7413 253.673 47.8043 253.346 47.5575C253.019 47.3095 252.955 46.8432 253.203 46.5161C253.497 46.1286 253.756 45.7227 253.978 45.3028C253.5 45.2388 252.869 45.1617 252.141 45.0905C250.495 44.9294 248.947 44.8548 247.539 44.8689C244.861 44.8965 240.323 45.3081 240.021 47.7549C239.893 48.7936 240.227 49.5973 241.015 50.1435C242.815 51.3909 246.478 51.1259 249.546 49.5299L250.518 48.9494C250.87 48.739 251.326 48.8541 251.537 49.2064C251.747 49.5588 251.632 50.0151 251.28 50.2256L250.29 50.8171C250.277 50.8243 250.265 50.8312 250.253 50.8377C246.669 52.7098 242.427 52.9316 240.168 51.3653C238.926 50.5043 238.35 49.1573 238.546 47.5726C238.739 46.0048 239.845 44.8595 241.832 44.1685C243.262 43.6711 245.177 43.4067 247.524 43.3825C248.985 43.3679 250.587 43.4448 252.286 43.611C253.984 43.7769 255.142 43.9697 255.19 43.9778C255.273 43.9917 255.352 44.0194 255.424 44.0587Z" fill="#DB5C6E"/>
<path d="M254.657 29.7142C254.081 29.9342 253.567 30.2945 253.169 30.7645C251.755 32.4336 248.573 36.9923 247.325 45.377C247.167 46.4393 247.483 47.519 248.19 48.3278C253.766 54.7131 258.904 56.8342 260.995 57.4753C261.584 57.657 262.211 57.6831 262.815 57.5564C274.092 55.2016 283.05 52.6322 293.6 48.7049C295.248 48.0915 296.234 46.3935 295.938 44.6601C294.647 37.0886 292.502 29.7673 289.503 22.6962C288.816 21.0776 287.07 20.1798 285.352 20.5529C274.35 22.9393 265.423 25.6113 254.657 29.7142ZM257.827 43.902C258.274 45.4263 257.4 47.0244 255.876 47.471C254.351 47.9177 252.753 47.0439 252.307 45.5195C251.86 43.9951 252.734 42.3971 254.258 41.9504C255.782 41.5038 257.381 42.3777 257.827 43.902Z" fill="#FFD064"/>
<path d="M260.995 57.4754C261.585 57.6568 262.211 57.683 262.815 57.5566C274.093 55.2021 283.05 52.6317 293.601 48.7052C295.249 48.092 296.234 46.393 295.939 44.6601C295.917 44.5288 295.894 44.397 295.871 44.2665C295.537 45.2862 294.65 46.1804 293.45 46.6121C282.627 50.502 273.472 53.1362 261.984 55.6856C261.37 55.8232 260.738 55.8275 260.151 55.6943C258.49 55.3214 254.913 54.2106 250.819 51.0719C255.329 55.3529 259.238 56.9364 260.995 57.4754Z" fill="#FFC250"/>
<path d="M256.803 41.5363C257.616 41.981 258.26 42.7352 258.541 43.6929C259.102 45.6083 258 47.6231 256.085 48.1843C255.157 48.4562 254.179 48.3504 253.33 47.8865C252.482 47.4227 251.865 46.6563 251.593 45.7284C251.032 43.813 252.134 41.7983 254.049 41.2371C255.007 40.9565 255.989 41.0916 256.803 41.5363ZM254.044 46.5822C254.544 46.8556 255.12 46.9179 255.667 46.7577C256.796 46.427 257.445 45.2396 257.114 44.1109C256.783 42.9819 255.596 42.3329 254.467 42.6636C253.338 42.9943 252.689 44.1817 253.02 45.3105C253.18 45.8573 253.544 46.3089 254.044 46.5822Z" fill="#FFC250"/>
<path d="M246.325 43.4179C246.711 43.3983 247.11 43.3864 247.524 43.382C248.985 43.3679 250.586 43.4449 252.286 43.6106C252.793 43.6599 253.252 43.7117 253.646 43.7604C253.681 44.2504 253.617 44.7518 253.447 45.2338C253.066 45.1879 252.625 45.138 252.142 45.0905C250.495 44.9298 248.947 44.8547 247.539 44.8686C247.183 44.8729 246.793 44.8825 246.386 44.9039C246.266 44.4225 246.243 43.9173 246.325 43.4179Z" fill="#DB5C6E"/>
<path d="M264.574 48.1248L260.689 44.4841L260.508 43.8952L260.803 43.8049C261.516 43.5859 262.029 43.3163 262.341 42.996C262.662 42.6731 262.771 42.2344 262.669 41.6798L260.073 42.4765L259.81 41.6199L262.393 40.8274C262.151 40.3551 261.803 40.0662 261.351 39.9609C260.908 39.8528 260.347 39.9028 259.669 40.1109L259.375 40.2012L259.112 39.3446L264.653 37.6445L264.916 38.5011L262.386 39.2772C262.921 39.4938 263.321 39.8887 263.584 40.4619L265.351 39.9198L265.614 40.7764L263.874 41.3102C264.011 41.9808 263.917 42.566 263.593 43.066C263.274 43.5543 262.772 43.9571 262.089 44.2742L265.939 47.7059L264.574 48.1248ZM269.583 46.5878L269.238 45.4635C269.932 44.4499 270.529 43.5298 271.027 42.7033C271.534 41.8741 271.896 41.1137 272.114 40.4222C272.331 39.7307 272.349 39.0905 272.169 38.5016C272.018 38.0108 271.762 37.6696 271.401 37.4779C271.036 37.2772 270.618 37.2494 270.145 37.3945C269.601 37.5615 269.235 37.8642 269.047 38.3025C268.856 38.7319 268.834 39.1831 268.979 39.656L267.6 40.079C267.407 39.416 267.375 38.8203 267.506 38.292C267.637 37.7638 267.894 37.3138 268.278 36.9422C268.671 36.5679 269.162 36.2903 269.751 36.1096C270.705 35.8167 271.521 35.8496 272.197 36.2083C272.871 36.5581 273.339 37.1613 273.602 38.0179C273.769 38.5622 273.81 39.1256 273.725 39.7081C273.646 40.279 273.485 40.8508 273.241 41.4236C272.997 41.9964 272.701 42.5605 272.354 43.1161C272.016 43.6689 271.668 44.2052 271.31 44.7251L275.54 43.4274L275.914 44.6454L269.583 46.5878ZM277.555 44.1419L277.164 42.8704L279.48 42.1599L277.509 35.7355L275.423 36.8146L275.07 35.6636L277.544 33.8941L278.414 33.6272L280.899 41.7246L283.388 40.9608L283.778 42.2323L277.555 44.1419ZM288.761 40.8791C288.038 41.1009 287.344 41.099 286.68 40.8734C286.024 40.645 285.438 40.2147 284.922 39.5823C284.403 38.941 283.991 38.1251 283.687 37.1347C283.381 36.1353 283.264 35.2291 283.337 34.416C283.409 33.6029 283.653 32.9179 284.068 32.3611C284.492 31.8015 285.065 31.4108 285.788 31.189C286.519 30.9645 287.213 30.9664 287.869 31.1948C288.525 31.4231 289.111 31.8535 289.627 32.4859C290.143 33.1183 290.555 33.9342 290.861 34.9335C291.165 35.9239 291.282 36.8302 291.212 37.6522C291.14 38.4653 290.896 39.1502 290.481 39.7071C290.066 40.264 289.493 40.6547 288.761 40.8791ZM285.133 36.6911C285.286 37.1908 285.47 37.6322 285.686 38.0153C285.901 38.3983 286.135 38.7169 286.389 38.971L286.953 32.457C286.697 32.4184 286.444 32.4374 286.194 32.514C285.57 32.7057 285.154 33.1799 284.947 33.9366C284.737 34.6844 284.799 35.6026 285.133 36.6911ZM288.359 39.5675C288.778 39.4388 289.104 39.1824 289.338 38.7984C289.572 38.4143 289.697 37.9316 289.714 37.3504C289.737 36.7576 289.638 36.0998 289.416 35.377C289.263 34.8773 289.078 34.436 288.863 34.0529C288.648 33.6698 288.415 33.3557 288.164 33.1105L287.6 39.6245C287.856 39.6632 288.109 39.6442 288.359 39.5675Z" fill="#96711C"/>
</g>
<defs>
<clipPath id="clip0">
<rect width="80" height="80" fill="white" transform="translate(0 25)"/>
</clipPath>
<clipPath id="clip1">
<rect width="50" height="50" fill="white" transform="translate(116 58.9495) rotate(-168.522)"/>
</clipPath>
<clipPath id="clip2">
<rect width="80" height="80" fill="white" transform="translate(167 25)"/>
</clipPath>
<clipPath id="clip3">
<rect width="50" height="50" fill="white" transform="translate(280.87 73.8579) rotate(-151.331)"/>
</clipPath>
</defs>
</svg>
