<svg width="273" height="283" viewBox="0 0 273 283" fill="none" xmlns="http://www.w3.org/2000/svg">
<path d="M98.8388 83L100.315 74.6H101.491L103.483 80.456L107.515 74.6H108.703L107.227 83H106.219L107.371 76.4L103.627 81.8H102.871L101.011 76.412L99.8468 83H98.8388ZM111.099 83.144C110.499 83.144 110.027 82.98 109.683 82.652C109.347 82.316 109.179 81.84 109.179 81.224C109.179 81.112 109.183 81 109.191 80.888C109.199 80.768 109.215 80.648 109.239 80.528L109.863 77.048H110.871L110.271 80.42C110.255 80.524 110.239 80.624 110.223 80.72C110.215 80.816 110.211 80.908 110.211 80.996C110.211 81.852 110.631 82.28 111.471 82.28C111.975 82.28 112.427 82.104 112.827 81.752C113.227 81.4 113.495 80.896 113.631 80.24L114.195 77.048H115.203L114.159 83H113.247L113.367 81.92C113.111 82.304 112.783 82.604 112.383 82.82C111.983 83.036 111.555 83.144 111.099 83.144ZM117.978 83C117.482 83 117.098 82.904 116.826 82.712C116.554 82.512 116.418 82.176 116.418 81.704C116.418 81.624 116.422 81.54 116.43 81.452C116.438 81.356 116.45 81.256 116.466 81.152L117.042 77.9H116.118L116.274 77.048H117.198L117.582 75.62H118.47L118.206 77.048H119.97L119.814 77.9H118.062L117.474 81.152C117.458 81.28 117.45 81.392 117.45 81.488C117.45 81.736 117.514 81.908 117.642 82.004C117.778 82.092 117.994 82.136 118.29 82.136H119.07L118.914 83H117.978ZM122.419 83.144C121.819 83.144 121.347 82.98 121.003 82.652C120.667 82.316 120.499 81.84 120.499 81.224C120.499 81.112 120.503 81 120.511 80.888C120.519 80.768 120.535 80.648 120.559 80.528L121.183 77.048H122.191L121.591 80.42C121.575 80.524 121.559 80.624 121.543 80.72C121.535 80.816 121.531 80.908 121.531 80.996C121.531 81.852 121.951 82.28 122.791 82.28C123.295 82.28 123.747 82.104 124.147 81.752C124.547 81.4 124.815 80.896 124.951 80.24L125.515 77.048H126.523L125.479 83H124.567L124.687 81.92C124.431 82.304 124.103 82.604 123.703 82.82C123.303 83.036 122.875 83.144 122.419 83.144ZM129.07 83.144C128.622 83.144 128.258 83.072 127.978 82.928C127.698 82.776 127.49 82.58 127.354 82.34C127.218 82.092 127.15 81.828 127.15 81.548C127.15 81.108 127.274 80.728 127.522 80.408C127.77 80.088 128.114 79.844 128.554 79.676C129.002 79.5 129.522 79.412 130.114 79.412H131.71L131.722 79.34C131.746 79.204 131.758 79.068 131.758 78.932C131.758 78.548 131.646 78.256 131.422 78.056C131.206 77.856 130.902 77.756 130.51 77.756C130.126 77.756 129.77 77.856 129.442 78.056C129.114 78.248 128.886 78.532 128.758 78.908H127.714C127.842 78.476 128.05 78.112 128.338 77.816C128.634 77.52 128.982 77.296 129.382 77.144C129.782 76.984 130.202 76.904 130.642 76.904C131.354 76.904 131.886 77.072 132.238 77.408C132.598 77.744 132.778 78.2 132.778 78.776C132.778 78.864 132.774 78.956 132.766 79.052C132.758 79.148 132.746 79.244 132.73 79.34L132.094 83H131.182L131.302 81.944C131.078 82.28 130.782 82.564 130.414 82.796C130.054 83.028 129.606 83.144 129.07 83.144ZM129.37 82.292C129.754 82.292 130.098 82.192 130.402 81.992C130.714 81.792 130.97 81.532 131.17 81.212C131.37 80.892 131.502 80.556 131.566 80.204V80.192H130.054C129.486 80.192 129.038 80.304 128.71 80.528C128.39 80.744 128.23 81.044 128.23 81.428C128.23 81.7 128.326 81.912 128.518 82.064C128.718 82.216 129.002 82.292 129.37 82.292ZM133.607 83L135.143 74.36H136.151L134.615 83H133.607ZM139.784 83L141.26 74.6H146.252L146.108 75.404H142.124L141.608 78.392H144.956L144.812 79.172H141.464L140.792 83H139.784ZM148.235 83.144C147.635 83.144 147.163 82.98 146.819 82.652C146.483 82.316 146.315 81.84 146.315 81.224C146.315 81.112 146.319 81 146.327 80.888C146.335 80.768 146.351 80.648 146.375 80.528L146.999 77.048H148.007L147.407 80.42C147.391 80.524 147.375 80.624 147.359 80.72C147.351 80.816 147.347 80.908 147.347 80.996C147.347 81.852 147.767 82.28 148.607 82.28C149.111 82.28 149.563 82.104 149.963 81.752C150.363 81.4 150.631 80.896 150.767 80.24L151.331 77.048H152.339L151.295 83H150.383L150.503 81.92C150.247 82.304 149.919 82.604 149.519 82.82C149.119 83.036 148.691 83.144 148.235 83.144ZM152.966 83L154.01 77.048H154.922L154.802 78.128C155.058 77.744 155.386 77.444 155.786 77.228C156.186 77.012 156.614 76.904 157.07 76.904C157.662 76.904 158.13 77.072 158.474 77.408C158.818 77.736 158.99 78.208 158.99 78.824C158.99 78.936 158.982 79.052 158.966 79.172C158.958 79.284 158.942 79.4 158.918 79.52L158.306 83H157.298L157.886 79.628C157.902 79.524 157.914 79.424 157.922 79.328C157.938 79.232 157.946 79.14 157.946 79.052C157.946 78.196 157.526 77.768 156.686 77.768C156.182 77.768 155.73 77.944 155.33 78.296C154.938 78.648 154.674 79.152 154.538 79.808L153.974 83H152.966ZM162.497 83.144C161.985 83.144 161.545 83.028 161.177 82.796C160.817 82.556 160.541 82.236 160.349 81.836C160.157 81.436 160.061 80.996 160.061 80.516C160.061 79.812 160.209 79.192 160.505 78.656C160.809 78.112 161.217 77.684 161.729 77.372C162.241 77.06 162.813 76.904 163.445 76.904C163.973 76.904 164.405 77.008 164.741 77.216C165.077 77.424 165.325 77.7 165.485 78.044L166.133 74.36H167.141L165.617 83H164.693L164.777 82.016C164.545 82.304 164.245 82.564 163.877 82.796C163.509 83.028 163.049 83.144 162.497 83.144ZM162.785 82.268C163.241 82.268 163.645 82.144 163.997 81.896C164.357 81.648 164.637 81.316 164.837 80.9C165.045 80.476 165.149 80.012 165.149 79.508C165.149 78.988 165.001 78.572 164.705 78.26C164.409 77.94 164.001 77.78 163.481 77.78C163.025 77.78 162.617 77.896 162.257 78.128C161.897 78.36 161.613 78.676 161.405 79.076C161.205 79.468 161.105 79.916 161.105 80.42C161.105 80.948 161.253 81.388 161.549 81.74C161.853 82.092 162.265 82.268 162.785 82.268ZM170.18 83L173.468 78.776L171.632 74.6H172.784L174.26 77.948L176.816 74.6H177.968L174.632 78.812L176.48 83H175.328L173.852 79.64L171.308 83H170.18Z" fill="#888888"/>
<path d="M5.26136 280.144C4.54936 280.144 3.94136 280.004 3.43736 279.724C2.94136 279.444 2.56136 279.052 2.29736 278.548C2.03336 278.044 1.90136 277.456 1.90136 276.784C1.90136 276.032 2.02136 275.332 2.26136 274.684C2.50936 274.036 2.85336 273.472 3.29336 272.992C3.73336 272.504 4.24536 272.128 4.82936 271.864C5.42136 271.592 6.06136 271.456 6.74936 271.456C7.70936 271.456 8.45336 271.688 8.98136 272.152C9.50936 272.608 9.78536 273.248 9.80936 274.072H8.66936C8.65336 273.536 8.47336 273.116 8.12936 272.812C7.78536 272.5 7.27736 272.344 6.60536 272.344C6.08536 272.344 5.60136 272.456 5.15336 272.68C4.71336 272.896 4.32936 273.204 4.00136 273.604C3.67336 273.996 3.41736 274.456 3.23336 274.984C3.04936 275.512 2.95736 276.084 2.95736 276.7C2.95736 277.508 3.17336 278.136 3.60536 278.584C4.03736 279.032 4.63736 279.256 5.40536 279.256C6.07736 279.256 6.63336 279.104 7.07336 278.8C7.52136 278.496 7.84936 278.084 8.05736 277.564H9.19736C8.88536 278.38 8.38936 279.016 7.70936 279.472C7.02936 279.92 6.21336 280.144 5.26136 280.144ZM12.9135 280.144C12.4175 280.144 11.9775 280.032 11.5935 279.808C11.2095 279.584 10.9095 279.276 10.6935 278.884C10.4775 278.492 10.3695 278.048 10.3695 277.552C10.3695 277.024 10.4615 276.54 10.6455 276.1C10.8295 275.66 11.0815 275.276 11.4015 274.948C11.7215 274.62 12.0935 274.364 12.5175 274.18C12.9415 273.996 13.4015 273.904 13.8975 273.904C14.3935 273.904 14.8335 274.012 15.2175 274.228C15.6015 274.444 15.9015 274.744 16.1175 275.128C16.3335 275.512 16.4415 275.956 16.4415 276.46C16.4415 276.98 16.3495 277.464 16.1655 277.912C15.9895 278.36 15.7375 278.752 15.4095 279.088C15.0895 279.416 14.7175 279.676 14.2935 279.868C13.8695 280.052 13.4095 280.144 12.9135 280.144ZM13.0455 279.28C13.4935 279.28 13.8935 279.16 14.2455 278.92C14.6055 278.68 14.8895 278.352 15.0975 277.936C15.3055 277.52 15.4095 277.052 15.4095 276.532C15.4095 275.972 15.2455 275.54 14.9175 275.236C14.5975 274.924 14.2135 274.768 13.7655 274.768C13.3255 274.768 12.9295 274.888 12.5775 275.128C12.2255 275.368 11.9455 275.696 11.7375 276.112C11.5295 276.528 11.4255 276.996 11.4255 277.516C11.4255 277.892 11.4975 278.212 11.6415 278.476C11.7935 278.732 11.9935 278.932 12.2415 279.076C12.4895 279.212 12.7575 279.28 13.0455 279.28ZM17.2788 280L18.3228 274.048H19.2228L19.1388 275.02C19.3708 274.676 19.6588 274.404 20.0028 274.204C20.3468 274.004 20.7188 273.904 21.1188 273.904C21.5588 273.904 21.9388 274.004 22.2588 274.204C22.5788 274.404 22.7988 274.708 22.9188 275.116C23.1748 274.74 23.4988 274.444 23.8908 274.228C24.2908 274.012 24.6988 273.904 25.1148 273.904C25.5548 273.904 25.9308 274 26.2428 274.192C26.5628 274.376 26.7908 274.664 26.9268 275.056C27.0708 275.44 27.0868 275.928 26.9748 276.52L26.3628 280H25.3548L25.9428 276.628C26.0548 276.012 26.0108 275.548 25.8108 275.236C25.6188 274.924 25.3068 274.768 24.8748 274.768C24.4508 274.768 24.0548 274.936 23.6868 275.272C23.3188 275.6 23.0588 276.076 22.9068 276.7L22.3188 280H21.3228L21.9108 276.628C22.0148 276.012 21.9668 275.548 21.7668 275.236C21.5748 274.924 21.2628 274.768 20.8308 274.768C20.3908 274.768 19.9748 274.956 19.5828 275.332C19.1988 275.7 18.9468 276.228 18.8268 276.916L18.2868 280H17.2788ZM27.416 282.64L28.94 274.048H29.876L29.78 275.032C30.028 274.72 30.332 274.456 30.692 274.24C31.06 274.016 31.512 273.904 32.048 273.904C32.56 273.904 33 274.016 33.368 274.24C33.736 274.464 34.016 274.768 34.208 275.152C34.408 275.536 34.508 275.972 34.508 276.46C34.508 277.156 34.356 277.784 34.052 278.344C33.756 278.896 33.348 279.336 32.828 279.664C32.308 279.984 31.72 280.144 31.064 280.144C30.744 280.144 30.448 280.088 30.176 279.976C29.912 279.864 29.684 279.72 29.492 279.544C29.308 279.368 29.172 279.184 29.084 278.992L28.424 282.64H27.416ZM31.124 279.268C31.58 279.268 31.984 279.152 32.336 278.92C32.688 278.688 32.964 278.372 33.164 277.972C33.364 277.572 33.464 277.116 33.464 276.604C33.464 276.076 33.312 275.64 33.008 275.296C32.712 274.952 32.308 274.78 31.796 274.78C31.34 274.78 30.932 274.9 30.572 275.14C30.212 275.38 29.928 275.708 29.72 276.124C29.512 276.532 29.408 276.988 29.408 277.492C29.408 278.028 29.564 278.46 29.876 278.788C30.188 279.108 30.604 279.268 31.124 279.268ZM37.2574 280.144C36.8094 280.144 36.4454 280.072 36.1654 279.928C35.8854 279.776 35.6774 279.58 35.5414 279.34C35.4054 279.092 35.3374 278.828 35.3374 278.548C35.3374 278.108 35.4614 277.728 35.7094 277.408C35.9574 277.088 36.3014 276.844 36.7414 276.676C37.1894 276.5 37.7094 276.412 38.3014 276.412H39.8974L39.9094 276.34C39.9334 276.204 39.9454 276.068 39.9454 275.932C39.9454 275.548 39.8334 275.256 39.6094 275.056C39.3934 274.856 39.0894 274.756 38.6974 274.756C38.3134 274.756 37.9574 274.856 37.6294 275.056C37.3014 275.248 37.0734 275.532 36.9454 275.908H35.9014C36.0294 275.476 36.2374 275.112 36.5254 274.816C36.8214 274.52 37.1694 274.296 37.5694 274.144C37.9694 273.984 38.3894 273.904 38.8294 273.904C39.5414 273.904 40.0734 274.072 40.4254 274.408C40.7854 274.744 40.9654 275.2 40.9654 275.776C40.9654 275.864 40.9614 275.956 40.9534 276.052C40.9454 276.148 40.9334 276.244 40.9174 276.34L40.2814 280H39.3694L39.4894 278.944C39.2654 279.28 38.9694 279.564 38.6014 279.796C38.2414 280.028 37.7934 280.144 37.2574 280.144ZM37.5574 279.292C37.9414 279.292 38.2854 279.192 38.5894 278.992C38.9014 278.792 39.1574 278.532 39.3574 278.212C39.5574 277.892 39.6894 277.556 39.7534 277.204V277.192H38.2414C37.6734 277.192 37.2254 277.304 36.8974 277.528C36.5774 277.744 36.4174 278.044 36.4174 278.428C36.4174 278.7 36.5134 278.912 36.7054 279.064C36.9054 279.216 37.1894 279.292 37.5574 279.292ZM41.8061 280L42.8501 274.048H43.7621L43.6421 275.128C43.8981 274.744 44.2261 274.444 44.6261 274.228C45.0261 274.012 45.4541 273.904 45.9101 273.904C46.5021 273.904 46.9701 274.072 47.3141 274.408C47.6581 274.736 47.8301 275.208 47.8301 275.824C47.8301 275.936 47.8221 276.052 47.8061 276.172C47.7981 276.284 47.7821 276.4 47.7581 276.52L47.1461 280H46.1381L46.7261 276.628C46.7421 276.524 46.7541 276.424 46.7621 276.328C46.7781 276.232 46.7861 276.14 46.7861 276.052C46.7861 275.196 46.3661 274.768 45.5261 274.768C45.0221 274.768 44.5701 274.944 44.1701 275.296C43.7781 275.648 43.5141 276.152 43.3781 276.808L42.8141 280H41.8061ZM48.5252 282.64L50.5532 279.424H50.2172L48.7892 274.048H49.8572L51.0452 278.68L53.9372 274.048H54.9932L49.5812 282.64H48.5252ZM58.495 280L59.971 271.6H62.935C63.711 271.6 64.283 271.772 64.651 272.116C65.027 272.46 65.215 272.884 65.215 273.388C65.215 273.972 65.043 274.464 64.699 274.864C64.355 275.256 63.907 275.524 63.355 275.668C63.755 275.748 64.079 275.94 64.327 276.244C64.575 276.54 64.699 276.904 64.699 277.336C64.699 277.864 64.555 278.328 64.267 278.728C63.987 279.128 63.607 279.44 63.127 279.664C62.647 279.888 62.119 280 61.543 280H58.495ZM60.343 275.284H62.203C62.787 275.284 63.259 275.128 63.619 274.816C63.979 274.496 64.159 274.076 64.159 273.556C64.159 273.204 64.035 272.924 63.787 272.716C63.547 272.508 63.175 272.404 62.671 272.404H60.835L60.343 275.284ZM59.647 279.184H61.579C62.211 279.184 62.723 279.012 63.115 278.668C63.507 278.324 63.703 277.876 63.703 277.324C63.703 276.94 63.559 276.636 63.271 276.412C62.983 276.188 62.591 276.076 62.095 276.076H60.187L59.647 279.184ZM65.7355 280L67.2715 271.36H68.2795L66.7435 280H65.7355ZM70.5674 280.144C69.9674 280.144 69.4954 279.98 69.1514 279.652C68.8154 279.316 68.6474 278.84 68.6474 278.224C68.6474 278.112 68.6514 278 68.6594 277.888C68.6674 277.768 68.6834 277.648 68.7074 277.528L69.3314 274.048H70.3394L69.7394 277.42C69.7234 277.524 69.7074 277.624 69.6914 277.72C69.6834 277.816 69.6794 277.908 69.6794 277.996C69.6794 278.852 70.0994 279.28 70.9394 279.28C71.4434 279.28 71.8954 279.104 72.2954 278.752C72.6954 278.4 72.9634 277.896 73.0994 277.24L73.6634 274.048H74.6714L73.6274 280H72.7154L72.8354 278.92C72.5794 279.304 72.2514 279.604 71.8514 279.82C71.4514 280.036 71.0234 280.144 70.5674 280.144ZM77.9383 280.144C77.2023 280.144 76.6103 279.916 76.1623 279.46C75.7223 279.004 75.5023 278.392 75.5023 277.624C75.5023 276.936 75.6543 276.312 75.9583 275.752C76.2623 275.184 76.6783 274.736 77.2063 274.408C77.7423 274.072 78.3503 273.904 79.0303 273.904C79.5503 273.904 79.9863 274.008 80.3383 274.216C80.6983 274.416 80.9663 274.688 81.1423 275.032C81.3263 275.376 81.4183 275.756 81.4183 276.172C81.4183 276.332 81.3983 276.516 81.3583 276.724C81.3263 276.924 81.2943 277.1 81.2623 277.252H76.5103C76.4943 277.388 76.4863 277.508 76.4863 277.612C76.4863 278.18 76.6463 278.604 76.9663 278.884C77.2863 279.156 77.6623 279.292 78.0943 279.292C78.5103 279.292 78.8743 279.196 79.1863 279.004C79.5063 278.804 79.7543 278.544 79.9303 278.224H80.9263C80.6783 278.776 80.2943 279.236 79.7743 279.604C79.2543 279.964 78.6423 280.144 77.9383 280.144ZM78.8983 274.756C78.4183 274.756 77.9663 274.904 77.5423 275.2C77.1183 275.488 76.8263 275.912 76.6663 276.472H80.4103C80.4183 276.424 80.4223 276.38 80.4223 276.34C80.4303 276.292 80.4343 276.248 80.4343 276.208C80.4343 275.752 80.2943 275.396 80.0143 275.14C79.7343 274.884 79.3623 274.756 78.8983 274.756Z" fill="#888888"/>
<path d="M186.539 280.144C185.827 280.144 185.219 280.004 184.715 279.724C184.219 279.444 183.839 279.052 183.575 278.548C183.311 278.044 183.179 277.456 183.179 276.784C183.179 276.032 183.299 275.332 183.539 274.684C183.787 274.036 184.131 273.472 184.571 272.992C185.011 272.504 185.523 272.128 186.107 271.864C186.699 271.592 187.339 271.456 188.027 271.456C188.987 271.456 189.731 271.688 190.259 272.152C190.787 272.608 191.063 273.248 191.087 274.072H189.947C189.931 273.536 189.751 273.116 189.407 272.812C189.063 272.5 188.555 272.344 187.883 272.344C187.363 272.344 186.879 272.456 186.431 272.68C185.991 272.896 185.607 273.204 185.279 273.604C184.951 273.996 184.695 274.456 184.511 274.984C184.327 275.512 184.235 276.084 184.235 276.7C184.235 277.508 184.451 278.136 184.883 278.584C185.315 279.032 185.915 279.256 186.683 279.256C187.355 279.256 187.911 279.104 188.351 278.8C188.799 278.496 189.127 278.084 189.335 277.564H190.475C190.163 278.38 189.667 279.016 188.987 279.472C188.307 279.92 187.491 280.144 186.539 280.144ZM194.191 280.144C193.695 280.144 193.255 280.032 192.871 279.808C192.487 279.584 192.187 279.276 191.971 278.884C191.755 278.492 191.647 278.048 191.647 277.552C191.647 277.024 191.739 276.54 191.923 276.1C192.107 275.66 192.359 275.276 192.679 274.948C192.999 274.62 193.371 274.364 193.795 274.18C194.219 273.996 194.679 273.904 195.175 273.904C195.671 273.904 196.111 274.012 196.495 274.228C196.879 274.444 197.179 274.744 197.395 275.128C197.611 275.512 197.719 275.956 197.719 276.46C197.719 276.98 197.627 277.464 197.443 277.912C197.267 278.36 197.015 278.752 196.687 279.088C196.367 279.416 195.995 279.676 195.571 279.868C195.147 280.052 194.687 280.144 194.191 280.144ZM194.323 279.28C194.771 279.28 195.171 279.16 195.523 278.92C195.883 278.68 196.167 278.352 196.375 277.936C196.583 277.52 196.687 277.052 196.687 276.532C196.687 275.972 196.523 275.54 196.195 275.236C195.875 274.924 195.491 274.768 195.043 274.768C194.603 274.768 194.207 274.888 193.855 275.128C193.503 275.368 193.223 275.696 193.015 276.112C192.807 276.528 192.703 276.996 192.703 277.516C192.703 277.892 192.775 278.212 192.919 278.476C193.071 278.732 193.271 278.932 193.519 279.076C193.767 279.212 194.035 279.28 194.323 279.28ZM198.556 280L199.6 274.048H200.5L200.416 275.02C200.648 274.676 200.936 274.404 201.28 274.204C201.624 274.004 201.996 273.904 202.396 273.904C202.836 273.904 203.216 274.004 203.536 274.204C203.856 274.404 204.076 274.708 204.196 275.116C204.452 274.74 204.776 274.444 205.168 274.228C205.568 274.012 205.976 273.904 206.392 273.904C206.832 273.904 207.208 274 207.52 274.192C207.84 274.376 208.068 274.664 208.204 275.056C208.348 275.44 208.364 275.928 208.252 276.52L207.64 280H206.632L207.22 276.628C207.332 276.012 207.288 275.548 207.088 275.236C206.896 274.924 206.584 274.768 206.152 274.768C205.728 274.768 205.332 274.936 204.964 275.272C204.596 275.6 204.336 276.076 204.184 276.7L203.596 280H202.6L203.188 276.628C203.292 276.012 203.244 275.548 203.044 275.236C202.852 274.924 202.54 274.768 202.108 274.768C201.668 274.768 201.252 274.956 200.86 275.332C200.476 275.7 200.224 276.228 200.104 276.916L199.564 280H198.556ZM208.693 282.64L210.217 274.048H211.153L211.057 275.032C211.305 274.72 211.609 274.456 211.969 274.24C212.337 274.016 212.789 273.904 213.325 273.904C213.837 273.904 214.277 274.016 214.645 274.24C215.013 274.464 215.293 274.768 215.485 275.152C215.685 275.536 215.785 275.972 215.785 276.46C215.785 277.156 215.633 277.784 215.329 278.344C215.033 278.896 214.625 279.336 214.105 279.664C213.585 279.984 212.997 280.144 212.341 280.144C212.021 280.144 211.725 280.088 211.453 279.976C211.189 279.864 210.961 279.72 210.769 279.544C210.585 279.368 210.449 279.184 210.361 278.992L209.701 282.64H208.693ZM212.401 279.268C212.857 279.268 213.261 279.152 213.613 278.92C213.965 278.688 214.241 278.372 214.441 277.972C214.641 277.572 214.741 277.116 214.741 276.604C214.741 276.076 214.589 275.64 214.285 275.296C213.989 274.952 213.585 274.78 213.073 274.78C212.617 274.78 212.209 274.9 211.849 275.14C211.489 275.38 211.205 275.708 210.997 276.124C210.789 276.532 210.685 276.988 210.685 277.492C210.685 278.028 210.841 278.46 211.153 278.788C211.465 279.108 211.881 279.268 212.401 279.268ZM218.535 280.144C218.087 280.144 217.723 280.072 217.443 279.928C217.163 279.776 216.955 279.58 216.819 279.34C216.683 279.092 216.615 278.828 216.615 278.548C216.615 278.108 216.739 277.728 216.987 277.408C217.235 277.088 217.579 276.844 218.019 276.676C218.467 276.5 218.987 276.412 219.579 276.412H221.175L221.187 276.34C221.211 276.204 221.223 276.068 221.223 275.932C221.223 275.548 221.111 275.256 220.887 275.056C220.671 274.856 220.367 274.756 219.975 274.756C219.591 274.756 219.235 274.856 218.907 275.056C218.579 275.248 218.351 275.532 218.223 275.908H217.179C217.307 275.476 217.515 275.112 217.803 274.816C218.099 274.52 218.447 274.296 218.847 274.144C219.247 273.984 219.667 273.904 220.107 273.904C220.819 273.904 221.351 274.072 221.703 274.408C222.063 274.744 222.243 275.2 222.243 275.776C222.243 275.864 222.239 275.956 222.231 276.052C222.223 276.148 222.211 276.244 222.195 276.34L221.559 280H220.647L220.767 278.944C220.543 279.28 220.247 279.564 219.879 279.796C219.519 280.028 219.071 280.144 218.535 280.144ZM218.835 279.292C219.219 279.292 219.563 279.192 219.867 278.992C220.179 278.792 220.435 278.532 220.635 278.212C220.835 277.892 220.967 277.556 221.031 277.204V277.192H219.519C218.951 277.192 218.503 277.304 218.175 277.528C217.855 277.744 217.695 278.044 217.695 278.428C217.695 278.7 217.791 278.912 217.983 279.064C218.183 279.216 218.467 279.292 218.835 279.292ZM223.083 280L224.127 274.048H225.039L224.919 275.128C225.175 274.744 225.503 274.444 225.903 274.228C226.303 274.012 226.731 273.904 227.187 273.904C227.779 273.904 228.247 274.072 228.591 274.408C228.935 274.736 229.107 275.208 229.107 275.824C229.107 275.936 229.099 276.052 229.083 276.172C229.075 276.284 229.059 276.4 229.035 276.52L228.423 280H227.415L228.003 276.628C228.019 276.524 228.031 276.424 228.039 276.328C228.055 276.232 228.063 276.14 228.063 276.052C228.063 275.196 227.643 274.768 226.803 274.768C226.299 274.768 225.847 274.944 225.447 275.296C225.055 275.648 224.791 276.152 224.655 276.808L224.091 280H223.083ZM229.803 282.64L231.831 279.424H231.495L230.067 274.048H231.135L232.323 278.68L235.215 274.048H236.271L230.859 282.64H229.803ZM239.772 280L241.248 271.6H243.948C244.524 271.6 244.992 271.7 245.352 271.9C245.712 272.092 245.976 272.348 246.144 272.668C246.312 272.988 246.396 273.336 246.396 273.712C246.396 274.4 246.196 274.976 245.796 275.44C245.404 275.904 244.876 276.22 244.212 276.388L245.4 280H244.308L243.216 276.532C243.16 276.532 243.104 276.532 243.048 276.532H241.392L240.78 280H239.772ZM241.536 275.74H243.168C243.832 275.74 244.364 275.576 244.764 275.248C245.164 274.912 245.364 274.432 245.364 273.808C245.364 273.432 245.236 273.112 244.98 272.848C244.724 272.584 244.308 272.452 243.732 272.452H242.112L241.536 275.74ZM249.22 280.144C248.484 280.144 247.892 279.916 247.444 279.46C247.004 279.004 246.784 278.392 246.784 277.624C246.784 276.936 246.936 276.312 247.24 275.752C247.544 275.184 247.96 274.736 248.488 274.408C249.024 274.072 249.632 273.904 250.312 273.904C250.832 273.904 251.268 274.008 251.62 274.216C251.98 274.416 252.248 274.688 252.424 275.032C252.608 275.376 252.7 275.756 252.7 276.172C252.7 276.332 252.68 276.516 252.64 276.724C252.608 276.924 252.576 277.1 252.544 277.252H247.792C247.776 277.388 247.768 277.508 247.768 277.612C247.768 278.18 247.928 278.604 248.248 278.884C248.568 279.156 248.944 279.292 249.376 279.292C249.792 279.292 250.156 279.196 250.468 279.004C250.788 278.804 251.036 278.544 251.212 278.224H252.208C251.96 278.776 251.576 279.236 251.056 279.604C250.536 279.964 249.924 280.144 249.22 280.144ZM250.18 274.756C249.7 274.756 249.248 274.904 248.824 275.2C248.4 275.488 248.108 275.912 247.948 276.472H251.692C251.7 276.424 251.704 276.38 251.704 276.34C251.712 276.292 251.716 276.248 251.716 276.208C251.716 275.752 251.576 275.396 251.296 275.14C251.016 274.884 250.644 274.756 250.18 274.756ZM256.052 280.144C255.54 280.144 255.1 280.028 254.732 279.796C254.372 279.556 254.096 279.236 253.904 278.836C253.712 278.436 253.616 277.996 253.616 277.516C253.616 276.812 253.764 276.192 254.06 275.656C254.364 275.112 254.772 274.684 255.284 274.372C255.796 274.06 256.368 273.904 257 273.904C257.528 273.904 257.96 274.008 258.296 274.216C258.632 274.424 258.88 274.7 259.04 275.044L259.688 271.36H260.696L259.172 280H258.248L258.332 279.016C258.1 279.304 257.8 279.564 257.432 279.796C257.064 280.028 256.604 280.144 256.052 280.144ZM256.34 279.268C256.796 279.268 257.2 279.144 257.552 278.896C257.912 278.648 258.192 278.316 258.392 277.9C258.6 277.476 258.704 277.012 258.704 276.508C258.704 275.988 258.556 275.572 258.26 275.26C257.964 274.94 257.556 274.78 257.036 274.78C256.58 274.78 256.172 274.896 255.812 275.128C255.452 275.36 255.168 275.676 254.96 276.076C254.76 276.468 254.66 276.916 254.66 277.42C254.66 277.948 254.808 278.388 255.104 278.74C255.408 279.092 255.82 279.268 256.34 279.268Z" fill="#888888"/>
<g clip-path="url(#clip0)">
<path d="M33.3433 203.196H49.657V207.02H33.3433V203.196Z" fill="#696E73"/>
<path d="M41.5 203.196H49.6569V207.02H41.5V203.196Z" fill="#4B5055"/>
<path d="M9 193V258H17.1569L19.413 256.302L32.4293 256.519L33.3431 256.088V254.176V235.696H35.2549V193H9Z" fill="#59ABFF"/>
<path d="M47.7451 193V215.417H49.6569V254.176V256.088L51.8669 256.216L65.2737 256.823L65.8432 258H74V193H47.7451Z" fill="#4B5055"/>
<path d="M42.647 218.28V235.696H44.5587V254.177V256.088L46.1831 256.519L57.3789 257.363L57.6862 258H65.843V204.851L42.647 218.28Z" fill="#59ABFF"/>
<path d="M17.0293 201.157H27.2254V204.98H17.0293V201.157Z" fill="#F7F9FA"/>
<path d="M17.0293 209.313H27.2254V213.137H17.0293V209.313Z" fill="#F7F9FA"/>
<path d="M17.0293 217.47H27.2254V221.294H17.0293V217.47Z" fill="#F7F9FA"/>
<path d="M17.0293 225.627H27.2254V229.451H17.0293V225.627Z" fill="#F7F9FA"/>
<path d="M17.1567 233.784H57.6861V258H17.1567V233.784Z" fill="#00ECFF"/>
<path d="M41.5 233.784H57.6863V258H41.5V233.784Z" fill="#2CCCD9"/>
<path d="M26.2061 243.98H30.2845V247.804H26.2061V243.98Z" fill="#F7F9FA"/>
<path d="M35.3823 243.98H39.4608V247.804H35.3823V243.98Z" fill="#F7F9FA"/>
<path d="M44.5586 243.98H48.637V247.804H44.5586V243.98Z" fill="#E5EAEE"/>
<path d="M50.6768 223.588H57.814V227.412H50.6768V223.588Z" fill="#E5EAEE"/>
</g>
<g clip-path="url(#clip1)">
<path d="M213.343 203.196H229.657V207.02H213.343V203.196Z" fill="#696E73"/>
<path d="M221.5 203.196H229.657V207.02H221.5V203.196Z" fill="#4B5055"/>
<path d="M189 193V258H197.157L199.413 256.302L212.429 256.519L213.343 256.088V254.176V235.696H215.255V193H189Z" fill="#FF5959"/>
<path d="M227.745 193V215.417H229.657V254.176V256.088L231.867 256.216L245.274 256.823L245.843 258H254V193H227.745Z" fill="#4B5055"/>
<path d="M222.647 218.28V235.696H224.559V254.177V256.088L226.183 256.519L237.379 257.363L237.686 258H245.843V204.851L222.647 218.28Z" fill="#FF5959"/>
<path d="M197.029 201.157H207.225V204.98H197.029V201.157Z" fill="#F7F9FA"/>
<path d="M197.029 209.313H207.225V213.137H197.029V209.313Z" fill="#F7F9FA"/>
<path d="M197.029 217.47H207.225V221.294H197.029V217.47Z" fill="#F7F9FA"/>
<path d="M197.029 225.627H207.225V229.451H197.029V225.627Z" fill="#F7F9FA"/>
<path d="M197.157 233.784H237.686V258H197.157V233.784Z" fill="#F8B240"/>
<path d="M221.5 233.784H237.686V258H221.5V233.784Z" fill="#DA982C"/>
<path d="M206.206 243.98H210.284V247.804H206.206V243.98Z" fill="#F7F9FA"/>
<path d="M215.382 243.98H219.461V247.804H215.382V243.98Z" fill="#F7F9FA"/>
<path d="M224.559 243.98H228.637V247.804H224.559V243.98Z" fill="#E5EAEE"/>
<path d="M230.677 223.588H237.814V227.412H230.677V223.588Z" fill="#E5EAEE"/>
</g>
<g clip-path="url(#clip2)">
<path d="M115.94 21.0051H159.31V52.5569H115.94V21.0051Z" fill="#95A5A5"/>
<path d="M155.379 22.8457H162.741V50.3663H155.379V22.8457Z" fill="#D1D4D1"/>
<path d="M119.62 49.8762H112.258V23.8091H119.62V49.8762Z" fill="#D1D4D1"/>
<path d="M153.276 20.479H164.845V23.1085C164.845 24.2701 163.903 25.2116 162.742 25.2116H155.379C154.217 25.2116 153.276 24.2701 153.276 23.1085V20.479Z" fill="#BDC3C7"/>
<path d="M155.379 48.3496H162.742C163.903 48.3496 164.845 49.2916 164.845 50.4532V53.0827H153.276V50.4532C153.276 49.2916 154.217 48.3496 155.379 48.3496Z" fill="#BDC3C7"/>
<path d="M119.62 25.2116H112.258C111.097 25.2116 110.155 24.2701 110.155 23.1085V20.479H121.724V23.1085C121.724 24.2701 120.783 25.2116 119.62 25.2116Z" fill="#BDC3C7"/>
<path d="M121.724 53.0827H110.155V50.4532C110.155 49.2916 111.097 48.3496 112.258 48.3496H119.62C120.783 48.3496 121.724 49.2916 121.724 50.4532V53.0827Z" fill="#BDC3C7"/>
<path d="M109.104 15.4312H166.948V19.9534C166.948 20.5342 166.477 21.0052 165.896 21.0052H110.155C109.574 21.0052 109.104 20.5342 109.104 19.9534V15.4312Z" fill="#285680"/>
<path d="M110.155 52.5569H165.896C166.477 52.5569 166.948 53.0279 166.948 53.6087V58.8671H109.104V53.6087C109.104 53.0279 109.574 52.5569 110.155 52.5569Z" fill="#285680"/>
<path d="M166.948 16.7985H108.052C107.471 16.7985 107 16.3275 107 15.7467V10.2113C107 9.7515 107.298 9.34474 107.736 9.20699L136.565 0.261202C137.174 0.0717869 137.826 0.0717869 138.435 0.261202L167.264 9.20699C167.702 9.34474 168 9.7515 168 10.2113V15.7467C168 16.3275 167.529 16.7985 166.948 16.7985Z" fill="#4482C3"/>
<path d="M111.207 12.5912V12.5353L137.184 4.47193C137.387 4.4091 137.604 4.4091 137.807 4.47193L163.793 12.5353V12.5912H111.207Z" fill="#285680"/>
<path d="M149.069 36.7809C149.069 43.1703 143.889 48.3496 137.5 48.3496C131.111 48.3496 125.931 43.1703 125.931 36.7809C125.931 30.3915 131.111 25.2117 137.5 25.2117C143.889 25.2117 149.069 30.3915 149.069 36.7809Z" fill="#7ED09E"/>
<path d="M108.052 56.7634H166.948C167.529 56.7634 168 57.2344 168 57.8152V59.9188C168 60.4996 167.529 60.9706 166.948 60.9706H108.052C107.471 60.9706 107 60.4996 107 59.9188V57.8152C107 57.2344 107.471 56.7634 108.052 56.7634Z" fill="#4482C3"/>
<path d="M136.687 46.4648L131.9 38.095V36.979H132.458C133.808 36.979 134.838 36.7845 135.547 36.3956C136.273 36.0067 136.695 35.305 136.813 34.2905H131.9V32.6672H136.788C136.619 31.7203 136.172 31.0355 135.446 30.6128C134.737 30.1901 133.741 29.9787 132.458 29.9787H131.9V28.3555H142.385V29.9787H137.598C138.409 30.6382 138.89 31.5343 139.042 32.6672H142.385V34.2905H139.093C138.974 35.5248 138.502 36.4886 137.674 37.1819C136.864 37.8582 135.783 38.2894 134.433 38.4754L139.27 46.4648H136.687Z" fill="#3DA867"/>
</g>
<circle cx="73.5" cy="197.5" r="19.5" fill="white"/>
<path d="M60.7745 204L65.8945 190H68.7745L73.8945 204H71.1745L70.0545 200.76H64.5945L63.4545 204H60.7745ZM65.2945 198.76H69.3545L67.3145 192.94L65.2945 198.76ZM74.872 199.28V197.14H78.632V193.68H80.812V197.14H84.552V199.28H80.812V202.74H78.632V199.28H74.872Z" fill="#779B12"/>
<circle cx="250.5" cy="197.5" r="19.5" fill="white"/>
<path d="M239.585 204V190H245.205C246.658 190 247.765 190.34 248.525 191.02C249.298 191.687 249.685 192.547 249.685 193.6C249.685 194.48 249.445 195.187 248.965 195.72C248.498 196.24 247.925 196.593 247.245 196.78C248.045 196.94 248.705 197.34 249.225 197.98C249.745 198.607 250.005 199.34 250.005 200.18C250.005 201.287 249.605 202.2 248.805 202.92C248.005 203.64 246.871 204 245.405 204H239.585ZM242.145 195.88H244.825C245.545 195.88 246.098 195.713 246.485 195.38C246.871 195.047 247.065 194.573 247.065 193.96C247.065 193.373 246.871 192.913 246.485 192.58C246.111 192.233 245.545 192.06 244.785 192.06H242.145V195.88ZM242.145 201.92H245.005C245.765 201.92 246.351 201.747 246.765 201.4C247.191 201.04 247.405 200.54 247.405 199.9C247.405 199.247 247.185 198.733 246.745 198.36C246.305 197.987 245.711 197.8 244.965 197.8H242.145V201.92ZM251.962 199.28V197.14H255.722V193.68H257.902V197.14H261.642V199.28H257.902V202.74H255.722V199.28H251.962Z" fill="#C88D2F"/>
<path d="M99 38C77.8333 46.2353 34.8 85.7647 32 178" stroke="white" stroke-dasharray="2 2"/>
<path d="M173 38C194.167 46.2353 237.2 85.7647 240 178" stroke="white" stroke-dasharray="2 2"/>
<g clip-path="url(#clip3)">
<path d="M51.5437 109.667C51.518 109.667 51.4919 109.665 51.4658 109.66C50.7866 109.554 50.2628 109.176 49.7563 108.811C49.4527 108.593 49.1659 108.386 48.8635 108.251C47.8831 107.815 46.8312 108.175 45.7368 109.323C45.5469 109.522 45.2317 109.529 45.0327 109.339C44.8337 109.15 44.8263 108.834 45.016 108.635C46.7798 106.786 48.3021 106.911 49.2687 107.342C49.6648 107.518 50.0073 107.765 50.3385 108.003C50.7692 108.314 51.176 108.607 51.6205 108.677C51.8921 108.719 52.0778 108.974 52.0351 109.246C51.9964 109.491 51.7846 109.667 51.5437 109.667Z" fill="#655E67"/>
<path d="M50.9397 115.917C50.8039 115.917 50.6687 115.862 50.5704 115.754C49.9042 115.018 49.6474 114.087 49.3991 113.187C49.3348 112.954 49.2739 112.733 49.206 112.516C48.9159 111.585 48.2697 110.785 47.5198 110.43C46.9536 110.162 46.3624 110.148 45.7625 110.39C45.5071 110.493 45.2172 110.37 45.1144 110.115C45.0115 109.86 45.1349 109.569 45.39 109.467C46.2464 109.121 47.1301 109.143 47.9464 109.53C48.9547 110.008 49.781 111.013 50.1569 112.219C50.2297 112.453 50.2956 112.691 50.3592 112.922C50.5866 113.746 50.8014 114.525 51.3088 115.085C51.4934 115.289 51.4778 115.604 51.2738 115.788C51.1785 115.875 51.0589 115.917 50.9397 115.917Z" fill="#655E67"/>
<path d="M45.6584 102.056C45.0397 101.511 44.3237 101.325 43.5813 101.781C43.1268 102.059 42.5917 102.101 42.1341 101.83C41.8004 101.633 41.4349 101.524 41.0516 101.524C40.6684 101.524 40.3029 101.633 39.9692 101.83C39.5115 102.101 38.9764 102.059 38.522 101.781C37.7797 101.325 37.0636 101.511 36.4448 102.056C35.4746 102.91 35.1112 104.322 36.2861 106.321C37.1258 107.75 38.2536 108.631 39.183 108.706C39.6833 109.332 42.42 109.332 42.9203 108.706C43.8497 108.631 44.9775 107.75 45.8172 106.321C46.9921 104.322 46.6287 102.91 45.6584 102.056Z" fill="#C77E67"/>
<path d="M44.7467 110.708H37.3569C37.3569 110.708 29 120.704 29 124.759C29 129.295 33.0275 131.476 35.1804 131.476H46.9232C49.076 131.476 53.1036 129.295 53.1036 124.759C53.1035 120.704 44.7467 110.708 44.7467 110.708Z" fill="#C77E67"/>
<path d="M45.6586 102.056C45.0399 101.511 44.3238 101.325 43.5814 101.781C43.5339 101.81 43.4853 101.836 43.4362 101.86C43.5111 101.918 43.5847 101.984 43.6567 102.056C44.5103 102.91 44.83 104.322 43.7963 106.321C43.0575 107.749 42.0653 108.631 41.2475 108.706C41.0991 108.917 40.7264 109.056 40.2812 109.125C41.2754 109.26 42.5888 109.12 42.9204 108.706C43.8498 108.631 44.9775 107.749 45.8173 106.321C46.9922 104.322 46.6289 102.91 45.6586 102.056Z" fill="#AC583E"/>
<path d="M44.7468 110.708H42.8545C42.8545 110.708 50.2071 120.704 50.2071 124.759C50.2071 129.295 46.6635 131.476 44.7694 131.476H46.9232C49.0761 131.476 53.1036 129.295 53.1036 124.759C53.1036 120.704 44.7468 110.708 44.7468 110.708Z" fill="#AC583E"/>
<path d="M45.9823 112.244C45.2384 111.296 44.7466 110.708 44.7466 110.708H37.3568C37.3568 110.708 36.865 111.296 36.1211 112.244H45.9823Z" fill="#AC583E"/>
<path d="M41.0514 109.829C40.6295 109.829 40.2602 109.617 40.0679 109.283C39.786 109.086 39.3759 108.536 39.0261 106.897C38.9167 106.385 38.8428 105.893 38.8063 105.436C38.7844 105.161 38.989 104.922 39.2632 104.9C39.5374 104.877 39.7773 105.082 39.7992 105.357C39.8322 105.771 39.8998 106.219 40.0002 106.689C40.2495 107.857 40.5251 108.342 40.6234 108.448C40.7693 108.503 40.8825 108.623 40.9266 108.775C40.9432 108.833 41.047 108.833 41.0515 108.833C41.0558 108.833 41.1597 108.833 41.1763 108.775C41.2204 108.623 41.3338 108.503 41.4796 108.448C41.5778 108.342 41.8534 107.858 42.1027 106.689C42.2026 106.221 42.2706 105.772 42.3047 105.356C42.327 105.081 42.5687 104.877 42.8415 104.9C43.1157 104.922 43.3198 105.163 43.2973 105.437C43.2598 105.896 43.1856 106.387 43.0768 106.897C42.7269 108.536 42.3168 109.086 42.0348 109.283C41.8425 109.618 41.4733 109.829 41.0514 109.829Z" fill="#7B3F2C"/>
<path d="M43.5687 118.384H42.7079C42.6412 118.01 42.4897 117.658 42.2616 117.352H43.5687C43.8438 117.352 44.0667 117.129 44.0667 116.854C44.0667 116.579 43.8437 116.356 43.5687 116.356H38.5341C38.259 116.356 38.0361 116.579 38.0361 116.854C38.0361 117.129 38.2591 117.352 38.5341 117.352H40.2823C40.6745 117.352 41.0431 117.505 41.3204 117.782C41.4917 117.954 41.615 118.16 41.6848 118.385H38.5341C38.259 118.385 38.0361 118.608 38.0361 118.883C38.0361 119.158 38.2591 119.38 38.5341 119.38H41.6651C41.456 119.981 40.8875 120.413 40.2204 120.413H39.1866C38.8718 120.413 38.5913 120.589 38.4544 120.873C38.3176 121.156 38.3542 121.485 38.55 121.732L41.5902 125.559C41.6886 125.683 41.8338 125.747 41.9805 125.747C42.089 125.747 42.1983 125.712 42.2899 125.639C42.5052 125.468 42.5411 125.155 42.3701 124.939L39.5657 121.409H40.2204C41.4404 121.409 42.461 120.536 42.696 119.38H43.5687C43.8438 119.38 44.0667 119.157 44.0667 118.882C44.0668 118.607 43.8438 118.384 43.5687 118.384Z" fill="#F0E9E6"/>
<path d="M35.5464 109.405C35.5464 110.125 36.1298 110.708 36.8493 110.708H45.2546C45.9743 110.708 46.5576 110.125 46.5576 109.405C46.5576 108.686 45.9742 108.102 45.2546 108.102H36.8493C36.1297 108.102 35.5464 108.686 35.5464 109.405Z" fill="#655E67"/>
<path d="M45.2543 108.102H43.4194C44.139 108.102 44.7224 108.686 44.7224 109.405C44.7224 110.125 44.139 110.708 43.4194 110.708H45.2543C45.9739 110.708 46.5572 110.125 46.5572 109.405C46.5572 108.686 45.9739 108.102 45.2543 108.102Z" fill="#544F56"/>
<path d="M55.0061 128.257H46.311C45.422 128.257 44.7012 128.978 44.7012 129.867C44.7012 130.756 45.422 131.477 46.311 131.477H55.0061C55.8952 131.477 56.616 130.756 56.616 129.867C56.616 128.978 55.8952 128.257 55.0061 128.257Z" fill="#F7E365"/>
<path d="M55.0062 128.257H53.1597C54.0487 128.257 54.7695 128.978 54.7695 129.867C54.7695 130.756 54.0487 131.477 53.1597 131.477H55.0062C55.8953 131.477 56.6161 130.756 56.6161 129.867C56.6161 128.978 55.8953 128.257 55.0062 128.257Z" fill="#ECC52E"/>
<path d="M55.0061 125.037H46.311C45.422 125.037 44.7012 125.758 44.7012 126.647C44.7012 127.536 45.422 128.257 46.311 128.257H55.0061C55.8952 128.257 56.616 127.536 56.616 126.647C56.616 125.758 55.8952 125.037 55.0061 125.037Z" fill="#F7E365"/>
<path d="M55.0061 127.024H46.311C45.6403 127.024 45.0655 126.614 44.8236 126.031C44.7448 126.221 44.7012 126.429 44.7012 126.647C44.7012 127.536 45.422 128.257 46.311 128.257H55.0061C55.8952 128.257 56.616 127.536 56.616 126.647C56.616 126.429 56.5723 126.221 56.4936 126.031C56.2516 126.614 55.6769 127.024 55.0061 127.024Z" fill="#ECC52E"/>
<path d="M55.0062 125.037H53.1597C54.0487 125.037 54.7695 125.758 54.7695 126.647C54.7695 127.536 54.0487 128.257 53.1597 128.257H55.0062C55.8953 128.257 56.6161 127.536 56.6161 126.647C56.6161 125.758 55.8953 125.037 55.0062 125.037Z" fill="#ECC52E"/>
<path d="M61.7845 129.061L57.4369 121.531C56.9924 120.761 56.0078 120.497 55.2378 120.942C54.4678 121.387 54.204 122.371 54.6486 123.141L58.9961 130.671C59.4407 131.441 60.4252 131.705 61.1952 131.261C61.9652 130.816 62.229 129.831 61.7845 129.061Z" fill="#F7E365"/>
<path d="M61.7844 129.062L60.8611 127.462C61.3057 128.232 61.0419 129.217 60.2719 129.662C59.5019 130.106 58.5174 129.842 58.0728 129.072L58.996 130.671C59.4406 131.441 60.4252 131.705 61.1951 131.261C61.9651 130.816 62.229 129.832 61.7844 129.062Z" fill="#ECC52E"/>
</g>
<g clip-path="url(#clip4)">
<path d="M241.544 109.667C241.518 109.667 241.492 109.665 241.466 109.66C240.787 109.554 240.263 109.176 239.756 108.811C239.453 108.593 239.166 108.386 238.864 108.251C237.883 107.815 236.831 108.175 235.737 109.323C235.547 109.522 235.232 109.529 235.033 109.339C234.834 109.15 234.826 108.834 235.016 108.635C236.78 106.786 238.302 106.911 239.269 107.342C239.665 107.518 240.007 107.765 240.338 108.003C240.769 108.314 241.176 108.607 241.62 108.677C241.892 108.719 242.078 108.974 242.035 109.246C241.996 109.491 241.785 109.667 241.544 109.667Z" fill="#655E67"/>
<path d="M240.94 115.917C240.804 115.917 240.669 115.862 240.57 115.754C239.904 115.018 239.647 114.087 239.399 113.187C239.335 112.954 239.274 112.733 239.206 112.516C238.916 111.585 238.27 110.785 237.52 110.43C236.954 110.162 236.362 110.148 235.763 110.39C235.507 110.493 235.217 110.37 235.114 110.115C235.011 109.86 235.135 109.569 235.39 109.467C236.246 109.121 237.13 109.143 237.946 109.53C238.955 110.008 239.781 111.013 240.157 112.219C240.23 112.453 240.296 112.691 240.359 112.922C240.587 113.746 240.801 114.525 241.309 115.085C241.493 115.289 241.478 115.604 241.274 115.788C241.179 115.875 241.059 115.917 240.94 115.917Z" fill="#655E67"/>
<path d="M235.658 102.056C235.04 101.511 234.324 101.325 233.581 101.781C233.127 102.059 232.592 102.101 232.134 101.83C231.8 101.633 231.435 101.524 231.052 101.524C230.668 101.524 230.303 101.633 229.969 101.83C229.512 102.101 228.976 102.059 228.522 101.781C227.78 101.325 227.064 101.511 226.445 102.056C225.475 102.91 225.111 104.322 226.286 106.321C227.126 107.75 228.254 108.631 229.183 108.706C229.683 109.332 232.42 109.332 232.92 108.706C233.85 108.631 234.977 107.75 235.817 106.321C236.992 104.322 236.629 102.91 235.658 102.056Z" fill="#C77E67"/>
<path d="M234.747 110.708H227.357C227.357 110.708 219 120.704 219 124.759C219 129.295 223.028 131.476 225.18 131.476H236.923C239.076 131.476 243.104 129.295 243.104 124.759C243.104 120.704 234.747 110.708 234.747 110.708Z" fill="#C77E67"/>
<path d="M235.659 102.056C235.04 101.511 234.324 101.325 233.581 101.781C233.534 101.81 233.485 101.836 233.436 101.86C233.511 101.918 233.585 101.984 233.657 102.056C234.51 102.91 234.83 104.322 233.796 106.321C233.058 107.749 232.065 108.631 231.248 108.706C231.099 108.917 230.726 109.056 230.281 109.125C231.275 109.26 232.589 109.12 232.92 108.706C233.85 108.631 234.978 107.749 235.817 106.321C236.992 104.322 236.629 102.91 235.659 102.056Z" fill="#AC583E"/>
<path d="M234.747 110.708H232.854C232.854 110.708 240.207 120.704 240.207 124.759C240.207 129.295 236.664 131.476 234.769 131.476H236.923C239.076 131.476 243.104 129.295 243.104 124.759C243.104 120.704 234.747 110.708 234.747 110.708Z" fill="#AC583E"/>
<path d="M235.982 112.244C235.238 111.296 234.747 110.708 234.747 110.708H227.357C227.357 110.708 226.865 111.296 226.121 112.244H235.982Z" fill="#AC583E"/>
<path d="M231.051 109.829C230.629 109.829 230.26 109.617 230.068 109.283C229.786 109.086 229.376 108.536 229.026 106.897C228.917 106.385 228.843 105.893 228.806 105.436C228.784 105.161 228.989 104.922 229.263 104.9C229.537 104.877 229.777 105.082 229.799 105.357C229.832 105.771 229.9 106.219 230 106.689C230.25 107.857 230.525 108.342 230.623 108.448C230.769 108.503 230.883 108.623 230.927 108.775C230.943 108.833 231.047 108.833 231.051 108.833C231.056 108.833 231.16 108.833 231.176 108.775C231.22 108.623 231.334 108.503 231.48 108.448C231.578 108.342 231.853 107.858 232.103 106.689C232.203 106.221 232.271 105.772 232.305 105.356C232.327 105.081 232.569 104.877 232.842 104.9C233.116 104.922 233.32 105.163 233.297 105.437C233.26 105.896 233.186 106.387 233.077 106.897C232.727 108.536 232.317 109.086 232.035 109.283C231.843 109.618 231.473 109.829 231.051 109.829Z" fill="#7B3F2C"/>
<path d="M233.569 118.384H232.708C232.641 118.01 232.49 117.658 232.262 117.352H233.569C233.844 117.352 234.067 117.129 234.067 116.854C234.067 116.579 233.844 116.356 233.569 116.356H228.534C228.259 116.356 228.036 116.579 228.036 116.854C228.036 117.129 228.259 117.352 228.534 117.352H230.282C230.674 117.352 231.043 117.505 231.32 117.782C231.492 117.954 231.615 118.16 231.685 118.385H228.534C228.259 118.385 228.036 118.608 228.036 118.883C228.036 119.158 228.259 119.38 228.534 119.38H231.665C231.456 119.981 230.888 120.413 230.22 120.413H229.187C228.872 120.413 228.591 120.589 228.454 120.873C228.318 121.156 228.354 121.485 228.55 121.732L231.59 125.559C231.689 125.683 231.834 125.747 231.98 125.747C232.089 125.747 232.198 125.712 232.29 125.639C232.505 125.468 232.541 125.155 232.37 124.939L229.566 121.409H230.22C231.44 121.409 232.461 120.536 232.696 119.38H233.569C233.844 119.38 234.067 119.157 234.067 118.882C234.067 118.607 233.844 118.384 233.569 118.384Z" fill="#F0E9E6"/>
<path d="M225.546 109.405C225.546 110.125 226.13 110.708 226.849 110.708H235.255C235.974 110.708 236.558 110.125 236.558 109.405C236.558 108.686 235.974 108.102 235.255 108.102H226.849C226.13 108.102 225.546 108.686 225.546 109.405Z" fill="#655E67"/>
<path d="M235.254 108.102H233.419C234.139 108.102 234.722 108.686 234.722 109.405C234.722 110.125 234.139 110.708 233.419 110.708H235.254C235.974 110.708 236.557 110.125 236.557 109.405C236.557 108.686 235.974 108.102 235.254 108.102Z" fill="#544F56"/>
<path d="M245.006 128.257H236.311C235.422 128.257 234.701 128.978 234.701 129.867C234.701 130.756 235.422 131.477 236.311 131.477H245.006C245.895 131.477 246.616 130.756 246.616 129.867C246.616 128.978 245.895 128.257 245.006 128.257Z" fill="#F7E365"/>
<path d="M245.006 128.257H243.16C244.049 128.257 244.77 128.978 244.77 129.867C244.77 130.756 244.049 131.477 243.16 131.477H245.006C245.895 131.477 246.616 130.756 246.616 129.867C246.616 128.978 245.895 128.257 245.006 128.257Z" fill="#ECC52E"/>
<path d="M245.006 125.037H236.311C235.422 125.037 234.701 125.758 234.701 126.647C234.701 127.536 235.422 128.257 236.311 128.257H245.006C245.895 128.257 246.616 127.536 246.616 126.647C246.616 125.758 245.895 125.037 245.006 125.037Z" fill="#F7E365"/>
<path d="M245.006 127.024H236.311C235.64 127.024 235.066 126.614 234.824 126.031C234.745 126.221 234.701 126.429 234.701 126.647C234.701 127.536 235.422 128.257 236.311 128.257H245.006C245.895 128.257 246.616 127.536 246.616 126.647C246.616 126.429 246.572 126.221 246.494 126.031C246.252 126.614 245.677 127.024 245.006 127.024Z" fill="#ECC52E"/>
<path d="M245.006 125.037H243.16C244.049 125.037 244.77 125.758 244.77 126.647C244.77 127.536 244.049 128.257 243.16 128.257H245.006C245.895 128.257 246.616 127.536 246.616 126.647C246.616 125.758 245.895 125.037 245.006 125.037Z" fill="#ECC52E"/>
<path d="M251.784 129.061L247.437 121.531C246.992 120.761 246.008 120.497 245.238 120.942C244.468 121.387 244.204 122.371 244.649 123.141L248.996 130.671C249.441 131.441 250.425 131.705 251.195 131.261C251.965 130.816 252.229 129.831 251.784 129.061Z" fill="#F7E365"/>
<path d="M251.784 129.062L250.861 127.462C251.306 128.232 251.042 129.217 250.272 129.662C249.502 130.106 248.517 129.842 248.073 129.072L248.996 130.671C249.441 131.441 250.425 131.705 251.195 131.261C251.965 130.816 252.229 129.832 251.784 129.062Z" fill="#ECC52E"/>
</g>
<rect y="136" width="81" height="18" rx="9" fill="white"/>
<rect x="192" y="136" width="81" height="18" rx="9" fill="white"/>
<path d="M10.8616 148V141H12.1416V148H10.8616ZM13.4984 148V141H14.7784L18.0684 145.93V141H19.3484V148H18.0684L14.7784 143.08V148H13.4984ZM22.3354 148V142.03H20.2954V141H25.6654V142.03H23.6154V148H22.3354ZM26.6136 148V141H31.1836V142.03H27.8936V143.95H30.8836V144.95H27.8936V146.97H31.1836V148H26.6136ZM32.3948 148V141H34.9648C35.5248 141 35.9848 141.097 36.3448 141.29C36.7115 141.477 36.9848 141.733 37.1648 142.06C37.3448 142.38 37.4348 142.737 37.4348 143.13C37.4348 143.557 37.3215 143.947 37.0948 144.3C36.8748 144.653 36.5282 144.91 36.0548 145.07L37.5048 148H36.0348L34.7348 145.24H33.6748V148H32.3948ZM33.6748 144.3H34.8848C35.3115 144.3 35.6248 144.197 35.8248 143.99C36.0248 143.783 36.1248 143.51 36.1248 143.17C36.1248 142.837 36.0248 142.57 35.8248 142.37C35.6315 142.17 35.3148 142.07 34.8748 142.07H33.6748V144.3ZM38.6253 148V141H43.1953V142.03H39.9053V143.95H42.8953V144.95H39.9053V146.97H43.1953V148H38.6253ZM46.7966 148.12C46.2832 148.12 45.8299 148.033 45.4366 147.86C45.0432 147.68 44.7332 147.427 44.5066 147.1C44.2799 146.767 44.1632 146.363 44.1566 145.89H45.5066C45.5199 146.217 45.6366 146.493 45.8566 146.72C46.0832 146.94 46.3932 147.05 46.7866 147.05C47.1266 147.05 47.3966 146.97 47.5966 146.81C47.7966 146.643 47.8966 146.423 47.8966 146.15C47.8966 145.863 47.8066 145.64 47.6266 145.48C47.4532 145.32 47.2199 145.19 46.9266 145.09C46.6332 144.99 46.3199 144.883 45.9866 144.77C45.4466 144.583 45.0332 144.343 44.7466 144.05C44.4666 143.757 44.3266 143.367 44.3266 142.88C44.3199 142.467 44.4166 142.113 44.6166 141.82C44.8232 141.52 45.1032 141.29 45.4566 141.13C45.8099 140.963 46.2166 140.88 46.6766 140.88C47.1432 140.88 47.5532 140.963 47.9066 141.13C48.2666 141.297 48.5466 141.53 48.7466 141.83C48.9532 142.13 49.0632 142.487 49.0766 142.9H47.7066C47.6999 142.653 47.6032 142.437 47.4166 142.25C47.2366 142.057 46.9832 141.96 46.6566 141.96C46.3766 141.953 46.1399 142.023 45.9466 142.17C45.7599 142.31 45.6666 142.517 45.6666 142.79C45.6666 143.023 45.7399 143.21 45.8866 143.35C46.0332 143.483 46.2332 143.597 46.4866 143.69C46.7399 143.783 47.0299 143.883 47.3566 143.99C47.7032 144.11 48.0199 144.25 48.3066 144.41C48.5932 144.57 48.8232 144.783 48.9966 145.05C49.1699 145.31 49.2566 145.647 49.2566 146.06C49.2566 146.427 49.1632 146.767 48.9766 147.08C48.7899 147.393 48.5132 147.647 48.1466 147.84C47.7799 148.027 47.3299 148.12 46.7966 148.12ZM51.9155 148V142.03H49.8755V141H55.2455V142.03H53.1955V148H51.9155ZM61.0865 148.12C60.5732 148.12 60.1298 148.03 59.7565 147.85C59.3898 147.67 59.0998 147.423 58.8865 147.11C58.6798 146.79 58.5598 146.43 58.5265 146.03H59.7765C59.8365 146.317 59.9832 146.557 60.2165 146.75C60.4498 146.937 60.7398 147.03 61.0865 147.03C61.4598 147.03 61.7632 146.893 61.9965 146.62C62.2365 146.347 62.3565 146.007 62.3565 145.6C62.3565 145.18 62.2365 144.847 61.9965 144.6C61.7632 144.353 61.4665 144.23 61.1065 144.23C60.8065 144.23 60.5465 144.303 60.3265 144.45C60.1065 144.597 59.9498 144.78 59.8565 145H58.6265L59.2265 141H63.1065V142.12H60.1865L59.8665 143.74C60.0132 143.58 60.2132 143.45 60.4665 143.35C60.7198 143.243 61.0032 143.19 61.3165 143.19C61.8165 143.19 62.2332 143.303 62.5665 143.53C62.8998 143.75 63.1532 144.043 63.3265 144.41C63.4998 144.77 63.5865 145.163 63.5865 145.59C63.5865 146.077 63.4798 146.51 63.2665 146.89C63.0598 147.27 62.7665 147.57 62.3865 147.79C62.0132 148.01 61.5798 148.12 61.0865 148.12ZM66.2177 144.44C65.8977 144.44 65.6077 144.37 65.3477 144.23C65.0877 144.083 64.881 143.877 64.7277 143.61C64.5743 143.343 64.4977 143.027 64.4977 142.66C64.4977 142.293 64.5743 141.977 64.7277 141.71C64.881 141.443 65.0877 141.24 65.3477 141.1C65.6077 140.953 65.901 140.88 66.2277 140.88C66.5477 140.88 66.8343 140.953 67.0877 141.1C67.3477 141.24 67.5543 141.443 67.7077 141.71C67.861 141.977 67.9377 142.293 67.9377 142.66C67.9377 143.027 67.861 143.343 67.7077 143.61C67.5543 143.877 67.3477 144.083 67.0877 144.23C66.8277 144.37 66.5377 144.44 66.2177 144.44ZM65.8377 148L69.7877 141H71.0377L67.0877 148H65.8377ZM66.2177 143.55C66.411 143.55 66.5777 143.477 66.7177 143.33C66.8577 143.177 66.9277 142.953 66.9277 142.66C66.9277 142.367 66.8577 142.143 66.7177 141.99C66.5843 141.837 66.4177 141.76 66.2177 141.76C66.0177 141.76 65.8477 141.837 65.7077 141.99C65.5743 142.143 65.5077 142.367 65.5077 142.66C65.5077 142.953 65.5743 143.177 65.7077 143.33C65.8477 143.477 66.0177 143.55 66.2177 143.55ZM70.6977 148.12C70.3777 148.12 70.0877 148.05 69.8277 147.91C69.5677 147.763 69.361 147.557 69.2077 147.29C69.0543 147.023 68.9777 146.707 68.9777 146.34C68.9777 145.973 69.0543 145.66 69.2077 145.4C69.361 145.133 69.5677 144.93 69.8277 144.79C70.0877 144.643 70.381 144.57 70.7077 144.57C71.0277 144.57 71.3143 144.643 71.5677 144.79C71.8277 144.93 72.0343 145.133 72.1877 145.4C72.341 145.66 72.4177 145.973 72.4177 146.34C72.4177 146.707 72.341 147.023 72.1877 147.29C72.0343 147.557 71.8277 147.763 71.5677 147.91C71.3143 148.05 71.0243 148.12 70.6977 148.12ZM70.6977 147.23C70.8977 147.23 71.0643 147.157 71.1977 147.01C71.3377 146.857 71.4077 146.633 71.4077 146.34C71.4077 146.047 71.3377 145.823 71.1977 145.67C71.0643 145.517 70.8977 145.44 70.6977 145.44C70.4977 145.44 70.3277 145.517 70.1877 145.67C70.0543 145.823 69.9877 146.047 69.9877 146.34C69.9877 146.633 70.0543 146.857 70.1877 147.01C70.3277 147.157 70.4977 147.23 70.6977 147.23Z" fill="black"/>
<path d="M202.793 148V141H204.073V148H202.793ZM205.43 148V141H206.71L210 145.93V141H211.28V148H210L206.71 143.08V148H205.43ZM214.267 148V142.03H212.227V141H217.597V142.03H215.547V148H214.267ZM218.545 148V141H223.115V142.03H219.825V143.95H222.815V144.95H219.825V146.97H223.115V148H218.545ZM224.326 148V141H226.896C227.456 141 227.916 141.097 228.276 141.29C228.643 141.477 228.916 141.733 229.096 142.06C229.276 142.38 229.366 142.737 229.366 143.13C229.366 143.557 229.253 143.947 229.026 144.3C228.806 144.653 228.46 144.91 227.986 145.07L229.436 148H227.966L226.666 145.24H225.606V148H224.326ZM225.606 144.3H226.816C227.243 144.3 227.556 144.197 227.756 143.99C227.956 143.783 228.056 143.51 228.056 143.17C228.056 142.837 227.956 142.57 227.756 142.37C227.563 142.17 227.246 142.07 226.806 142.07H225.606V144.3ZM230.557 148V141H235.127V142.03H231.837V143.95H234.827V144.95H231.837V146.97H235.127V148H230.557ZM238.728 148.12C238.215 148.12 237.762 148.033 237.368 147.86C236.975 147.68 236.665 147.427 236.438 147.1C236.212 146.767 236.095 146.363 236.088 145.89H237.438C237.452 146.217 237.568 146.493 237.788 146.72C238.015 146.94 238.325 147.05 238.718 147.05C239.058 147.05 239.328 146.97 239.528 146.81C239.728 146.643 239.828 146.423 239.828 146.15C239.828 145.863 239.738 145.64 239.558 145.48C239.385 145.32 239.152 145.19 238.858 145.09C238.565 144.99 238.252 144.883 237.918 144.77C237.378 144.583 236.965 144.343 236.678 144.05C236.398 143.757 236.258 143.367 236.258 142.88C236.252 142.467 236.348 142.113 236.548 141.82C236.755 141.52 237.035 141.29 237.388 141.13C237.742 140.963 238.148 140.88 238.608 140.88C239.075 140.88 239.485 140.963 239.838 141.13C240.198 141.297 240.478 141.53 240.678 141.83C240.885 142.13 240.995 142.487 241.008 142.9H239.638C239.632 142.653 239.535 142.437 239.348 142.25C239.168 142.057 238.915 141.96 238.588 141.96C238.308 141.953 238.072 142.023 237.878 142.17C237.692 142.31 237.598 142.517 237.598 142.79C237.598 143.023 237.672 143.21 237.818 143.35C237.965 143.483 238.165 143.597 238.418 143.69C238.672 143.783 238.962 143.883 239.288 143.99C239.635 144.11 239.952 144.25 240.238 144.41C240.525 144.57 240.755 144.783 240.928 145.05C241.102 145.31 241.188 145.647 241.188 146.06C241.188 146.427 241.095 146.767 240.908 147.08C240.722 147.393 240.445 147.647 240.078 147.84C239.712 148.027 239.262 148.12 238.728 148.12ZM243.847 148V142.03H241.807V141H247.177V142.03H245.127V148H243.847ZM252.898 148.12C252.411 148.12 252.001 148.027 251.668 147.84C251.335 147.647 251.075 147.397 250.888 147.09C250.701 146.783 250.591 146.453 250.558 146.1H251.748C251.801 146.407 251.928 146.643 252.128 146.81C252.335 146.977 252.595 147.06 252.908 147.06C253.355 147.06 253.715 146.857 253.988 146.45C254.261 146.037 254.408 145.41 254.428 144.57C254.268 144.843 254.025 145.07 253.698 145.25C253.378 145.43 253.025 145.52 252.638 145.52C252.251 145.52 251.888 145.427 251.548 145.24C251.208 145.053 250.931 144.79 250.718 144.45C250.505 144.11 250.398 143.71 250.398 143.25C250.398 142.83 250.501 142.44 250.708 142.08C250.915 141.72 251.201 141.43 251.568 141.21C251.935 140.99 252.365 140.88 252.858 140.88C253.385 140.88 253.828 140.977 254.188 141.17C254.548 141.363 254.835 141.623 255.048 141.95C255.268 142.277 255.425 142.64 255.518 143.04C255.618 143.44 255.668 143.85 255.668 144.27C255.668 145.05 255.558 145.73 255.338 146.31C255.125 146.883 254.808 147.33 254.388 147.65C253.975 147.963 253.478 148.12 252.898 148.12ZM252.938 144.44C253.185 144.44 253.408 144.387 253.608 144.28C253.808 144.167 253.965 144.02 254.078 143.84C254.191 143.653 254.248 143.447 254.248 143.22C254.248 142.86 254.121 142.563 253.868 142.33C253.621 142.097 253.308 141.98 252.928 141.98C252.555 141.98 252.245 142.097 251.998 142.33C251.751 142.557 251.628 142.847 251.628 143.2C251.628 143.573 251.751 143.873 251.998 144.1C252.245 144.327 252.558 144.44 252.938 144.44ZM258.286 144.44C257.966 144.44 257.676 144.37 257.416 144.23C257.156 144.083 256.949 143.877 256.796 143.61C256.643 143.343 256.566 143.027 256.566 142.66C256.566 142.293 256.643 141.977 256.796 141.71C256.949 141.443 257.156 141.24 257.416 141.1C257.676 140.953 257.969 140.88 258.296 140.88C258.616 140.88 258.903 140.953 259.156 141.1C259.416 141.24 259.623 141.443 259.776 141.71C259.929 141.977 260.006 142.293 260.006 142.66C260.006 143.027 259.929 143.343 259.776 143.61C259.623 143.877 259.416 144.083 259.156 144.23C258.896 144.37 258.606 144.44 258.286 144.44ZM257.906 148L261.856 141H263.106L259.156 148H257.906ZM258.286 143.55C258.479 143.55 258.646 143.477 258.786 143.33C258.926 143.177 258.996 142.953 258.996 142.66C258.996 142.367 258.926 142.143 258.786 141.99C258.653 141.837 258.486 141.76 258.286 141.76C258.086 141.76 257.916 141.837 257.776 141.99C257.643 142.143 257.576 142.367 257.576 142.66C257.576 142.953 257.643 143.177 257.776 143.33C257.916 143.477 258.086 143.55 258.286 143.55ZM262.766 148.12C262.446 148.12 262.156 148.05 261.896 147.91C261.636 147.763 261.429 147.557 261.276 147.29C261.123 147.023 261.046 146.707 261.046 146.34C261.046 145.973 261.123 145.66 261.276 145.4C261.429 145.133 261.636 144.93 261.896 144.79C262.156 144.643 262.449 144.57 262.776 144.57C263.096 144.57 263.383 144.643 263.636 144.79C263.896 144.93 264.103 145.133 264.256 145.4C264.409 145.66 264.486 145.973 264.486 146.34C264.486 146.707 264.409 147.023 264.256 147.29C264.103 147.557 263.896 147.763 263.636 147.91C263.383 148.05 263.093 148.12 262.766 148.12ZM262.766 147.23C262.966 147.23 263.133 147.157 263.266 147.01C263.406 146.857 263.476 146.633 263.476 146.34C263.476 146.047 263.406 145.823 263.266 145.67C263.133 145.517 262.966 145.44 262.766 145.44C262.566 145.44 262.396 145.517 262.256 145.67C262.123 145.823 262.056 146.047 262.056 146.34C262.056 146.633 262.123 146.857 262.256 147.01C262.396 147.157 262.566 147.23 262.766 147.23Z" fill="black"/>
<defs>
<clipPath id="clip0">
<rect width="65" height="65" fill="white" transform="translate(9 193)"/>
</clipPath>
<clipPath id="clip1">
<rect width="65" height="65" fill="white" transform="translate(189 193)"/>
</clipPath>
<clipPath id="clip2">
<rect width="61" height="61" fill="white" transform="translate(107)"/>
</clipPath>
<clipPath id="clip3">
<rect width="33" height="33" fill="white" transform="translate(29 100)"/>
</clipPath>
<clipPath id="clip4">
<rect width="33" height="33" fill="white" transform="translate(219 100)"/>
</clipPath>
</defs>
</svg>
