<svg width="263" height="89" viewBox="0 0 263 89" fill="none" xmlns="http://www.w3.org/2000/svg">
<g clip-path="url(#clip0)">
<path d="M139.544 9.667C139.518 9.667 139.492 9.665 139.466 9.66088C138.787 9.55408 138.263 9.17671 137.756 8.81184C137.453 8.59315 137.166 8.38651 136.864 8.25187C135.883 7.81526 134.831 8.17575 133.737 9.32314C133.547 9.52218 133.232 9.52959 133.033 9.33984C132.834 9.15002 132.826 8.83478 133.016 8.63575C134.78 6.78659 136.302 6.91156 137.269 7.34205C137.665 7.51845 138.007 7.76518 138.338 8.00379C138.769 8.31407 139.176 8.60713 139.62 8.67707C139.892 8.7198 140.078 8.97471 140.035 9.24638C139.996 9.49182 139.785 9.667 139.544 9.667Z" fill="#655E67"/>
<path d="M138.94 15.9173C138.804 15.9173 138.669 15.8621 138.57 15.7535C137.904 15.0175 137.647 14.087 137.399 13.1871C137.335 12.9538 137.274 12.7334 137.206 12.5155C136.916 11.5846 136.27 10.7854 135.52 10.4299C134.954 10.1616 134.362 10.1483 133.763 10.3902C133.507 10.493 133.217 10.3696 133.114 10.1146C133.011 9.85954 133.135 9.56937 133.39 9.4665C134.246 9.1211 135.13 9.14301 135.946 9.52986C136.955 10.0078 137.781 11.0131 138.157 12.2191C138.23 12.4526 138.296 12.6913 138.359 12.9222C138.587 13.7462 138.801 14.5245 139.309 15.0851C139.493 15.2889 139.478 15.6039 139.274 15.7885C139.179 15.8748 139.059 15.9173 138.94 15.9173Z" fill="#655E67"/>
<path d="M133.658 2.05599C133.04 1.51149 132.324 1.32567 131.581 1.7809C131.127 2.0596 130.592 2.10085 130.134 1.83014C129.8 1.63279 129.435 1.52393 129.052 1.52393C128.668 1.52393 128.303 1.63285 127.969 1.83014C127.512 2.10085 126.976 2.0596 126.522 1.7809C125.78 1.32573 125.064 1.51155 124.445 2.05599C123.475 2.90986 123.111 4.3219 124.286 6.32098C125.126 7.74978 126.254 8.63111 127.183 8.7062C127.683 9.33184 130.42 9.33184 130.92 8.7062C131.85 8.63111 132.977 7.74978 133.817 6.32098C134.992 4.32196 134.629 2.90986 133.658 2.05599Z" fill="#C77E67"/>
<path d="M132.747 10.7085H125.357C125.357 10.7085 117 20.7047 117 24.7593C117 29.2953 121.028 31.4768 123.18 31.4768H134.923C137.076 31.4768 141.104 29.2953 141.104 24.7593C141.104 20.7047 132.747 10.7085 132.747 10.7085Z" fill="#C77E67"/>
<path d="M133.659 2.05588C133.04 1.51138 132.324 1.32556 131.581 1.78079C131.534 1.80992 131.485 1.8359 131.436 1.85975C131.511 1.91859 131.585 1.98382 131.657 2.05588C132.51 2.90975 132.83 4.32179 131.796 6.32087C131.058 7.74967 130.065 8.631 129.248 8.70609C129.099 8.91711 128.726 9.05665 128.281 9.12535C129.275 9.26025 130.589 9.12071 130.92 8.70609C131.85 8.631 132.978 7.74967 133.817 6.32087C134.992 4.32186 134.629 2.90975 133.659 2.05588Z" fill="#AC583E"/>
<path d="M132.747 10.708H130.854C130.854 10.708 138.207 20.7042 138.207 24.7589C138.207 29.2948 134.664 31.4764 132.769 31.4764H134.923C137.076 31.4764 141.104 29.2948 141.104 24.7589C141.104 20.7043 132.747 10.708 132.747 10.708Z" fill="#AC583E"/>
<path d="M133.982 12.2441C133.238 11.2965 132.747 10.708 132.747 10.708H125.357C125.357 10.708 124.865 11.2964 124.121 12.2441H133.982Z" fill="#AC583E"/>
<path d="M129.051 9.8291C128.629 9.8291 128.26 9.61744 128.068 9.28331C127.786 9.08583 127.376 8.53598 127.026 6.89681C126.917 6.38466 126.843 5.89301 126.806 5.43565C126.784 5.16147 126.989 4.92151 127.263 4.89966C127.537 4.87697 127.777 5.08239 127.799 5.35651C127.832 5.77075 127.9 6.21895 128 6.68888C128.25 7.85742 128.525 8.34172 128.623 8.44774C128.769 8.50253 128.883 8.62325 128.927 8.77549C128.943 8.83253 129.047 8.83317 129.051 8.83317C129.056 8.83317 129.16 8.83253 129.176 8.77549C129.22 8.62325 129.334 8.50253 129.48 8.44774C129.578 8.34178 129.853 7.85754 130.103 6.68895C130.203 6.22089 130.271 5.77229 130.305 5.35554C130.327 5.08142 130.569 4.87736 130.842 4.89979C131.116 4.92222 131.32 5.16257 131.297 5.43669C131.26 5.89591 131.186 6.38711 131.077 6.89681C130.727 8.53598 130.317 9.08583 130.035 9.28331C129.843 9.6175 129.473 9.8291 129.051 9.8291Z" fill="#7B3F2C"/>
<path d="M131.569 18.385H130.708C130.641 18.0104 130.49 17.6583 130.262 17.3524H131.569C131.844 17.3524 132.067 17.1295 132.067 16.8545C132.067 16.5795 131.844 16.3564 131.569 16.3564H126.534C126.259 16.3564 126.036 16.5794 126.036 16.8544C126.036 17.1294 126.259 17.3524 126.534 17.3524H128.282C128.674 17.3528 129.043 17.5056 129.32 17.7829C129.492 17.954 129.615 18.1602 129.685 18.385H126.534C126.259 18.385 126.036 18.608 126.036 18.883C126.036 19.158 126.259 19.381 126.534 19.381H129.665C129.456 19.9815 128.888 20.4135 128.22 20.4135H127.187C126.872 20.4135 126.591 20.5896 126.454 20.873C126.318 21.1564 126.354 21.4856 126.55 21.732L129.59 25.5593C129.689 25.683 129.834 25.7475 129.98 25.7475C130.089 25.7475 130.198 25.7122 130.29 25.6394C130.505 25.4684 130.541 25.1551 130.37 24.9397L127.566 21.4094H128.22C129.44 21.4094 130.461 20.5369 130.696 19.3809H131.569C131.844 19.3809 132.067 19.158 132.067 18.8829C132.067 18.6079 131.844 18.385 131.569 18.385Z" fill="#F0E9E6"/>
<path d="M123.546 9.40546C123.546 10.1251 124.13 10.7084 124.849 10.7084H133.255C133.974 10.7084 134.558 10.125 134.558 9.40546C134.558 8.68584 133.974 8.10254 133.255 8.10254H124.849C124.13 8.10254 123.546 8.68584 123.546 9.40546Z" fill="#655E67"/>
<path d="M133.254 8.10254H131.419C132.139 8.10254 132.722 8.6859 132.722 9.40546C132.722 10.125 132.139 10.7084 131.419 10.7084H133.254C133.974 10.7084 134.557 10.125 134.557 9.40546C134.557 8.6859 133.974 8.10254 133.254 8.10254Z" fill="#544F56"/>
<path d="M143.006 28.2568H134.311C133.422 28.2568 132.701 28.9776 132.701 29.8667C132.701 30.7557 133.422 31.4765 134.311 31.4765H143.006C143.895 31.4765 144.616 30.7557 144.616 29.8667C144.616 28.9776 143.895 28.2568 143.006 28.2568Z" fill="#F7E365"/>
<path d="M143.006 28.2568H141.16C142.049 28.2568 142.77 28.9776 142.77 29.8667C142.77 30.7558 142.049 31.4765 141.16 31.4765H143.006C143.895 31.4765 144.616 30.7557 144.616 29.8667C144.616 28.9776 143.895 28.2568 143.006 28.2568Z" fill="#ECC52E"/>
<path d="M143.006 25.0371H134.311C133.422 25.0371 132.701 25.7579 132.701 26.647C132.701 27.536 133.422 28.2568 134.311 28.2568H143.006C143.895 28.2568 144.616 27.536 144.616 26.647C144.616 25.7579 143.895 25.0371 143.006 25.0371Z" fill="#F7E365"/>
<path d="M143.006 27.0244H134.311C133.64 27.0244 133.066 26.6141 132.824 26.0308C132.745 26.2206 132.701 26.4287 132.701 26.647C132.701 27.5361 133.422 28.2568 134.311 28.2568H143.006C143.895 28.2568 144.616 27.5361 144.616 26.647C144.616 26.4287 144.572 26.2206 144.494 26.0308C144.252 26.6141 143.677 27.0244 143.006 27.0244Z" fill="#ECC52E"/>
<path d="M143.006 25.0371H141.16C142.049 25.0371 142.77 25.7579 142.77 26.647C142.77 27.536 142.049 28.2568 141.16 28.2568H143.006C143.895 28.2568 144.616 27.536 144.616 26.647C144.616 25.7579 143.895 25.0371 143.006 25.0371Z" fill="#ECC52E"/>
<path d="M149.784 29.0614L145.437 21.5313C144.992 20.7613 144.008 20.4974 143.238 20.942C142.468 21.3866 142.204 22.3712 142.649 23.1412L146.996 30.6714C147.441 31.4413 148.425 31.7052 149.195 31.2606C149.965 30.816 150.229 29.8314 149.784 29.0614Z" fill="#F7E365"/>
<path d="M149.784 29.0615L148.861 27.4624C149.306 28.2324 149.042 29.2169 148.272 29.6615C147.502 30.1061 146.517 29.8423 146.073 29.0723L146.996 30.6715C147.441 31.4414 148.425 31.7053 149.195 31.2607C149.965 30.8161 150.229 29.8315 149.784 29.0615Z" fill="#ECC52E"/>
</g>
<g clip-path="url(#clip1)">
<path d="M124.095 72.0257C122.504 72.4351 120.876 71.4735 120.467 69.8821C120.058 68.2907 121.019 66.6631 122.611 66.2537C124.202 65.8443 125.83 66.8059 126.239 68.3973C126.648 69.9887 125.687 71.6163 124.095 72.0257ZM122.938 67.527C122.049 67.7558 121.512 68.6653 121.74 69.5546C121.969 70.444 122.879 70.9813 123.768 70.7525C124.657 70.5238 125.195 69.6142 124.966 68.7249C124.737 67.8355 123.827 67.2982 122.938 67.527Z" fill="url(#paint0_linear)"/>
<path d="M143.109 67.1346C141.517 67.544 139.89 66.5824 139.48 64.991C139.071 63.3996 140.032 61.7719 141.624 61.3626C143.215 60.9532 144.843 61.9148 145.252 63.5062C145.662 65.0976 144.7 66.7253 143.109 67.1346ZM141.951 62.6359C141.062 62.8646 140.525 63.7742 140.753 64.6635C140.982 65.5529 141.892 66.0902 142.781 65.8614C143.67 65.6327 144.208 64.723 143.979 63.8338C143.75 62.9445 142.841 62.4071 141.951 62.6359Z" fill="url(#paint1_linear)"/>
<path d="M145.304 63.7522C145.34 63.9655 145.351 64.1781 145.342 64.3877L143.954 64.7448C144.044 64.4583 144.059 64.1447 143.979 63.8333C143.8 63.1372 143.204 62.657 142.527 62.5904C142.339 62.5719 142.145 62.5856 141.952 62.6354C141.674 62.7068 141.432 62.8443 141.235 63.0269L140.238 62.1639C140.551 61.8437 140.938 61.5911 141.383 61.4359L145.304 63.7522Z" fill="url(#paint2_linear)"/>
<path d="M124.966 68.7247C125.046 69.0363 125.03 69.3498 124.94 69.6362L126.33 69.2788C126.344 68.989 126.315 68.6925 126.239 68.3971C125.97 67.3514 125.176 66.5783 124.211 66.2862L123.755 67.5239C124.328 67.667 124.808 68.1127 124.966 68.7247Z" fill="url(#paint3_linear)"/>
<path d="M151.818 80.6409L122.985 88.0579C121.337 88.482 119.657 87.4894 119.233 85.8413L116.205 74.0699C115.781 72.4216 116.773 70.7417 118.422 70.3177L147.254 62.9007C148.902 62.4767 150.582 63.4692 151.006 65.1174L154.034 76.8888C154.458 78.5369 153.466 80.2169 151.818 80.6409Z" fill="url(#paint4_linear)"/>
<path d="M119.269 72.2263L147.433 64.9812C148.208 64.7818 148.999 65.2486 149.198 66.0239L152.013 76.9671C152.213 77.7424 151.746 78.5327 150.97 78.7321L122.806 85.9772C122.031 86.1766 121.241 85.7098 121.041 84.9344L118.226 73.9912C118.027 73.2159 118.494 72.4257 119.269 72.2263Z" fill="url(#paint5_linear)"/>
<path d="M142.047 63.3544C141.845 63.4063 141.621 63.3615 141.452 63.2147L129.245 52.6407L123.655 67.7928C123.53 68.1334 123.152 68.3078 122.811 68.182C122.47 68.0564 122.296 67.6784 122.422 67.3378L128.669 50.4027L142.313 62.2211C142.587 62.4588 142.617 62.8739 142.379 63.1483C142.288 63.2531 142.172 63.3223 142.047 63.3544Z" fill="url(#paint6_linear)"/>
<path d="M133.713 54.7713L133.033 55.9227L129.244 52.641L129.238 52.6581L128.176 51.7385L128.669 50.4027L133.713 54.7713Z" fill="url(#paint7_linear)"/>
<path d="M129.569 53.9033C130.79 53.5894 131.524 52.3457 131.211 51.1255C130.897 49.9052 129.653 49.1704 128.433 49.4844C127.212 49.7983 126.478 51.042 126.792 52.2622C127.105 53.4825 128.349 54.2172 129.569 53.9033Z" fill="url(#paint8_linear)"/>
<path d="M130.057 51.0312L129.272 51.234L129.069 50.4487C129.017 50.2468 128.811 50.1255 128.609 50.1776C128.408 50.2298 128.286 50.4356 128.338 50.6375L128.541 51.4227L127.756 51.6255C127.554 51.6777 127.433 51.8836 127.485 52.0854C127.537 52.2874 127.743 52.4087 127.945 52.3566L128.73 52.1538L128.933 52.939C128.985 53.1409 129.191 53.2623 129.393 53.2101C129.594 53.158 129.716 52.9521 129.664 52.7502L129.461 51.965L130.246 51.7622C130.448 51.71 130.569 51.5041 130.517 51.3023C130.465 51.1004 130.259 50.979 130.057 51.0312Z" fill="url(#paint9_linear)"/>
<path d="M122.848 82.155C122.807 81.9946 122.825 81.8188 122.902 81.6276C122.979 81.4367 123.094 81.3215 123.246 81.2824C123.338 81.2585 123.464 81.284 123.623 81.3586C123.782 81.4332 123.941 81.5169 124.1 81.6099C124.259 81.7028 124.481 81.7705 124.767 81.8125C125.053 81.8545 125.356 81.8341 125.677 81.7515C126.159 81.6276 126.516 81.4134 126.749 81.109C126.981 80.8046 127.041 80.4315 126.927 79.9895C126.822 79.5819 126.593 79.2784 126.24 79.0793C125.887 78.8803 125.489 78.7518 125.046 78.6934C124.603 78.6353 124.155 78.565 123.701 78.4823C123.247 78.3996 122.831 78.208 122.452 77.9068C122.072 77.606 121.811 77.1751 121.666 76.6141C121.551 76.1672 121.538 75.7572 121.627 75.3838C121.715 75.0104 121.885 74.6972 122.135 74.444C122.385 74.1908 122.663 73.9823 122.968 73.8187C123.272 73.6549 123.606 73.5261 123.97 73.4326C124.198 73.3739 124.441 73.3272 124.698 73.2924C124.954 73.2576 125.214 73.2419 125.476 73.2458C125.738 73.2497 125.966 73.2936 126.159 73.3777C126.352 73.4618 126.468 73.5831 126.509 73.7419C126.55 73.9008 126.541 74.0739 126.481 74.2614C126.421 74.4489 126.306 74.5644 126.137 74.6079C126.053 74.6296 125.928 74.6188 125.764 74.5749C125.599 74.5311 125.387 74.4999 125.125 74.481C124.863 74.4623 124.576 74.4932 124.263 74.5736C123.782 74.6975 123.422 74.8921 123.184 75.1571C122.945 75.4224 122.877 75.7503 122.977 76.1411C123.043 76.3961 123.175 76.5953 123.374 76.7388C123.573 76.8823 123.809 76.9827 124.08 77.0396C124.351 77.0968 124.65 77.1446 124.975 77.1831C125.3 77.2218 125.629 77.2798 125.959 77.3578C126.29 77.4357 126.602 77.5437 126.894 77.6813C127.186 77.819 127.453 78.0426 127.695 78.3517C127.937 78.661 128.117 79.045 128.235 79.5038C128.459 80.377 128.366 81.1106 127.956 81.704C127.546 82.2974 126.905 82.7061 126.035 82.93C125.257 83.1301 124.554 83.1376 123.925 82.9524C123.296 82.7675 122.938 82.5016 122.848 82.155Z" fill="url(#paint10_linear)"/>
<path d="M129.37 79.0311L128.421 75.3421C128.171 74.3703 128.245 73.5897 128.643 73.0008C129.041 72.4118 129.671 72.0064 130.533 71.7847C131.396 71.5629 132.145 71.6134 132.782 71.936C133.419 72.2586 133.863 72.9061 134.113 73.8778L135.062 77.5668C135.312 78.5387 135.236 79.3197 134.833 79.9097C134.431 80.4998 133.799 80.9057 132.937 81.1274C132.075 81.3492 131.327 81.2982 130.694 80.9744C130.061 80.6507 129.62 80.0029 129.37 79.0311ZM130.714 78.6854C130.994 79.7756 131.633 80.1924 132.63 79.9358C133.112 79.8119 133.449 79.5812 133.641 79.2432C133.834 78.9055 133.859 78.4619 133.718 77.9125L132.769 74.2235C132.628 73.6743 132.391 73.2982 132.06 73.0949C131.728 72.892 131.322 72.8523 130.84 72.9763C129.843 73.2328 129.484 73.9062 129.765 74.9964L130.714 78.6854Z" fill="url(#paint11_linear)"/>
<path d="M137.227 79.4699L135.068 71.078C135.031 70.9344 135.069 70.8099 135.182 70.7041C135.294 70.5988 135.443 70.522 135.629 70.4741C135.815 70.4263 135.983 70.4216 136.132 70.4596C136.282 70.4978 136.375 70.5887 136.412 70.7324L138.378 78.3764L141.674 77.5285C141.801 77.4959 141.916 77.5295 142.018 77.6293C142.12 77.7293 142.192 77.8595 142.233 78.0199C142.275 78.1806 142.274 78.3293 142.233 78.4659C142.192 78.6029 142.108 78.6874 141.981 78.72L137.937 79.7603C137.776 79.8016 137.627 79.7975 137.488 79.7474C137.349 79.6978 137.262 79.6052 137.227 79.4699Z" fill="url(#paint12_linear)"/>
<path d="M143.277 77.9268L141.115 69.5222C141.085 69.404 141.116 69.2879 141.208 69.174C141.301 69.0603 141.431 68.9815 141.6 68.938L143.844 68.3608C144.706 68.1391 145.456 68.1895 146.093 68.5122C146.73 68.8348 147.173 69.4823 147.423 70.454L148.353 74.0669C148.603 75.0388 148.527 75.8198 148.124 76.4098C147.722 76.9998 147.09 77.4057 146.228 77.6275L143.984 78.2047C143.815 78.2482 143.663 78.2424 143.527 78.1872C143.391 78.132 143.308 78.0453 143.277 77.9268ZM144.425 76.8205L145.921 76.4357C146.927 76.177 147.289 75.5026 147.009 74.4124L146.08 70.7995C145.799 69.7093 145.156 69.2935 144.15 69.5522L142.655 69.937L144.425 76.8205Z" fill="url(#paint13_linear)"/>
</g>
<rect x="107" y="36" width="43" height="18" rx="9" fill="white"/>
<path d="M58 45H204.5" stroke="white" stroke-dasharray="2 2"/>
<path d="M117.17 48V41H119.56C120.38 41 121.054 41.1467 121.58 41.44C122.114 41.7267 122.507 42.1333 122.76 42.66C123.02 43.18 123.15 43.7933 123.15 44.5C123.15 45.2067 123.02 45.8233 122.76 46.35C122.507 46.87 122.114 47.2767 121.58 47.57C121.054 47.8567 120.38 48 119.56 48H117.17ZM118.45 46.9H119.5C120.087 46.9 120.55 46.8067 120.89 46.62C121.23 46.4267 121.474 46.1533 121.62 45.8C121.767 45.44 121.84 45.0067 121.84 44.5C121.84 44 121.767 43.57 121.62 43.21C121.474 42.85 121.23 42.5733 120.89 42.38C120.55 42.1867 120.087 42.09 119.5 42.09H118.45V46.9ZM124.28 48V41H128.85V42.03H125.56V43.95H128.55V44.95H125.56V46.97H128.85V48H124.28ZM130.061 48V41H132.871C133.598 41 134.151 41.17 134.531 41.51C134.918 41.8433 135.111 42.2733 135.111 42.8C135.111 43.24 134.991 43.5933 134.751 43.86C134.518 44.12 134.231 44.2967 133.891 44.39C134.291 44.47 134.621 44.67 134.881 44.99C135.141 45.3033 135.271 45.67 135.271 46.09C135.271 46.6433 135.071 47.1 134.671 47.46C134.271 47.82 133.704 48 132.971 48H130.061ZM131.341 43.94H132.681C133.041 43.94 133.318 43.8567 133.511 43.69C133.704 43.5233 133.801 43.2867 133.801 42.98C133.801 42.6867 133.704 42.4567 133.511 42.29C133.324 42.1167 133.041 42.03 132.661 42.03H131.341V43.94ZM131.341 46.96H132.771C133.151 46.96 133.444 46.8733 133.651 46.7C133.864 46.52 133.971 46.27 133.971 45.95C133.971 45.6233 133.861 45.3667 133.641 45.18C133.421 44.9933 133.124 44.9 132.751 44.9H131.341V46.96ZM137.912 48V42.03H135.872V41H141.242V42.03H139.192V48H137.912Z" fill="black"/>
<g clip-path="url(#clip2)">
<path d="M47.2847 40.9559C46.8898 40.9559 46.5697 40.6358 46.5697 40.2409C46.5697 38.0745 46.0488 36.5663 45.0216 35.7583C43.7312 34.7433 41.9889 35.1502 41.9715 35.1544C41.5887 35.2473 41.2017 35.0134 41.1075 34.6312C41.0132 34.2489 41.2441 33.8627 41.6259 33.7668C41.7236 33.7423 44.0426 33.1814 45.8912 34.623C47.2902 35.7141 47.9997 37.6042 47.9997 40.2409C47.9997 40.6358 47.6796 40.9559 47.2847 40.9559Z" fill="#EAAB92"/>
<path d="M13.0367 25.3545L10.2639 25.9701L7.56152 28.9347V30.6495L13.8805 27.9142L13.0367 25.3545Z" fill="#EAAB92"/>
<path d="M13.0373 24.8078C11.9631 23.4833 10.6282 22.6691 9.54501 22.184C8.61342 21.7669 7.56201 22.454 7.56201 23.4748V28.9348C9.05432 27.4802 10.9117 26.2744 13.0373 25.3546L13.881 25.0827L13.0373 24.8078Z" fill="#EDBCA4"/>
<path d="M2.82272 43.1255H4.43419C4.63247 43.1255 4.81116 43.2479 4.88006 43.4338C5.99222 46.4348 7.95703 48.9115 11.0178 50.6938L11.2586 51.7031V54.7559C11.2586 56.4719 12.1012 57.4815 13.1405 57.4815H16.6154C17.6547 57.4815 18.4972 56.4719 18.4972 54.7559V54.2256L19.0485 53.4487C20.5854 53.6985 22.1907 53.8286 23.8426 53.8286C26.621 53.8286 29.2683 53.5066 31.6786 52.8752L32.2758 53.5832V54.7558C32.2758 56.2947 33.1183 57.4814 34.1576 57.4814H37.6326C38.6719 57.4814 39.5144 56.5548 39.5144 54.7558V49.8503L39.9928 48.5481C42.5586 46.2788 44.0618 43.2134 44.0618 38.9801C43.5376 29.879 34.6859 24.982 23.8427 24.982C22.457 24.982 21.1039 25.0717 19.7963 25.2455C18.7438 22.5385 16.6103 21.1176 15.02 20.4052C14.0884 19.9881 13.037 20.6752 13.037 21.6959V27.0704C9.07547 28.7846 6.04369 31.4913 4.57528 34.9537H2.82272C1.26375 34.9539 0 36.2177 0 37.7766V39.459C0 42.01 1.26375 43.1255 2.82272 43.1255Z" fill="#FFD6BD"/>
<path d="M11.0178 49.8501C7.95713 48.0678 6.39028 45.5911 5.27812 42.59C5.20922 42.404 5.03053 42.2817 4.83225 42.2817H2.82272C1.26375 42.2817 0 41.018 0 39.459V41.175C0 42.734 1.26375 43.9977 2.82272 43.9977H4.308C5.45522 47.2163 7.93163 49.8522 11.2586 51.7032V50.2643C11.2586 50.093 11.1658 49.9363 11.0178 49.8501Z" fill="#F9C6AA"/>
<path d="M16.6156 56.6377H13.1406C12.1013 56.6377 11.2588 55.7952 11.2588 54.7559V56.4719C11.2588 57.5112 12.1013 58.3537 13.1406 58.3537H16.6156C17.6549 58.3537 18.4974 57.5112 18.4974 56.4719V54.7559C18.4973 55.7952 17.6549 56.6377 16.6156 56.6377Z" fill="#F9C6AA"/>
<path d="M39.5142 48.3505V49.8503C42.3716 47.3967 44.0865 44.04 44.0865 39.8414C44.0865 39.5502 44.0779 39.2632 44.0616 38.98C43.8488 42.7032 42.2429 45.723 39.6772 47.9922C39.5743 48.0833 39.5142 48.2131 39.5142 48.3505Z" fill="#F9C6AA"/>
<path d="M32.2756 52.4918C32.2756 52.1794 31.9806 51.9523 31.6784 52.0315C29.2681 52.6629 26.6209 52.9849 23.8424 52.9849C22.1905 52.9849 20.5853 52.8548 19.0483 52.605C18.759 52.5579 18.4971 52.7819 18.4971 53.075V54.2256C20.1999 54.5376 21.992 54.7009 23.8424 54.7009C26.8523 54.7009 29.7082 54.3229 32.2756 53.5833V52.4918Z" fill="#F9C6AA"/>
<path d="M37.6327 56.6377H34.1577C33.1184 56.6377 32.2759 55.7952 32.2759 54.7559V56.4719C32.2759 57.5112 33.1184 58.3537 34.1577 58.3537H37.6327C38.672 58.3537 39.5145 57.5112 39.5145 56.4719V54.7559C39.5144 55.7952 38.6719 56.6377 37.6327 56.6377Z" fill="#F9C6AA"/>
</g>
<path d="M7.88313 42V35H12.4031V36.03H9.16313V37.99H11.7831V39H9.16313V42H7.88313ZM15.2209 42.12C14.6009 42.12 14.1209 41.9267 13.7809 41.54C13.4476 41.1533 13.2809 40.5867 13.2809 39.84V37.04H14.5509V39.72C14.5509 40.1467 14.6376 40.4733 14.8109 40.7C14.9843 40.9267 15.2576 41.04 15.6309 41.04C15.9843 41.04 16.2743 40.9133 16.5009 40.66C16.7343 40.4067 16.8509 40.0533 16.8509 39.6V37.04H18.1309V42H17.0009L16.9009 41.16C16.7476 41.4533 16.5243 41.6867 16.2309 41.86C15.9443 42.0333 15.6076 42.12 15.2209 42.12ZM19.4449 42V37.04H20.5749L20.6749 37.88C20.8283 37.5867 21.0483 37.3533 21.3349 37.18C21.6283 37.0067 21.9716 36.92 22.3649 36.92C22.9783 36.92 23.4549 37.1133 23.7949 37.5C24.1349 37.8867 24.3049 38.4533 24.3049 39.2V42H23.0249V39.32C23.0249 38.8933 22.9383 38.5667 22.7649 38.34C22.5916 38.1133 22.3216 38 21.9549 38C21.5949 38 21.2983 38.1267 21.0649 38.38C20.8383 38.6333 20.7249 38.9867 20.7249 39.44V42H19.4449ZM27.8089 42.12C27.3422 42.12 26.9256 42.0067 26.5589 41.78C26.1922 41.5533 25.9022 41.2433 25.6889 40.85C25.4756 40.4567 25.3689 40.01 25.3689 39.51C25.3689 39.01 25.4756 38.5667 25.6889 38.18C25.9022 37.7867 26.1922 37.48 26.5589 37.26C26.9256 37.0333 27.3422 36.92 27.8089 36.92C28.1822 36.92 28.5089 36.99 28.7889 37.13C29.0689 37.27 29.2956 37.4667 29.4689 37.72V34.8H30.7489V42H29.6089L29.4689 41.29C29.3089 41.51 29.0956 41.7033 28.8289 41.87C28.5689 42.0367 28.2289 42.12 27.8089 42.12ZM28.0789 41C28.4922 41 28.8289 40.8633 29.0889 40.59C29.3556 40.31 29.4889 39.9533 29.4889 39.52C29.4889 39.0867 29.3556 38.7333 29.0889 38.46C28.8289 38.18 28.4922 38.04 28.0789 38.04C27.6722 38.04 27.3356 38.1767 27.0689 38.45C26.8022 38.7233 26.6689 39.0767 26.6689 39.51C26.6689 39.9433 26.8022 40.3 27.0689 40.58C27.3356 40.86 27.6722 41 28.0789 41ZM34.0152 42L36.5752 35H38.0152L40.5752 42H39.2152L38.6552 40.38H35.9252L35.3552 42H34.0152ZM36.2752 39.38H38.3052L37.2852 36.47L36.2752 39.38Z" fill="#C95629"/>
<g clip-path="url(#clip3)">
<path d="M262.285 40.9559C261.89 40.9559 261.57 40.6358 261.57 40.2409C261.57 38.0745 261.049 36.5663 260.022 35.7583C258.731 34.7433 256.989 35.1502 256.972 35.1544C256.589 35.2473 256.202 35.0134 256.108 34.6312C256.013 34.2489 256.244 33.8627 256.626 33.7668C256.724 33.7423 259.043 33.1814 260.891 34.623C262.29 35.7141 263 37.6042 263 40.2409C263 40.6358 262.68 40.9559 262.285 40.9559Z" fill="#EAAB92"/>
<path d="M228.037 25.3545L225.264 25.9701L222.562 28.9347V30.6495L228.88 27.9142L228.037 25.3545Z" fill="#EAAB92"/>
<path d="M228.037 24.8078C226.963 23.4833 225.628 22.6691 224.545 22.184C223.613 21.7669 222.562 22.454 222.562 23.4748V28.9348C224.054 27.4802 225.912 26.2744 228.037 25.3546L228.881 25.0827L228.037 24.8078Z" fill="#EDBCA4"/>
<path d="M217.823 43.1255H219.434C219.632 43.1255 219.811 43.2479 219.88 43.4338C220.992 46.4348 222.957 48.9115 226.018 50.6938L226.259 51.7031V54.7559C226.259 56.4719 227.101 57.4815 228.14 57.4815H231.615C232.655 57.4815 233.497 56.4719 233.497 54.7559V54.2256L234.049 53.4487C235.585 53.6985 237.191 53.8286 238.843 53.8286C241.621 53.8286 244.268 53.5066 246.679 52.8752L247.276 53.5832V54.7558C247.276 56.2947 248.118 57.4814 249.158 57.4814H252.633C253.672 57.4814 254.514 56.5548 254.514 54.7558V49.8503L254.993 48.5481C257.559 46.2788 259.062 43.2134 259.062 38.9801C258.538 29.879 249.686 24.982 238.843 24.982C237.457 24.982 236.104 25.0717 234.796 25.2455C233.744 22.5385 231.61 21.1176 230.02 20.4052C229.088 19.9881 228.037 20.6752 228.037 21.6959V27.0704C224.075 28.7846 221.044 31.4913 219.575 34.9537H217.823C216.264 34.9539 215 36.2177 215 37.7766V39.459C215 42.01 216.264 43.1255 217.823 43.1255Z" fill="#FFD6BD"/>
<path d="M226.018 49.8501C222.957 48.0678 221.39 45.5911 220.278 42.59C220.209 42.404 220.031 42.2817 219.832 42.2817H217.823C216.264 42.2817 215 41.018 215 39.459V41.175C215 42.734 216.264 43.9977 217.823 43.9977H219.308C220.455 47.2163 222.932 49.8522 226.259 51.7032V50.2643C226.259 50.093 226.166 49.9363 226.018 49.8501Z" fill="#F9C6AA"/>
<path d="M231.616 56.6377H228.141C227.101 56.6377 226.259 55.7952 226.259 54.7559V56.4719C226.259 57.5112 227.101 58.3537 228.141 58.3537H231.616C232.655 58.3537 233.497 57.5112 233.497 56.4719V54.7559C233.497 55.7952 232.655 56.6377 231.616 56.6377Z" fill="#F9C6AA"/>
<path d="M254.514 48.3505V49.8503C257.372 47.3967 259.087 44.04 259.087 39.8414C259.087 39.5502 259.078 39.2632 259.062 38.98C258.849 42.7032 257.243 45.723 254.677 47.9922C254.574 48.0833 254.514 48.2131 254.514 48.3505Z" fill="#F9C6AA"/>
<path d="M247.276 52.4918C247.276 52.1794 246.981 51.9523 246.678 52.0315C244.268 52.6629 241.621 52.9849 238.842 52.9849C237.191 52.9849 235.585 52.8548 234.048 52.605C233.759 52.5579 233.497 52.7819 233.497 53.075V54.2256C235.2 54.5376 236.992 54.7009 238.842 54.7009C241.852 54.7009 244.708 54.3229 247.276 53.5833V52.4918Z" fill="#F9C6AA"/>
<path d="M252.633 56.6377H249.158C248.118 56.6377 247.276 55.7952 247.276 54.7559V56.4719C247.276 57.5112 248.118 58.3537 249.158 58.3537H252.633C253.672 58.3537 254.514 57.5112 254.514 56.4719V54.7559C254.514 55.7952 253.672 56.6377 252.633 56.6377Z" fill="#F9C6AA"/>
</g>
<path d="M223.735 42V35H228.255V36.03H225.015V37.99H227.635V39H225.015V42H223.735ZM231.073 42.12C230.453 42.12 229.973 41.9267 229.633 41.54C229.299 41.1533 229.133 40.5867 229.133 39.84V37.04H230.403V39.72C230.403 40.1467 230.489 40.4733 230.663 40.7C230.836 40.9267 231.109 41.04 231.483 41.04C231.836 41.04 232.126 40.9133 232.353 40.66C232.586 40.4067 232.703 40.0533 232.703 39.6V37.04H233.983V42H232.853L232.753 41.16C232.599 41.4533 232.376 41.6867 232.083 41.86C231.796 42.0333 231.459 42.12 231.073 42.12ZM235.296 42V37.04H236.426L236.526 37.88C236.68 37.5867 236.9 37.3533 237.186 37.18C237.48 37.0067 237.823 36.92 238.216 36.92C238.83 36.92 239.306 37.1133 239.646 37.5C239.986 37.8867 240.156 38.4533 240.156 39.2V42H238.876V39.32C238.876 38.8933 238.79 38.5667 238.616 38.34C238.443 38.1133 238.173 38 237.806 38C237.446 38 237.15 38.1267 236.916 38.38C236.69 38.6333 236.576 38.9867 236.576 39.44V42H235.296ZM243.66 42.12C243.194 42.12 242.777 42.0067 242.41 41.78C242.044 41.5533 241.754 41.2433 241.54 40.85C241.327 40.4567 241.22 40.01 241.22 39.51C241.22 39.01 241.327 38.5667 241.54 38.18C241.754 37.7867 242.044 37.48 242.41 37.26C242.777 37.0333 243.194 36.92 243.66 36.92C244.034 36.92 244.36 36.99 244.64 37.13C244.92 37.27 245.147 37.4667 245.32 37.72V34.8H246.6V42H245.46L245.32 41.29C245.16 41.51 244.947 41.7033 244.68 41.87C244.42 42.0367 244.08 42.12 243.66 42.12ZM243.93 41C244.344 41 244.68 40.8633 244.94 40.59C245.207 40.31 245.34 39.9533 245.34 39.52C245.34 39.0867 245.207 38.7333 244.94 38.46C244.68 38.18 244.344 38.04 243.93 38.04C243.524 38.04 243.187 38.1767 242.92 38.45C242.654 38.7233 242.52 39.0767 242.52 39.51C242.52 39.9433 242.654 40.3 242.92 40.58C243.187 40.86 243.524 41 243.93 41ZM250.317 42V35H253.127C253.853 35 254.407 35.17 254.787 35.51C255.173 35.8433 255.367 36.2733 255.367 36.8C255.367 37.24 255.247 37.5933 255.007 37.86C254.773 38.12 254.487 38.2967 254.147 38.39C254.547 38.47 254.877 38.67 255.137 38.99C255.397 39.3033 255.527 39.67 255.527 40.09C255.527 40.6433 255.327 41.1 254.927 41.46C254.527 41.82 253.96 42 253.227 42H250.317ZM251.597 37.94H252.937C253.297 37.94 253.573 37.8567 253.767 37.69C253.96 37.5233 254.057 37.2867 254.057 36.98C254.057 36.6867 253.96 36.4567 253.767 36.29C253.58 36.1167 253.297 36.03 252.917 36.03H251.597V37.94ZM251.597 40.96H253.027C253.407 40.96 253.7 40.8733 253.907 40.7C254.12 40.52 254.227 40.27 254.227 39.95C254.227 39.6233 254.117 39.3667 253.897 39.18C253.677 38.9933 253.38 38.9 253.007 38.9H251.597V40.96Z" fill="#C95629"/>
<defs>
<linearGradient id="paint0_linear" x1="120.467" y1="69.8825" x2="126.239" y2="68.3978" gradientUnits="userSpaceOnUse">
<stop stop-color="#FF5D00"/>
<stop offset="1" stop-color="#D54003"/>
</linearGradient>
<linearGradient id="paint1_linear" x1="139.48" y1="64.9915" x2="145.252" y2="63.5068" gradientUnits="userSpaceOnUse">
<stop stop-color="#FF5D00"/>
<stop offset="1" stop-color="#D54003"/>
</linearGradient>
<linearGradient id="paint2_linear" x1="145.345" y1="64.6721" x2="140.758" y2="61.9622" gradientUnits="userSpaceOnUse">
<stop stop-color="#D54003" stop-opacity="0"/>
<stop offset="1" stop-color="#A40002"/>
</linearGradient>
<linearGradient id="paint3_linear" x1="126.414" y1="68.9978" x2="123.302" y2="67.1597" gradientUnits="userSpaceOnUse">
<stop stop-color="#D54003" stop-opacity="0"/>
<stop offset="1" stop-color="#A40002"/>
</linearGradient>
<linearGradient id="paint4_linear" x1="135.44" y1="78.3656" x2="139.527" y2="115.141" gradientUnits="userSpaceOnUse">
<stop stop-color="#FF5D00"/>
<stop offset="1" stop-color="#D54003"/>
</linearGradient>
<linearGradient id="paint5_linear" x1="135.799" y1="76.6903" x2="125.875" y2="59.0015" gradientUnits="userSpaceOnUse">
<stop stop-color="#FF5D00"/>
<stop offset="1" stop-color="#D54003"/>
</linearGradient>
<linearGradient id="paint6_linear" x1="120.588" y1="60.6786" x2="140.705" y2="55.5037" gradientUnits="userSpaceOnUse">
<stop stop-color="#9FC7E2"/>
<stop offset="1" stop-color="#4975AD"/>
</linearGradient>
<linearGradient id="paint7_linear" x1="132.84" y1="54.8128" x2="130.654" y2="53.0011" gradientUnits="userSpaceOnUse">
<stop stop-color="#4975AD" stop-opacity="0"/>
<stop offset="1" stop-color="#114F77"/>
</linearGradient>
<linearGradient id="paint8_linear" x1="128.451" y1="49.567" x2="129.758" y2="54.6266" gradientUnits="userSpaceOnUse">
<stop stop-color="#E2EDF2"/>
<stop offset="1" stop-color="#BDCCD4"/>
</linearGradient>
<linearGradient id="paint9_linear" x1="129.158" y1="52.3034" x2="128.541" y2="49.916" gradientUnits="userSpaceOnUse">
<stop stop-color="#E2EDF2"/>
<stop offset="1" stop-color="#BDCCD4"/>
</linearGradient>
<linearGradient id="paint10_linear" x1="124.503" y1="76.7928" x2="126.77" y2="85.6072" gradientUnits="userSpaceOnUse">
<stop stop-color="white"/>
<stop offset="1" stop-color="#E2EDF2"/>
</linearGradient>
<linearGradient id="paint11_linear" x1="131.373" y1="75.0252" x2="133.641" y2="83.8397" gradientUnits="userSpaceOnUse">
<stop stop-color="white"/>
<stop offset="1" stop-color="#E2EDF2"/>
</linearGradient>
<linearGradient id="paint12_linear" x1="138.314" y1="73.2402" x2="140.581" y2="82.0547" gradientUnits="userSpaceOnUse">
<stop stop-color="white"/>
<stop offset="1" stop-color="#E2EDF2"/>
</linearGradient>
<linearGradient id="paint13_linear" x1="144.684" y1="71.6013" x2="146.951" y2="80.4158" gradientUnits="userSpaceOnUse">
<stop stop-color="white"/>
<stop offset="1" stop-color="#E2EDF2"/>
</linearGradient>
<clipPath id="clip0">
<rect width="33" height="33" fill="white" transform="translate(117)"/>
</clipPath>
<clipPath id="clip1">
<rect width="36" height="36" fill="white" transform="translate(111 53.9688) rotate(-14.4263)"/>
</clipPath>
<clipPath id="clip2">
<rect width="48" height="48" fill="white" transform="translate(0 15)"/>
</clipPath>
<clipPath id="clip3">
<rect width="48" height="48" fill="white" transform="translate(215 15)"/>
</clipPath>
</defs>
</svg>
