<svg width="292" height="65" viewBox="0 0 292 65" fill="none" xmlns="http://www.w3.org/2000/svg">
<path d="M39 34C39 17.4315 52.4315 4 69 4H289.084C290.694 4 292 5.30573 292 6.91643V61.0836C292 62.6943 290.694 64 289.084 64H69C52.4315 64 39 50.5685 39 34Z" fill="white"/>
<path d="M81.662 27.168C80.962 27.168 80.3273 27.0327 79.758 26.762C79.198 26.482 78.75 26.0573 78.414 25.488C78.0873 24.9187 77.924 24.1953 77.924 23.318V17.2H79.408V23.332C79.408 24.1907 79.6133 24.8207 80.024 25.222C80.4347 25.6233 80.99 25.824 81.69 25.824C82.3807 25.824 82.9313 25.6233 83.342 25.222C83.7527 24.8207 83.958 24.1907 83.958 23.332V17.2H85.442V23.318C85.442 24.1953 85.2693 24.9187 84.924 25.488C84.588 26.0573 84.1307 26.482 83.552 26.762C82.9827 27.0327 82.3527 27.168 81.662 27.168ZM87.2896 30.08V20.056H88.6196L88.7736 21.134C88.9976 20.8073 89.3056 20.518 89.6976 20.266C90.0896 20.014 90.5936 19.888 91.2096 19.888C91.8816 19.888 92.4742 20.0467 92.9876 20.364C93.5009 20.6813 93.9022 21.1153 94.1916 21.666C94.4902 22.2167 94.6396 22.842 94.6396 23.542C94.6396 24.242 94.4902 24.8673 94.1916 25.418C93.9022 25.9593 93.5009 26.3887 92.9876 26.706C92.4742 27.014 91.8769 27.168 91.1956 27.168C90.6542 27.168 90.1736 27.0607 89.7536 26.846C89.3429 26.6313 89.0162 26.328 88.7736 25.936V30.08H87.2896ZM90.9436 25.88C91.5782 25.88 92.1009 25.6653 92.5116 25.236C92.9222 24.7973 93.1276 24.228 93.1276 23.528C93.1276 23.0707 93.0342 22.6647 92.8476 22.31C92.6609 21.9553 92.4042 21.68 92.0776 21.484C91.7509 21.2787 91.3729 21.176 90.9436 21.176C90.3089 21.176 89.7862 21.3953 89.3756 21.834C88.9742 22.2727 88.7736 22.8373 88.7736 23.528C88.7736 24.228 88.9742 24.7973 89.3756 25.236C89.7862 25.6653 90.3089 25.88 90.9436 25.88ZM99.0166 27.168C98.1393 27.168 97.416 26.9533 96.8466 26.524C96.2773 26.0947 95.9506 25.5253 95.8666 24.816H97.3646C97.4393 25.1333 97.6166 25.4087 97.8966 25.642C98.1766 25.866 98.5453 25.978 99.0026 25.978C99.4506 25.978 99.7773 25.8847 99.9826 25.698C100.188 25.5113 100.291 25.2967 100.291 25.054C100.291 24.6993 100.146 24.4613 99.8566 24.34C99.5766 24.2093 99.1846 24.0927 98.6806 23.99C98.2886 23.906 97.8966 23.794 97.5046 23.654C97.122 23.514 96.8 23.318 96.5386 23.066C96.2866 22.8047 96.1606 22.4547 96.1606 22.016C96.1606 21.4093 96.394 20.9053 96.8606 20.504C97.3273 20.0933 97.9806 19.888 98.8206 19.888C99.5953 19.888 100.221 20.0747 100.697 20.448C101.182 20.8213 101.467 21.3487 101.551 22.03H100.123C100.076 21.7313 99.936 21.498 99.7026 21.33C99.4786 21.162 99.1753 21.078 98.7926 21.078C98.4193 21.078 98.13 21.1573 97.9246 21.316C97.7193 21.4653 97.6166 21.6613 97.6166 21.904C97.6166 22.1467 97.7566 22.338 98.0366 22.478C98.326 22.618 98.704 22.744 99.1706 22.856C99.6373 22.9587 100.067 23.08 100.459 23.22C100.86 23.3507 101.182 23.5467 101.425 23.808C101.667 24.0693 101.789 24.452 101.789 24.956C101.798 25.5907 101.551 26.118 101.047 26.538C100.552 26.958 99.8753 27.168 99.0166 27.168ZM104.249 18.74C103.969 18.74 103.735 18.656 103.549 18.488C103.371 18.3107 103.283 18.0913 103.283 17.83C103.283 17.5687 103.371 17.354 103.549 17.186C103.735 17.0087 103.969 16.92 104.249 16.92C104.529 16.92 104.757 17.0087 104.935 17.186C105.121 17.354 105.215 17.5687 105.215 17.83C105.215 18.0913 105.121 18.3107 104.935 18.488C104.757 18.656 104.529 18.74 104.249 18.74ZM103.507 27V20.056H104.991V27H103.507ZM110.114 27.168C109.442 27.168 108.849 27.0093 108.336 26.692C107.822 26.3747 107.421 25.9407 107.132 25.39C106.842 24.8393 106.698 24.214 106.698 23.514C106.698 22.814 106.842 22.1933 107.132 21.652C107.421 21.1013 107.822 20.672 108.336 20.364C108.858 20.0467 109.456 19.888 110.128 19.888C110.678 19.888 111.159 19.9953 111.57 20.21C111.99 20.4247 112.316 20.728 112.55 21.12V16.92H114.034V27H112.704L112.55 25.922C112.326 26.2487 112.018 26.538 111.626 26.79C111.234 27.042 110.73 27.168 110.114 27.168ZM110.38 25.88C111.014 25.88 111.532 25.6607 111.934 25.222C112.344 24.7833 112.55 24.2187 112.55 23.528C112.55 22.828 112.344 22.2633 111.934 21.834C111.532 21.3953 111.014 21.176 110.38 21.176C109.745 21.176 109.222 21.3953 108.812 21.834C108.401 22.2633 108.196 22.828 108.196 23.528C108.196 23.9853 108.289 24.3913 108.476 24.746C108.662 25.1007 108.919 25.3807 109.246 25.586C109.582 25.782 109.96 25.88 110.38 25.88ZM119.153 27.168C118.471 27.168 117.865 27.0187 117.333 26.72C116.81 26.412 116.399 25.9873 116.101 25.446C115.802 24.9047 115.653 24.2747 115.653 23.556C115.653 22.828 115.797 22.1887 116.087 21.638C116.385 21.0873 116.796 20.658 117.319 20.35C117.851 20.042 118.467 19.888 119.167 19.888C119.848 19.888 120.441 20.042 120.945 20.35C121.449 20.6487 121.841 21.05 122.121 21.554C122.401 22.058 122.541 22.6133 122.541 23.22C122.541 23.3133 122.536 23.416 122.527 23.528C122.527 23.6307 122.522 23.7473 122.513 23.878H117.109C117.155 24.55 117.375 25.0633 117.767 25.418C118.168 25.7633 118.63 25.936 119.153 25.936C119.573 25.936 119.923 25.8427 120.203 25.656C120.492 25.46 120.707 25.1987 120.847 24.872H122.331C122.144 25.5253 121.771 26.0713 121.211 26.51C120.66 26.9487 119.974 27.168 119.153 27.168ZM119.153 21.106C118.658 21.106 118.219 21.2553 117.837 21.554C117.454 21.8433 117.221 22.282 117.137 22.87H121.057C121.029 22.3287 120.837 21.8993 120.483 21.582C120.128 21.2647 119.685 21.106 119.153 21.106ZM130.898 27.168C130.217 27.168 129.605 27.014 129.064 26.706C128.532 26.398 128.112 25.9733 127.804 25.432C127.505 24.8813 127.356 24.2467 127.356 23.528C127.356 22.8093 127.505 22.1793 127.804 21.638C128.112 21.0873 128.532 20.658 129.064 20.35C129.605 20.042 130.217 19.888 130.898 19.888C131.757 19.888 132.475 20.112 133.054 20.56C133.642 21.008 134.02 21.6147 134.188 22.38H132.634C132.541 21.9973 132.335 21.6987 132.018 21.484C131.701 21.2693 131.327 21.162 130.898 21.162C130.534 21.162 130.198 21.2553 129.89 21.442C129.582 21.6193 129.335 21.8853 129.148 22.24C128.961 22.5853 128.868 23.0147 128.868 23.528C128.868 24.0413 128.961 24.4753 129.148 24.83C129.335 25.1753 129.582 25.4413 129.89 25.628C130.198 25.8147 130.534 25.908 130.898 25.908C131.327 25.908 131.701 25.8007 132.018 25.586C132.335 25.3713 132.541 25.068 132.634 24.676H134.188C134.029 25.4227 133.656 26.0247 133.068 26.482C132.48 26.9393 131.757 27.168 130.898 27.168ZM138.149 27.168C137.561 27.168 137.076 27.07 136.693 26.874C136.311 26.678 136.026 26.4213 135.839 26.104C135.653 25.7773 135.559 25.4227 135.559 25.04C135.559 24.368 135.821 23.836 136.343 23.444C136.866 23.052 137.613 22.856 138.583 22.856H140.403V22.73C140.403 22.1887 140.254 21.7827 139.955 21.512C139.666 21.2413 139.288 21.106 138.821 21.106C138.411 21.106 138.051 21.2087 137.743 21.414C137.445 21.61 137.263 21.904 137.197 22.296H135.713C135.76 21.792 135.928 21.3627 136.217 21.008C136.516 20.644 136.889 20.3687 137.337 20.182C137.795 19.986 138.294 19.888 138.835 19.888C139.806 19.888 140.557 20.1447 141.089 20.658C141.621 21.162 141.887 21.8527 141.887 22.73V27H140.599L140.473 25.81C140.277 26.1927 139.993 26.5147 139.619 26.776C139.246 27.0373 138.756 27.168 138.149 27.168ZM138.443 25.964C138.845 25.964 139.181 25.8707 139.451 25.684C139.731 25.488 139.946 25.2313 140.095 24.914C140.254 24.5967 140.352 24.2467 140.389 23.864H138.737C138.149 23.864 137.729 23.9667 137.477 24.172C137.235 24.3773 137.113 24.634 137.113 24.942C137.113 25.2593 137.23 25.5113 137.463 25.698C137.706 25.8753 138.033 25.964 138.443 25.964ZM143.618 30.08V20.056H144.948L145.102 21.134C145.326 20.8073 145.634 20.518 146.026 20.266C146.418 20.014 146.922 19.888 147.538 19.888C148.21 19.888 148.802 20.0467 149.316 20.364C149.829 20.6813 150.23 21.1153 150.52 21.666C150.818 22.2167 150.968 22.842 150.968 23.542C150.968 24.242 150.818 24.8673 150.52 25.418C150.23 25.9593 149.829 26.3887 149.316 26.706C148.802 27.014 148.205 27.168 147.524 27.168C146.982 27.168 146.502 27.0607 146.082 26.846C145.671 26.6313 145.344 26.328 145.102 25.936V30.08H143.618ZM147.272 25.88C147.906 25.88 148.429 25.6653 148.84 25.236C149.25 24.7973 149.456 24.228 149.456 23.528C149.456 23.0707 149.362 22.6647 149.176 22.31C148.989 21.9553 148.732 21.68 148.406 21.484C148.079 21.2787 147.701 21.176 147.272 21.176C146.637 21.176 146.114 21.3953 145.704 21.834C145.302 22.2727 145.102 22.8373 145.102 23.528C145.102 24.228 145.302 24.7973 145.704 25.236C146.114 25.6653 146.637 25.88 147.272 25.88ZM155.211 27C154.53 27 153.989 26.8367 153.587 26.51C153.186 26.174 152.985 25.5813 152.985 24.732V21.302H151.795V20.056H152.985L153.167 18.292H154.469V20.056H156.429V21.302H154.469V24.732C154.469 25.1147 154.549 25.3807 154.707 25.53C154.875 25.67 155.16 25.74 155.561 25.74H156.359V27H155.211ZM160.521 27.168C159.681 27.168 159.019 26.9067 158.533 26.384C158.057 25.8613 157.819 25.082 157.819 24.046V20.056H159.303V23.892C159.303 25.236 159.854 25.908 160.955 25.908C161.506 25.908 161.959 25.712 162.313 25.32C162.668 24.928 162.845 24.368 162.845 23.64V20.056H164.329V27H163.013L162.901 25.782C162.687 26.2113 162.369 26.552 161.949 26.804C161.539 27.0467 161.063 27.168 160.521 27.168ZM166.217 27V20.056H167.547L167.673 21.372C167.916 20.9147 168.252 20.5553 168.681 20.294C169.12 20.0233 169.647 19.888 170.263 19.888V21.442H169.857C169.447 21.442 169.078 21.512 168.751 21.652C168.434 21.7827 168.177 22.0113 167.981 22.338C167.795 22.6553 167.701 23.0987 167.701 23.668V27H166.217ZM174.592 27.168C173.911 27.168 173.304 27.0187 172.772 26.72C172.25 26.412 171.839 25.9873 171.54 25.446C171.242 24.9047 171.092 24.2747 171.092 23.556C171.092 22.828 171.237 22.1887 171.526 21.638C171.825 21.0873 172.236 20.658 172.758 20.35C173.29 20.042 173.906 19.888 174.606 19.888C175.288 19.888 175.88 20.042 176.384 20.35C176.888 20.6487 177.28 21.05 177.56 21.554C177.84 22.058 177.98 22.6133 177.98 23.22C177.98 23.3133 177.976 23.416 177.966 23.528C177.966 23.6307 177.962 23.7473 177.952 23.878H172.548C172.595 24.55 172.814 25.0633 173.206 25.418C173.608 25.7633 174.07 25.936 174.592 25.936C175.012 25.936 175.362 25.8427 175.642 25.656C175.932 25.46 176.146 25.1987 176.286 24.872H177.77C177.584 25.5253 177.21 26.0713 176.65 26.51C176.1 26.9487 175.414 27.168 174.592 27.168ZM174.592 21.106C174.098 21.106 173.659 21.2553 173.276 21.554C172.894 21.8433 172.66 22.282 172.576 22.87H176.496C176.468 22.3287 176.277 21.8993 175.922 21.582C175.568 21.2647 175.124 21.106 174.592 21.106ZM183.047 27V20.056H184.377L184.503 21.372C184.746 20.9147 185.082 20.5553 185.511 20.294C185.95 20.0233 186.477 19.888 187.093 19.888V21.442H186.687C186.277 21.442 185.908 21.512 185.581 21.652C185.264 21.7827 185.007 22.0113 184.811 22.338C184.625 22.6553 184.531 23.0987 184.531 23.668V27H183.047ZM190.718 27.168C190.13 27.168 189.644 27.07 189.262 26.874C188.879 26.678 188.594 26.4213 188.408 26.104C188.221 25.7773 188.128 25.4227 188.128 25.04C188.128 24.368 188.389 23.836 188.912 23.444C189.434 23.052 190.181 22.856 191.152 22.856H192.972V22.73C192.972 22.1887 192.822 21.7827 192.524 21.512C192.234 21.2413 191.856 21.106 191.39 21.106C190.979 21.106 190.62 21.2087 190.312 21.414C190.013 21.61 189.831 21.904 189.766 22.296H188.282C188.328 21.792 188.496 21.3627 188.786 21.008C189.084 20.644 189.458 20.3687 189.906 20.182C190.363 19.986 190.862 19.888 191.404 19.888C192.374 19.888 193.126 20.1447 193.658 20.658C194.19 21.162 194.456 21.8527 194.456 22.73V27H193.168L193.042 25.81C192.846 26.1927 192.561 26.5147 192.188 26.776C191.814 27.0373 191.324 27.168 190.718 27.168ZM191.012 25.964C191.413 25.964 191.749 25.8707 192.02 25.684C192.3 25.488 192.514 25.2313 192.664 24.914C192.822 24.5967 192.92 24.2467 192.958 23.864H191.306C190.718 23.864 190.298 23.9667 190.046 24.172C189.803 24.3773 189.682 24.634 189.682 24.942C189.682 25.2593 189.798 25.5113 190.032 25.698C190.274 25.8753 190.601 25.964 191.012 25.964ZM198.961 27C198.28 27 197.739 26.8367 197.337 26.51C196.936 26.174 196.735 25.5813 196.735 24.732V21.302H195.545V20.056H196.735L196.917 18.292H198.219V20.056H200.179V21.302H198.219V24.732C198.219 25.1147 198.299 25.3807 198.457 25.53C198.625 25.67 198.91 25.74 199.311 25.74H200.109V27H198.961ZM202.549 18.74C202.269 18.74 202.036 18.656 201.849 18.488C201.672 18.3107 201.583 18.0913 201.583 17.83C201.583 17.5687 201.672 17.354 201.849 17.186C202.036 17.0087 202.269 16.92 202.549 16.92C202.829 16.92 203.058 17.0087 203.235 17.186C203.422 17.354 203.515 17.5687 203.515 17.83C203.515 18.0913 203.422 18.3107 203.235 18.488C203.058 18.656 202.829 18.74 202.549 18.74ZM201.807 27V20.056H203.291V27H201.807ZM208.499 27.168C207.836 27.168 207.239 27.0187 206.707 26.72C206.184 26.412 205.769 25.9873 205.461 25.446C205.153 24.8953 204.999 24.256 204.999 23.528C204.999 22.8 205.153 22.1653 205.461 21.624C205.778 21.0733 206.203 20.6487 206.735 20.35C207.267 20.042 207.859 19.888 208.513 19.888C209.175 19.888 209.768 20.042 210.291 20.35C210.823 20.6487 211.243 21.0733 211.551 21.624C211.868 22.1653 212.026 22.8 212.026 23.528C212.026 24.256 211.868 24.8953 211.551 25.446C211.243 25.9873 210.823 26.412 210.291 26.72C209.759 27.0187 209.161 27.168 208.499 27.168ZM208.499 25.894C208.853 25.894 209.18 25.8053 209.479 25.628C209.787 25.4507 210.034 25.1893 210.221 24.844C210.407 24.4893 210.501 24.0507 210.501 23.528C210.501 23.0053 210.407 22.5713 210.221 22.226C210.043 21.8713 209.801 21.6053 209.493 21.428C209.194 21.2507 208.867 21.162 208.513 21.162C208.158 21.162 207.827 21.2507 207.519 21.428C207.22 21.6053 206.977 21.8713 206.791 22.226C206.604 22.5713 206.511 23.0053 206.511 23.528C206.511 24.0507 206.604 24.4893 206.791 24.844C206.977 25.1893 207.22 25.4507 207.519 25.628C207.817 25.8053 208.144 25.894 208.499 25.894ZM214.219 27.084C213.939 27.084 213.706 26.9953 213.519 26.818C213.342 26.6313 213.253 26.412 213.253 26.16C213.253 25.8987 213.342 25.6793 213.519 25.502C213.706 25.3153 213.939 25.222 214.219 25.222C214.499 25.222 214.728 25.3153 214.905 25.502C215.083 25.6793 215.171 25.8987 215.171 26.16C215.171 26.412 215.083 26.6313 214.905 26.818C214.728 26.9953 214.499 27.084 214.219 27.084ZM214.219 21.75C213.939 21.75 213.706 21.6613 213.519 21.484C213.342 21.2973 213.253 21.078 213.253 20.826C213.253 20.5647 213.342 20.3453 213.519 20.168C213.706 19.9813 213.939 19.888 214.219 19.888C214.499 19.888 214.728 19.9813 214.905 20.168C215.083 20.3453 215.171 20.5647 215.171 20.826C215.171 21.078 215.083 21.2973 214.905 21.484C214.728 21.6613 214.499 21.75 214.219 21.75Z" fill="#4D4D4D"/>
<path d="M220.809 27L224.505 18.726H219.675V17.2H226.353V18.474L222.671 27H220.809ZM230.9 27.168C230.181 27.168 229.56 27.042 229.038 26.79C228.524 26.538 228.118 26.1927 227.82 25.754C227.53 25.306 227.362 24.802 227.316 24.242H229.066C229.15 24.6433 229.355 24.9793 229.682 25.25C230.008 25.5113 230.414 25.642 230.9 25.642C231.422 25.642 231.847 25.4507 232.174 25.068C232.51 24.6853 232.678 24.2093 232.678 23.64C232.678 23.052 232.51 22.5853 232.174 22.24C231.847 21.8947 231.432 21.722 230.928 21.722C230.508 21.722 230.144 21.8247 229.836 22.03C229.528 22.2353 229.308 22.492 229.178 22.8H227.456L228.296 17.2H233.728V18.768H229.64L229.192 21.036C229.397 20.812 229.677 20.63 230.032 20.49C230.386 20.3407 230.783 20.266 231.222 20.266C231.922 20.266 232.505 20.4247 232.972 20.742C233.438 21.05 233.793 21.4607 234.036 21.974C234.278 22.478 234.4 23.0287 234.4 23.626C234.4 24.3073 234.25 24.914 233.952 25.446C233.662 25.978 233.252 26.398 232.72 26.706C232.197 27.014 231.59 27.168 230.9 27.168Z" fill="#FF5454"/>
<path d="M77.994 51V41.2H81.172C82.32 41.2 83.2627 41.4007 84 41.802C84.7467 42.2033 85.2973 42.7727 85.652 43.51C86.016 44.238 86.198 45.106 86.198 46.114C86.198 47.1127 86.016 47.9807 85.652 48.718C85.2973 49.446 84.7467 50.0107 84 50.412C83.2627 50.804 82.32 51 81.172 51H77.994ZM79.478 49.74H81.116C82.0027 49.74 82.7027 49.5953 83.216 49.306C83.7387 49.0167 84.112 48.6013 84.336 48.06C84.5693 47.5187 84.686 46.87 84.686 46.114C84.686 45.358 84.5693 44.7047 84.336 44.154C84.112 43.6033 83.7387 43.1833 83.216 42.894C82.7027 42.5953 82.0027 42.446 81.116 42.446H79.478V49.74ZM91.0298 51.168C90.3671 51.168 89.7698 51.0187 89.2378 50.72C88.7151 50.412 88.2998 49.9873 87.9918 49.446C87.6838 48.8953 87.5298 48.256 87.5298 47.528C87.5298 46.8 87.6838 46.1653 87.9918 45.624C88.3091 45.0733 88.7338 44.6487 89.2658 44.35C89.7978 44.042 90.3904 43.888 91.0438 43.888C91.7064 43.888 92.2991 44.042 92.8218 44.35C93.3538 44.6487 93.7738 45.0733 94.0818 45.624C94.3991 46.1653 94.5577 46.8 94.5577 47.528C94.5577 48.256 94.3991 48.8953 94.0818 49.446C93.7738 49.9873 93.3538 50.412 92.8218 50.72C92.2898 51.0187 91.6924 51.168 91.0298 51.168ZM91.0298 49.894C91.3844 49.894 91.7111 49.8053 92.0098 49.628C92.3178 49.4507 92.5651 49.1893 92.7518 48.844C92.9384 48.4893 93.0318 48.0507 93.0318 47.528C93.0318 47.0053 92.9384 46.5713 92.7518 46.226C92.5744 45.8713 92.3318 45.6053 92.0238 45.428C91.7251 45.2507 91.3984 45.162 91.0438 45.162C90.6891 45.162 90.3578 45.2507 90.0498 45.428C89.7511 45.6053 89.5084 45.8713 89.3218 46.226C89.1351 46.5713 89.0418 47.0053 89.0418 47.528C89.0418 48.0507 89.1351 48.4893 89.3218 48.844C89.5084 49.1893 89.7511 49.4507 90.0498 49.628C90.3484 49.8053 90.6751 49.894 91.0298 49.894ZM97.2888 51L95.2448 44.056H96.7288L98.0728 49.292L99.5848 44.056H101.237L102.749 49.292L104.093 44.056H105.577L103.533 51H102.007L100.411 45.54L98.8148 51H97.2888ZM106.799 51V44.056H108.115L108.227 45.274C108.442 44.8447 108.755 44.5087 109.165 44.266C109.585 44.014 110.066 43.888 110.607 43.888C111.447 43.888 112.105 44.1493 112.581 44.672C113.067 45.1947 113.309 45.974 113.309 47.01V51H111.839V47.164C111.839 45.82 111.289 45.148 110.187 45.148C109.637 45.148 109.179 45.344 108.815 45.736C108.461 46.128 108.283 46.688 108.283 47.416V51H106.799ZM117.829 51.168C116.952 51.168 116.228 50.9533 115.659 50.524C115.09 50.0947 114.763 49.5253 114.679 48.816H116.177C116.252 49.1333 116.429 49.4087 116.709 49.642C116.989 49.866 117.358 49.978 117.815 49.978C118.263 49.978 118.59 49.8847 118.795 49.698C119 49.5113 119.103 49.2967 119.103 49.054C119.103 48.6993 118.958 48.4613 118.669 48.34C118.389 48.2093 117.997 48.0927 117.493 47.99C117.101 47.906 116.709 47.794 116.317 47.654C115.934 47.514 115.612 47.318 115.351 47.066C115.099 46.8047 114.973 46.4547 114.973 46.016C114.973 45.4093 115.206 44.9053 115.673 44.504C116.14 44.0933 116.793 43.888 117.633 43.888C118.408 43.888 119.033 44.0747 119.509 44.448C119.994 44.8213 120.279 45.3487 120.363 46.03H118.935C118.888 45.7313 118.748 45.498 118.515 45.33C118.291 45.162 117.988 45.078 117.605 45.078C117.232 45.078 116.942 45.1573 116.737 45.316C116.532 45.4653 116.429 45.6613 116.429 45.904C116.429 46.1467 116.569 46.338 116.849 46.478C117.138 46.618 117.516 46.744 117.983 46.856C118.45 46.9587 118.879 47.08 119.271 47.22C119.672 47.3507 119.994 47.5467 120.237 47.808C120.48 48.0693 120.601 48.452 120.601 48.956C120.61 49.5907 120.363 50.118 119.859 50.538C119.364 50.958 118.688 51.168 117.829 51.168ZM123.061 42.74C122.781 42.74 122.548 42.656 122.361 42.488C122.184 42.3107 122.095 42.0913 122.095 41.83C122.095 41.5687 122.184 41.354 122.361 41.186C122.548 41.0087 122.781 40.92 123.061 40.92C123.341 40.92 123.57 41.0087 123.747 41.186C123.934 41.354 124.027 41.5687 124.027 41.83C124.027 42.0913 123.934 42.3107 123.747 42.488C123.57 42.656 123.341 42.74 123.061 42.74ZM122.319 51V44.056H123.803V51H122.319ZM128.926 51.168C128.254 51.168 127.662 51.0093 127.148 50.692C126.635 50.3747 126.234 49.9407 125.944 49.39C125.655 48.8393 125.51 48.214 125.51 47.514C125.51 46.814 125.655 46.1933 125.944 45.652C126.234 45.1013 126.635 44.672 127.148 44.364C127.671 44.0467 128.268 43.888 128.94 43.888C129.491 43.888 129.972 43.9953 130.382 44.21C130.802 44.4247 131.129 44.728 131.362 45.12V40.92H132.846V51H131.516L131.362 49.922C131.138 50.2487 130.83 50.538 130.438 50.79C130.046 51.042 129.542 51.168 128.926 51.168ZM129.192 49.88C129.827 49.88 130.345 49.6607 130.746 49.222C131.157 48.7833 131.362 48.2187 131.362 47.528C131.362 46.828 131.157 46.2633 130.746 45.834C130.345 45.3953 129.827 45.176 129.192 45.176C128.558 45.176 128.035 45.3953 127.624 45.834C127.214 46.2633 127.008 46.828 127.008 47.528C127.008 47.9853 127.102 48.3913 127.288 48.746C127.475 49.1007 127.732 49.3807 128.058 49.586C128.394 49.782 128.772 49.88 129.192 49.88ZM137.965 51.168C137.284 51.168 136.677 51.0187 136.145 50.72C135.623 50.412 135.212 49.9873 134.913 49.446C134.615 48.9047 134.465 48.2747 134.465 47.556C134.465 46.828 134.61 46.1887 134.899 45.638C135.198 45.0873 135.609 44.658 136.131 44.35C136.663 44.042 137.279 43.888 137.979 43.888C138.661 43.888 139.253 44.042 139.757 44.35C140.261 44.6487 140.653 45.05 140.933 45.554C141.213 46.058 141.353 46.6133 141.353 47.22C141.353 47.3133 141.349 47.416 141.339 47.528C141.339 47.6307 141.335 47.7473 141.325 47.878H135.921C135.968 48.55 136.187 49.0633 136.579 49.418C136.981 49.7633 137.443 49.936 137.965 49.936C138.385 49.936 138.735 49.8427 139.015 49.656C139.305 49.46 139.519 49.1987 139.659 48.872H141.143C140.957 49.5253 140.583 50.0713 140.023 50.51C139.473 50.9487 138.787 51.168 137.965 51.168ZM137.965 45.106C137.471 45.106 137.032 45.2553 136.649 45.554C136.267 45.8433 136.033 46.282 135.949 46.87H139.869C139.841 46.3287 139.65 45.8993 139.295 45.582C138.941 45.2647 138.497 45.106 137.965 45.106ZM149.71 51.168C149.029 51.168 148.418 51.014 147.876 50.706C147.344 50.398 146.924 49.9733 146.616 49.432C146.318 48.8813 146.168 48.2467 146.168 47.528C146.168 46.8093 146.318 46.1793 146.616 45.638C146.924 45.0873 147.344 44.658 147.876 44.35C148.418 44.042 149.029 43.888 149.71 43.888C150.569 43.888 151.288 44.112 151.866 44.56C152.454 45.008 152.832 45.6147 153 46.38H151.446C151.353 45.9973 151.148 45.6987 150.83 45.484C150.513 45.2693 150.14 45.162 149.71 45.162C149.346 45.162 149.01 45.2553 148.702 45.442C148.394 45.6193 148.147 45.8853 147.96 46.24C147.774 46.5853 147.68 47.0147 147.68 47.528C147.68 48.0413 147.774 48.4753 147.96 48.83C148.147 49.1753 148.394 49.4413 148.702 49.628C149.01 49.8147 149.346 49.908 149.71 49.908C150.14 49.908 150.513 49.8007 150.83 49.586C151.148 49.3713 151.353 49.068 151.446 48.676H153C152.842 49.4227 152.468 50.0247 151.88 50.482C151.292 50.9393 150.569 51.168 149.71 51.168ZM156.962 51.168C156.374 51.168 155.889 51.07 155.506 50.874C155.123 50.678 154.839 50.4213 154.652 50.104C154.465 49.7773 154.372 49.4227 154.372 49.04C154.372 48.368 154.633 47.836 155.156 47.444C155.679 47.052 156.425 46.856 157.396 46.856H159.216V46.73C159.216 46.1887 159.067 45.7827 158.768 45.512C158.479 45.2413 158.101 45.106 157.634 45.106C157.223 45.106 156.864 45.2087 156.556 45.414C156.257 45.61 156.075 45.904 156.01 46.296H154.526C154.573 45.792 154.741 45.3627 155.03 45.008C155.329 44.644 155.702 44.3687 156.15 44.182C156.607 43.986 157.107 43.888 157.648 43.888C158.619 43.888 159.37 44.1447 159.902 44.658C160.434 45.162 160.7 45.8527 160.7 46.73V51H159.412L159.286 49.81C159.09 50.1927 158.805 50.5147 158.432 50.776C158.059 51.0373 157.569 51.168 156.962 51.168ZM157.256 49.964C157.657 49.964 157.993 49.8707 158.264 49.684C158.544 49.488 158.759 49.2313 158.908 48.914C159.067 48.5967 159.165 48.2467 159.202 47.864H157.55C156.962 47.864 156.542 47.9667 156.29 48.172C156.047 48.3773 155.926 48.634 155.926 48.942C155.926 49.2593 156.043 49.5113 156.276 49.698C156.519 49.8753 156.845 49.964 157.256 49.964ZM162.43 54.08V44.056H163.76L163.914 45.134C164.138 44.8073 164.446 44.518 164.838 44.266C165.23 44.014 165.734 43.888 166.35 43.888C167.022 43.888 167.615 44.0467 168.128 44.364C168.642 44.6813 169.043 45.1153 169.332 45.666C169.631 46.2167 169.78 46.842 169.78 47.542C169.78 48.242 169.631 48.8673 169.332 49.418C169.043 49.9593 168.642 50.3887 168.128 50.706C167.615 51.014 167.018 51.168 166.336 51.168C165.795 51.168 165.314 51.0607 164.894 50.846C164.484 50.6313 164.157 50.328 163.914 49.936V54.08H162.43ZM166.084 49.88C166.719 49.88 167.242 49.6653 167.652 49.236C168.063 48.7973 168.268 48.228 168.268 47.528C168.268 47.0707 168.175 46.6647 167.988 46.31C167.802 45.9553 167.545 45.68 167.218 45.484C166.892 45.2787 166.514 45.176 166.084 45.176C165.45 45.176 164.927 45.3953 164.516 45.834C164.115 46.2727 163.914 46.8373 163.914 47.528C163.914 48.228 164.115 48.7973 164.516 49.236C164.927 49.6653 165.45 49.88 166.084 49.88ZM174.024 51C173.342 51 172.801 50.8367 172.4 50.51C171.998 50.174 171.798 49.5813 171.798 48.732V45.302H170.608V44.056H171.798L171.98 42.292H173.282V44.056H175.242V45.302H173.282V48.732C173.282 49.1147 173.361 49.3807 173.52 49.53C173.688 49.67 173.972 49.74 174.374 49.74H175.172V51H174.024ZM179.334 51.168C178.494 51.168 177.831 50.9067 177.346 50.384C176.87 49.8613 176.632 49.082 176.632 48.046V44.056H178.116V47.892C178.116 49.236 178.667 49.908 179.768 49.908C180.319 49.908 180.771 49.712 181.126 49.32C181.481 48.928 181.658 48.368 181.658 47.64V44.056H183.142V51H181.826L181.714 49.782C181.499 50.2113 181.182 50.552 180.762 50.804C180.351 51.0467 179.875 51.168 179.334 51.168ZM185.03 51V44.056H186.36L186.486 45.372C186.728 44.9147 187.064 44.5553 187.494 44.294C187.932 44.0233 188.46 43.888 189.076 43.888V45.442H188.67C188.259 45.442 187.89 45.512 187.564 45.652C187.246 45.7827 186.99 46.0113 186.794 46.338C186.607 46.6553 186.514 47.0987 186.514 47.668V51H185.03ZM193.405 51.168C192.723 51.168 192.117 51.0187 191.585 50.72C191.062 50.412 190.651 49.9873 190.353 49.446C190.054 48.9047 189.905 48.2747 189.905 47.556C189.905 46.828 190.049 46.1887 190.339 45.638C190.637 45.0873 191.048 44.658 191.571 44.35C192.103 44.042 192.719 43.888 193.419 43.888C194.1 43.888 194.693 44.042 195.197 44.35C195.701 44.6487 196.093 45.05 196.373 45.554C196.653 46.058 196.793 46.6133 196.793 47.22C196.793 47.3133 196.788 47.416 196.779 47.528C196.779 47.6307 196.774 47.7473 196.765 47.878H191.361C191.407 48.55 191.627 49.0633 192.019 49.418C192.42 49.7633 192.882 49.936 193.405 49.936C193.825 49.936 194.175 49.8427 194.455 49.656C194.744 49.46 194.959 49.1987 195.099 48.872H196.583C196.396 49.5253 196.023 50.0713 195.463 50.51C194.912 50.9487 194.226 51.168 193.405 51.168ZM193.405 45.106C192.91 45.106 192.471 45.2553 192.089 45.554C191.706 45.8433 191.473 46.282 191.389 46.87H195.309C195.281 46.3287 195.089 45.8993 194.735 45.582C194.38 45.2647 193.937 45.106 193.405 45.106ZM201.86 51V44.056H203.19L203.316 45.372C203.559 44.9147 203.895 44.5553 204.324 44.294C204.763 44.0233 205.29 43.888 205.906 43.888V45.442H205.5C205.089 45.442 204.721 45.512 204.394 45.652C204.077 45.7827 203.82 46.0113 203.624 46.338C203.437 46.6553 203.344 47.0987 203.344 47.668V51H201.86ZM209.53 51.168C208.942 51.168 208.457 51.07 208.074 50.874C207.692 50.678 207.407 50.4213 207.22 50.104C207.034 49.7773 206.94 49.4227 206.94 49.04C206.94 48.368 207.202 47.836 207.724 47.444C208.247 47.052 208.994 46.856 209.964 46.856H211.784V46.73C211.784 46.1887 211.635 45.7827 211.336 45.512C211.047 45.2413 210.669 45.106 210.202 45.106C209.792 45.106 209.432 45.2087 209.124 45.414C208.826 45.61 208.644 45.904 208.578 46.296H207.094C207.141 45.792 207.309 45.3627 207.598 45.008C207.897 44.644 208.27 44.3687 208.718 44.182C209.176 43.986 209.675 43.888 210.216 43.888C211.187 43.888 211.938 44.1447 212.47 44.658C213.002 45.162 213.268 45.8527 213.268 46.73V51H211.98L211.854 49.81C211.658 50.1927 211.374 50.5147 211 50.776C210.627 51.0373 210.137 51.168 209.53 51.168ZM209.824 49.964C210.226 49.964 210.562 49.8707 210.832 49.684C211.112 49.488 211.327 49.2313 211.476 48.914C211.635 48.5967 211.733 48.2467 211.77 47.864H210.118C209.53 47.864 209.11 47.9667 208.858 48.172C208.616 48.3773 208.494 48.634 208.494 48.942C208.494 49.2593 208.611 49.5113 208.844 49.698C209.087 49.8753 209.414 49.964 209.824 49.964ZM217.774 51C217.092 51 216.551 50.8367 216.15 50.51C215.748 50.174 215.548 49.5813 215.548 48.732V45.302H214.358V44.056H215.548L215.73 42.292H217.032V44.056H218.992V45.302H217.032V48.732C217.032 49.1147 217.111 49.3807 217.27 49.53C217.438 49.67 217.722 49.74 218.124 49.74H218.922V51H217.774ZM221.362 42.74C221.082 42.74 220.849 42.656 220.662 42.488C220.485 42.3107 220.396 42.0913 220.396 41.83C220.396 41.5687 220.485 41.354 220.662 41.186C220.849 41.0087 221.082 40.92 221.362 40.92C221.642 40.92 221.871 41.0087 222.048 41.186C222.235 41.354 222.328 41.5687 222.328 41.83C222.328 42.0913 222.235 42.3107 222.048 42.488C221.871 42.656 221.642 42.74 221.362 42.74ZM220.62 51V44.056H222.104V51H220.62ZM227.311 51.168C226.648 51.168 226.051 51.0187 225.519 50.72C224.996 50.412 224.581 49.9873 224.273 49.446C223.965 48.8953 223.811 48.256 223.811 47.528C223.811 46.8 223.965 46.1653 224.273 45.624C224.59 45.0733 225.015 44.6487 225.547 44.35C226.079 44.042 226.672 43.888 227.325 43.888C227.988 43.888 228.58 44.042 229.103 44.35C229.635 44.6487 230.055 45.0733 230.363 45.624C230.68 46.1653 230.839 46.8 230.839 47.528C230.839 48.256 230.68 48.8953 230.363 49.446C230.055 49.9873 229.635 50.412 229.103 50.72C228.571 51.0187 227.974 51.168 227.311 51.168ZM227.311 49.894C227.666 49.894 227.992 49.8053 228.291 49.628C228.599 49.4507 228.846 49.1893 229.033 48.844C229.22 48.4893 229.313 48.0507 229.313 47.528C229.313 47.0053 229.22 46.5713 229.033 46.226C228.856 45.8713 228.613 45.6053 228.305 45.428C228.006 45.2507 227.68 45.162 227.325 45.162C226.97 45.162 226.639 45.2507 226.331 45.428C226.032 45.6053 225.79 45.8713 225.603 46.226C225.416 46.5713 225.323 47.0053 225.323 47.528C225.323 48.0507 225.416 48.4893 225.603 48.844C225.79 49.1893 226.032 49.4507 226.331 49.628C226.63 49.8053 226.956 49.894 227.311 49.894ZM236.559 51.084C236.279 51.084 236.046 50.9953 235.859 50.818C235.682 50.6313 235.593 50.412 235.593 50.16C235.593 49.8987 235.682 49.6793 235.859 49.502C236.046 49.3153 236.279 49.222 236.559 49.222C236.839 49.222 237.068 49.3153 237.245 49.502C237.423 49.6793 237.511 49.8987 237.511 50.16C237.511 50.412 237.423 50.6313 237.245 50.818C237.068 50.9953 236.839 51.084 236.559 51.084ZM236.559 45.75C236.279 45.75 236.046 45.6613 235.859 45.484C235.682 45.2973 235.593 45.078 235.593 44.826C235.593 44.5647 235.682 44.3453 235.859 44.168C236.046 43.9813 236.279 43.888 236.559 43.888C236.839 43.888 237.068 43.9813 237.245 44.168C237.423 44.3453 237.511 44.5647 237.511 44.826C237.511 45.078 237.423 45.2973 237.245 45.484C237.068 45.6613 236.839 45.75 236.559 45.75Z" fill="#4D4D4D"/>
<path d="M247.069 51V49.18H242.239V47.752L246.831 41.2H248.861V47.626H250.149V49.18H248.861V51H247.069ZM244.157 47.626H247.181V43.174L244.157 47.626ZM256.037 51V49.18H251.207V47.752L255.799 41.2H257.829V47.626H259.117V49.18H257.829V51H256.037ZM253.125 47.626H256.149V43.174L253.125 47.626Z" fill="#009377"/>
<g clip-path="url(#clip0)">
<path d="M63.9939 35.1273C63.4595 35.1273 63.0262 34.694 63.0262 34.1596C63.0262 31.2277 62.3213 29.1866 60.9311 28.0931C59.1848 26.7194 56.8269 27.27 56.8033 27.2757C56.2853 27.4015 55.7615 27.0849 55.634 26.5676C55.5064 26.0503 55.8189 25.5276 56.3356 25.3978C56.4678 25.3647 59.6063 24.6056 62.108 26.5566C64.0014 28.0332 64.9616 30.5911 64.9616 34.1596C64.9616 34.694 64.5283 35.1273 63.9939 35.1273Z" fill="#EAAB92"/>
<path d="M17.6433 14.0132L13.8906 14.8464L10.2334 18.8585V21.1792L18.7852 17.4774L17.6433 14.0132Z" fill="#EAAB92"/>
<path d="M17.6434 13.2734C16.1896 11.4809 14.383 10.3789 12.9171 9.72248C11.6563 9.15788 10.2334 10.0879 10.2334 11.4693V18.8586C12.253 16.89 14.7667 15.2581 17.6434 14.0133L18.7853 13.6454L17.6434 13.2734Z" fill="#EDBCA4"/>
<path d="M3.82014 38.0638H6.00103C6.26937 38.0638 6.5112 38.2295 6.60446 38.4811C8.1096 42.5425 10.7687 45.8944 14.911 48.3064L15.2369 49.6724V53.8039C15.2369 56.1263 16.3772 57.4926 17.7837 57.4926H22.4865C23.8931 57.4926 25.0333 56.1263 25.0333 53.8039V53.0863L25.7794 52.0347C27.8594 52.3728 30.0319 52.549 32.2675 52.549C36.0276 52.549 39.6104 52.1131 42.8724 51.2586L43.6806 52.2168V53.8038C43.6806 55.8865 44.8208 57.4925 46.2274 57.4925H50.9302C52.3368 57.4925 53.477 56.2384 53.477 53.8038V47.1649L54.1245 45.4025C57.5968 42.3314 59.6313 38.1828 59.6313 32.4537C58.9218 20.1366 46.9423 13.5093 32.2676 13.5093C30.3923 13.5093 28.561 13.6306 26.7915 13.8658C25.367 10.2024 22.4797 8.27928 20.3273 7.31527C19.0666 6.75067 17.6436 7.68055 17.6436 9.06199V16.3356C12.2823 18.6555 8.17925 22.3186 6.19198 27.0046H3.82014C1.7103 27.0048 0 28.7151 0 30.8249V33.1018C0 36.5542 1.7103 38.0638 3.82014 38.0638Z" fill="#FFD6BD"/>
<path d="M14.911 47.1645C10.7688 44.7523 8.64832 41.4005 7.14318 37.339C7.04992 37.0873 6.80809 36.9217 6.53975 36.9217H3.82014C1.7103 36.9217 0 35.2114 0 33.1016V35.4239C0 37.5338 1.7103 39.2441 3.82014 39.2441H5.83025C7.38285 43.6 10.7343 47.1673 15.2369 49.6723V47.725C15.2369 47.4931 15.1113 47.2811 14.911 47.1645Z" fill="#F9C6AA"/>
<path d="M22.4869 56.35H17.7841C16.3775 56.35 15.2373 55.2098 15.2373 53.8032V56.1256C15.2373 57.5321 16.3775 58.6724 17.7841 58.6724H22.4869C23.8935 58.6724 25.0337 57.5321 25.0337 56.1256V53.8032C25.0336 55.2098 23.8935 56.35 22.4869 56.35Z" fill="#F9C6AA"/>
<path d="M53.4775 45.1347V47.1645C57.3446 43.844 59.6656 39.3012 59.6656 33.619C59.6656 33.2248 59.6539 32.8364 59.6318 32.4531C59.3438 37.4919 57.1706 41.5789 53.6982 44.6499C53.559 44.7731 53.4775 44.9488 53.4775 45.1347Z" fill="#F9C6AA"/>
<path d="M43.6804 50.7392C43.6804 50.3163 43.2811 50.009 42.8722 50.1162C39.6102 50.9707 36.0276 51.4066 32.2673 51.4066C30.0318 51.4066 27.8593 51.2305 25.7792 50.8923C25.3877 50.8286 25.0332 51.1317 25.0332 51.5285V53.0857C27.3378 53.5079 29.763 53.7288 32.2673 53.7288C36.3407 53.7288 40.2058 53.2174 43.6804 52.2163V50.7392Z" fill="#F9C6AA"/>
<path d="M50.9293 56.35H46.2265C44.8199 56.35 43.6797 55.2098 43.6797 53.8032V56.1256C43.6797 57.5321 44.8199 58.6724 46.2265 58.6724H50.9293C52.3359 58.6724 53.4761 57.5321 53.4761 56.1256V53.8032C53.476 55.2098 52.3357 56.35 50.9293 56.35Z" fill="#F9C6AA"/>
</g>
<path d="M11.8214 37.3003V27.8268H17.9386V29.2208H13.5537V31.8733H17.0995V33.2402H13.5537V37.3003H11.8214ZM21.7521 37.4627C20.913 37.4627 20.2634 37.201 19.8033 36.6777C19.3522 36.1545 19.1266 35.3876 19.1266 34.377V30.5877H20.8454V34.2146C20.8454 34.7921 20.9627 35.2342 21.1972 35.5409C21.4318 35.8477 21.8017 36.0011 22.307 36.0011C22.7852 36.0011 23.1776 35.8296 23.4844 35.4868C23.8002 35.1439 23.9581 34.6658 23.9581 34.0522V30.5877H25.6904V37.3003H24.1611L24.0257 36.1635C23.8182 36.5605 23.516 36.8762 23.119 37.1108C22.731 37.3454 22.2754 37.4627 21.7521 37.4627ZM27.4687 37.3003V30.5877H28.9979L29.1333 31.7245C29.3408 31.3275 29.6385 31.0117 30.0265 30.7771C30.4235 30.5425 30.8881 30.4253 31.4205 30.4253C32.2505 30.4253 32.8956 30.6869 33.3558 31.2102C33.8159 31.7335 34.046 32.5004 34.046 33.5109V37.3003H32.3137V33.6733C32.3137 33.0959 32.1964 32.6538 31.9618 32.347C31.7272 32.0403 31.3618 31.8869 30.8656 31.8869C30.3784 31.8869 29.9769 32.0583 29.6611 32.4011C29.3543 32.744 29.201 33.2222 29.201 33.8357V37.3003H27.4687ZM38.7881 37.4627C38.1565 37.4627 37.5926 37.3093 37.0964 37.0026C36.6002 36.6958 36.2077 36.2763 35.919 35.7439C35.6303 35.2116 35.4859 34.6071 35.4859 33.9304C35.4859 33.2538 35.6303 32.6538 35.919 32.1305C36.2077 31.5982 36.6002 31.1831 37.0964 30.8854C37.5926 30.5786 38.1565 30.4253 38.7881 30.4253C39.2933 30.4253 39.7354 30.52 40.1144 30.7095C40.4933 30.8989 40.8001 31.1651 41.0347 31.5079V27.5561H42.767V37.3003H41.2241L41.0347 36.3394C40.8181 36.6371 40.5294 36.8988 40.1685 37.1244C39.8166 37.3499 39.3565 37.4627 38.7881 37.4627ZM39.1535 35.9469C39.7129 35.9469 40.1685 35.762 40.5204 35.3921C40.8813 35.0131 41.0617 34.5304 41.0617 33.944C41.0617 33.3575 40.8813 32.8793 40.5204 32.5094C40.1685 32.1305 39.7129 31.941 39.1535 31.941C38.6031 31.941 38.1475 32.126 37.7866 32.4959C37.4257 32.8658 37.2453 33.344 37.2453 33.9304C37.2453 34.5169 37.4257 34.9996 37.7866 35.3785C38.1475 35.7575 38.6031 35.9469 39.1535 35.9469ZM47.7964 37.3003V27.8268H51.5993C52.5827 27.8268 53.3316 28.0569 53.8459 28.517C54.3692 28.9681 54.6308 29.5501 54.6308 30.2628C54.6308 30.8583 54.4684 31.3365 54.1436 31.6974C53.8278 32.0493 53.4399 32.2884 52.9797 32.4147C53.5211 32.523 53.9677 32.7936 54.3195 33.2267C54.6714 33.6507 54.8473 34.147 54.8473 34.7154C54.8473 35.4642 54.5767 36.0823 54.0353 36.5695C53.494 37.0567 52.7271 37.3003 51.7346 37.3003H47.7964ZM49.5287 31.8057H51.3422C51.8294 31.8057 52.2038 31.6929 52.4654 31.4673C52.7271 31.2418 52.8579 30.9215 52.8579 30.5065C52.8579 30.1095 52.7271 29.7982 52.4654 29.5726C52.2128 29.3381 51.8294 29.2208 51.3151 29.2208H49.5287V31.8057ZM49.5287 35.8928H51.464C51.9782 35.8928 52.3752 35.7755 52.6549 35.5409C52.9436 35.2973 53.088 34.959 53.088 34.5259C53.088 34.0838 52.9391 33.7365 52.6414 33.4838C52.3436 33.2312 51.9421 33.1049 51.4369 33.1049H49.5287V35.8928Z" fill="#C95629"/>
<defs>
<clipPath id="clip0">
<rect width="64.961" height="64.961" fill="white"/>
</clipPath>
</defs>
</svg>
