<svg width="328" height="74" viewBox="0 0 328 74" fill="none" xmlns="http://www.w3.org/2000/svg">
<rect opacity="0.2" width="328" height="74" rx="2" fill="#FF6534"/>
<path d="M68.99 26L65.308 16.2H66.582L69.676 24.754L72.798 16.2H74.044L70.362 26H68.99ZM76.8483 26.168C76.2696 26.168 75.7889 26.07 75.4063 25.874C75.0236 25.678 74.7389 25.4167 74.5523 25.09C74.3656 24.7633 74.2723 24.4087 74.2723 24.026C74.2723 23.3167 74.5429 22.7707 75.0843 22.388C75.6256 22.0053 76.3629 21.814 77.2963 21.814H79.1723V21.73C79.1723 21.1233 79.0136 20.666 78.6963 20.358C78.3789 20.0407 77.9543 19.882 77.4223 19.882C76.9649 19.882 76.5683 19.9987 76.2323 20.232C75.9056 20.456 75.7003 20.7873 75.6163 21.226H74.4123C74.4589 20.722 74.6269 20.2973 74.9163 19.952C75.2149 19.6067 75.5836 19.3453 76.0223 19.168C76.4609 18.9813 76.9276 18.888 77.4223 18.888C78.3929 18.888 79.1209 19.1493 79.6063 19.672C80.1009 20.1853 80.3483 20.8713 80.3483 21.73V26H79.2983L79.2283 24.754C79.0323 25.146 78.7429 25.482 78.3603 25.762C77.9869 26.0327 77.4829 26.168 76.8483 26.168ZM77.0303 25.174C77.4783 25.174 77.8609 25.0573 78.1783 24.824C78.5049 24.5907 78.7523 24.2873 78.9203 23.914C79.0883 23.5407 79.1723 23.1487 79.1723 22.738V22.724H77.3943C76.7036 22.724 76.2136 22.8453 75.9243 23.088C75.6443 23.3213 75.5043 23.6153 75.5043 23.97C75.5043 24.334 75.6349 24.628 75.8963 24.852C76.1669 25.0667 76.5449 25.174 77.0303 25.174ZM82.1125 26V15.92H83.2885V26H82.1125ZM87.75 26.168C86.9287 26.168 86.2753 25.9207 85.79 25.426C85.3047 24.922 85.062 24.152 85.062 23.116V19.056H86.238V22.99C86.238 24.4367 86.8307 25.16 88.016 25.16C88.6227 25.16 89.122 24.9453 89.514 24.516C89.9153 24.0773 90.116 23.4567 90.116 22.654V19.056H91.292V26H90.228L90.144 24.754C89.9293 25.1927 89.6073 25.538 89.178 25.79C88.758 26.042 88.282 26.168 87.75 26.168ZM96.3497 26.168C95.6871 26.168 95.0991 26.0187 94.5857 25.72C94.0724 25.412 93.6664 24.9873 93.3677 24.446C93.0784 23.9047 92.9337 23.2653 92.9337 22.528C92.9337 21.8 93.0784 21.1653 93.3677 20.624C93.6571 20.0733 94.0584 19.6487 94.5717 19.35C95.0944 19.042 95.6964 18.888 96.3777 18.888C97.0497 18.888 97.6284 19.042 98.1137 19.35C98.6084 19.6487 98.9864 20.0453 99.2477 20.54C99.5091 21.0347 99.6397 21.5667 99.6397 22.136C99.6397 22.2387 99.6351 22.3413 99.6257 22.444C99.6257 22.5467 99.6257 22.6633 99.6257 22.794H94.0957C94.1237 23.326 94.2451 23.7693 94.4597 24.124C94.6837 24.4693 94.9591 24.7307 95.2857 24.908C95.6217 25.0853 95.9764 25.174 96.3497 25.174C96.8351 25.174 97.2411 25.062 97.5677 24.838C97.8944 24.614 98.1324 24.3107 98.2817 23.928H99.4437C99.2571 24.572 98.8977 25.1087 98.3657 25.538C97.8431 25.958 97.1711 26.168 96.3497 26.168ZM96.3497 19.882C95.7897 19.882 95.2904 20.0547 94.8517 20.4C94.4224 20.736 94.1751 21.2307 94.1097 21.884H98.4777C98.4497 21.2587 98.2351 20.7687 97.8337 20.414C97.4324 20.0593 96.9377 19.882 96.3497 19.882ZM108.068 26.168C107.414 26.168 106.826 26.0187 106.304 25.72C105.781 25.4213 105.366 25.0013 105.058 24.46C104.759 23.9093 104.61 23.2653 104.61 22.528C104.61 21.7907 104.764 21.1513 105.072 20.61C105.38 20.0593 105.795 19.6347 106.318 19.336C106.85 19.0373 107.442 18.888 108.096 18.888C108.749 18.888 109.337 19.0373 109.86 19.336C110.382 19.6347 110.793 20.0593 111.092 20.61C111.4 21.1513 111.554 21.7907 111.554 22.528C111.554 23.2653 111.4 23.9093 111.092 24.46C110.784 25.0013 110.364 25.4213 109.832 25.72C109.309 26.0187 108.721 26.168 108.068 26.168ZM108.068 25.16C108.469 25.16 108.842 25.062 109.188 24.866C109.533 24.67 109.813 24.376 110.028 23.984C110.242 23.592 110.35 23.1067 110.35 22.528C110.35 21.9493 110.242 21.464 110.028 21.072C109.822 20.68 109.547 20.386 109.202 20.19C108.856 19.994 108.488 19.896 108.096 19.896C107.694 19.896 107.321 19.994 106.976 20.19C106.63 20.386 106.35 20.68 106.136 21.072C105.921 21.464 105.814 21.9493 105.814 22.528C105.814 23.1067 105.921 23.592 106.136 23.984C106.35 24.376 106.626 24.67 106.962 24.866C107.307 25.062 107.676 25.16 108.068 25.16ZM113.567 26V20.05H112.517V19.056H113.567V17.852C113.567 17.18 113.735 16.69 114.071 16.382C114.407 16.074 114.897 15.92 115.541 15.92H116.241V16.928H115.723C115.368 16.928 115.116 17.0027 114.967 17.152C114.817 17.292 114.743 17.5347 114.743 17.88V19.056H116.451V20.05H114.743V26H113.567ZM123.866 26.168C123.287 26.168 122.807 26.07 122.424 25.874C122.041 25.678 121.757 25.4167 121.57 25.09C121.383 24.7633 121.29 24.4087 121.29 24.026C121.29 23.3167 121.561 22.7707 122.102 22.388C122.643 22.0053 123.381 21.814 124.314 21.814H126.19V21.73C126.19 21.1233 126.031 20.666 125.714 20.358C125.397 20.0407 124.972 19.882 124.44 19.882C123.983 19.882 123.586 19.9987 123.25 20.232C122.923 20.456 122.718 20.7873 122.634 21.226H121.43C121.477 20.722 121.645 20.2973 121.934 19.952C122.233 19.6067 122.601 19.3453 123.04 19.168C123.479 18.9813 123.945 18.888 124.44 18.888C125.411 18.888 126.139 19.1493 126.624 19.672C127.119 20.1853 127.366 20.8713 127.366 21.73V26H126.316L126.246 24.754C126.05 25.146 125.761 25.482 125.378 25.762C125.005 26.0327 124.501 26.168 123.866 26.168ZM124.048 25.174C124.496 25.174 124.879 25.0573 125.196 24.824C125.523 24.5907 125.77 24.2873 125.938 23.914C126.106 23.5407 126.19 23.1487 126.19 22.738V22.724H124.412C123.721 22.724 123.231 22.8453 122.942 23.088C122.662 23.3213 122.522 23.6153 122.522 23.97C122.522 24.334 122.653 24.628 122.914 24.852C123.185 25.0667 123.563 25.174 124.048 25.174ZM129.13 26V15.92H130.306V26H129.13ZM132.234 26V15.92H133.41V26H132.234ZM141.786 26C141.152 26 140.652 25.846 140.288 25.538C139.924 25.23 139.742 24.6747 139.742 23.872V20.05H138.538V19.056H139.742L139.896 17.39H140.918V19.056H142.962V20.05H140.918V23.872C140.918 24.3107 141.007 24.6093 141.184 24.768C141.362 24.9173 141.674 24.992 142.122 24.992H142.85V26H141.786ZM144.456 26V15.92H145.632V20.246C145.866 19.8167 146.197 19.4853 146.626 19.252C147.056 19.0093 147.522 18.888 148.026 18.888C148.829 18.888 149.473 19.14 149.958 19.644C150.444 20.1387 150.686 20.904 150.686 21.94V26H149.524V22.066C149.524 20.6193 148.941 19.896 147.774 19.896C147.168 19.896 146.659 20.1153 146.248 20.554C145.838 20.9833 145.632 21.5993 145.632 22.402V26H144.456ZM155.59 26.168C154.927 26.168 154.339 26.0187 153.826 25.72C153.313 25.412 152.907 24.9873 152.608 24.446C152.319 23.9047 152.174 23.2653 152.174 22.528C152.174 21.8 152.319 21.1653 152.608 20.624C152.897 20.0733 153.299 19.6487 153.812 19.35C154.335 19.042 154.937 18.888 155.618 18.888C156.29 18.888 156.869 19.042 157.354 19.35C157.849 19.6487 158.227 20.0453 158.488 20.54C158.749 21.0347 158.88 21.5667 158.88 22.136C158.88 22.2387 158.875 22.3413 158.866 22.444C158.866 22.5467 158.866 22.6633 158.866 22.794H153.336C153.364 23.326 153.485 23.7693 153.7 24.124C153.924 24.4693 154.199 24.7307 154.526 24.908C154.862 25.0853 155.217 25.174 155.59 25.174C156.075 25.174 156.481 25.062 156.808 24.838C157.135 24.614 157.373 24.3107 157.522 23.928H158.684C158.497 24.572 158.138 25.1087 157.606 25.538C157.083 25.958 156.411 26.168 155.59 26.168ZM155.59 19.882C155.03 19.882 154.531 20.0547 154.092 20.4C153.663 20.736 153.415 21.2307 153.35 21.884H157.718C157.69 21.2587 157.475 20.7687 157.074 20.414C156.673 20.0593 156.178 19.882 155.59 19.882ZM163.598 26L167.21 16.2H168.456L172.054 26H170.808L169.912 23.48H165.74L164.83 26H163.598ZM166.09 22.528H169.562L167.826 17.684L166.09 22.528ZM176.101 26.168C175.27 26.168 174.579 25.958 174.029 25.538C173.478 25.118 173.156 24.5487 173.063 23.83H174.267C174.341 24.194 174.533 24.5113 174.841 24.782C175.158 25.0433 175.583 25.174 176.115 25.174C176.609 25.174 176.973 25.0713 177.207 24.866C177.44 24.6513 177.557 24.3993 177.557 24.11C177.557 23.69 177.403 23.41 177.095 23.27C176.796 23.13 176.371 23.004 175.821 22.892C175.447 22.8173 175.074 22.71 174.701 22.57C174.327 22.43 174.015 22.234 173.763 21.982C173.511 21.7207 173.385 21.38 173.385 20.96C173.385 20.3533 173.609 19.8587 174.057 19.476C174.514 19.084 175.13 18.888 175.905 18.888C176.642 18.888 177.244 19.0747 177.711 19.448C178.187 19.812 178.462 20.3347 178.537 21.016H177.375C177.328 20.6613 177.174 20.386 176.913 20.19C176.661 19.9847 176.32 19.882 175.891 19.882C175.471 19.882 175.144 19.9707 174.911 20.148C174.687 20.3253 174.575 20.5587 174.575 20.848C174.575 21.128 174.719 21.3473 175.009 21.506C175.307 21.6647 175.709 21.8 176.213 21.912C176.642 22.0053 177.048 22.122 177.431 22.262C177.823 22.3927 178.14 22.5933 178.383 22.864C178.635 23.1253 178.761 23.508 178.761 24.012C178.77 24.6373 178.532 25.1553 178.047 25.566C177.571 25.9673 176.922 26.168 176.101 26.168ZM183.101 26.168C182.27 26.168 181.579 25.958 181.029 25.538C180.478 25.118 180.156 24.5487 180.063 23.83H181.267C181.341 24.194 181.533 24.5113 181.841 24.782C182.158 25.0433 182.583 25.174 183.115 25.174C183.609 25.174 183.973 25.0713 184.207 24.866C184.44 24.6513 184.557 24.3993 184.557 24.11C184.557 23.69 184.403 23.41 184.095 23.27C183.796 23.13 183.371 23.004 182.821 22.892C182.447 22.8173 182.074 22.71 181.701 22.57C181.327 22.43 181.015 22.234 180.763 21.982C180.511 21.7207 180.385 21.38 180.385 20.96C180.385 20.3533 180.609 19.8587 181.057 19.476C181.514 19.084 182.13 18.888 182.905 18.888C183.642 18.888 184.244 19.0747 184.711 19.448C185.187 19.812 185.462 20.3347 185.537 21.016H184.375C184.328 20.6613 184.174 20.386 183.913 20.19C183.661 19.9847 183.32 19.882 182.891 19.882C182.471 19.882 182.144 19.9707 181.911 20.148C181.687 20.3253 181.575 20.5587 181.575 20.848C181.575 21.128 181.719 21.3473 182.009 21.506C182.307 21.6647 182.709 21.8 183.213 21.912C183.642 22.0053 184.048 22.122 184.431 22.262C184.823 22.3927 185.14 22.5933 185.383 22.864C185.635 23.1253 185.761 23.508 185.761 24.012C185.77 24.6373 185.532 25.1553 185.047 25.566C184.571 25.9673 183.922 26.168 183.101 26.168ZM190.563 26.168C189.9 26.168 189.312 26.0187 188.799 25.72C188.285 25.412 187.879 24.9873 187.581 24.446C187.291 23.9047 187.147 23.2653 187.147 22.528C187.147 21.8 187.291 21.1653 187.581 20.624C187.87 20.0733 188.271 19.6487 188.785 19.35C189.307 19.042 189.909 18.888 190.591 18.888C191.263 18.888 191.841 19.042 192.327 19.35C192.821 19.6487 193.199 20.0453 193.461 20.54C193.722 21.0347 193.853 21.5667 193.853 22.136C193.853 22.2387 193.848 22.3413 193.839 22.444C193.839 22.5467 193.839 22.6633 193.839 22.794H188.309C188.337 23.326 188.458 23.7693 188.673 24.124C188.897 24.4693 189.172 24.7307 189.499 24.908C189.835 25.0853 190.189 25.174 190.563 25.174C191.048 25.174 191.454 25.062 191.781 24.838C192.107 24.614 192.345 24.3107 192.495 23.928H193.657C193.47 24.572 193.111 25.1087 192.579 25.538C192.056 25.958 191.384 26.168 190.563 26.168ZM190.563 19.882C190.003 19.882 189.503 20.0547 189.065 20.4C188.635 20.736 188.388 21.2307 188.323 21.884H192.691C192.663 21.2587 192.448 20.7687 192.047 20.414C191.645 20.0593 191.151 19.882 190.563 19.882ZM197.923 26C197.288 26 196.789 25.846 196.425 25.538C196.061 25.23 195.879 24.6747 195.879 23.872V20.05H194.675V19.056H195.879L196.033 17.39H197.055V19.056H199.099V20.05H197.055V23.872C197.055 24.3107 197.144 24.6093 197.321 24.768C197.498 24.9173 197.811 24.992 198.259 24.992H198.987V26H197.923ZM203.253 26.168C202.422 26.168 201.732 25.958 201.181 25.538C200.63 25.118 200.308 24.5487 200.215 23.83H201.419C201.494 24.194 201.685 24.5113 201.993 24.782C202.31 25.0433 202.735 25.174 203.267 25.174C203.762 25.174 204.126 25.0713 204.359 24.866C204.592 24.6513 204.709 24.3993 204.709 24.11C204.709 23.69 204.555 23.41 204.247 23.27C203.948 23.13 203.524 23.004 202.973 22.892C202.6 22.8173 202.226 22.71 201.853 22.57C201.48 22.43 201.167 22.234 200.915 21.982C200.663 21.7207 200.537 21.38 200.537 20.96C200.537 20.3533 200.761 19.8587 201.209 19.476C201.666 19.084 202.282 18.888 203.057 18.888C203.794 18.888 204.396 19.0747 204.863 19.448C205.339 19.812 205.614 20.3347 205.689 21.016H204.527C204.48 20.6613 204.326 20.386 204.065 20.19C203.813 19.9847 203.472 19.882 203.043 19.882C202.623 19.882 202.296 19.9707 202.063 20.148C201.839 20.3253 201.727 20.5587 201.727 20.848C201.727 21.128 201.872 21.3473 202.161 21.506C202.46 21.6647 202.861 21.8 203.365 21.912C203.794 22.0053 204.2 22.122 204.583 22.262C204.975 22.3927 205.292 22.5933 205.535 22.864C205.787 23.1253 205.913 23.508 205.913 24.012C205.922 24.6373 205.684 25.1553 205.199 25.566C204.723 25.9673 204.074 26.168 203.253 26.168ZM211.158 22.43V21.436H218.494V22.43H211.158ZM226.338 26V17.166H223.412V16.2H230.44V17.166H227.514V26H226.338ZM231.806 26V15.92H232.982V20.246C233.215 19.8167 233.547 19.4853 233.976 19.252C234.405 19.0093 234.872 18.888 235.376 18.888C236.179 18.888 236.823 19.14 237.308 19.644C237.793 20.1387 238.036 20.904 238.036 21.94V26H236.874V22.066C236.874 20.6193 236.291 19.896 235.124 19.896C234.517 19.896 234.009 20.1153 233.598 20.554C233.187 20.9833 232.982 21.5993 232.982 22.402V26H231.806ZM242.94 26.168C242.277 26.168 241.689 26.0187 241.176 25.72C240.662 25.412 240.256 24.9873 239.958 24.446C239.668 23.9047 239.524 23.2653 239.524 22.528C239.524 21.8 239.668 21.1653 239.958 20.624C240.247 20.0733 240.648 19.6487 241.162 19.35C241.684 19.042 242.286 18.888 242.968 18.888C243.64 18.888 244.218 19.042 244.704 19.35C245.198 19.6487 245.576 20.0453 245.838 20.54C246.099 21.0347 246.23 21.5667 246.23 22.136C246.23 22.2387 246.225 22.3413 246.216 22.444C246.216 22.5467 246.216 22.6633 246.216 22.794H240.686C240.714 23.326 240.835 23.7693 241.05 24.124C241.274 24.4693 241.549 24.7307 241.876 24.908C242.212 25.0853 242.566 25.174 242.94 25.174C243.425 25.174 243.831 25.062 244.158 24.838C244.484 24.614 244.722 24.3107 244.872 23.928H246.034C245.847 24.572 245.488 25.1087 244.956 25.538C244.433 25.958 243.761 26.168 242.94 26.168ZM242.94 19.882C242.38 19.882 241.88 20.0547 241.442 20.4C241.012 20.736 240.765 21.2307 240.7 21.884H245.068C245.04 21.2587 244.825 20.7687 244.424 20.414C244.022 20.0593 243.528 19.882 242.94 19.882ZM251.563 26V16.2H257.625V17.166H252.739V20.582H257.205V21.534H252.739V25.034H257.625V26H251.563ZM258.696 26L261.104 22.528L258.696 19.056H259.97L261.916 21.926L263.876 19.056H265.136L262.728 22.528L265.136 26H263.876L261.916 23.13L259.97 26H258.696ZM266.368 29.08V19.056H267.432L267.544 20.204C267.768 19.868 268.086 19.5647 268.496 19.294C268.916 19.0233 269.448 18.888 270.092 18.888C270.783 18.888 271.385 19.0467 271.898 19.364C272.412 19.6813 272.808 20.1153 273.088 20.666C273.378 21.2167 273.522 21.842 273.522 22.542C273.522 23.242 273.378 23.8673 273.088 24.418C272.808 24.9593 272.407 25.3887 271.884 25.706C271.371 26.014 270.769 26.168 270.078 26.168C269.509 26.168 269 26.0513 268.552 25.818C268.114 25.5847 267.778 25.258 267.544 24.838V29.08H266.368ZM269.952 25.146C270.419 25.146 270.83 25.0387 271.184 24.824C271.539 24.6 271.819 24.292 272.024 23.9C272.23 23.508 272.332 23.0507 272.332 22.528C272.332 22.0053 272.23 21.548 272.024 21.156C271.819 20.764 271.539 20.4607 271.184 20.246C270.83 20.022 270.419 19.91 269.952 19.91C269.486 19.91 269.075 20.022 268.72 20.246C268.366 20.4607 268.086 20.764 267.88 21.156C267.675 21.548 267.572 22.0053 267.572 22.528C267.572 23.0507 267.675 23.508 267.88 23.9C268.086 24.292 268.366 24.6 268.72 24.824C269.075 25.0387 269.486 25.146 269.952 25.146ZM278.281 26.168C277.619 26.168 277.031 26.0187 276.517 25.72C276.004 25.412 275.598 24.9873 275.299 24.446C275.01 23.9047 274.865 23.2653 274.865 22.528C274.865 21.8 275.01 21.1653 275.299 20.624C275.589 20.0733 275.99 19.6487 276.503 19.35C277.026 19.042 277.628 18.888 278.309 18.888C278.981 18.888 279.56 19.042 280.045 19.35C280.54 19.6487 280.918 20.0453 281.179 20.54C281.441 21.0347 281.571 21.5667 281.571 22.136C281.571 22.2387 281.567 22.3413 281.557 22.444C281.557 22.5467 281.557 22.6633 281.557 22.794H276.027C276.055 23.326 276.177 23.7693 276.391 24.124C276.615 24.4693 276.891 24.7307 277.217 24.908C277.553 25.0853 277.908 25.174 278.281 25.174C278.767 25.174 279.173 25.062 279.499 24.838C279.826 24.614 280.064 24.3107 280.213 23.928H281.375C281.189 24.572 280.829 25.1087 280.297 25.538C279.775 25.958 279.103 26.168 278.281 26.168ZM278.281 19.882C277.721 19.882 277.222 20.0547 276.783 20.4C276.354 20.736 276.107 21.2307 276.041 21.884H280.409C280.381 21.2587 280.167 20.7687 279.765 20.414C279.364 20.0593 278.869 19.882 278.281 19.882ZM283.13 26V19.056H284.194L284.264 20.302C284.488 19.8633 284.81 19.518 285.23 19.266C285.65 19.014 286.126 18.888 286.658 18.888C287.479 18.888 288.133 19.14 288.618 19.644C289.113 20.1387 289.36 20.904 289.36 21.94V26H288.184V22.066C288.184 20.6193 287.587 19.896 286.392 19.896C285.795 19.896 285.295 20.1153 284.894 20.554C284.502 20.9833 284.306 21.5993 284.306 22.402V26H283.13ZM293.802 26.168C292.971 26.168 292.28 25.958 291.73 25.538C291.179 25.118 290.857 24.5487 290.764 23.83H291.968C292.042 24.194 292.234 24.5113 292.542 24.782C292.859 25.0433 293.284 25.174 293.816 25.174C294.31 25.174 294.674 25.0713 294.908 24.866C295.141 24.6513 295.258 24.3993 295.258 24.11C295.258 23.69 295.104 23.41 294.796 23.27C294.497 23.13 294.072 23.004 293.522 22.892C293.148 22.8173 292.775 22.71 292.402 22.57C292.028 22.43 291.716 22.234 291.464 21.982C291.212 21.7207 291.086 21.38 291.086 20.96C291.086 20.3533 291.31 19.8587 291.758 19.476C292.215 19.084 292.831 18.888 293.606 18.888C294.343 18.888 294.945 19.0747 295.412 19.448C295.888 19.812 296.163 20.3347 296.238 21.016H295.076C295.029 20.6613 294.875 20.386 294.614 20.19C294.362 19.9847 294.021 19.882 293.592 19.882C293.172 19.882 292.845 19.9707 292.612 20.148C292.388 20.3253 292.276 20.5587 292.276 20.848C292.276 21.128 292.42 21.3473 292.71 21.506C293.008 21.6647 293.41 21.8 293.914 21.912C294.343 22.0053 294.749 22.122 295.132 22.262C295.524 22.3927 295.841 22.5933 296.084 22.864C296.336 23.1253 296.462 23.508 296.462 24.012C296.471 24.6373 296.233 25.1553 295.748 25.566C295.272 25.9673 294.623 26.168 293.802 26.168ZM301.264 26.168C300.601 26.168 300.013 26.0187 299.5 25.72C298.986 25.412 298.58 24.9873 298.282 24.446C297.992 23.9047 297.848 23.2653 297.848 22.528C297.848 21.8 297.992 21.1653 298.282 20.624C298.571 20.0733 298.972 19.6487 299.486 19.35C300.008 19.042 300.61 18.888 301.292 18.888C301.964 18.888 302.542 19.042 303.028 19.35C303.522 19.6487 303.9 20.0453 304.162 20.54C304.423 21.0347 304.554 21.5667 304.554 22.136C304.554 22.2387 304.549 22.3413 304.54 22.444C304.54 22.5467 304.54 22.6633 304.54 22.794H299.01C299.038 23.326 299.159 23.7693 299.374 24.124C299.598 24.4693 299.873 24.7307 300.2 24.908C300.536 25.0853 300.89 25.174 301.264 25.174C301.749 25.174 302.155 25.062 302.482 24.838C302.808 24.614 303.046 24.3107 303.196 23.928H304.358C304.171 24.572 303.812 25.1087 303.28 25.538C302.757 25.958 302.085 26.168 301.264 26.168ZM301.264 19.882C300.704 19.882 300.204 20.0547 299.766 20.4C299.336 20.736 299.089 21.2307 299.024 21.884H303.392C303.364 21.2587 303.149 20.7687 302.748 20.414C302.346 20.0593 301.852 19.882 301.264 19.882ZM308.772 26.168C307.942 26.168 307.251 25.958 306.7 25.538C306.15 25.118 305.828 24.5487 305.734 23.83H306.938C307.013 24.194 307.204 24.5113 307.512 24.782C307.83 25.0433 308.254 25.174 308.786 25.174C309.281 25.174 309.645 25.0713 309.878 24.866C310.112 24.6513 310.228 24.3993 310.228 24.11C310.228 23.69 310.074 23.41 309.766 23.27C309.468 23.13 309.043 23.004 308.492 22.892C308.119 22.8173 307.746 22.71 307.372 22.57C306.999 22.43 306.686 22.234 306.434 21.982C306.182 21.7207 306.056 21.38 306.056 20.96C306.056 20.3533 306.28 19.8587 306.728 19.476C307.186 19.084 307.802 18.888 308.576 18.888C309.314 18.888 309.916 19.0747 310.382 19.448C310.858 19.812 311.134 20.3347 311.208 21.016H310.046C310 20.6613 309.846 20.386 309.584 20.19C309.332 19.9847 308.992 19.882 308.562 19.882C308.142 19.882 307.816 19.9707 307.582 20.148C307.358 20.3253 307.246 20.5587 307.246 20.848C307.246 21.128 307.391 21.3473 307.68 21.506C307.979 21.6647 308.38 21.8 308.884 21.912C309.314 22.0053 309.72 22.122 310.102 22.262C310.494 22.3927 310.812 22.5933 311.054 22.864C311.306 23.1253 311.432 23.508 311.432 24.012C311.442 24.6373 311.204 25.1553 310.718 25.566C310.242 25.9673 309.594 26.168 308.772 26.168Z" fill="white"/>
<line x1="63" y1="35.5" x2="314" y2="35.5" stroke="white"/>
<path d="M137.036 59V49.2H138.212L143.434 57.054V49.2H144.61V59H143.434L138.212 51.146V59H137.036ZM149.152 59.168C148.331 59.168 147.678 58.9207 147.192 58.426C146.707 57.922 146.464 57.152 146.464 56.116V52.056H147.64V55.99C147.64 57.4367 148.233 58.16 149.418 58.16C150.025 58.16 150.524 57.9453 150.916 57.516C151.318 57.0773 151.518 56.4567 151.518 55.654V52.056H152.694V59H151.63L151.546 57.754C151.332 58.1927 151.01 58.538 150.58 58.79C150.16 59.042 149.684 59.168 149.152 59.168ZM154.63 59V52.056H155.694L155.778 53.064C156.002 52.6907 156.301 52.4013 156.674 52.196C157.047 51.9907 157.467 51.888 157.934 51.888C158.485 51.888 158.956 52 159.348 52.224C159.749 52.448 160.057 52.7887 160.272 53.246C160.515 52.826 160.846 52.4947 161.266 52.252C161.695 52.0093 162.157 51.888 162.652 51.888C163.483 51.888 164.145 52.14 164.64 52.644C165.135 53.1387 165.382 53.904 165.382 54.94V59H164.22V55.066C164.22 54.3473 164.075 53.806 163.786 53.442C163.497 53.078 163.081 52.896 162.54 52.896C161.98 52.896 161.513 53.1153 161.14 53.554C160.776 53.9833 160.594 54.5993 160.594 55.402V59H159.418V55.066C159.418 54.3473 159.273 53.806 158.984 53.442C158.695 53.078 158.279 52.896 157.738 52.896C157.187 52.896 156.725 53.1153 156.352 53.554C155.988 53.9833 155.806 54.5993 155.806 55.402V59H154.63ZM170.864 59.168C170.294 59.168 169.786 59.0513 169.338 58.818C168.899 58.5847 168.563 58.258 168.33 57.838L168.218 59H167.154V48.92H168.33V53.204C168.554 52.868 168.871 52.5647 169.282 52.294C169.702 52.0233 170.234 51.888 170.878 51.888C171.568 51.888 172.17 52.0467 172.684 52.364C173.197 52.6813 173.594 53.1153 173.874 53.666C174.163 54.2167 174.308 54.842 174.308 55.542C174.308 56.242 174.163 56.8673 173.874 57.418C173.594 57.9593 173.192 58.3887 172.67 58.706C172.156 59.014 171.554 59.168 170.864 59.168ZM170.738 58.146C171.204 58.146 171.615 58.0387 171.97 57.824C172.324 57.6 172.604 57.292 172.81 56.9C173.015 56.508 173.118 56.0507 173.118 55.528C173.118 55.0053 173.015 54.548 172.81 54.156C172.604 53.764 172.324 53.4607 171.97 53.246C171.615 53.022 171.204 52.91 170.738 52.91C170.271 52.91 169.86 53.022 169.506 53.246C169.151 53.4607 168.871 53.764 168.666 54.156C168.46 54.548 168.358 55.0053 168.358 55.528C168.358 56.0507 168.46 56.508 168.666 56.9C168.871 57.292 169.151 57.6 169.506 57.824C169.86 58.0387 170.271 58.146 170.738 58.146ZM179.067 59.168C178.404 59.168 177.816 59.0187 177.303 58.72C176.789 58.412 176.383 57.9873 176.085 57.446C175.795 56.9047 175.651 56.2653 175.651 55.528C175.651 54.8 175.795 54.1653 176.085 53.624C176.374 53.0733 176.775 52.6487 177.289 52.35C177.811 52.042 178.413 51.888 179.095 51.888C179.767 51.888 180.345 52.042 180.831 52.35C181.325 52.6487 181.703 53.0453 181.965 53.54C182.226 54.0347 182.357 54.5667 182.357 55.136C182.357 55.2387 182.352 55.3413 182.343 55.444C182.343 55.5467 182.343 55.6633 182.343 55.794H176.813C176.841 56.326 176.962 56.7693 177.177 57.124C177.401 57.4693 177.676 57.7307 178.003 57.908C178.339 58.0853 178.693 58.174 179.067 58.174C179.552 58.174 179.958 58.062 180.285 57.838C180.611 57.614 180.849 57.3107 180.999 56.928H182.161C181.974 57.572 181.615 58.1087 181.083 58.538C180.56 58.958 179.888 59.168 179.067 59.168ZM179.067 52.882C178.507 52.882 178.007 53.0547 177.569 53.4C177.139 53.736 176.892 54.2307 176.827 54.884H181.195C181.167 54.2587 180.952 53.7687 180.551 53.414C180.149 53.0593 179.655 52.882 179.067 52.882ZM183.915 59V52.056H184.979L185.077 53.386C185.292 52.9287 185.619 52.5647 186.057 52.294C186.496 52.0233 187.037 51.888 187.681 51.888V53.12H187.359C186.949 53.12 186.571 53.1947 186.225 53.344C185.88 53.484 185.605 53.7267 185.399 54.072C185.194 54.4173 185.091 54.8933 185.091 55.5V59H183.915ZM195.87 59.168C195.217 59.168 194.629 59.0187 194.106 58.72C193.584 58.4213 193.168 58.0013 192.86 57.46C192.562 56.9093 192.412 56.2653 192.412 55.528C192.412 54.7907 192.566 54.1513 192.874 53.61C193.182 53.0593 193.598 52.6347 194.12 52.336C194.652 52.0373 195.245 51.888 195.898 51.888C196.552 51.888 197.14 52.0373 197.662 52.336C198.185 52.6347 198.596 53.0593 198.894 53.61C199.202 54.1513 199.356 54.7907 199.356 55.528C199.356 56.2653 199.202 56.9093 198.894 57.46C198.586 58.0013 198.166 58.4213 197.634 58.72C197.112 59.0187 196.524 59.168 195.87 59.168ZM195.87 58.16C196.272 58.16 196.645 58.062 196.99 57.866C197.336 57.67 197.616 57.376 197.83 56.984C198.045 56.592 198.152 56.1067 198.152 55.528C198.152 54.9493 198.045 54.464 197.83 54.072C197.625 53.68 197.35 53.386 197.004 53.19C196.659 52.994 196.29 52.896 195.898 52.896C195.497 52.896 195.124 52.994 194.778 53.19C194.433 53.386 194.153 53.68 193.938 54.072C193.724 54.464 193.616 54.9493 193.616 55.528C193.616 56.1067 193.724 56.592 193.938 56.984C194.153 57.376 194.428 57.67 194.764 57.866C195.11 58.062 195.478 58.16 195.87 58.16ZM201.369 59V53.05H200.319V52.056H201.369V50.852C201.369 50.18 201.537 49.69 201.873 49.382C202.209 49.074 202.699 48.92 203.343 48.92H204.043V49.928H203.525C203.171 49.928 202.919 50.0027 202.769 50.152C202.62 50.292 202.545 50.5347 202.545 50.88V52.056H204.253V53.05H202.545V59H201.369ZM212.971 59.168C212.299 59.168 211.687 59.0373 211.137 58.776C210.595 58.5053 210.161 58.09 209.835 57.53C209.508 56.97 209.345 56.256 209.345 55.388V49.2H210.521V55.402C210.521 56.354 210.749 57.0447 211.207 57.474C211.664 57.9033 212.261 58.118 212.999 58.118C213.736 58.118 214.329 57.9033 214.777 57.474C215.225 57.0447 215.449 56.354 215.449 55.402V49.2H216.625V55.388C216.625 56.256 216.461 56.97 216.135 57.53C215.808 58.09 215.369 58.5053 214.819 58.776C214.268 59.0373 213.652 59.168 212.971 59.168ZM218.546 59V52.056H219.61L219.68 53.302C219.904 52.8633 220.226 52.518 220.646 52.266C221.066 52.014 221.542 51.888 222.074 51.888C222.895 51.888 223.549 52.14 224.034 52.644C224.529 53.1387 224.776 53.904 224.776 54.94V59H223.6V55.066C223.6 53.6193 223.003 52.896 221.808 52.896C221.211 52.896 220.711 53.1153 220.31 53.554C219.918 53.9833 219.722 54.5993 219.722 55.402V59H218.546ZM227.272 50.516C227.038 50.516 226.842 50.4413 226.684 50.292C226.534 50.1333 226.46 49.9373 226.46 49.704C226.46 49.48 226.534 49.2933 226.684 49.144C226.842 48.9947 227.038 48.92 227.272 48.92C227.496 48.92 227.687 48.9947 227.846 49.144C228.004 49.2933 228.084 49.48 228.084 49.704C228.084 49.9373 228.004 50.1333 227.846 50.292C227.687 50.4413 227.496 50.516 227.272 50.516ZM226.684 59V52.056H227.86V59H226.684ZM232.651 59C232.017 59 231.517 58.846 231.153 58.538C230.789 58.23 230.607 57.6747 230.607 56.872V53.05H229.403V52.056H230.607L230.761 50.39H231.783V52.056H233.827V53.05H231.783V56.872C231.783 57.3107 231.872 57.6093 232.049 57.768C232.227 57.9173 232.539 57.992 232.987 57.992H233.715V59H232.651ZM237.981 59.168C237.151 59.168 236.46 58.958 235.909 58.538C235.359 58.118 235.037 57.5487 234.943 56.83H236.147C236.222 57.194 236.413 57.5113 236.721 57.782C237.039 58.0433 237.463 58.174 237.995 58.174C238.49 58.174 238.854 58.0713 239.087 57.866C239.321 57.6513 239.437 57.3993 239.437 57.11C239.437 56.69 239.283 56.41 238.975 56.27C238.677 56.13 238.252 56.004 237.701 55.892C237.328 55.8173 236.955 55.71 236.581 55.57C236.208 55.43 235.895 55.234 235.643 54.982C235.391 54.7207 235.265 54.38 235.265 53.96C235.265 53.3533 235.489 52.8587 235.937 52.476C236.395 52.084 237.011 51.888 237.785 51.888C238.523 51.888 239.125 52.0747 239.591 52.448C240.067 52.812 240.343 53.3347 240.417 54.016H239.255C239.209 53.6613 239.055 53.386 238.793 53.19C238.541 52.9847 238.201 52.882 237.771 52.882C237.351 52.882 237.025 52.9707 236.791 53.148C236.567 53.3253 236.455 53.5587 236.455 53.848C236.455 54.128 236.6 54.3473 236.889 54.506C237.188 54.6647 237.589 54.8 238.093 54.912C238.523 55.0053 238.929 55.122 239.311 55.262C239.703 55.3927 240.021 55.5933 240.263 55.864C240.515 56.1253 240.641 56.508 240.641 57.012C240.651 57.6373 240.413 58.1553 239.927 58.566C239.451 58.9673 238.803 59.168 237.981 59.168Z" fill="white"/>
<path d="M15.036 29V19.2H16.212L21.434 27.054V19.2H22.61V29H21.434L16.212 21.146V29H15.036ZM24.0723 29L27.6843 19.2H28.9303L32.5283 29H31.2823L30.3863 26.48H26.2143L25.3043 29H24.0723ZM26.5643 25.528H30.0363L28.3003 20.684L26.5643 25.528ZM35.5857 29L31.9037 19.2H33.1777L36.2717 27.754L39.3937 19.2H40.6397L36.9577 29H35.5857ZM45.5343 23.974V22.966H51.1203V23.974H45.5343ZM45.5343 26.886V25.878H51.1203V26.886H45.5343Z" fill="white"/>
</svg>
