<svg width="335" height="173" viewBox="0 0 335 173" fill="none" xmlns="http://www.w3.org/2000/svg">
<path d="M52 156.5C115.833 154.333 258.1 122.2 316.5 11" stroke="white" stroke-width="3"/>
<line opacity="0.05" x1="40" y1="150.5" x2="323" y2="150.5" stroke="white"/>
<line opacity="0.05" x1="40" y1="142.5" x2="323" y2="142.5" stroke="white"/>
<line opacity="0.05" x1="40" y1="78.5" x2="323" y2="78.5" stroke="white"/>
<line opacity="0.05" x1="40" y1="134.5" x2="323" y2="134.5" stroke="white"/>
<line opacity="0.05" x1="40" y1="70.5" x2="323" y2="70.5" stroke="white"/>
<line opacity="0.05" x1="40" y1="126.5" x2="323" y2="126.5" stroke="white"/>
<line opacity="0.05" x1="40" y1="62.5" x2="323" y2="62.5" stroke="white"/>
<line opacity="0.05" x1="40" y1="14.5" x2="323" y2="14.5" stroke="white"/>
<line opacity="0.05" x1="40" y1="118.5" x2="323" y2="118.5" stroke="white"/>
<line opacity="0.05" x1="40" y1="54.5" x2="323" y2="54.5" stroke="white"/>
<line opacity="0.05" x1="40" y1="6.5" x2="323" y2="6.5" stroke="white"/>
<line opacity="0.05" x1="40" y1="110.5" x2="323" y2="110.5" stroke="white"/>
<line opacity="0.05" x1="40" y1="46.5" x2="323" y2="46.5" stroke="white"/>
<line opacity="0.05" x1="40" y1="102.5" x2="323" y2="102.5" stroke="white"/>
<line opacity="0.05" x1="40" y1="38.5" x2="323" y2="38.5" stroke="white"/>
<line opacity="0.05" x1="40" y1="94.5" x2="323" y2="94.5" stroke="white"/>
<line opacity="0.05" x1="40" y1="30.5" x2="323" y2="30.5" stroke="white"/>
<line opacity="0.05" x1="40" y1="86.5" x2="323" y2="86.5" stroke="white"/>
<line opacity="0.05" x1="40" y1="22.5" x2="323" y2="22.5" stroke="white"/>
<line opacity="0.05" x1="40" y1="158.5" x2="323" y2="158.5" stroke="white"/>
<rect x="265.5" y="0.5" width="69" height="19" rx="3.5" fill="#3C3C3C" stroke="#4F4F4F"/>
<path d="M275.912 13L274.112 9.86V9.12H274.712C275.065 9.12 275.362 9.04333 275.602 8.89C275.842 8.73 275.995 8.51 276.062 8.23H274.112V7.49H276.052C275.992 7.23667 275.869 7.02667 275.682 6.86C275.495 6.68667 275.235 6.6 274.902 6.6H274.112V5.86H278.622V6.6H277.052C277.285 6.85333 277.432 7.15 277.492 7.49H278.622V8.23H277.512C277.445 8.72333 277.255 9.11 276.942 9.39C276.629 9.66333 276.225 9.85 275.732 9.95L277.692 13H275.912ZM282.795 6V11.95H284.765V13H279.565V11.95H281.685V7.17L280.475 7.82L279.905 6.95L281.685 6.01V6H282.795ZM285.782 12.52C285.782 12.3333 285.832 12.19 285.932 12.09C286.032 11.9833 286.175 11.93 286.362 11.93C286.549 11.93 286.692 11.9833 286.792 12.09C286.892 12.19 286.942 12.3333 286.942 12.52C286.942 12.7133 286.892 12.8633 286.792 12.97C286.692 13.07 286.549 13.12 286.362 13.12C286.175 13.12 286.032 13.07 285.932 12.97C285.832 12.8633 285.782 12.7133 285.782 12.52ZM290.593 8.7C291.359 8.7 291.963 8.88333 292.403 9.25C292.849 9.61667 293.073 10.1133 293.073 10.74C293.073 11.4733 292.849 12.0533 292.403 12.48C291.963 12.9 291.359 13.11 290.593 13.11C289.866 13.11 289.276 12.9467 288.823 12.62C288.369 12.2867 288.113 11.8333 288.053 11.26L289.113 11.14C289.193 11.4267 289.363 11.6533 289.623 11.82C289.889 11.98 290.213 12.06 290.593 12.06C291.039 12.06 291.389 11.9433 291.643 11.71C291.903 11.47 292.033 11.1467 292.033 10.74C292.033 10.4067 291.903 10.1433 291.643 9.95C291.389 9.75 291.039 9.65 290.593 9.65H289.123V9.64L288.363 9.65L288.833 6H292.833V7.05H289.753L289.543 8.7H290.593ZM296.518 9.52C296.518 8.86667 296.678 8.26333 296.998 7.71C297.325 7.15667 297.765 6.72 298.318 6.4C298.871 6.07333 299.475 5.91 300.128 5.91C300.801 5.91 301.418 6.08 301.978 6.42C302.545 6.75333 302.981 7.20333 303.288 7.77L302.318 8.3C302.098 7.91333 301.791 7.60333 301.398 7.37C301.011 7.13667 300.588 7.02 300.128 7.02C299.675 7.02 299.255 7.13333 298.868 7.36C298.488 7.58 298.185 7.88333 297.958 8.27C297.738 8.65 297.628 9.06667 297.628 9.52C297.628 9.97333 297.738 10.3933 297.958 10.78C298.185 11.16 298.488 11.4633 298.868 11.69C299.255 11.91 299.675 12.02 300.128 12.02C300.595 12.02 301.021 11.9033 301.408 11.67C301.801 11.43 302.105 11.1133 302.318 10.72L303.298 11.25C302.991 11.8167 302.555 12.2733 301.988 12.62C301.421 12.96 300.801 13.13 300.128 13.13C299.475 13.13 298.871 12.97 298.318 12.65C297.765 12.3233 297.325 11.8833 296.998 11.33C296.678 10.7767 296.518 10.1733 296.518 9.52ZM306.791 7.89C306.865 7.89 306.921 7.89333 306.961 7.9L306.881 8.9C306.808 8.88 306.738 8.87 306.671 8.87C306.258 8.87 305.911 8.99667 305.631 9.25C305.351 9.49667 305.211 9.84667 305.211 10.3V13H304.161V8H305.211V8.85C305.325 8.58333 305.518 8.35667 305.791 8.17C306.071 7.98333 306.405 7.89 306.791 7.89ZM309.812 13.13C309.338 13.13 308.898 13.0133 308.492 12.78C308.092 12.54 307.775 12.22 307.542 11.82C307.308 11.4133 307.192 10.9733 307.192 10.5C307.192 10.0267 307.308 9.59 307.542 9.19C307.775 8.79 308.092 8.47333 308.492 8.24C308.898 8 309.338 7.88 309.812 7.88C310.285 7.88 310.722 8 311.122 8.24C311.528 8.47333 311.848 8.79 312.082 9.19C312.315 9.59 312.432 10.0267 312.432 10.5C312.432 10.9733 312.315 11.4133 312.082 11.82C311.848 12.22 311.528 12.54 311.122 12.78C310.722 13.0133 310.285 13.13 309.812 13.13ZM309.812 12.08C310.098 12.08 310.362 12.01 310.602 11.87C310.842 11.7233 311.032 11.53 311.172 11.29C311.312 11.05 311.382 10.7867 311.382 10.5C311.382 10.2133 311.312 9.95 311.172 9.71C311.032 9.47 310.842 9.28 310.602 9.14C310.362 9 310.098 8.93 309.812 8.93C309.525 8.93 309.262 9 309.022 9.14C308.782 9.28 308.588 9.47 308.442 9.71C308.302 9.95 308.232 10.2133 308.232 10.5C308.232 10.7867 308.302 11.05 308.442 11.29C308.588 11.53 308.782 11.7233 309.022 11.87C309.262 12.01 309.525 12.08 309.812 12.08ZM315.922 7.89C315.996 7.89 316.052 7.89333 316.092 7.9L316.012 8.9C315.939 8.88 315.869 8.87 315.802 8.87C315.389 8.87 315.042 8.99667 314.762 9.25C314.482 9.49667 314.342 9.84667 314.342 10.3V13H313.292V8H314.342V8.85C314.456 8.58333 314.649 8.35667 314.922 8.17C315.202 7.98333 315.536 7.89 315.922 7.89ZM318.991 7.87C319.478 7.87 319.911 7.99 320.291 8.23C320.671 8.46333 320.968 8.78333 321.181 9.19C321.395 9.59 321.501 10.03 321.501 10.51C321.501 10.59 321.488 10.7167 321.461 10.89H317.421C317.508 11.29 317.695 11.61 317.981 11.85C318.275 12.09 318.645 12.21 319.091 12.21C319.365 12.21 319.625 12.15 319.871 12.03C320.125 11.91 320.311 11.7533 320.431 11.56L321.251 12.04C321.025 12.3867 320.725 12.6567 320.351 12.85C319.978 13.0367 319.551 13.13 319.071 13.13C318.538 13.13 318.065 13.0167 317.651 12.79C317.245 12.5633 316.928 12.25 316.701 11.85C316.481 11.45 316.371 11 316.371 10.5C316.371 10.0067 316.481 9.56 316.701 9.16C316.928 8.76 317.238 8.44667 317.631 8.22C318.031 7.98667 318.485 7.87 318.991 7.87ZM320.501 10.06C320.448 9.66667 320.285 9.35667 320.011 9.13C319.745 8.90333 319.405 8.79 318.991 8.79C318.705 8.79 318.441 8.85 318.201 8.97C317.961 9.08333 317.771 9.24 317.631 9.44C317.491 9.63333 317.418 9.84 317.411 10.06H320.501ZM323.215 9.38C323.215 9.54667 323.299 9.67 323.465 9.75C323.639 9.82333 323.915 9.90667 324.295 10C324.682 10.0867 325.002 10.18 325.255 10.28C325.509 10.3733 325.725 10.5233 325.905 10.73C326.092 10.9367 326.185 11.2167 326.185 11.57C326.185 11.89 326.092 12.17 325.905 12.41C325.719 12.6433 325.465 12.8233 325.145 12.95C324.832 13.07 324.485 13.13 324.105 13.13C323.592 13.13 323.152 13.03 322.785 12.83C322.419 12.6233 322.152 12.3367 321.985 11.97L322.845 11.52C322.945 11.7733 323.102 11.9633 323.315 12.09C323.535 12.21 323.799 12.27 324.105 12.27C324.392 12.27 324.639 12.21 324.845 12.09C325.059 11.97 325.165 11.8 325.165 11.58C325.165 11.3867 325.069 11.2467 324.875 11.16C324.689 11.0667 324.392 10.97 323.985 10.87C323.592 10.77 323.275 10.6767 323.035 10.59C322.802 10.4967 322.599 10.3567 322.425 10.17C322.252 9.97667 322.165 9.72333 322.165 9.41C322.165 9.10333 322.252 8.83333 322.425 8.6C322.599 8.36667 322.832 8.18667 323.125 8.06C323.419 7.93333 323.745 7.87 324.105 7.87C324.532 7.87 324.912 7.96333 325.245 8.15C325.585 8.33 325.845 8.58333 326.025 8.91L325.165 9.34C324.979 8.93333 324.625 8.73 324.105 8.73C323.832 8.73 323.615 8.79 323.455 8.91C323.295 9.02333 323.215 9.18 323.215 9.38Z" fill="white"/>
<path d="M15.6023 154.4V159.456H17.2743V160H13.1943V159.456H15.0343V154.992L13.8663 155.488L13.6023 155.032L15.0343 154.4H15.6023ZM20.8648 154.4V159.456H23.5048V160H20.2968V154.4H20.8648ZM27.2961 156H27.8321V160H27.2961V159.256C27.1148 159.517 26.8828 159.723 26.6001 159.872C26.3228 160.021 26.0215 160.096 25.6961 160.096C25.3121 160.096 24.9655 160.005 24.6561 159.824C24.3468 159.637 24.1041 159.384 23.9281 159.064C23.7575 158.744 23.6721 158.392 23.6721 158.008C23.6721 157.619 23.7575 157.264 23.9281 156.944C24.1041 156.624 24.3468 156.373 24.6561 156.192C24.9655 156.005 25.3121 155.912 25.6961 155.912C26.0215 155.912 26.3228 155.989 26.6001 156.144C26.8775 156.293 27.1095 156.499 27.2961 156.76V156ZM25.7521 159.576C26.0348 159.576 26.2935 159.507 26.5281 159.368C26.7628 159.229 26.9468 159.04 27.0801 158.8C27.2188 158.56 27.2881 158.293 27.2881 158C27.2881 157.707 27.2188 157.443 27.0801 157.208C26.9468 156.968 26.7628 156.781 26.5281 156.648C26.2935 156.509 26.0348 156.44 25.7521 156.44C25.4695 156.44 25.2108 156.509 24.9761 156.648C24.7415 156.787 24.5548 156.976 24.4161 157.216C24.2828 157.451 24.2161 157.715 24.2161 158.008C24.2161 158.301 24.2828 158.568 24.4161 158.808C24.5548 159.043 24.7415 159.229 24.9761 159.368C25.2108 159.507 25.4695 159.576 25.7521 159.576ZM32.3979 160H31.7099L30.2859 158.2L29.5499 159V160H29.0139V154.4H29.5499V158.216L31.5819 156H32.3259L30.6619 157.8L32.3979 160ZM36.5149 160H35.9709V157.616C35.9709 157.184 35.8509 156.875 35.6109 156.688C35.3709 156.501 35.0962 156.408 34.7869 156.408C34.5415 156.408 34.3122 156.48 34.0989 156.624C33.8909 156.763 33.7495 156.992 33.6749 157.312V160H33.1389V154.4H33.6749V156.504C33.8189 156.333 33.9949 156.195 34.2029 156.088C34.4109 155.976 34.6375 155.92 34.8829 155.92C35.1175 155.92 35.3575 155.968 35.6029 156.064C35.8535 156.16 36.0669 156.333 36.2429 156.584C36.4242 156.835 36.5149 157.176 36.5149 157.608V160Z" fill="white"/>
<path opacity="0.5" d="M94.5866 166.4V171.456H96.2586V172H92.1786V171.456H94.0186V166.992L92.8506 167.488L92.5866 167.032L94.0186 166.4H94.5866ZM98.8827 172.096C98.4347 172.096 98.0507 171.976 97.7307 171.736C97.416 171.496 97.176 171.16 97.0107 170.728C96.8507 170.291 96.7707 169.781 96.7707 169.2C96.7707 168.619 96.8507 168.112 97.0107 167.68C97.176 167.243 97.416 166.904 97.7307 166.664C98.0507 166.424 98.4347 166.304 98.8827 166.304C99.3307 166.304 99.7147 166.424 100.035 166.664C100.355 166.904 100.595 167.243 100.755 167.68C100.92 168.112 101.003 168.619 101.003 169.2C101.003 169.781 100.92 170.291 100.755 170.728C100.595 171.16 100.355 171.496 100.035 171.736C99.7147 171.976 99.3307 172.096 98.8827 172.096ZM98.8827 171.52C99.3734 171.52 99.752 171.32 100.019 170.92C100.291 170.52 100.427 169.947 100.427 169.2C100.427 168.453 100.291 167.88 100.019 167.48C99.752 167.08 99.3734 166.88 98.8827 166.88C98.3974 166.88 98.0187 167.08 97.7467 167.48C97.4747 167.88 97.3387 168.453 97.3387 169.2C97.3387 169.947 97.4747 170.52 97.7467 170.92C98.0187 171.32 98.3974 171.52 98.8827 171.52ZM105.291 166.4H105.947L103.899 169.816V172H103.323V169.816L101.283 166.4H101.931L103.611 169.192L105.291 166.4Z" fill="white"/>
<path opacity="0.5" d="M148.203 171.456V172H144.291V171.792C144.339 171.291 144.504 170.811 144.787 170.352C145.075 169.893 145.459 169.557 145.939 169.344C146.003 169.312 146.099 169.269 146.227 169.216C146.52 169.083 146.747 168.968 146.907 168.872C147.072 168.776 147.208 168.653 147.315 168.504C147.427 168.355 147.483 168.171 147.483 167.952C147.483 167.717 147.419 167.517 147.291 167.352C147.168 167.181 147.011 167.053 146.819 166.968C146.627 166.883 146.435 166.84 146.243 166.84C145.869 166.84 145.544 166.923 145.267 167.088C144.989 167.248 144.824 167.485 144.771 167.8L144.227 167.736C144.269 167.432 144.387 167.173 144.579 166.96C144.776 166.747 145.019 166.587 145.307 166.48C145.6 166.368 145.912 166.312 146.243 166.312C146.541 166.312 146.827 166.376 147.099 166.504C147.376 166.627 147.6 166.811 147.771 167.056C147.947 167.301 148.035 167.592 148.035 167.928C148.035 168.275 147.952 168.563 147.787 168.792C147.627 169.016 147.429 169.195 147.195 169.328C146.96 169.456 146.613 169.621 146.155 169.824C145.851 169.963 145.592 170.179 145.379 170.472C145.171 170.765 145.021 171.093 144.931 171.456H148.203ZM150.883 172.096C150.435 172.096 150.051 171.976 149.731 171.736C149.416 171.496 149.176 171.16 149.011 170.728C148.851 170.291 148.771 169.781 148.771 169.2C148.771 168.619 148.851 168.112 149.011 167.68C149.176 167.243 149.416 166.904 149.731 166.664C150.051 166.424 150.435 166.304 150.883 166.304C151.331 166.304 151.715 166.424 152.035 166.664C152.355 166.904 152.595 167.243 152.755 167.68C152.92 168.112 153.003 168.619 153.003 169.2C153.003 169.781 152.92 170.291 152.755 170.728C152.595 171.16 152.355 171.496 152.035 171.736C151.715 171.976 151.331 172.096 150.883 172.096ZM150.883 171.52C151.373 171.52 151.752 171.32 152.019 170.92C152.291 170.52 152.427 169.947 152.427 169.2C152.427 168.453 152.291 167.88 152.019 167.48C151.752 167.08 151.373 166.88 150.883 166.88C150.397 166.88 150.019 167.08 149.747 167.48C149.475 167.88 149.339 168.453 149.339 169.2C149.339 169.947 149.475 170.52 149.747 170.92C150.019 171.32 150.397 171.52 150.883 171.52ZM157.291 166.4H157.947L155.899 169.816V172H155.323V169.816L153.283 166.4H153.931L155.611 169.192L157.291 166.4Z" fill="white"/>
<path opacity="0.5" d="M199.187 169C199.464 169.144 199.68 169.339 199.835 169.584C199.995 169.829 200.075 170.107 200.075 170.416C200.075 170.736 199.989 171.024 199.819 171.28C199.653 171.531 199.424 171.728 199.131 171.872C198.843 172.016 198.52 172.088 198.163 172.088C197.864 172.088 197.581 172.032 197.315 171.92C197.048 171.803 196.824 171.645 196.643 171.448C196.467 171.245 196.352 171.019 196.299 170.768L196.907 170.712C196.987 170.952 197.144 171.149 197.379 171.304C197.619 171.459 197.88 171.536 198.163 171.536C198.419 171.536 198.648 171.488 198.851 171.392C199.059 171.291 199.219 171.155 199.331 170.984C199.448 170.808 199.507 170.613 199.507 170.4C199.507 170.187 199.448 169.995 199.331 169.824C199.219 169.648 199.059 169.512 198.851 169.416C198.648 169.315 198.419 169.264 198.163 169.264H197.891V168.76L198.163 168.768C198.504 168.768 198.787 168.677 199.011 168.496C199.235 168.315 199.347 168.083 199.347 167.8C199.347 167.523 199.232 167.293 199.003 167.112C198.779 166.931 198.496 166.84 198.155 166.84C197.92 166.84 197.696 166.901 197.483 167.024C197.269 167.147 197.117 167.304 197.027 167.496L196.451 167.44C196.536 167.115 196.736 166.845 197.051 166.632C197.371 166.419 197.739 166.312 198.155 166.312C198.491 166.312 198.792 166.376 199.059 166.504C199.325 166.632 199.533 166.811 199.683 167.04C199.832 167.264 199.907 167.517 199.907 167.8C199.907 168.056 199.843 168.288 199.715 168.496C199.592 168.704 199.416 168.872 199.187 169ZM202.883 172.096C202.435 172.096 202.051 171.976 201.731 171.736C201.416 171.496 201.176 171.16 201.011 170.728C200.851 170.291 200.771 169.781 200.771 169.2C200.771 168.619 200.851 168.112 201.011 167.68C201.176 167.243 201.416 166.904 201.731 166.664C202.051 166.424 202.435 166.304 202.883 166.304C203.331 166.304 203.715 166.424 204.035 166.664C204.355 166.904 204.595 167.243 204.755 167.68C204.92 168.112 205.003 168.619 205.003 169.2C205.003 169.781 204.92 170.291 204.755 170.728C204.595 171.16 204.355 171.496 204.035 171.736C203.715 171.976 203.331 172.096 202.883 172.096ZM202.883 171.52C203.373 171.52 203.752 171.32 204.019 170.92C204.291 170.52 204.427 169.947 204.427 169.2C204.427 168.453 204.291 167.88 204.019 167.48C203.752 167.08 203.373 166.88 202.883 166.88C202.397 166.88 202.019 167.08 201.747 167.48C201.475 167.88 201.339 168.453 201.339 169.2C201.339 169.947 201.475 170.52 201.747 170.92C202.019 171.32 202.397 171.52 202.883 171.52ZM209.291 166.4H209.947L207.899 169.816V172H207.323V169.816L205.283 166.4H205.931L207.611 169.192L209.291 166.4Z" fill="white"/>
<path opacity="0.5" d="M251.587 170.168H252.307V170.704H251.587V172H251.011V170.704H248.067V170.168L250.035 166.4H250.675L248.707 170.168H251.011V168.624H251.587V170.168ZM254.883 172.096C254.435 172.096 254.051 171.976 253.731 171.736C253.416 171.496 253.176 171.16 253.011 170.728C252.851 170.291 252.771 169.781 252.771 169.2C252.771 168.619 252.851 168.112 253.011 167.68C253.176 167.243 253.416 166.904 253.731 166.664C254.051 166.424 254.435 166.304 254.883 166.304C255.331 166.304 255.715 166.424 256.035 166.664C256.355 166.904 256.595 167.243 256.755 167.68C256.92 168.112 257.003 168.619 257.003 169.2C257.003 169.781 256.92 170.291 256.755 170.728C256.595 171.16 256.355 171.496 256.035 171.736C255.715 171.976 255.331 172.096 254.883 172.096ZM254.883 171.52C255.373 171.52 255.752 171.32 256.019 170.92C256.291 170.52 256.427 169.947 256.427 169.2C256.427 168.453 256.291 167.88 256.019 167.48C255.752 167.08 255.373 166.88 254.883 166.88C254.397 166.88 254.019 167.08 253.747 167.48C253.475 167.88 253.339 168.453 253.339 169.2C253.339 169.947 253.475 170.52 253.747 170.92C254.019 171.32 254.397 171.52 254.883 171.52ZM261.291 166.4H261.947L259.899 169.816V172H259.323V169.816L257.283 166.4H257.931L259.611 169.192L261.291 166.4Z" fill="white"/>
<path opacity="0.5" d="M305.195 168.648C305.781 168.648 306.243 168.789 306.579 169.072C306.915 169.349 307.083 169.731 307.083 170.216C307.083 170.792 306.912 171.248 306.571 171.584C306.235 171.92 305.776 172.088 305.195 172.088C304.693 172.088 304.275 171.973 303.939 171.744C303.608 171.509 303.4 171.189 303.315 170.784L303.883 170.712C303.973 170.963 304.136 171.163 304.371 171.312C304.605 171.461 304.88 171.536 305.195 171.536C305.616 171.536 305.944 171.419 306.179 171.184C306.419 170.949 306.539 170.627 306.539 170.216C306.539 169.885 306.419 169.627 306.179 169.44C305.944 169.248 305.616 169.152 305.195 169.152H303.875L303.883 169.136L303.571 169.152L303.923 166.4H306.923V166.936H304.395L304.179 168.648H305.195ZM309.883 172.096C309.435 172.096 309.051 171.976 308.731 171.736C308.416 171.496 308.176 171.16 308.011 170.728C307.851 170.291 307.771 169.781 307.771 169.2C307.771 168.619 307.851 168.112 308.011 167.68C308.176 167.243 308.416 166.904 308.731 166.664C309.051 166.424 309.435 166.304 309.883 166.304C310.331 166.304 310.715 166.424 311.035 166.664C311.355 166.904 311.595 167.243 311.755 167.68C311.92 168.112 312.003 168.619 312.003 169.2C312.003 169.781 311.92 170.291 311.755 170.728C311.595 171.16 311.355 171.496 311.035 171.736C310.715 171.976 310.331 172.096 309.883 172.096ZM309.883 171.52C310.373 171.52 310.752 171.32 311.019 170.92C311.291 170.52 311.427 169.947 311.427 169.2C311.427 168.453 311.291 167.88 311.019 167.48C310.752 167.08 310.373 166.88 309.883 166.88C309.397 166.88 309.019 167.08 308.747 167.48C308.475 167.88 308.339 168.453 308.339 169.2C308.339 169.947 308.475 170.52 308.747 170.92C309.019 171.32 309.397 171.52 309.883 171.52ZM316.291 166.4H316.947L314.899 169.816V172H314.323V169.816L312.283 166.4H312.931L314.611 169.192L316.291 166.4Z" fill="white"/>
<path d="M2.66475 7.4V12.456H4.33675V13H0.25675V12.456H2.09675V7.992L0.92875 8.488L0.66475 8.032L2.09675 7.4H2.66475ZM5.20081 12.752C5.20081 12.6453 5.23015 12.5627 5.28881 12.504C5.34748 12.4453 5.43015 12.416 5.53681 12.416C5.64348 12.416 5.72615 12.4453 5.78481 12.504C5.84348 12.5627 5.87281 12.6453 5.87281 12.752C5.87281 12.8533 5.84348 12.936 5.78481 13C5.72615 13.0587 5.64348 13.088 5.53681 13.088C5.43548 13.088 5.35281 13.0587 5.28881 13C5.23015 12.936 5.20081 12.8533 5.20081 12.752ZM8.74931 9.648C9.33598 9.648 9.79731 9.78933 10.1333 10.072C10.4693 10.3493 10.6373 10.7307 10.6373 11.216C10.6373 11.792 10.4666 12.248 10.1253 12.584C9.78931 12.92 9.33065 13.088 8.74931 13.088C8.24798 13.088 7.82931 12.9733 7.49331 12.744C7.16265 12.5093 6.95465 12.1893 6.86931 11.784L7.43731 11.712C7.52798 11.9627 7.69065 12.1627 7.92531 12.312C8.15998 12.4613 8.43465 12.536 8.74931 12.536C9.17065 12.536 9.49865 12.4187 9.73331 12.184C9.97331 11.9493 10.0933 11.6267 10.0933 11.216C10.0933 10.8853 9.97331 10.6267 9.73331 10.44C9.49865 10.248 9.17065 10.152 8.74931 10.152H7.42931L7.43731 10.136L7.12531 10.152L7.47731 7.4H10.4773V7.936H7.94931L7.73331 9.648H8.74931ZM13.5319 10.208C13.5319 9.68533 13.6599 9.20267 13.9159 8.76C14.1772 8.31733 14.5292 7.968 14.9719 7.712C15.4145 7.45067 15.8972 7.32 16.4199 7.32C16.9532 7.32 17.4439 7.456 17.8919 7.728C18.3399 7.99467 18.6892 8.352 18.9399 8.8L18.4359 9.072C18.2332 8.71467 17.9532 8.42933 17.5959 8.216C17.2385 8.00267 16.8465 7.896 16.4199 7.896C15.9985 7.896 15.6119 8 15.2599 8.208C14.9079 8.416 14.6279 8.696 14.4199 9.048C14.2119 9.4 14.1079 9.78667 14.1079 10.208C14.1079 10.6293 14.2119 11.0187 14.4199 11.376C14.6279 11.728 14.9079 12.008 15.2599 12.216C15.6119 12.424 15.9985 12.528 16.4199 12.528C16.8465 12.528 17.2385 12.4213 17.5959 12.208C17.9585 11.9893 18.2412 11.7013 18.4439 11.344L18.9479 11.616C18.6972 12.064 18.3452 12.424 17.8919 12.696C17.4385 12.968 16.9479 13.104 16.4199 13.104C15.8972 13.104 15.4145 12.9733 14.9719 12.712C14.5292 12.4507 14.1772 12.0987 13.9159 11.656C13.6599 11.2133 13.5319 10.7307 13.5319 10.208ZM21.5488 8.912C21.6128 8.912 21.6608 8.91467 21.6928 8.92L21.6448 9.44C21.6128 9.42933 21.5648 9.424 21.5008 9.424C21.1595 9.424 20.8661 9.53333 20.6208 9.752C20.3808 9.96533 20.2608 10.2853 20.2608 10.712V13H19.7248V9H20.2608V9.72C20.3515 9.49067 20.5088 9.29867 20.7328 9.144C20.9568 8.98933 21.2288 8.912 21.5488 8.912ZM23.9553 13.096C23.5766 13.096 23.2246 13.0027 22.8993 12.816C22.5793 12.6293 22.3259 12.376 22.1393 12.056C21.9526 11.7307 21.8593 11.3787 21.8593 11C21.8593 10.6213 21.9526 10.2747 22.1393 9.96C22.3259 9.64 22.5793 9.38667 22.8993 9.2C23.2246 9.01333 23.5766 8.92 23.9553 8.92C24.3286 8.92 24.6753 9.01333 24.9953 9.2C25.3153 9.38667 25.5686 9.64 25.7552 9.96C25.9419 10.2747 26.0353 10.6213 26.0353 11C26.0353 11.3787 25.9419 11.7307 25.7552 12.056C25.5686 12.376 25.3153 12.6293 24.9953 12.816C24.6753 13.0027 24.3286 13.096 23.9553 13.096ZM23.9473 12.552C24.2299 12.552 24.4886 12.4827 24.7233 12.344C24.9633 12.2053 25.1526 12.0187 25.2913 11.784C25.4299 11.544 25.4993 11.2827 25.4993 11C25.4993 10.7173 25.4299 10.4587 25.2913 10.224C25.1526 9.984 24.9633 9.79467 24.7233 9.656C24.4886 9.51733 24.2299 9.448 23.9473 9.448C23.6646 9.448 23.4033 9.51733 23.1633 9.656C22.9286 9.79467 22.7419 9.984 22.6033 10.224C22.4646 10.4587 22.3953 10.7173 22.3953 11C22.3953 11.2827 22.4646 11.544 22.6033 11.784C22.7419 12.0187 22.9286 12.2053 23.1633 12.344C23.4033 12.4827 23.6646 12.552 23.9473 12.552ZM28.6191 8.912C28.6831 8.912 28.7311 8.91467 28.7631 8.92L28.7151 9.44C28.6831 9.42933 28.6351 9.424 28.5711 9.424C28.2298 9.424 27.9365 9.53333 27.6911 9.752C27.4511 9.96533 27.3311 10.2853 27.3311 10.712V13H26.7951V9H27.3311V9.72C27.4218 9.49067 27.5791 9.29867 27.8031 9.144C28.0271 8.98933 28.2991 8.912 28.6191 8.912ZM31.0801 8.904C31.4694 8.904 31.8161 9 32.1201 9.192C32.4241 9.384 32.6587 9.64267 32.8241 9.968C32.9894 10.288 33.0721 10.6347 33.0721 11.008C33.0721 11.0347 33.0667 11.1067 33.0561 11.224H29.5441C29.5707 11.4853 29.6507 11.72 29.7841 11.928C29.9227 12.136 30.1067 12.3013 30.3361 12.424C30.5707 12.5467 30.8374 12.608 31.1361 12.608C31.4081 12.608 31.6641 12.5467 31.9041 12.424C32.1494 12.296 32.3281 12.1387 32.4401 11.952L32.8721 12.208C32.6961 12.4853 32.4561 12.704 32.1521 12.864C31.8534 13.0187 31.5121 13.096 31.1281 13.096C30.7121 13.096 30.3414 13.0053 30.0161 12.824C29.6961 12.6427 29.4454 12.392 29.2641 12.072C29.0827 11.752 28.9921 11.3947 28.9921 11C28.9921 10.6107 29.0801 10.256 29.2561 9.936C29.4321 9.616 29.6774 9.36533 29.9921 9.184C30.3121 8.99733 30.6747 8.904 31.0801 8.904ZM32.5521 10.768C32.4987 10.3413 32.3441 10.0053 32.0881 9.76C31.8321 9.51467 31.4961 9.392 31.0801 9.392C30.7867 9.392 30.5227 9.456 30.2881 9.584C30.0534 9.712 29.8694 9.88267 29.7361 10.096C29.6081 10.3093 29.5414 10.5333 29.5361 10.768H32.5521ZM34.2029 10.08C34.2029 10.2507 34.2829 10.376 34.4429 10.456C34.6029 10.536 34.8563 10.6187 35.2029 10.704C35.5229 10.784 35.7789 10.8613 35.9709 10.936C36.1629 11.0053 36.3283 11.12 36.4669 11.28C36.6109 11.4347 36.6829 11.6427 36.6829 11.904C36.6829 12.1387 36.6136 12.3467 36.4749 12.528C36.3416 12.7093 36.1576 12.8507 35.9229 12.952C35.6883 13.048 35.4243 13.096 35.1309 13.096C34.7309 13.096 34.3923 13.016 34.1149 12.856C33.8376 12.6907 33.6403 12.4693 33.5229 12.192L33.9789 11.952C34.0643 12.1813 34.2083 12.352 34.4109 12.464C34.6136 12.576 34.8536 12.632 35.1309 12.632C35.4083 12.632 35.6483 12.568 35.8509 12.44C36.0536 12.3067 36.1549 12.128 36.1549 11.904C36.1549 11.76 36.1069 11.6453 36.0109 11.56C35.9149 11.4693 35.7949 11.4 35.6509 11.352C35.5123 11.304 35.3176 11.2507 35.0669 11.192C34.7576 11.1173 34.5096 11.0453 34.3229 10.976C34.1416 10.9013 33.9843 10.7947 33.8509 10.656C33.7229 10.512 33.6589 10.3227 33.6589 10.088C33.6589 9.864 33.7203 9.66133 33.8429 9.48C33.9709 9.29867 34.1443 9.15733 34.3629 9.056C34.5869 8.95467 34.8376 8.904 35.1149 8.904C35.4456 8.904 35.7363 8.976 35.9869 9.12C36.2429 9.264 36.4349 9.464 36.5629 9.72L36.1149 9.944C36.0349 9.76267 35.9096 9.62133 35.7389 9.52C35.5683 9.41867 35.3603 9.368 35.1149 9.368C34.8323 9.368 34.6083 9.432 34.4429 9.56C34.2829 9.688 34.2029 9.86133 34.2029 10.08Z" fill="white"/>
<path d="M21 18L19.5566 20.5H22.4434L21 18ZM21.25 149V83.5H20.75V149H21.25ZM21.25 83.5V20.25H20.75V83.5H21.25Z" fill="white"/>
</svg>
