<svg width="300" height="86" viewBox="0 0 300 86" fill="none" xmlns="http://www.w3.org/2000/svg">
<path d="M0.416922 83L1.89292 74.6H3.06892L5.06092 80.456L9.09292 74.6H10.2809L8.80492 83H7.79692L8.94892 76.4L5.20492 81.8H4.44892L2.58892 76.412L1.42492 83H0.416922ZM12.6768 83.144C12.0768 83.144 11.6048 82.98 11.2608 82.652C10.9248 82.316 10.7568 81.84 10.7568 81.224C10.7568 81.112 10.7608 81 10.7688 80.888C10.7768 80.768 10.7928 80.648 10.8168 80.528L11.4408 77.048H12.4488L11.8488 80.42C11.8328 80.524 11.8168 80.624 11.8008 80.72C11.7928 80.816 11.7888 80.908 11.7888 80.996C11.7888 81.852 12.2088 82.28 13.0488 82.28C13.5528 82.28 14.0048 82.104 14.4048 81.752C14.8048 81.4 15.0728 80.896 15.2088 80.24L15.7728 77.048H16.7808L15.7368 83H14.8248L14.9448 81.92C14.6888 82.304 14.3608 82.604 13.9608 82.82C13.5608 83.036 13.1328 83.144 12.6768 83.144ZM19.5557 83C19.0597 83 18.6757 82.904 18.4037 82.712C18.1317 82.512 17.9957 82.176 17.9957 81.704C17.9957 81.624 17.9997 81.54 18.0077 81.452C18.0157 81.356 18.0277 81.256 18.0437 81.152L18.6197 77.9H17.6957L17.8517 77.048H18.7757L19.1597 75.62H20.0477L19.7837 77.048H21.5477L21.3917 77.9H19.6397L19.0517 81.152C19.0357 81.28 19.0277 81.392 19.0277 81.488C19.0277 81.736 19.0917 81.908 19.2197 82.004C19.3557 82.092 19.5717 82.136 19.8677 82.136H20.6477L20.4917 83H19.5557ZM23.9971 83.144C23.3971 83.144 22.9251 82.98 22.5811 82.652C22.2451 82.316 22.0771 81.84 22.0771 81.224C22.0771 81.112 22.0811 81 22.0891 80.888C22.0971 80.768 22.1131 80.648 22.1371 80.528L22.7611 77.048H23.7691L23.1691 80.42C23.1531 80.524 23.1371 80.624 23.1211 80.72C23.1131 80.816 23.1091 80.908 23.1091 80.996C23.1091 81.852 23.5291 82.28 24.3691 82.28C24.8731 82.28 25.3251 82.104 25.7251 81.752C26.1251 81.4 26.3931 80.896 26.5291 80.24L27.0931 77.048H28.1011L27.0571 83H26.1451L26.2651 81.92C26.0091 82.304 25.6811 82.604 25.2811 82.82C24.8811 83.036 24.4531 83.144 23.9971 83.144ZM30.648 83.144C30.2 83.144 29.836 83.072 29.556 82.928C29.276 82.776 29.068 82.58 28.932 82.34C28.796 82.092 28.728 81.828 28.728 81.548C28.728 81.108 28.852 80.728 29.1 80.408C29.348 80.088 29.692 79.844 30.132 79.676C30.58 79.5 31.1 79.412 31.692 79.412H33.288L33.3 79.34C33.324 79.204 33.336 79.068 33.336 78.932C33.336 78.548 33.224 78.256 33 78.056C32.784 77.856 32.48 77.756 32.088 77.756C31.704 77.756 31.348 77.856 31.02 78.056C30.692 78.248 30.464 78.532 30.336 78.908H29.292C29.42 78.476 29.628 78.112 29.916 77.816C30.212 77.52 30.56 77.296 30.96 77.144C31.36 76.984 31.78 76.904 32.22 76.904C32.932 76.904 33.464 77.072 33.816 77.408C34.176 77.744 34.356 78.2 34.356 78.776C34.356 78.864 34.352 78.956 34.344 79.052C34.336 79.148 34.324 79.244 34.308 79.34L33.672 83H32.76L32.88 81.944C32.656 82.28 32.36 82.564 31.992 82.796C31.632 83.028 31.184 83.144 30.648 83.144ZM30.948 82.292C31.332 82.292 31.676 82.192 31.98 81.992C32.292 81.792 32.548 81.532 32.748 81.212C32.948 80.892 33.08 80.556 33.144 80.204V80.192H31.632C31.064 80.192 30.616 80.304 30.288 80.528C29.968 80.744 29.808 81.044 29.808 81.428C29.808 81.7 29.904 81.912 30.096 82.064C30.296 82.216 30.58 82.292 30.948 82.292ZM35.1848 83L36.7208 74.36H37.7288L36.1928 83H35.1848ZM41.3622 83L42.8382 74.6H47.8302L47.6862 75.404H43.7022L43.1862 78.392H46.5342L46.3902 79.172H43.0422L42.3702 83H41.3622ZM49.8135 83.144C49.2135 83.144 48.7415 82.98 48.3975 82.652C48.0615 82.316 47.8935 81.84 47.8935 81.224C47.8935 81.112 47.8975 81 47.9055 80.888C47.9135 80.768 47.9295 80.648 47.9535 80.528L48.5775 77.048H49.5855L48.9855 80.42C48.9695 80.524 48.9535 80.624 48.9375 80.72C48.9295 80.816 48.9255 80.908 48.9255 80.996C48.9255 81.852 49.3455 82.28 50.1855 82.28C50.6895 82.28 51.1415 82.104 51.5415 81.752C51.9415 81.4 52.2095 80.896 52.3455 80.24L52.9095 77.048H53.9175L52.8735 83H51.9615L52.0815 81.92C51.8255 82.304 51.4975 82.604 51.0975 82.82C50.6975 83.036 50.2695 83.144 49.8135 83.144ZM54.5444 83L55.5884 77.048H56.5004L56.3804 78.128C56.6364 77.744 56.9644 77.444 57.3644 77.228C57.7644 77.012 58.1924 76.904 58.6484 76.904C59.2404 76.904 59.7084 77.072 60.0524 77.408C60.3964 77.736 60.5684 78.208 60.5684 78.824C60.5684 78.936 60.5604 79.052 60.5444 79.172C60.5364 79.284 60.5204 79.4 60.4964 79.52L59.8844 83H58.8764L59.4644 79.628C59.4804 79.524 59.4924 79.424 59.5004 79.328C59.5164 79.232 59.5244 79.14 59.5244 79.052C59.5244 78.196 59.1044 77.768 58.2644 77.768C57.7604 77.768 57.3084 77.944 56.9084 78.296C56.5164 78.648 56.2524 79.152 56.1164 79.808L55.5524 83H54.5444ZM64.0753 83.144C63.5633 83.144 63.1233 83.028 62.7553 82.796C62.3953 82.556 62.1193 82.236 61.9273 81.836C61.7353 81.436 61.6393 80.996 61.6393 80.516C61.6393 79.812 61.7873 79.192 62.0833 78.656C62.3873 78.112 62.7953 77.684 63.3073 77.372C63.8193 77.06 64.3913 76.904 65.0233 76.904C65.5513 76.904 65.9833 77.008 66.3193 77.216C66.6553 77.424 66.9033 77.7 67.0633 78.044L67.7113 74.36H68.7193L67.1953 83H66.2713L66.3553 82.016C66.1233 82.304 65.8233 82.564 65.4553 82.796C65.0873 83.028 64.6273 83.144 64.0753 83.144ZM64.3633 82.268C64.8193 82.268 65.2233 82.144 65.5753 81.896C65.9353 81.648 66.2153 81.316 66.4153 80.9C66.6233 80.476 66.7273 80.012 66.7273 79.508C66.7273 78.988 66.5793 78.572 66.2833 78.26C65.9873 77.94 65.5793 77.78 65.0593 77.78C64.6033 77.78 64.1953 77.896 63.8353 78.128C63.4753 78.36 63.1913 78.676 62.9833 79.076C62.7833 79.468 62.6833 79.916 62.6833 80.42C62.6833 80.948 62.8313 81.388 63.1273 81.74C63.4313 82.092 63.8433 82.268 64.3633 82.268ZM71.8183 83L76.4023 74.6H77.4703L79.0663 83H78.0223L77.6263 80.84H74.0503L72.8983 83H71.8183ZM74.4703 80.048H77.4823L76.7143 75.8L74.4703 80.048Z" fill="#888888"/>
<path d="M223.261 83.144C222.549 83.144 221.941 83.004 221.437 82.724C220.941 82.444 220.561 82.052 220.297 81.548C220.033 81.044 219.901 80.456 219.901 79.784C219.901 79.032 220.021 78.332 220.261 77.684C220.509 77.036 220.853 76.472 221.293 75.992C221.733 75.504 222.245 75.128 222.829 74.864C223.421 74.592 224.061 74.456 224.749 74.456C225.709 74.456 226.453 74.688 226.981 75.152C227.509 75.608 227.785 76.248 227.809 77.072H226.669C226.653 76.536 226.473 76.116 226.129 75.812C225.785 75.5 225.277 75.344 224.605 75.344C224.085 75.344 223.601 75.456 223.153 75.68C222.713 75.896 222.329 76.204 222.001 76.604C221.673 76.996 221.417 77.456 221.233 77.984C221.049 78.512 220.957 79.084 220.957 79.7C220.957 80.508 221.173 81.136 221.605 81.584C222.037 82.032 222.637 82.256 223.405 82.256C224.077 82.256 224.633 82.104 225.073 81.8C225.521 81.496 225.849 81.084 226.057 80.564H227.197C226.885 81.38 226.389 82.016 225.709 82.472C225.029 82.92 224.213 83.144 223.261 83.144ZM230.914 83.144C230.418 83.144 229.978 83.032 229.594 82.808C229.21 82.584 228.91 82.276 228.694 81.884C228.478 81.492 228.37 81.048 228.37 80.552C228.37 80.024 228.462 79.54 228.646 79.1C228.83 78.66 229.082 78.276 229.402 77.948C229.722 77.62 230.094 77.364 230.518 77.18C230.942 76.996 231.402 76.904 231.898 76.904C232.394 76.904 232.834 77.012 233.218 77.228C233.602 77.444 233.902 77.744 234.118 78.128C234.334 78.512 234.442 78.956 234.442 79.46C234.442 79.98 234.35 80.464 234.166 80.912C233.99 81.36 233.738 81.752 233.41 82.088C233.09 82.416 232.718 82.676 232.294 82.868C231.87 83.052 231.41 83.144 230.914 83.144ZM231.046 82.28C231.494 82.28 231.894 82.16 232.246 81.92C232.606 81.68 232.89 81.352 233.098 80.936C233.306 80.52 233.41 80.052 233.41 79.532C233.41 78.972 233.246 78.54 232.918 78.236C232.598 77.924 232.214 77.768 231.766 77.768C231.326 77.768 230.93 77.888 230.578 78.128C230.226 78.368 229.946 78.696 229.738 79.112C229.53 79.528 229.426 79.996 229.426 80.516C229.426 80.892 229.498 81.212 229.642 81.476C229.794 81.732 229.994 81.932 230.242 82.076C230.49 82.212 230.758 82.28 231.046 82.28ZM235.279 83L236.323 77.048H237.223L237.139 78.02C237.371 77.676 237.659 77.404 238.003 77.204C238.347 77.004 238.719 76.904 239.119 76.904C239.559 76.904 239.939 77.004 240.259 77.204C240.579 77.404 240.799 77.708 240.919 78.116C241.175 77.74 241.499 77.444 241.891 77.228C242.291 77.012 242.699 76.904 243.115 76.904C243.555 76.904 243.931 77 244.243 77.192C244.563 77.376 244.791 77.664 244.927 78.056C245.071 78.44 245.087 78.928 244.975 79.52L244.363 83H243.355L243.943 79.628C244.055 79.012 244.011 78.548 243.811 78.236C243.619 77.924 243.307 77.768 242.875 77.768C242.451 77.768 242.055 77.936 241.687 78.272C241.319 78.6 241.059 79.076 240.907 79.7L240.319 83H239.323L239.911 79.628C240.015 79.012 239.967 78.548 239.767 78.236C239.575 77.924 239.263 77.768 238.831 77.768C238.391 77.768 237.975 77.956 237.583 78.332C237.199 78.7 236.947 79.228 236.827 79.916L236.287 83H235.279ZM245.416 85.64L246.94 77.048H247.876L247.78 78.032C248.028 77.72 248.332 77.456 248.692 77.24C249.06 77.016 249.512 76.904 250.048 76.904C250.56 76.904 251 77.016 251.368 77.24C251.736 77.464 252.016 77.768 252.208 78.152C252.408 78.536 252.508 78.972 252.508 79.46C252.508 80.156 252.356 80.784 252.052 81.344C251.756 81.896 251.348 82.336 250.828 82.664C250.308 82.984 249.72 83.144 249.064 83.144C248.744 83.144 248.448 83.088 248.176 82.976C247.912 82.864 247.684 82.72 247.492 82.544C247.308 82.368 247.172 82.184 247.084 81.992L246.424 85.64H245.416ZM249.124 82.268C249.58 82.268 249.984 82.152 250.336 81.92C250.688 81.688 250.964 81.372 251.164 80.972C251.364 80.572 251.464 80.116 251.464 79.604C251.464 79.076 251.312 78.64 251.008 78.296C250.712 77.952 250.308 77.78 249.796 77.78C249.34 77.78 248.932 77.9 248.572 78.14C248.212 78.38 247.928 78.708 247.72 79.124C247.512 79.532 247.408 79.988 247.408 80.492C247.408 81.028 247.564 81.46 247.876 81.788C248.188 82.108 248.604 82.268 249.124 82.268ZM255.257 83.144C254.809 83.144 254.445 83.072 254.165 82.928C253.885 82.776 253.677 82.58 253.541 82.34C253.405 82.092 253.337 81.828 253.337 81.548C253.337 81.108 253.461 80.728 253.709 80.408C253.957 80.088 254.301 79.844 254.741 79.676C255.189 79.5 255.709 79.412 256.301 79.412H257.897L257.909 79.34C257.933 79.204 257.945 79.068 257.945 78.932C257.945 78.548 257.833 78.256 257.609 78.056C257.393 77.856 257.089 77.756 256.697 77.756C256.313 77.756 255.957 77.856 255.629 78.056C255.301 78.248 255.073 78.532 254.945 78.908H253.901C254.029 78.476 254.237 78.112 254.525 77.816C254.821 77.52 255.169 77.296 255.569 77.144C255.969 76.984 256.389 76.904 256.829 76.904C257.541 76.904 258.073 77.072 258.425 77.408C258.785 77.744 258.965 78.2 258.965 78.776C258.965 78.864 258.961 78.956 258.953 79.052C258.945 79.148 258.933 79.244 258.917 79.34L258.281 83H257.369L257.489 81.944C257.265 82.28 256.969 82.564 256.601 82.796C256.241 83.028 255.793 83.144 255.257 83.144ZM255.557 82.292C255.941 82.292 256.285 82.192 256.589 81.992C256.901 81.792 257.157 81.532 257.357 81.212C257.557 80.892 257.689 80.556 257.753 80.204V80.192H256.241C255.673 80.192 255.225 80.304 254.897 80.528C254.577 80.744 254.417 81.044 254.417 81.428C254.417 81.7 254.513 81.912 254.705 82.064C254.905 82.216 255.189 82.292 255.557 82.292ZM259.806 83L260.85 77.048H261.762L261.642 78.128C261.898 77.744 262.226 77.444 262.626 77.228C263.026 77.012 263.454 76.904 263.91 76.904C264.502 76.904 264.97 77.072 265.314 77.408C265.658 77.736 265.83 78.208 265.83 78.824C265.83 78.936 265.822 79.052 265.806 79.172C265.798 79.284 265.782 79.4 265.758 79.52L265.146 83H264.138L264.726 79.628C264.742 79.524 264.754 79.424 264.762 79.328C264.778 79.232 264.786 79.14 264.786 79.052C264.786 78.196 264.366 77.768 263.526 77.768C263.022 77.768 262.57 77.944 262.17 78.296C261.778 78.648 261.514 79.152 261.378 79.808L260.814 83H259.806ZM266.525 85.64L268.553 82.424H268.217L266.789 77.048H267.857L269.045 81.68L271.937 77.048H272.993L267.581 85.64H266.525ZM276.495 83L277.971 74.6H280.935C281.711 74.6 282.283 74.772 282.651 75.116C283.027 75.46 283.215 75.884 283.215 76.388C283.215 76.972 283.043 77.464 282.699 77.864C282.355 78.256 281.907 78.524 281.355 78.668C281.755 78.748 282.079 78.94 282.327 79.244C282.575 79.54 282.699 79.904 282.699 80.336C282.699 80.864 282.555 81.328 282.267 81.728C281.987 82.128 281.607 82.44 281.127 82.664C280.647 82.888 280.119 83 279.543 83H276.495ZM278.343 78.284H280.203C280.787 78.284 281.259 78.128 281.619 77.816C281.979 77.496 282.159 77.076 282.159 76.556C282.159 76.204 282.035 75.924 281.787 75.716C281.547 75.508 281.175 75.404 280.671 75.404H278.835L278.343 78.284ZM277.647 82.184H279.579C280.211 82.184 280.723 82.012 281.115 81.668C281.507 81.324 281.703 80.876 281.703 80.324C281.703 79.94 281.559 79.636 281.271 79.412C280.983 79.188 280.591 79.076 280.095 79.076H278.187L277.647 82.184ZM283.736 83L285.272 74.36H286.28L284.744 83H283.736ZM288.567 83.144C287.967 83.144 287.495 82.98 287.151 82.652C286.815 82.316 286.647 81.84 286.647 81.224C286.647 81.112 286.651 81 286.659 80.888C286.667 80.768 286.683 80.648 286.707 80.528L287.331 77.048H288.339L287.739 80.42C287.723 80.524 287.707 80.624 287.691 80.72C287.683 80.816 287.679 80.908 287.679 80.996C287.679 81.852 288.099 82.28 288.939 82.28C289.443 82.28 289.895 82.104 290.295 81.752C290.695 81.4 290.963 80.896 291.099 80.24L291.663 77.048H292.671L291.627 83H290.715L290.835 81.92C290.579 82.304 290.251 82.604 289.851 82.82C289.451 83.036 289.023 83.144 288.567 83.144ZM295.938 83.144C295.202 83.144 294.61 82.916 294.162 82.46C293.722 82.004 293.502 81.392 293.502 80.624C293.502 79.936 293.654 79.312 293.958 78.752C294.262 78.184 294.678 77.736 295.206 77.408C295.742 77.072 296.35 76.904 297.03 76.904C297.55 76.904 297.986 77.008 298.338 77.216C298.698 77.416 298.966 77.688 299.142 78.032C299.326 78.376 299.418 78.756 299.418 79.172C299.418 79.332 299.398 79.516 299.358 79.724C299.326 79.924 299.294 80.1 299.262 80.252H294.51C294.494 80.388 294.486 80.508 294.486 80.612C294.486 81.18 294.646 81.604 294.966 81.884C295.286 82.156 295.662 82.292 296.094 82.292C296.51 82.292 296.874 82.196 297.186 82.004C297.506 81.804 297.754 81.544 297.93 81.224H298.926C298.678 81.776 298.294 82.236 297.774 82.604C297.254 82.964 296.642 83.144 295.938 83.144ZM296.898 77.756C296.418 77.756 295.966 77.904 295.542 78.2C295.118 78.488 294.826 78.912 294.666 79.472H298.41C298.418 79.424 298.422 79.38 298.422 79.34C298.43 79.292 298.434 79.248 298.434 79.208C298.434 78.752 298.294 78.396 298.014 78.14C297.734 77.884 297.362 77.756 296.898 77.756Z" fill="#888888"/>
<g clip-path="url(#clip0)">
<path d="M249.845 9.5686H265.155V13.1568H249.845V9.5686Z" fill="#696E73"/>
<path d="M257.5 9.5686H265.155V13.1568H257.5V9.5686Z" fill="#4B5055"/>
<path d="M227 0V61H234.655L236.772 59.4069L248.988 59.6105L249.845 59.2059V57.4118V40.0686H251.639V0H227Z" fill="#59ABFF"/>
<path d="M263.361 0V21.0378H265.155V57.4118V59.2059L267.229 59.3255L279.811 59.8955L280.345 61H288V0H263.361Z" fill="#4B5055"/>
<path d="M258.577 23.7245V40.0687H260.371V57.4119V59.206L261.895 59.6106L272.402 60.4019L272.69 61.0001H280.345V11.1216L258.577 23.7245Z" fill="#59ABFF"/>
<path d="M234.535 7.65479H244.104V11.243H234.535V7.65479Z" fill="#F7F9FA"/>
<path d="M234.535 15.3096H244.104V18.8978H234.535V15.3096Z" fill="#F7F9FA"/>
<path d="M234.535 22.9646H244.104V26.5528H234.535V22.9646Z" fill="#F7F9FA"/>
<path d="M234.535 30.6196H244.104V34.2079H234.535V30.6196Z" fill="#F7F9FA"/>
<path d="M234.655 38.2744H272.69V60.9999H234.655V38.2744Z" fill="#00ECFF"/>
<path d="M257.5 38.2744H272.69V60.9999H257.5V38.2744Z" fill="#2CCCD9"/>
<path d="M243.147 47.843H246.974V51.4313H243.147V47.843Z" fill="#F7F9FA"/>
<path d="M251.759 47.843H255.586V51.4313H251.759V47.843Z" fill="#F7F9FA"/>
<path d="M260.371 47.843H264.198V51.4313H260.371V47.843Z" fill="#E5EAEE"/>
<path d="M266.112 28.7058H272.81V32.294H266.112V28.7058Z" fill="#E5EAEE"/>
</g>
<g clip-path="url(#clip1)">
<path d="M17.9399 21.0051H61.3099V52.5569H17.9399V21.0051Z" fill="#95A5A5"/>
<path d="M57.3794 22.8457H64.7414V50.3663H57.3794V22.8457Z" fill="#D1D4D1"/>
<path d="M21.6204 49.8762H14.2583V23.8091H21.6204V49.8762Z" fill="#D1D4D1"/>
<path d="M55.2759 20.479H66.8446V23.1085C66.8446 24.2701 65.9031 25.2116 64.7415 25.2116H57.3795C56.2174 25.2116 55.2759 24.2701 55.2759 23.1085V20.479Z" fill="#BDC3C7"/>
<path d="M57.3795 48.3496H64.7415C65.9031 48.3496 66.8446 49.2916 66.8446 50.4532V53.0827H55.2759V50.4532C55.2759 49.2916 56.2174 48.3496 57.3795 48.3496Z" fill="#BDC3C7"/>
<path d="M21.6204 25.2116H14.2584C13.0968 25.2116 12.1553 24.2701 12.1553 23.1085V20.479H23.724V23.1085C23.724 24.2701 22.7825 25.2116 21.6204 25.2116Z" fill="#BDC3C7"/>
<path d="M23.724 53.0827H12.1553V50.4532C12.1553 49.2916 13.0968 48.3496 14.2584 48.3496H21.6204C22.7825 48.3496 23.724 49.2916 23.724 50.4532V53.0827Z" fill="#BDC3C7"/>
<path d="M11.1035 15.4312H68.9482V19.9534C68.9482 20.5342 68.4772 21.0052 67.8964 21.0052H12.1553C11.5745 21.0052 11.1035 20.5342 11.1035 19.9534V15.4312Z" fill="#285680"/>
<path d="M12.1553 52.5569H67.8964C68.4772 52.5569 68.9482 53.0279 68.9482 53.6087V58.8671H11.1035V53.6087C11.1035 53.0279 11.5745 52.5569 12.1553 52.5569Z" fill="#285680"/>
<path d="M68.9482 16.7985H10.0518C9.47098 16.7985 9 16.3275 9 15.7467V10.2113C8.99954 9.7515 9.29785 9.34474 9.73625 9.20699L38.565 0.261202C39.1742 0.0717869 39.8258 0.0717869 40.435 0.261202L69.2637 9.20699C69.7021 9.34474 70.0005 9.7515 70 10.2113V15.7467C70 16.3275 69.529 16.7985 68.9482 16.7985Z" fill="#4482C3"/>
<path d="M13.2065 12.5912V12.5353L39.1843 4.47193C39.3872 4.4091 39.6041 4.4091 39.807 4.47193L65.7932 12.5353V12.5912H13.2065Z" fill="#285680"/>
<path d="M51.0686 36.7809C51.0686 43.1703 45.8893 48.3496 39.4999 48.3496C33.1105 48.3496 27.9312 43.1703 27.9312 36.7809C27.9312 30.3915 33.1105 25.2117 39.4999 25.2117C45.8893 25.2117 51.0686 30.3915 51.0686 36.7809Z" fill="#7ED09E"/>
<path d="M10.0518 56.7634H68.9482C69.529 56.7634 70 57.2344 70 57.8152V59.9188C70 60.4996 69.529 60.9706 68.9482 60.9706H10.0518C9.47098 60.9706 9 60.4996 9 59.9188V57.8152C9 57.2344 9.47098 56.7634 10.0518 56.7634Z" fill="#4482C3"/>
<path d="M38.6867 46.4648L33.9004 38.095V36.979H34.4575C35.8082 36.979 36.838 36.7845 37.5471 36.3956C38.2731 36.0067 38.6952 35.305 38.8134 34.2905H33.9004V32.6672H38.788C38.6192 31.7203 38.1718 31.0355 37.4458 30.6128C36.7367 30.1901 35.7406 29.9787 34.4575 29.9787H33.9004V28.3555H44.3848V29.9787H39.5984C40.4088 30.6382 40.89 31.5343 41.0419 32.6672H44.3848V34.2905H41.0926C40.9744 35.5248 40.5017 36.4886 39.6744 37.1819C38.864 37.8582 37.7835 38.2894 36.4328 38.4754L41.2698 46.4648H38.6867Z" fill="#3DA867"/>
</g>
<path d="M73 34H219.5" stroke="white" stroke-dasharray="2 2"/>
<g clip-path="url(#clip2)">
<path d="M162.544 21.6665C162.518 21.6665 162.492 21.6645 162.466 21.6604C161.787 21.5536 161.263 21.1762 160.756 20.8113C160.453 20.5927 160.166 20.386 159.864 20.2514C158.883 19.8148 157.831 20.1753 156.737 21.3227C156.547 21.5217 156.232 21.5291 156.033 21.3393C155.834 21.1495 155.826 20.8343 156.016 20.6353C157.78 18.7861 159.302 18.9111 160.269 19.3416C160.665 19.518 161.007 19.7647 161.338 20.0033C161.769 20.3136 162.176 20.6066 162.62 20.6766C162.892 20.7193 163.078 20.9742 163.035 21.2459C162.996 21.4913 162.785 21.6665 162.544 21.6665Z" fill="#655E67"/>
<path d="M161.94 27.9173C161.804 27.9173 161.669 27.8621 161.57 27.7535C160.904 27.0175 160.647 26.087 160.399 25.1871C160.335 24.9538 160.274 24.7334 160.206 24.5155C159.916 23.5846 159.27 22.7854 158.52 22.4299C157.954 22.1616 157.362 22.1483 156.763 22.3902C156.507 22.493 156.217 22.3696 156.114 22.1146C156.011 21.8595 156.135 21.5694 156.39 21.4665C157.246 21.1211 158.13 21.143 158.946 21.5299C159.955 22.0078 160.781 23.0131 161.157 24.2191C161.23 24.4526 161.296 24.6913 161.359 24.9222C161.587 25.7462 161.801 26.5245 162.309 27.0851C162.493 27.2889 162.478 27.6039 162.274 27.7885C162.179 27.8748 162.059 27.9173 161.94 27.9173Z" fill="#655E67"/>
<path d="M156.658 14.0557C156.04 13.5112 155.324 13.3254 154.581 13.7807C154.127 14.0594 153.592 14.1006 153.134 13.8299C152.8 13.6325 152.435 13.5237 152.052 13.5237C151.668 13.5237 151.303 13.6326 150.969 13.8299C150.512 14.1006 149.976 14.0594 149.522 13.7807C148.78 13.3255 148.064 13.5113 147.445 14.0557C146.475 14.9096 146.111 16.3217 147.286 18.3207C148.126 19.7495 149.254 20.6309 150.183 20.706C150.683 21.3316 153.42 21.3316 153.92 20.706C154.85 20.6309 155.977 19.7495 156.817 18.3207C157.992 16.3217 157.629 14.9096 156.658 14.0557Z" fill="#C77E67"/>
<path d="M155.747 22.708H148.357C148.357 22.708 140 32.7042 140 36.7589C140 41.2948 144.028 43.4764 146.18 43.4764H157.923C160.076 43.4764 164.104 41.2948 164.104 36.7589C164.104 32.7042 155.747 22.708 155.747 22.708Z" fill="#C77E67"/>
<path d="M156.659 14.0556C156.04 13.5111 155.324 13.3253 154.581 13.7805C154.534 13.8097 154.485 13.8357 154.436 13.8595C154.511 13.9183 154.585 13.9836 154.657 14.0556C155.51 14.9095 155.83 16.3215 154.796 18.3206C154.058 19.7494 153.065 20.6308 152.248 20.7058C152.099 20.9169 151.726 21.0564 151.281 21.1251C152.275 21.26 153.589 21.1205 153.92 20.7058C154.85 20.6308 155.978 19.7494 156.817 18.3206C157.992 16.3216 157.629 14.9095 156.659 14.0556Z" fill="#AC583E"/>
<path d="M155.747 22.708H153.854C153.854 22.708 161.207 32.7042 161.207 36.7589C161.207 41.2948 157.664 43.4764 155.769 43.4764H157.923C160.076 43.4764 164.104 41.2948 164.104 36.7589C164.104 32.7043 155.747 22.708 155.747 22.708Z" fill="#AC583E"/>
<path d="M156.982 24.2441C156.238 23.2965 155.747 22.708 155.747 22.708H148.357C148.357 22.708 147.865 23.2964 147.121 24.2441H156.982Z" fill="#AC583E"/>
<path d="M152.051 21.8291C151.629 21.8291 151.26 21.6174 151.068 21.2833C150.786 21.0858 150.376 20.536 150.026 18.8968C149.917 18.3847 149.843 17.893 149.806 17.4357C149.784 17.1615 149.989 16.9215 150.263 16.8997C150.537 16.877 150.777 17.0824 150.799 17.3565C150.832 17.7707 150.9 18.219 151 18.6889C151.25 19.8574 151.525 20.3417 151.623 20.4477C151.769 20.5025 151.883 20.6232 151.927 20.7755C151.943 20.8325 152.047 20.8332 152.051 20.8332C152.056 20.8332 152.16 20.8325 152.176 20.7755C152.22 20.6232 152.334 20.5025 152.48 20.4477C152.578 20.3418 152.853 19.8575 153.103 18.6889C153.203 18.2209 153.271 17.7723 153.305 17.3555C153.327 17.0814 153.569 16.8774 153.842 16.8998C154.116 16.9222 154.32 17.1626 154.297 17.4367C154.26 17.8959 154.186 18.3871 154.077 18.8968C153.727 20.536 153.317 21.0858 153.035 21.2833C152.843 21.6175 152.473 21.8291 152.051 21.8291Z" fill="#7B3F2C"/>
<path d="M154.569 30.3845H153.708C153.641 30.0099 153.49 29.6578 153.262 29.352H154.569C154.844 29.352 155.067 29.129 155.067 28.854C155.067 28.579 154.844 28.356 154.569 28.356H149.534C149.259 28.356 149.036 28.5789 149.036 28.8539C149.036 29.1289 149.259 29.352 149.534 29.352H151.282C151.674 29.3523 152.043 29.5051 152.32 29.7824C152.492 29.9536 152.615 30.1597 152.685 30.3846H149.534C149.259 30.3846 149.036 30.6075 149.036 30.8825C149.036 31.1575 149.259 31.3805 149.534 31.3805H152.665C152.456 31.981 151.888 32.413 151.22 32.413H150.187C149.872 32.413 149.591 32.5891 149.454 32.8725C149.318 33.1559 149.354 33.4851 149.55 33.7315L152.59 37.5588C152.689 37.6825 152.834 37.747 152.98 37.747C153.089 37.747 153.198 37.7117 153.29 37.639C153.505 37.4679 153.541 37.1546 153.37 36.9393L150.566 33.4089H151.22C152.44 33.4089 153.461 32.5364 153.696 31.3804H154.569C154.844 31.3804 155.067 31.1575 155.067 30.8825C155.067 30.6074 154.844 30.3845 154.569 30.3845Z" fill="#F0E9E6"/>
<path d="M146.546 21.4052C146.546 22.1248 147.13 22.7081 147.849 22.7081H156.255C156.974 22.7081 157.558 22.1248 157.558 21.4052C157.558 20.6856 156.974 20.1023 156.255 20.1023H147.849C147.13 20.1023 146.546 20.6856 146.546 21.4052Z" fill="#655E67"/>
<path d="M156.254 20.1023H154.419C155.139 20.1023 155.722 20.6857 155.722 21.4052C155.722 22.1248 155.139 22.7081 154.419 22.7081H156.254C156.974 22.7081 157.557 22.1248 157.557 21.4052C157.557 20.6857 156.974 20.1023 156.254 20.1023Z" fill="#544F56"/>
<path d="M166.006 40.2568H157.311C156.422 40.2568 155.701 40.9776 155.701 41.8667C155.701 42.7557 156.422 43.4765 157.311 43.4765H166.006C166.895 43.4765 167.616 42.7557 167.616 41.8667C167.616 40.9776 166.895 40.2568 166.006 40.2568Z" fill="#F7E365"/>
<path d="M166.006 40.2568H164.16C165.049 40.2568 165.77 40.9776 165.77 41.8667C165.77 42.7558 165.049 43.4765 164.16 43.4765H166.006C166.895 43.4765 167.616 42.7557 167.616 41.8667C167.616 40.9776 166.895 40.2568 166.006 40.2568Z" fill="#ECC52E"/>
<path d="M166.006 37.0371H157.311C156.422 37.0371 155.701 37.7579 155.701 38.647C155.701 39.536 156.422 40.2568 157.311 40.2568H166.006C166.895 40.2568 167.616 39.536 167.616 38.647C167.616 37.7579 166.895 37.0371 166.006 37.0371Z" fill="#F7E365"/>
<path d="M166.006 39.0244H157.311C156.64 39.0244 156.066 38.6141 155.824 38.0308C155.745 38.2206 155.701 38.4287 155.701 38.647C155.701 39.5361 156.422 40.2568 157.311 40.2568H166.006C166.895 40.2568 167.616 39.5361 167.616 38.647C167.616 38.4287 167.572 38.2206 167.494 38.0308C167.252 38.6141 166.677 39.0244 166.006 39.0244Z" fill="#ECC52E"/>
<path d="M166.006 37.0371H164.16C165.049 37.0371 165.77 37.7579 165.77 38.647C165.77 39.536 165.049 40.2568 164.16 40.2568H166.006C166.895 40.2568 167.616 39.536 167.616 38.647C167.616 37.7579 166.895 37.0371 166.006 37.0371Z" fill="#ECC52E"/>
<path d="M172.784 41.0614L168.437 33.5313C167.992 32.7613 167.008 32.4974 166.238 32.942C165.468 33.3866 165.204 34.3712 165.649 35.1412L169.996 42.6714C170.441 43.4413 171.425 43.7052 172.195 43.2606C172.965 42.816 173.229 41.8314 172.784 41.0614Z" fill="#F7E365"/>
<path d="M172.784 41.0615L171.861 39.4624C172.306 40.2324 172.042 41.2169 171.272 41.6615C170.502 42.1061 169.517 41.8423 169.073 41.0723L169.996 42.6715C170.441 43.4414 171.425 43.7053 172.195 43.2607C172.965 42.8161 173.229 41.8315 172.784 41.0615Z" fill="#ECC52E"/>
</g>
<rect x="111" y="48" width="81" height="18" rx="9" fill="white"/>
<path d="M121.837 60V53H123.117V60H121.837ZM124.474 60V53H125.754L129.044 57.93V53H130.324V60H129.044L125.754 55.08V60H124.474ZM133.311 60V54.03H131.271V53H136.641V54.03H134.591V60H133.311ZM137.589 60V53H142.159V54.03H138.869V55.95H141.859V56.95H138.869V58.97H142.159V60H137.589ZM143.37 60V53H145.94C146.5 53 146.96 53.0967 147.32 53.29C147.687 53.4767 147.96 53.7333 148.14 54.06C148.32 54.38 148.41 54.7367 148.41 55.13C148.41 55.5567 148.297 55.9467 148.07 56.3C147.85 56.6533 147.504 56.91 147.03 57.07L148.48 60H147.01L145.71 57.24H144.65V60H143.37ZM144.65 56.3H145.86C146.287 56.3 146.6 56.1967 146.8 55.99C147 55.7833 147.1 55.51 147.1 55.17C147.1 54.8367 147 54.57 146.8 54.37C146.607 54.17 146.29 54.07 145.85 54.07H144.65V56.3ZM149.601 60V53H154.171V54.03H150.881V55.95H153.871V56.95H150.881V58.97H154.171V60H149.601ZM157.772 60.12C157.259 60.12 156.805 60.0333 156.412 59.86C156.019 59.68 155.709 59.4267 155.482 59.1C155.255 58.7667 155.139 58.3633 155.132 57.89H156.482C156.495 58.2167 156.612 58.4933 156.832 58.72C157.059 58.94 157.369 59.05 157.762 59.05C158.102 59.05 158.372 58.97 158.572 58.81C158.772 58.6433 158.872 58.4233 158.872 58.15C158.872 57.8633 158.782 57.64 158.602 57.48C158.429 57.32 158.195 57.19 157.902 57.09C157.609 56.99 157.295 56.8833 156.962 56.77C156.422 56.5833 156.009 56.3433 155.722 56.05C155.442 55.7567 155.302 55.3667 155.302 54.88C155.295 54.4667 155.392 54.1133 155.592 53.82C155.799 53.52 156.079 53.29 156.432 53.13C156.785 52.9633 157.192 52.88 157.652 52.88C158.119 52.88 158.529 52.9633 158.882 53.13C159.242 53.2967 159.522 53.53 159.722 53.83C159.929 54.13 160.039 54.4867 160.052 54.9H158.682C158.675 54.6533 158.579 54.4367 158.392 54.25C158.212 54.0567 157.959 53.96 157.632 53.96C157.352 53.9533 157.115 54.0233 156.922 54.17C156.735 54.31 156.642 54.5167 156.642 54.79C156.642 55.0233 156.715 55.21 156.862 55.35C157.009 55.4833 157.209 55.5967 157.462 55.69C157.715 55.7833 158.005 55.8833 158.332 55.99C158.679 56.11 158.995 56.25 159.282 56.41C159.569 56.57 159.799 56.7833 159.972 57.05C160.145 57.31 160.232 57.6467 160.232 58.06C160.232 58.4267 160.139 58.7667 159.952 59.08C159.765 59.3933 159.489 59.6467 159.122 59.84C158.755 60.0267 158.305 60.12 157.772 60.12ZM162.891 60V54.03H160.851V53H166.221V54.03H164.171V60H162.891ZM172.182 60.12C171.655 60.12 171.212 60.0233 170.852 59.83C170.492 59.6367 170.202 59.3767 169.982 59.05C169.762 58.7233 169.602 58.36 169.502 57.96C169.409 57.56 169.362 57.15 169.362 56.73C169.362 55.95 169.472 55.2733 169.692 54.7C169.912 54.12 170.229 53.6733 170.642 53.36C171.055 53.04 171.555 52.88 172.142 52.88C172.622 52.88 173.029 52.9767 173.362 53.17C173.702 53.3567 173.965 53.6033 174.152 53.91C174.339 54.2167 174.449 54.5467 174.482 54.9H173.292C173.232 54.5933 173.102 54.3567 172.902 54.19C172.702 54.0233 172.445 53.94 172.132 53.94C171.685 53.94 171.325 54.1467 171.052 54.56C170.779 54.9667 170.632 55.59 170.612 56.43C170.772 56.1567 171.012 55.93 171.332 55.75C171.652 55.57 172.009 55.48 172.402 55.48C172.789 55.48 173.152 55.5733 173.492 55.76C173.832 55.9467 174.105 56.21 174.312 56.55C174.525 56.89 174.632 57.29 174.632 57.75C174.632 58.17 174.529 58.56 174.322 58.92C174.122 59.28 173.835 59.57 173.462 59.79C173.095 60.01 172.669 60.12 172.182 60.12ZM172.112 59.02C172.485 59.02 172.792 58.9067 173.032 58.68C173.279 58.4467 173.402 58.1533 173.402 57.8C173.402 57.4267 173.279 57.1267 173.032 56.9C172.785 56.6733 172.472 56.56 172.092 56.56C171.845 56.56 171.622 56.6167 171.422 56.73C171.229 56.8367 171.075 56.9833 170.962 57.17C170.849 57.35 170.792 57.5533 170.792 57.78C170.792 58.14 170.915 58.4367 171.162 58.67C171.415 58.9033 171.732 59.02 172.112 59.02ZM177.242 56.44C176.922 56.44 176.632 56.37 176.372 56.23C176.112 56.0833 175.905 55.8767 175.752 55.61C175.599 55.3433 175.522 55.0267 175.522 54.66C175.522 54.2933 175.599 53.9767 175.752 53.71C175.905 53.4433 176.112 53.24 176.372 53.1C176.632 52.9533 176.925 52.88 177.252 52.88C177.572 52.88 177.859 52.9533 178.112 53.1C178.372 53.24 178.579 53.4433 178.732 53.71C178.885 53.9767 178.962 54.2933 178.962 54.66C178.962 55.0267 178.885 55.3433 178.732 55.61C178.579 55.8767 178.372 56.0833 178.112 56.23C177.852 56.37 177.562 56.44 177.242 56.44ZM176.862 60L180.812 53H182.062L178.112 60H176.862ZM177.242 55.55C177.435 55.55 177.602 55.4767 177.742 55.33C177.882 55.1767 177.952 54.9533 177.952 54.66C177.952 54.3667 177.882 54.1433 177.742 53.99C177.609 53.8367 177.442 53.76 177.242 53.76C177.042 53.76 176.872 53.8367 176.732 53.99C176.599 54.1433 176.532 54.3667 176.532 54.66C176.532 54.9533 176.599 55.1767 176.732 55.33C176.872 55.4767 177.042 55.55 177.242 55.55ZM181.722 60.12C181.402 60.12 181.112 60.05 180.852 59.91C180.592 59.7633 180.385 59.5567 180.232 59.29C180.079 59.0233 180.002 58.7067 180.002 58.34C180.002 57.9733 180.079 57.66 180.232 57.4C180.385 57.1333 180.592 56.93 180.852 56.79C181.112 56.6433 181.405 56.57 181.732 56.57C182.052 56.57 182.339 56.6433 182.592 56.79C182.852 56.93 183.059 57.1333 183.212 57.4C183.365 57.66 183.442 57.9733 183.442 58.34C183.442 58.7067 183.365 59.0233 183.212 59.29C183.059 59.5567 182.852 59.7633 182.592 59.91C182.339 60.05 182.049 60.12 181.722 60.12ZM181.722 59.23C181.922 59.23 182.089 59.1567 182.222 59.01C182.362 58.8567 182.432 58.6333 182.432 58.34C182.432 58.0467 182.362 57.8233 182.222 57.67C182.089 57.5167 181.922 57.44 181.722 57.44C181.522 57.44 181.352 57.5167 181.212 57.67C181.079 57.8233 181.012 58.0467 181.012 58.34C181.012 58.6333 181.079 58.8567 181.212 59.01C181.352 59.1567 181.522 59.23 181.722 59.23Z" fill="black"/>
<defs>
<clipPath id="clip0">
<rect width="61" height="61" fill="white" transform="translate(227)"/>
</clipPath>
<clipPath id="clip1">
<rect width="61" height="61" fill="white" transform="translate(9)"/>
</clipPath>
<clipPath id="clip2">
<rect width="33" height="33" fill="white" transform="translate(140 12)"/>
</clipPath>
</defs>
</svg>
