<svg width="32" height="32" viewBox="0 0 32 32" fill="none" xmlns="http://www.w3.org/2000/svg">
<g clip-path="url(#clip0)">
<path d="M19.4647 29.2822V30.0928C19.4647 30.164 19.4608 30.2352 19.4532 30.3045C19.3477 31.2582 18.539 32.0001 17.5574 32.0001H14.6329C13.6513 32.0001 12.8426 31.2582 12.737 30.3045C12.7294 30.2352 12.7256 30.164 12.7256 30.0928V29.2822C12.978 29.3948 13.2577 29.4571 13.5521 29.4571H18.6382C18.9325 29.4571 19.2123 29.3948 19.4647 29.2822Z" fill="#50758D"/>
<path d="M15.9998 4.16825C15.7364 4.16825 15.5229 3.95482 15.5229 3.69142V0.476821C15.5229 0.213425 15.7364 0 15.9998 0C16.2632 0 16.4766 0.213425 16.4766 0.476821V3.69142C16.4766 3.95482 16.2631 4.16825 15.9998 4.16825Z" fill="#FFE7C9"/>
<path d="M7.44089 7.71357C7.31883 7.71357 7.19683 7.66703 7.10369 7.57395L4.83058 5.30078C4.64436 5.11451 4.64436 4.81264 4.83058 4.62643C5.01692 4.44021 5.31878 4.44034 5.50493 4.62643L7.77804 6.8996C7.96425 7.08588 7.96425 7.38774 7.77804 7.57395C7.6849 7.66703 7.56283 7.71357 7.44089 7.71357Z" fill="#FFE7C9"/>
<path d="M3.89559 16.2725H0.680923C0.417527 16.2725 0.204102 16.0591 0.204102 15.7957C0.204102 15.5323 0.417527 15.3188 0.680923 15.3188H3.89553C4.15892 15.3188 4.37235 15.5323 4.37235 15.7957C4.37235 16.0591 4.15892 16.2725 3.89559 16.2725Z" fill="#FFE7C9"/>
<path d="M5.16779 27.1046C5.04578 27.1046 4.92372 27.0581 4.83058 26.965C4.64436 26.7787 4.64436 26.4769 4.83058 26.2907L7.10369 24.0175C7.28996 23.8314 7.59183 23.8314 7.77804 24.0175C7.96425 24.2038 7.96425 24.5057 7.77804 24.6919L5.50493 26.965C5.41179 27.0581 5.28979 27.1046 5.16779 27.1046Z" fill="#FFE7C9"/>
<path d="M26.832 27.1046C26.71 27.1046 26.5879 27.0581 26.4948 26.965L24.2217 24.6919C24.0355 24.5056 24.0355 24.2038 24.2217 24.0175C24.408 23.8314 24.7098 23.8314 24.896 24.0175L27.1691 26.2907C27.3554 26.4769 27.3554 26.7788 27.1691 26.965C27.0761 27.0581 26.954 27.1046 26.832 27.1046Z" fill="#FFE7C9"/>
<path d="M31.3189 16.2725H28.1043C27.8409 16.2725 27.6274 16.0591 27.6274 15.7957C27.6274 15.5323 27.8409 15.3188 28.1043 15.3188H31.3189C31.5823 15.3188 31.7957 15.5323 31.7957 15.7957C31.7957 16.0591 31.5822 16.2725 31.3189 16.2725Z" fill="#FFE7C9"/>
<path d="M24.5589 7.71357C24.4369 7.71357 24.3148 7.66703 24.2217 7.57395C24.0355 7.38768 24.0355 7.08582 24.2217 6.8996L26.4948 4.62643C26.6811 4.44028 26.9829 4.44028 27.1691 4.62643C27.3554 4.81271 27.3554 5.11457 27.1691 5.30078L24.896 7.57395C24.803 7.66703 24.6809 7.71357 24.5589 7.71357Z" fill="#FFE7C9"/>
<path d="M16.0951 28.821C16.0951 28.821 12.978 29.3945 12.7256 29.282V30.0926C12.7256 30.1638 12.7294 30.235 12.737 30.3043C12.8426 31.2579 13.6513 31.9999 14.6329 31.9999H15.4594C14.63 31.9999 13.9243 31.4702 13.6616 30.7308C13.6171 30.6058 13.7082 30.474 13.8408 30.474H18.6382C18.9281 30.474 19.204 30.4136 19.4532 30.3043C19.4608 30.235 19.4647 30.1638 19.4647 30.0926V29.282C19.2123 29.3945 16.0951 28.821 16.0951 28.821Z" fill="#2B597F"/>
<path d="M20.6725 27.4225C20.6725 28.2515 20.176 28.9655 19.4646 29.2821C19.2122 29.3946 18.9324 29.4569 18.6381 29.4569H13.552C13.2576 29.4569 12.9779 29.3946 12.7255 29.2821C12.0141 28.9655 11.5175 28.2515 11.5175 27.4225C11.5175 27.4225 11.4877 24.451 11.4819 24.3734V24.3709L16.095 23.7351L20.6554 24.3709L20.6725 27.4225Z" fill="#50758D"/>
<path d="M14.6328 29.4572H13.552C13.2576 29.4572 12.9779 29.3949 12.7255 29.2824C12.0141 28.9657 11.5175 28.2518 11.5175 27.4228C11.5175 27.4228 11.4877 24.4512 11.4819 24.3736V24.3711H12.5627V24.3736C12.5685 24.4512 12.5983 27.4228 12.5983 27.4228C12.5983 28.2518 13.0949 28.9657 13.8063 29.2824C14.0586 29.3949 14.3384 29.4572 14.6328 29.4572Z" fill="#2B597F"/>
<path d="M20.6727 27.3906H19.0515C18.7883 27.3906 18.5747 27.177 18.5747 26.9138C18.5747 26.6506 18.7883 26.437 19.0515 26.437H20.6676L20.6702 26.9138L20.6727 27.3906Z" fill="#2B597F"/>
<path d="M17.3032 26.9138C17.3032 27.177 17.0896 27.3906 16.8264 27.3906H11.5172L11.5063 26.437H16.8264C17.0896 26.437 17.3032 26.6506 17.3032 26.9138Z" fill="#2B597F"/>
<path d="M16.0079 5.75411C16.0079 5.75411 16.0078 5.75411 16.0078 5.75411L16.0079 5.75391C11.0979 5.67839 6.96875 9.95783 7.05705 14.8322C7.05705 17.3186 8.04185 19.5724 9.63761 21.212C10.5779 22.179 11.3917 23.0729 11.482 24.3711L20.6554 24.3864C20.7069 23.05 21.4666 22.1472 22.4132 21.1586C23.9785 19.5241 24.9423 17.2925 24.9423 14.8322C24.9422 9.82107 20.9434 5.75856 16.0079 5.75411Z" fill="#FAD207"/>
<path d="M20.6554 24.384V24.386L11.482 24.3707C11.3917 23.0725 10.5779 22.1786 9.63761 21.2116C8.04185 19.572 7.05706 17.3182 7.05706 14.8317C6.96869 9.95733 11.098 5.67802 16.008 5.75367C16.1663 5.75367 16.3239 5.75812 16.4803 5.76639C11.8424 6.03532 8.0533 10.1601 8.13785 14.8317C8.13785 17.3182 9.12265 19.572 10.7184 21.2116C11.6587 22.1786 12.4725 23.0725 12.5628 24.3707L20.6554 24.384Z" fill="#FAA515"/>
<path d="M16.2245 19.3757C16.0342 19.6208 15.7452 19.7691 15.4351 19.7806C15.422 19.7811 15.4089 19.7814 15.3959 19.7814C15.1 19.7814 14.817 19.6562 14.6177 19.4357L11.6296 16.1298C11.2412 15.7 11.2747 15.0367 11.7045 14.6482C12.1343 14.2596 12.7975 14.2931 13.1862 14.723L15.3351 17.1004L18.7635 12.685C19.1188 12.2274 19.7778 12.1445 20.2354 12.4998C20.693 12.8551 20.7759 13.5141 20.4206 13.9717L16.2245 19.3757Z" fill="#FAA515"/>
</g>
<defs>
<clipPath id="clip0">
<rect width="32" height="32" fill="white"/>
</clipPath>
</defs>
</svg>
