<svg xmlns="http://www.w3.org/2000/svg" width="120" height="120" fill="none" viewBox="0 0 120 120">
    <circle cx="60" cy="60" r="60" fill="#000"/>
    <path fill="#C4C4C4" d="M39.692 76.054c-1.794-1.794-1.794-4.702 0-6.496L66.759 42.49l13.264 13.264c3.139 3.139 3.139 8.229 0 11.368L61.075 86.069c-3.14 3.14-8.229 3.14-11.368 0L39.692 76.054z"/>
    <path fill="url(#paint0_linear)" d="M39.692 76.054c-1.794-1.794-1.794-4.702 0-6.496L66.759 42.49l13.264 13.264c3.139 3.139 3.139 8.229 0 11.368L61.075 86.069c-3.14 3.14-8.229 3.14-11.368 0L39.692 76.054z"/>
    <path fill="#C4C4C4" d="M58.64 33.648c-1.795-1.794-4.703-1.794-6.497 0L39.692 46.1c-1.794 1.794-1.794 4.703 0 6.497l21.383 21.383c3.14 3.14 3.14 8.23 0 11.369L80.023 66.4c3.139-3.14 3.139-8.229 0-11.368L58.639 33.648z"/>
    <path fill="url(#paint1_linear)" d="M58.64 33.648c-1.795-1.794-4.703-1.794-6.497 0L39.692 46.1c-1.794 1.794-1.794 4.703 0 6.497l21.383 21.383c3.14 3.14 3.14 8.23 0 11.369L80.023 66.4c3.139-3.14 3.139-8.229 0-11.368L58.639 33.648z"/>
    <defs>
        <linearGradient id="paint0_linear" x1="51.602" x2="70.549" y1="57.648" y2="76.596" gradientUnits="userSpaceOnUse">
            <stop stop-color="#008AFC"/>
            <stop offset="1" stop-color="#0047CC"/>
        </linearGradient>
        <linearGradient id="paint1_linear" x1="45.917" x2="76.233" y1="39.874" y2="70.19" gradientUnits="userSpaceOnUse">
            <stop stop-color="#00ECFF"/>
            <stop offset="1" stop-color="#008AFC"/>
        </linearGradient>
    </defs>
</svg>
