<svg width="142" height="24" viewBox="0 0 142 24" fill="none" xmlns="http://www.w3.org/2000/svg">
<path d="M97.3649 0.0336906V12.0277H94.7371V0.0336906H85.91V12.0277H83.4506V0.0336906H73.8486L79.913 23.5837H86.8197L90.3572 8.32168L93.9285 23.5837H100.667L106.933 0.0336906H97.3649Z" fill="url(#paint0_linear)"/>
<path d="M123.659 0H108.33V5.32318H111.8V23.5837H120.189V5.32318H123.659V0Z" fill="url(#paint1_linear)"/>
<path d="M141.914 5.79485V0.0336906H126.247V23.5837H134.805V14.6219H141.914V8.28798H134.805V5.79485H141.914Z" fill="url(#paint2_linear)"/>
<path d="M0.00415039 9.76841H2.40183V6.99567H3.8083C6.09882 6.99567 7.26418 5.3213 7.26418 3.63355C7.26418 1.95919 6.11222 0.284828 3.7949 0.284828H0.00415039V9.76841ZM2.40183 4.86588V2.52177H3.7949C5.24155 2.50838 5.24155 4.87927 3.7949 4.86588H2.40183Z" fill="white"/>
<path d="M10.7089 2.53517H14.8881V0.284828H8.28439V9.76841H14.8881V7.50467H10.7089V6.08481H14.5532V4.00861H10.7089V2.53517Z" fill="white"/>
<path d="M21.209 9.76841H24.196L21.6108 6.51345C22.7628 6.15179 23.4727 5.16057 23.4727 3.40584C23.4191 1.18229 21.9055 0.284828 19.9499 0.284828H16.1591V9.76841H18.5836V6.75456H19.0122L21.209 9.76841ZM18.5836 4.69175V2.52177H19.99C21.5037 2.52177 21.5037 4.69175 19.99 4.69175H18.5836Z" fill="white"/>
<path d="M24.3633 8.18781C25.2473 9.32638 26.4529 9.90236 27.5914 9.90236C29.3328 9.90236 31.2616 8.89774 31.342 7.06264C31.4492 4.73193 29.7614 4.14255 28.0736 3.83447C27.3369 3.67373 26.8413 3.40584 26.8145 2.95041C26.8547 1.85203 28.5559 1.81184 29.5471 2.87004L31.1143 1.6645C30.1365 0.472357 29.0247 0.150879 27.8727 0.150879C26.1314 0.150879 24.4436 1.12871 24.4436 2.99059C24.4436 4.7989 25.8367 5.76334 27.3637 6.00444C28.1406 6.1116 29.0113 6.41969 28.9845 6.95548C28.9175 7.97349 26.8279 7.91991 25.8769 6.76795L24.3633 8.18781Z" fill="white"/>
<path d="M32.1518 6.6474C32.1518 8.81737 34.1208 9.90236 36.0899 9.90236C38.0589 9.90236 40.0146 8.81737 40.0146 6.6474V3.40584C40.0146 1.23586 38.0455 0.150879 36.0765 0.150879C34.1074 0.150879 32.1518 1.22247 32.1518 3.40584V6.6474ZM34.5494 3.40584C34.5494 2.7093 35.2996 2.33425 36.0497 2.33425C36.8266 2.33425 37.6169 2.66912 37.6169 3.40584V6.6474C37.6169 7.33054 36.8534 7.6788 36.0899 7.6788C35.3264 7.6788 34.5494 7.34393 34.5494 6.6474V3.40584Z" fill="white"/>
<path d="M41.2876 9.76841H43.6853V5.97765L43.3772 4.14255L43.4442 4.12916L44.2747 6.03123L46.4178 9.76841H48.8423V0.284828H46.458V4.58459C46.4714 4.58459 46.7125 6.21876 46.7259 6.21876L46.6589 6.23216L45.8553 4.33008L43.5647 0.284828H41.2876V9.76841Z" fill="white"/>
<path d="M55.001 0.284828H52.8177L49.5091 9.76841H52.0809L52.6703 7.86633H55.202L55.8181 9.76841H58.3899L55.001 0.284828ZM53.2061 5.73655L53.9027 2.9638H53.9696L54.626 5.73655H53.2061Z" fill="white"/>
<path d="M59.0254 9.76841H65.2942V7.39751H61.4364V0.284828H59.0254V9.76841Z" fill="white"/>
<path d="M3.03364 14.8147H8.26289V11.9655H0V23.8318H3.03364V19.7423H7.60923V16.9433H3.03364V14.8147ZM12.0843 11.9655H9.08415V23.8318H12.0843V11.9655Z" fill="white"/>
<path d="M13.9616 23.8318H16.9617V19.0886L16.5762 16.7925L16.66 16.7757L17.6991 19.1557L20.3808 23.8318H23.4144V11.9655H20.4311V17.3456C20.4478 17.3456 20.7495 19.3903 20.7663 19.3903L20.6825 19.4071L19.6769 17.0271L16.8108 11.9655H13.9616V23.8318Z" fill="white"/>
<path d="M31.1206 11.9655H28.3886L24.2488 23.8318H27.4668L28.2042 21.4519H31.372L32.1429 23.8318H35.3609L31.1206 11.9655ZM28.8747 18.7869L29.7462 15.3175H29.83L30.6513 18.7869H28.8747Z" fill="white"/>
<path d="M36.156 23.8318H39.1561V19.0886L38.7706 16.7925L38.8544 16.7757L39.8936 19.1557L42.5753 23.8318H45.6089V11.9655H42.6255V17.3456C42.6423 17.3456 42.944 19.3903 42.9607 19.3903L42.8769 19.4071L41.8713 17.0271L39.0053 11.9655H36.156V23.8318Z" fill="white"/>
<path d="M53.5329 20.1278C52.8792 21.7703 50.1976 21.3681 50.1976 19.9434V15.8539C50.1976 14.379 52.8457 14.0437 53.6502 15.5187L56.0972 14.5298C55.1419 12.418 53.3821 11.7979 51.9239 11.7979C49.5439 11.7979 47.1975 13.1722 47.1975 15.8539V19.9434C47.1975 22.6418 49.5439 23.9994 51.8736 23.9994C53.3653 23.9994 55.1587 23.262 56.1475 21.3345L53.5329 20.1278Z" fill="white"/>
<path d="M60.2711 14.7812H65.5004V11.9655H57.2375V23.8318H65.5004V20.9993H60.2711V19.2227H65.0814V16.6249H60.2711V14.7812Z" fill="white"/>
<circle cx="72.5157" cy="20.5133" r="3.06992" fill="url(#paint3_linear)"/>
<defs>
<linearGradient id="paint0_linear" x1="80.3742" y1="20.5298" x2="114.569" y2="-19.799" gradientUnits="userSpaceOnUse">
<stop stop-color="#FF7373"/>
<stop offset="1" stop-color="#FF7A00"/>
</linearGradient>
<linearGradient id="paint1_linear" x1="80.3742" y1="20.5298" x2="114.569" y2="-19.799" gradientUnits="userSpaceOnUse">
<stop stop-color="#FF7373"/>
<stop offset="1" stop-color="#FF7A00"/>
</linearGradient>
<linearGradient id="paint2_linear" x1="80.3742" y1="20.5298" x2="114.569" y2="-19.799" gradientUnits="userSpaceOnUse">
<stop stop-color="#FF7373"/>
<stop offset="1" stop-color="#FF7A00"/>
</linearGradient>
<linearGradient id="paint3_linear" x1="70.0079" y1="21.8321" x2="75.5856" y2="18.7621" gradientUnits="userSpaceOnUse">
<stop stop-color="#FF7373"/>
<stop offset="1" stop-color="#FF7A00"/>
</linearGradient>
</defs>
</svg>
