<svg width="239" height="133" viewBox="0 0 239 133" fill="none" xmlns="http://www.w3.org/2000/svg">
<path d="M84.7791 35.3412C84.1046 35.3412 83.5576 34.7943 83.5576 34.1197C83.5576 30.4188 82.6678 27.8424 80.913 26.462C78.7086 24.728 75.7322 25.4231 75.7024 25.4303C75.0485 25.589 74.3874 25.1894 74.2264 24.5365C74.0653 23.8835 74.4598 23.2236 75.1121 23.0598C75.279 23.018 79.2406 22.0598 82.3986 24.5225C84.7886 26.3864 86.0007 29.6153 86.0007 34.1197C86.0007 34.7943 85.4537 35.3412 84.7791 35.3412Z" fill="#EAAB92"/>
<path d="M26.2714 8.68896L21.5345 9.74071L16.918 14.8052V17.7346L27.7128 13.0619L26.2714 8.68896Z" fill="#EAAB92"/>
<path d="M26.2716 7.75514C24.4365 5.49245 22.156 4.10149 20.3056 3.27284C18.7141 2.56015 16.918 3.73409 16.918 5.47787V14.8054C19.4673 12.3204 22.6403 10.2605 26.2716 8.68917L27.713 8.22471L26.2716 7.75514Z" fill="#EDBCA4"/>
<path d="M8.82214 39.0475H11.5751C11.9138 39.0475 12.2191 39.2567 12.3368 39.5743C14.2367 44.701 17.5933 48.932 22.822 51.9768L23.2335 53.701V58.9162C23.2335 61.8477 24.6728 63.5724 26.4483 63.5724H32.3847C34.1601 63.5724 35.5995 61.8477 35.5995 58.9162V58.0103L36.5412 56.6829C39.1668 57.1098 41.9091 57.3321 44.7311 57.3321C49.4775 57.3321 54 56.7819 58.1176 55.7033L59.1378 56.9128V58.916C59.1378 61.545 60.5771 63.5722 62.3526 63.5722H68.289C70.0645 63.5722 71.5038 61.9892 71.5038 58.916V50.5358L72.3211 48.3111C76.7042 44.4345 79.2723 39.1977 79.2723 31.9659C78.3767 16.4181 63.2551 8.05246 44.7313 8.05246C42.364 8.05246 40.0525 8.20557 37.8188 8.5025C36.0207 3.87815 32.376 1.45066 29.6591 0.233798C28.0676 -0.478898 26.2715 0.694887 26.2715 2.43867V11.6201C19.5039 14.5486 14.3246 19.1724 11.8161 25.0875H8.82214C6.15891 25.0878 4 27.2467 4 29.9099V32.784C4 37.142 6.15891 39.0475 8.82214 39.0475Z" fill="#FFD6BD"/>
<path d="M22.822 50.5357C17.5934 47.4909 14.9167 43.2598 13.0168 38.1331C12.8991 37.8153 12.5938 37.6063 12.2551 37.6063H8.82214C6.15891 37.6063 4 35.4474 4 32.7842V35.7157C4 38.3789 6.15891 40.5378 8.82214 40.5378H11.3595C13.3193 46.0363 17.5499 50.5393 23.2335 53.7014V51.2433C23.2335 50.9505 23.0749 50.6829 22.822 50.5357Z" fill="#F9C6AA"/>
<path d="M32.3846 62.1308H26.4482C24.6727 62.1308 23.2334 60.6915 23.2334 58.916V61.8475C23.2334 63.623 24.6727 65.0623 26.4482 65.0623H32.3846C34.16 65.0623 35.5994 63.623 35.5994 61.8475V58.916C35.5992 60.6915 34.16 62.1308 32.3846 62.1308Z" fill="#F9C6AA"/>
<path d="M71.5039 47.9737V50.5359C76.3853 46.3445 79.315 40.6101 79.315 33.4375C79.315 32.9399 79.3003 32.4497 79.2724 31.9658C78.9089 38.3263 76.1656 43.4852 71.7824 47.3618C71.6067 47.5173 71.5039 47.7391 71.5039 47.9737Z" fill="#F9C6AA"/>
<path d="M59.1379 55.0484C59.1379 54.5146 58.6339 54.1267 58.1177 54.262C54.0001 55.3406 49.4778 55.8908 44.7312 55.8908C41.9093 55.8908 39.1669 55.6685 36.5413 55.2417C36.0471 55.1613 35.5996 55.5439 35.5996 56.0447V58.0103C38.5087 58.5433 41.5701 58.8221 44.7312 58.8221C49.873 58.8221 54.7519 58.1765 59.1379 56.9129V55.0484Z" fill="#F9C6AA"/>
<path d="M68.2879 62.1308H62.3515C60.576 62.1308 59.1367 60.6915 59.1367 58.916V61.8475C59.1367 63.623 60.576 65.0623 62.3515 65.0623H68.2879C70.0634 65.0623 71.5027 63.623 71.5027 61.8475V58.916C71.5025 60.6915 70.0632 62.1308 68.2879 62.1308Z" fill="#F9C6AA"/>
<path d="M17.4667 38.625V26.6667H25.1883V28.4263H19.6533V31.7746H24.1292V33.5H19.6533V38.625H17.4667ZM30.0021 38.83C28.9429 38.83 28.1229 38.4997 27.5421 37.8392C26.9727 37.1786 26.6879 36.2106 26.6879 34.935V30.1517H28.8575V34.73C28.8575 35.4589 29.0056 36.0169 29.3017 36.4042C29.5978 36.7914 30.0647 36.985 30.7025 36.985C31.3061 36.985 31.8016 36.7686 32.1888 36.3358C32.5874 35.9031 32.7867 35.2994 32.7867 34.525V30.1517H34.9734V38.625H33.0429L32.8721 37.19C32.6102 37.6911 32.2286 38.0897 31.7275 38.3858C31.2378 38.6819 30.6627 38.83 30.0021 38.83ZM37.2181 38.625V30.1517H39.1485L39.3193 31.5867C39.5813 31.0856 39.9571 30.6869 40.4468 30.3908C40.9479 30.0947 41.5345 29.9467 42.2064 29.9467C43.2542 29.9467 44.0685 30.2769 44.6493 30.9375C45.2302 31.5981 45.5206 32.5661 45.5206 33.8417V38.625H43.3339V34.0467C43.3339 33.3178 43.1859 32.7597 42.8897 32.3725C42.5936 31.9853 42.1324 31.7917 41.506 31.7917C40.891 31.7917 40.3842 32.0081 39.9856 32.4408C39.5984 32.8736 39.4047 33.4772 39.4047 34.2517V38.625H37.2181ZM51.5066 38.83C50.7093 38.83 49.9975 38.6364 49.3711 38.2492C48.7447 37.8619 48.2493 37.3324 47.8849 36.6604C47.5204 35.9885 47.3382 35.2254 47.3382 34.3713C47.3382 33.5171 47.5204 32.7597 47.8849 32.0992C48.2493 31.4272 48.7447 30.9033 49.3711 30.5275C49.9975 30.1403 50.7093 29.9467 51.5066 29.9467C52.1443 29.9467 52.7024 30.0663 53.1807 30.3054C53.6591 30.5446 54.0463 30.8806 54.3424 31.3133V26.325H56.5291V38.625H54.5816L54.3424 37.4121C54.0691 37.7879 53.7046 38.1182 53.2491 38.4029C52.8049 38.6876 52.2241 38.83 51.5066 38.83ZM51.9678 36.9167C52.6739 36.9167 53.2491 36.6832 53.6932 36.2163C54.1488 35.7379 54.3766 35.1286 54.3766 34.3883C54.3766 33.6481 54.1488 33.0444 53.6932 32.5775C53.2491 32.0992 52.6739 31.86 51.9678 31.86C51.2731 31.86 50.6979 32.0935 50.2424 32.5604C49.7868 33.0274 49.5591 33.631 49.5591 34.3713C49.5591 35.1115 49.7868 35.7208 50.2424 36.1992C50.6979 36.6775 51.2731 36.9167 51.9678 36.9167ZM62.1089 38.625L66.4822 26.6667H68.9422L73.3156 38.625H70.9922L70.0356 35.8575H65.3718L64.3981 38.625H62.1089ZM65.9697 34.1492H69.4376L67.6951 29.1779L65.9697 34.1492Z" fill="#C95629"/>
<path d="M233.779 35.3412C233.105 35.3412 232.558 34.7943 232.558 34.1197C232.558 30.4188 231.668 27.8424 229.913 26.462C227.709 24.728 224.732 25.4231 224.702 25.4303C224.049 25.589 223.387 25.1894 223.226 24.5365C223.065 23.8835 223.46 23.2236 224.112 23.0598C224.279 23.018 228.241 22.0598 231.399 24.5225C233.789 26.3864 235.001 29.6153 235.001 34.1197C235.001 34.7943 234.454 35.3412 233.779 35.3412Z" fill="#EAAB92"/>
<path d="M175.271 8.68896L170.534 9.74071L165.918 14.8052V17.7346L176.713 13.0619L175.271 8.68896Z" fill="#EAAB92"/>
<path d="M175.272 7.75514C173.436 5.49245 171.156 4.10149 169.306 3.27284C167.714 2.56015 165.918 3.73409 165.918 5.47787V14.8054C168.467 12.3204 171.64 10.2605 175.272 8.68917L176.713 8.22471L175.272 7.75514Z" fill="#EDBCA4"/>
<path d="M157.822 39.0475H160.575C160.914 39.0475 161.219 39.2567 161.337 39.5743C163.237 44.701 166.593 48.932 171.822 51.9768L172.233 53.701V58.9162C172.233 61.8477 173.673 63.5724 175.448 63.5724H181.385C183.16 63.5724 184.599 61.8477 184.599 58.9162V58.0103L185.541 56.6829C188.167 57.1098 190.909 57.3321 193.731 57.3321C198.477 57.3321 203 56.7819 207.118 55.7033L208.138 56.9128V58.916C208.138 61.545 209.577 63.5722 211.353 63.5722H217.289C219.064 63.5722 220.504 61.9892 220.504 58.916V50.5358L221.321 48.3111C225.704 44.4345 228.272 39.1977 228.272 31.9659C227.377 16.4181 212.255 8.05246 193.731 8.05246C191.364 8.05246 189.052 8.20557 186.819 8.5025C185.021 3.87815 181.376 1.45066 178.659 0.233798C177.068 -0.478898 175.271 0.694887 175.271 2.43867V11.6201C168.504 14.5486 163.325 19.1724 160.816 25.0875H157.822C155.159 25.0878 153 27.2467 153 29.9099V32.784C153 37.142 155.159 39.0475 157.822 39.0475Z" fill="#FFD6BD"/>
<path d="M171.822 50.5357C166.593 47.4909 163.917 43.2598 162.017 38.1331C161.899 37.8153 161.594 37.6063 161.255 37.6063H157.822C155.159 37.6063 153 35.4474 153 32.7842V35.7157C153 38.3789 155.159 40.5378 157.822 40.5378H160.359C162.319 46.0363 166.55 50.5393 172.233 53.7014V51.2433C172.233 50.9505 172.075 50.6829 171.822 50.5357Z" fill="#F9C6AA"/>
<path d="M181.385 62.1308H175.448C173.673 62.1308 172.233 60.6915 172.233 58.916V61.8475C172.233 63.623 173.673 65.0623 175.448 65.0623H181.385C183.16 65.0623 184.599 63.623 184.599 61.8475V58.916C184.599 60.6915 183.16 62.1308 181.385 62.1308Z" fill="#F9C6AA"/>
<path d="M220.504 47.9737V50.5359C225.385 46.3445 228.315 40.6101 228.315 33.4375C228.315 32.9399 228.3 32.4497 228.272 31.9658C227.909 38.3263 225.166 43.4852 220.782 47.3618C220.607 47.5173 220.504 47.7391 220.504 47.9737Z" fill="#F9C6AA"/>
<path d="M208.138 55.0484C208.138 54.5146 207.634 54.1267 207.118 54.262C203 55.3406 198.478 55.8908 193.731 55.8908C190.909 55.8908 188.167 55.6685 185.541 55.2417C185.047 55.1613 184.6 55.5439 184.6 56.0447V58.0103C187.509 58.5433 190.57 58.8221 193.731 58.8221C198.873 58.8221 203.752 58.1765 208.138 56.9129V55.0484Z" fill="#F9C6AA"/>
<path d="M217.288 62.1308H211.352C209.576 62.1308 208.137 60.6915 208.137 58.916V61.8475C208.137 63.623 209.576 65.0623 211.352 65.0623H217.288C219.063 65.0623 220.503 63.623 220.503 61.8475V58.916C220.503 60.6915 219.063 62.1308 217.288 62.1308Z" fill="#F9C6AA"/>
<path d="M167.922 38.625V26.6667H175.644V28.4263H170.109V31.7746H174.585V33.5H170.109V38.625H167.922ZM180.458 38.83C179.398 38.83 178.578 38.4997 177.998 37.8392C177.428 37.1786 177.143 36.2106 177.143 34.935V30.1517H179.313V34.73C179.313 35.4589 179.461 36.0169 179.757 36.4042C180.053 36.7914 180.52 36.985 181.158 36.985C181.762 36.985 182.257 36.7686 182.644 36.3358C183.043 35.9031 183.242 35.2994 183.242 34.525V30.1517H185.429V38.625H183.498L183.328 37.19C183.066 37.6911 182.684 38.0897 182.183 38.3858C181.693 38.6819 181.118 38.83 180.458 38.83ZM187.673 38.625V30.1517H189.604L189.775 31.5867C190.037 31.0856 190.413 30.6869 190.902 30.3908C191.403 30.0947 191.99 29.9467 192.662 29.9467C193.71 29.9467 194.524 30.2769 195.105 30.9375C195.686 31.5981 195.976 32.5661 195.976 33.8417V38.625H193.789V34.0467C193.789 33.3178 193.641 32.7597 193.345 32.3725C193.049 31.9853 192.588 31.7917 191.961 31.7917C191.346 31.7917 190.84 32.0081 190.441 32.4408C190.054 32.8736 189.86 33.4772 189.86 34.2517V38.625H187.673ZM201.962 38.83C201.165 38.83 200.453 38.6364 199.827 38.2492C199.2 37.8619 198.705 37.3324 198.34 36.6604C197.976 35.9885 197.794 35.2254 197.794 34.3713C197.794 33.5171 197.976 32.7597 198.34 32.0992C198.705 31.4272 199.2 30.9033 199.827 30.5275C200.453 30.1403 201.165 29.9467 201.962 29.9467C202.6 29.9467 203.158 30.0663 203.636 30.3054C204.114 30.5446 204.502 30.8806 204.798 31.3133V26.325H206.984V38.625H205.037L204.798 37.4121C204.524 37.7879 204.16 38.1182 203.704 38.4029C203.26 38.6876 202.679 38.83 201.962 38.83ZM202.423 36.9167C203.129 36.9167 203.704 36.6832 204.149 36.2163C204.604 35.7379 204.832 35.1286 204.832 34.3883C204.832 33.6481 204.604 33.0444 204.149 32.5775C203.704 32.0992 203.129 31.86 202.423 31.86C201.728 31.86 201.153 32.0935 200.698 32.5604C200.242 33.0274 200.014 33.631 200.014 34.3713C200.014 35.1115 200.242 35.7208 200.698 36.1992C201.153 36.6775 201.728 36.9167 202.423 36.9167ZM213.333 38.625V26.6667H218.133C219.375 26.6667 220.32 26.9571 220.969 27.5379C221.63 28.1074 221.96 28.8419 221.96 29.7417C221.96 30.4933 221.755 31.0969 221.345 31.5525C220.947 31.9967 220.457 32.2985 219.876 32.4579C220.559 32.5946 221.123 32.9363 221.567 33.4829C222.011 34.0182 222.233 34.6446 222.233 35.3621C222.233 36.3074 221.892 37.0875 221.208 37.7025C220.525 38.3175 219.557 38.625 218.304 38.625H213.333ZM215.52 31.6892H217.809C218.424 31.6892 218.897 31.5468 219.227 31.2621C219.557 30.9774 219.722 30.5731 219.722 30.0492C219.722 29.5481 219.557 29.1551 219.227 28.8704C218.908 28.5743 218.424 28.4263 217.775 28.4263H215.52V31.6892ZM215.52 36.8483H217.963C218.612 36.8483 219.113 36.7003 219.466 36.4042C219.83 36.0967 220.013 35.6696 220.013 35.1229C220.013 34.5649 219.825 34.1264 219.449 33.8075C219.073 33.4886 218.566 33.3292 217.928 33.3292H215.52V36.8483Z" fill="#C95629"/>
<rect y="73" width="90" height="60" rx="4" fill="white"/>
<path d="M11.002 96V87.88L9.42 88.244V87.152L11.59 86.2H12.542V96H11.002ZM15.5411 96V87.88L13.9591 88.244V87.152L16.1291 86.2H17.0811V96H15.5411ZM20.9621 90.876C20.5235 90.876 20.1268 90.778 19.7721 90.582C19.4268 90.386 19.1515 90.1107 18.9461 89.756C18.7408 89.392 18.6381 88.958 18.6381 88.454C18.6381 87.9593 18.7408 87.5347 18.9461 87.18C19.1515 86.816 19.4315 86.536 19.7861 86.34C20.1408 86.144 20.5375 86.046 20.9761 86.046C21.4055 86.046 21.7928 86.144 22.1381 86.34C22.4928 86.536 22.7728 86.816 22.9781 87.18C23.1835 87.5347 23.2861 87.9593 23.2861 88.454C23.2861 88.958 23.1835 89.392 22.9781 89.756C22.7728 90.1107 22.4928 90.386 22.1381 90.582C21.7928 90.778 21.4008 90.876 20.9621 90.876ZM20.2621 96L25.8761 86.2H27.3321L21.7321 96H20.2621ZM20.9621 89.812C21.2608 89.812 21.5175 89.7 21.7321 89.476C21.9561 89.2427 22.0681 88.902 22.0681 88.454C22.0681 88.006 21.9608 87.67 21.7461 87.446C21.5315 87.2127 21.2701 87.096 20.9621 87.096C20.6635 87.096 20.4021 87.2127 20.1781 87.446C19.9541 87.67 19.8421 88.006 19.8421 88.454C19.8421 88.902 19.9495 89.2427 20.1641 89.476C20.3881 89.7 20.6541 89.812 20.9621 89.812ZM26.7161 96.168C26.2775 96.168 25.8808 96.07 25.5261 95.874C25.1808 95.678 24.9055 95.4027 24.7001 95.048C24.4948 94.684 24.3921 94.25 24.3921 93.746C24.3921 93.2513 24.4948 92.822 24.7001 92.458C24.9055 92.094 25.1855 91.814 25.5401 91.618C25.8948 91.422 26.2915 91.324 26.7301 91.324C27.1595 91.324 27.5468 91.422 27.8921 91.618C28.2468 91.814 28.5268 92.094 28.7321 92.458C28.9375 92.822 29.0401 93.2513 29.0401 93.746C29.0401 94.25 28.9375 94.684 28.7321 95.048C28.5268 95.4027 28.2468 95.678 27.8921 95.874C27.5468 96.07 27.1548 96.168 26.7161 96.168ZM26.7161 95.09C27.0148 95.09 27.2715 94.978 27.4861 94.754C27.7101 94.53 27.8221 94.194 27.8221 93.746C27.8221 93.298 27.7148 92.962 27.5001 92.738C27.2855 92.5047 27.0241 92.388 26.7161 92.388C26.4175 92.388 26.1561 92.5047 25.9321 92.738C25.7081 92.962 25.5961 93.298 25.5961 93.746C25.5961 94.194 25.7035 94.53 25.9181 94.754C26.1421 94.978 26.4081 95.09 26.7161 95.09ZM34.0689 96V89.056H35.3989L35.5249 90.372C35.7675 89.9147 36.1035 89.5553 36.5329 89.294C36.9715 89.0233 37.4989 88.888 38.1149 88.888V90.442H37.7089C37.2982 90.442 36.9295 90.512 36.6029 90.652C36.2855 90.7827 36.0289 91.0113 35.8329 91.338C35.6462 91.6553 35.5529 92.0987 35.5529 92.668V96H34.0689ZM42.4438 96.168C41.7625 96.168 41.1558 96.0187 40.6238 95.72C40.1011 95.412 39.6905 94.9873 39.3918 94.446C39.0931 93.9047 38.9438 93.2747 38.9438 92.556C38.9438 91.828 39.0885 91.1887 39.3778 90.638C39.6765 90.0873 40.0871 89.658 40.6098 89.35C41.1418 89.042 41.7578 88.888 42.4578 88.888C43.1391 88.888 43.7318 89.042 44.2358 89.35C44.7398 89.6487 45.1318 90.05 45.4118 90.554C45.6918 91.058 45.8318 91.6133 45.8318 92.22C45.8318 92.3133 45.8271 92.416 45.8178 92.528C45.8178 92.6307 45.8131 92.7473 45.8038 92.878H40.3998C40.4465 93.55 40.6658 94.0633 41.0578 94.418C41.4591 94.7633 41.9211 94.936 42.4438 94.936C42.8638 94.936 43.2138 94.8427 43.4938 94.656C43.7831 94.46 43.9978 94.1987 44.1378 93.872H45.6218C45.4351 94.5253 45.0618 95.0713 44.5018 95.51C43.9511 95.9487 43.2651 96.168 42.4438 96.168ZM42.4438 90.106C41.9491 90.106 41.5105 90.2553 41.1278 90.554C40.7451 90.8433 40.5118 91.282 40.4278 91.87H44.3478C44.3198 91.3287 44.1285 90.8993 43.7738 90.582C43.4191 90.2647 42.9758 90.106 42.4438 90.106ZM50.1059 96C49.4245 96 48.8832 95.8367 48.4819 95.51C48.0805 95.174 47.8799 94.5813 47.8799 93.732V90.302H46.6899V89.056H47.8799L48.0619 87.292H49.3639V89.056H51.3239V90.302H49.3639V93.732C49.3639 94.1147 49.4432 94.3807 49.6019 94.53C49.7699 94.67 50.0545 94.74 50.4559 94.74H51.2539V96H50.1059ZM55.416 96.168C54.576 96.168 53.9133 95.9067 53.428 95.384C52.952 94.8613 52.714 94.082 52.714 93.046V89.056H54.198V92.892C54.198 94.236 54.7487 94.908 55.85 94.908C56.4007 94.908 56.8533 94.712 57.208 94.32C57.5627 93.928 57.74 93.368 57.74 92.64V89.056H59.224V96H57.908L57.796 94.782C57.5813 95.2113 57.264 95.552 56.844 95.804C56.4333 96.0467 55.9573 96.168 55.416 96.168ZM61.1118 96V89.056H62.4418L62.5678 90.372C62.8105 89.9147 63.1465 89.5553 63.5758 89.294C64.0145 89.0233 64.5418 88.888 65.1578 88.888V90.442H64.7518C64.3412 90.442 63.9725 90.512 63.6458 90.652C63.3285 90.7827 63.0718 91.0113 62.8758 91.338C62.6892 91.6553 62.5958 92.0987 62.5958 92.668V96H61.1118ZM66.4302 96V89.056H67.7462L67.8582 90.274C68.0729 89.8447 68.3855 89.5087 68.7962 89.266C69.2162 89.014 69.6969 88.888 70.2382 88.888C71.0782 88.888 71.7362 89.1493 72.2122 89.672C72.6975 90.1947 72.9402 90.974 72.9402 92.01V96H71.4702V92.164C71.4702 90.82 70.9195 90.148 69.8182 90.148C69.2675 90.148 68.8102 90.344 68.4462 90.736C68.0915 91.128 67.9142 91.688 67.9142 92.416V96H66.4302ZM77.46 96.168C76.5827 96.168 75.8593 95.9533 75.29 95.524C74.7207 95.0947 74.394 94.5253 74.31 93.816H75.808C75.8827 94.1333 76.06 94.4087 76.34 94.642C76.62 94.866 76.9887 94.978 77.446 94.978C77.894 94.978 78.2207 94.8847 78.426 94.698C78.6313 94.5113 78.734 94.2967 78.734 94.054C78.734 93.6993 78.5893 93.4613 78.3 93.34C78.02 93.2093 77.628 93.0927 77.124 92.99C76.732 92.906 76.34 92.794 75.948 92.654C75.5653 92.514 75.2433 92.318 74.982 92.066C74.73 91.8047 74.604 91.4547 74.604 91.016C74.604 90.4093 74.8373 89.9053 75.304 89.504C75.7707 89.0933 76.424 88.888 77.264 88.888C78.0387 88.888 78.664 89.0747 79.14 89.448C79.6253 89.8213 79.91 90.3487 79.994 91.03H78.566C78.5193 90.7313 78.3793 90.498 78.146 90.33C77.922 90.162 77.6187 90.078 77.236 90.078C76.8627 90.078 76.5733 90.1573 76.368 90.316C76.1627 90.4653 76.06 90.6613 76.06 90.904C76.06 91.1467 76.2 91.338 76.48 91.478C76.7693 91.618 77.1473 91.744 77.614 91.856C78.0807 91.9587 78.51 92.08 78.902 92.22C79.3033 92.3507 79.6253 92.5467 79.868 92.808C80.1107 93.0693 80.232 93.452 80.232 93.956C80.2413 94.5907 79.994 95.118 79.49 95.538C78.9953 95.958 78.3187 96.168 77.46 96.168Z" fill="#4D4D4D"/>
<path d="M13.364 120L16.976 110.2H18.6L22.184 120H20.616L19.776 117.606H15.772L14.932 120H13.364ZM16.192 116.43H19.356L17.774 111.964L16.192 116.43ZM23.4946 120V109.92H24.9786V120H23.4946ZM26.8579 123.08V113.056H28.1879L28.3419 114.134C28.5659 113.807 28.8739 113.518 29.2659 113.266C29.6579 113.014 30.1619 112.888 30.7779 112.888C31.4499 112.888 32.0426 113.047 32.5559 113.364C33.0693 113.681 33.4706 114.115 33.7599 114.666C34.0586 115.217 34.2079 115.842 34.2079 116.542C34.2079 117.242 34.0586 117.867 33.7599 118.418C33.4706 118.959 33.0693 119.389 32.5559 119.706C32.0426 120.014 31.4453 120.168 30.7639 120.168C30.2226 120.168 29.7419 120.061 29.3219 119.846C28.9113 119.631 28.5846 119.328 28.3419 118.936V123.08H26.8579ZM30.5119 118.88C31.1466 118.88 31.6693 118.665 32.0799 118.236C32.4906 117.797 32.6959 117.228 32.6959 116.528C32.6959 116.071 32.6026 115.665 32.4159 115.31C32.2293 114.955 31.9726 114.68 31.6459 114.484C31.3193 114.279 30.9413 114.176 30.5119 114.176C29.8773 114.176 29.3546 114.395 28.9439 114.834C28.5426 115.273 28.3419 115.837 28.3419 116.528C28.3419 117.228 28.5426 117.797 28.9439 118.236C29.3546 118.665 29.8773 118.88 30.5119 118.88ZM35.813 120V109.92H37.297V114.176C37.5303 113.775 37.8523 113.462 38.263 113.238C38.683 113.005 39.145 112.888 39.649 112.888C40.4797 112.888 41.133 113.149 41.609 113.672C42.085 114.195 42.323 114.974 42.323 116.01V120H40.853V116.164C40.853 114.82 40.3163 114.148 39.243 114.148C38.683 114.148 38.2163 114.344 37.843 114.736C37.479 115.128 37.297 115.688 37.297 116.416V120H35.813ZM46.4228 120.168C45.8348 120.168 45.3495 120.07 44.9668 119.874C44.5841 119.678 44.2995 119.421 44.1128 119.104C43.9261 118.777 43.8328 118.423 43.8328 118.04C43.8328 117.368 44.0941 116.836 44.6168 116.444C45.1395 116.052 45.8861 115.856 46.8568 115.856H48.6768V115.73C48.6768 115.189 48.5275 114.783 48.2288 114.512C47.9395 114.241 47.5615 114.106 47.0948 114.106C46.6841 114.106 46.3248 114.209 46.0168 114.414C45.7181 114.61 45.5361 114.904 45.4708 115.296H43.9868C44.0335 114.792 44.2015 114.363 44.4908 114.008C44.7895 113.644 45.1628 113.369 45.6108 113.182C46.0681 112.986 46.5675 112.888 47.1088 112.888C48.0795 112.888 48.8308 113.145 49.3628 113.658C49.8948 114.162 50.1608 114.853 50.1608 115.73V120H48.8728L48.7468 118.81C48.5508 119.193 48.2661 119.515 47.8928 119.776C47.5195 120.037 47.0295 120.168 46.4228 120.168ZM46.7168 118.964C47.1181 118.964 47.4541 118.871 47.7248 118.684C48.0048 118.488 48.2195 118.231 48.3688 117.914C48.5275 117.597 48.6255 117.247 48.6628 116.864H47.0108C46.4228 116.864 46.0028 116.967 45.7508 117.172C45.5081 117.377 45.3868 117.634 45.3868 117.942C45.3868 118.259 45.5035 118.511 45.7368 118.698C45.9795 118.875 46.3061 118.964 46.7168 118.964ZM56.0065 120.084C55.7265 120.084 55.4931 119.995 55.3065 119.818C55.1291 119.631 55.0405 119.412 55.0405 119.16C55.0405 118.899 55.1291 118.679 55.3065 118.502C55.4931 118.315 55.7265 118.222 56.0065 118.222C56.2865 118.222 56.5151 118.315 56.6925 118.502C56.8698 118.679 56.9585 118.899 56.9585 119.16C56.9585 119.412 56.8698 119.631 56.6925 119.818C56.5151 119.995 56.2865 120.084 56.0065 120.084ZM56.0065 114.75C55.7265 114.75 55.4931 114.661 55.3065 114.484C55.1291 114.297 55.0405 114.078 55.0405 113.826C55.0405 113.565 55.1291 113.345 55.3065 113.168C55.4931 112.981 55.7265 112.888 56.0065 112.888C56.2865 112.888 56.5151 112.981 56.6925 113.168C56.8698 113.345 56.9585 113.565 56.9585 113.826C56.9585 114.078 56.8698 114.297 56.6925 114.484C56.5151 114.661 56.2865 114.75 56.0065 114.75ZM63.086 120V111.88L61.504 112.244V111.152L63.674 110.2H64.626V120H63.086ZM68.507 114.876C68.0684 114.876 67.6717 114.778 67.317 114.582C66.9717 114.386 66.6964 114.111 66.491 113.756C66.2857 113.392 66.183 112.958 66.183 112.454C66.183 111.959 66.2857 111.535 66.491 111.18C66.6964 110.816 66.9764 110.536 67.331 110.34C67.6857 110.144 68.0824 110.046 68.521 110.046C68.9504 110.046 69.3377 110.144 69.683 110.34C70.0377 110.536 70.3177 110.816 70.523 111.18C70.7284 111.535 70.831 111.959 70.831 112.454C70.831 112.958 70.7284 113.392 70.523 113.756C70.3177 114.111 70.0377 114.386 69.683 114.582C69.3377 114.778 68.9457 114.876 68.507 114.876ZM67.807 120L73.421 110.2H74.877L69.277 120H67.807ZM68.507 113.812C68.8057 113.812 69.0624 113.7 69.277 113.476C69.501 113.243 69.613 112.902 69.613 112.454C69.613 112.006 69.5057 111.67 69.291 111.446C69.0764 111.213 68.815 111.096 68.507 111.096C68.2084 111.096 67.947 111.213 67.723 111.446C67.499 111.67 67.387 112.006 67.387 112.454C67.387 112.902 67.4944 113.243 67.709 113.476C67.933 113.7 68.199 113.812 68.507 113.812ZM74.261 120.168C73.8224 120.168 73.4257 120.07 73.071 119.874C72.7257 119.678 72.4504 119.403 72.245 119.048C72.0397 118.684 71.937 118.25 71.937 117.746C71.937 117.251 72.0397 116.822 72.245 116.458C72.4504 116.094 72.7304 115.814 73.085 115.618C73.4397 115.422 73.8364 115.324 74.275 115.324C74.7044 115.324 75.0917 115.422 75.437 115.618C75.7917 115.814 76.0717 116.094 76.277 116.458C76.4824 116.822 76.585 117.251 76.585 117.746C76.585 118.25 76.4824 118.684 76.277 119.048C76.0717 119.403 75.7917 119.678 75.437 119.874C75.0917 120.07 74.6997 120.168 74.261 120.168ZM74.261 119.09C74.5597 119.09 74.8164 118.978 75.031 118.754C75.255 118.53 75.367 118.194 75.367 117.746C75.367 117.298 75.2597 116.962 75.045 116.738C74.8304 116.505 74.569 116.388 74.261 116.388C73.9624 116.388 73.701 116.505 73.477 116.738C73.253 116.962 73.141 117.298 73.141 117.746C73.141 118.194 73.2484 118.53 73.463 118.754C73.687 118.978 73.953 119.09 74.261 119.09Z" fill="#4D4D4D"/>
<rect x="149" y="73" width="90" height="60" rx="4" fill="white"/>
<path d="M160.002 96V87.88L158.42 88.244V87.152L160.59 86.2H161.542V96H160.002ZM164.541 96V87.88L162.959 88.244V87.152L165.129 86.2H166.081V96H164.541ZM169.962 90.876C169.523 90.876 169.127 90.778 168.772 90.582C168.427 90.386 168.151 90.1107 167.946 89.756C167.741 89.392 167.638 88.958 167.638 88.454C167.638 87.9593 167.741 87.5347 167.946 87.18C168.151 86.816 168.431 86.536 168.786 86.34C169.141 86.144 169.537 86.046 169.976 86.046C170.405 86.046 170.793 86.144 171.138 86.34C171.493 86.536 171.773 86.816 171.978 87.18C172.183 87.5347 172.286 87.9593 172.286 88.454C172.286 88.958 172.183 89.392 171.978 89.756C171.773 90.1107 171.493 90.386 171.138 90.582C170.793 90.778 170.401 90.876 169.962 90.876ZM169.262 96L174.876 86.2H176.332L170.732 96H169.262ZM169.962 89.812C170.261 89.812 170.517 89.7 170.732 89.476C170.956 89.2427 171.068 88.902 171.068 88.454C171.068 88.006 170.961 87.67 170.746 87.446C170.531 87.2127 170.27 87.096 169.962 87.096C169.663 87.096 169.402 87.2127 169.178 87.446C168.954 87.67 168.842 88.006 168.842 88.454C168.842 88.902 168.949 89.2427 169.164 89.476C169.388 89.7 169.654 89.812 169.962 89.812ZM175.716 96.168C175.277 96.168 174.881 96.07 174.526 95.874C174.181 95.678 173.905 95.4027 173.7 95.048C173.495 94.684 173.392 94.25 173.392 93.746C173.392 93.2513 173.495 92.822 173.7 92.458C173.905 92.094 174.185 91.814 174.54 91.618C174.895 91.422 175.291 91.324 175.73 91.324C176.159 91.324 176.547 91.422 176.892 91.618C177.247 91.814 177.527 92.094 177.732 92.458C177.937 92.822 178.04 93.2513 178.04 93.746C178.04 94.25 177.937 94.684 177.732 95.048C177.527 95.4027 177.247 95.678 176.892 95.874C176.547 96.07 176.155 96.168 175.716 96.168ZM175.716 95.09C176.015 95.09 176.271 94.978 176.486 94.754C176.71 94.53 176.822 94.194 176.822 93.746C176.822 93.298 176.715 92.962 176.5 92.738C176.285 92.5047 176.024 92.388 175.716 92.388C175.417 92.388 175.156 92.5047 174.932 92.738C174.708 92.962 174.596 93.298 174.596 93.746C174.596 94.194 174.703 94.53 174.918 94.754C175.142 94.978 175.408 95.09 175.716 95.09ZM183.069 96V89.056H184.399L184.525 90.372C184.768 89.9147 185.104 89.5553 185.533 89.294C185.972 89.0233 186.499 88.888 187.115 88.888V90.442H186.709C186.298 90.442 185.93 90.512 185.603 90.652C185.286 90.7827 185.029 91.0113 184.833 91.338C184.646 91.6553 184.553 92.0987 184.553 92.668V96H183.069ZM191.444 96.168C190.762 96.168 190.156 96.0187 189.624 95.72C189.101 95.412 188.69 94.9873 188.392 94.446C188.093 93.9047 187.944 93.2747 187.944 92.556C187.944 91.828 188.088 91.1887 188.378 90.638C188.676 90.0873 189.087 89.658 189.61 89.35C190.142 89.042 190.758 88.888 191.458 88.888C192.139 88.888 192.732 89.042 193.236 89.35C193.74 89.6487 194.132 90.05 194.412 90.554C194.692 91.058 194.832 91.6133 194.832 92.22C194.832 92.3133 194.827 92.416 194.818 92.528C194.818 92.6307 194.813 92.7473 194.804 92.878H189.4C189.446 93.55 189.666 94.0633 190.058 94.418C190.459 94.7633 190.921 94.936 191.444 94.936C191.864 94.936 192.214 94.8427 192.494 94.656C192.783 94.46 192.998 94.1987 193.138 93.872H194.622C194.435 94.5253 194.062 95.0713 193.502 95.51C192.951 95.9487 192.265 96.168 191.444 96.168ZM191.444 90.106C190.949 90.106 190.51 90.2553 190.128 90.554C189.745 90.8433 189.512 91.282 189.428 91.87H193.348C193.32 91.3287 193.128 90.8993 192.774 90.582C192.419 90.2647 191.976 90.106 191.444 90.106ZM199.106 96C198.425 96 197.883 95.8367 197.482 95.51C197.081 95.174 196.88 94.5813 196.88 93.732V90.302H195.69V89.056H196.88L197.062 87.292H198.364V89.056H200.324V90.302H198.364V93.732C198.364 94.1147 198.443 94.3807 198.602 94.53C198.77 94.67 199.055 94.74 199.456 94.74H200.254V96H199.106ZM204.416 96.168C203.576 96.168 202.913 95.9067 202.428 95.384C201.952 94.8613 201.714 94.082 201.714 93.046V89.056H203.198V92.892C203.198 94.236 203.749 94.908 204.85 94.908C205.401 94.908 205.853 94.712 206.208 94.32C206.563 93.928 206.74 93.368 206.74 92.64V89.056H208.224V96H206.908L206.796 94.782C206.581 95.2113 206.264 95.552 205.844 95.804C205.433 96.0467 204.957 96.168 204.416 96.168ZM210.112 96V89.056H211.442L211.568 90.372C211.81 89.9147 212.146 89.5553 212.576 89.294C213.014 89.0233 213.542 88.888 214.158 88.888V90.442H213.752C213.341 90.442 212.972 90.512 212.646 90.652C212.328 90.7827 212.072 91.0113 211.876 91.338C211.689 91.6553 211.596 92.0987 211.596 92.668V96H210.112ZM215.43 96V89.056H216.746L216.858 90.274C217.073 89.8447 217.386 89.5087 217.796 89.266C218.216 89.014 218.697 88.888 219.238 88.888C220.078 88.888 220.736 89.1493 221.212 89.672C221.698 90.1947 221.94 90.974 221.94 92.01V96H220.47V92.164C220.47 90.82 219.92 90.148 218.818 90.148C218.268 90.148 217.81 90.344 217.446 90.736C217.092 91.128 216.914 91.688 216.914 92.416V96H215.43ZM226.46 96.168C225.583 96.168 224.859 95.9533 224.29 95.524C223.721 95.0947 223.394 94.5253 223.31 93.816H224.808C224.883 94.1333 225.06 94.4087 225.34 94.642C225.62 94.866 225.989 94.978 226.446 94.978C226.894 94.978 227.221 94.8847 227.426 94.698C227.631 94.5113 227.734 94.2967 227.734 94.054C227.734 93.6993 227.589 93.4613 227.3 93.34C227.02 93.2093 226.628 93.0927 226.124 92.99C225.732 92.906 225.34 92.794 224.948 92.654C224.565 92.514 224.243 92.318 223.982 92.066C223.73 91.8047 223.604 91.4547 223.604 91.016C223.604 90.4093 223.837 89.9053 224.304 89.504C224.771 89.0933 225.424 88.888 226.264 88.888C227.039 88.888 227.664 89.0747 228.14 89.448C228.625 89.8213 228.91 90.3487 228.994 91.03H227.566C227.519 90.7313 227.379 90.498 227.146 90.33C226.922 90.162 226.619 90.078 226.236 90.078C225.863 90.078 225.573 90.1573 225.368 90.316C225.163 90.4653 225.06 90.6613 225.06 90.904C225.06 91.1467 225.2 91.338 225.48 91.478C225.769 91.618 226.147 91.744 226.614 91.856C227.081 91.9587 227.51 92.08 227.902 92.22C228.303 92.3507 228.625 92.5467 228.868 92.808C229.111 93.0693 229.232 93.452 229.232 93.956C229.241 94.5907 228.994 95.118 228.49 95.538C227.995 95.958 227.319 96.168 226.46 96.168Z" fill="#4D4D4D"/>
<path d="M160.364 120L163.976 110.2H165.6L169.184 120H167.616L166.776 117.606H162.772L161.932 120H160.364ZM163.192 116.43H166.356L164.774 111.964L163.192 116.43ZM170.495 120V109.92H171.979V120H170.495ZM173.858 123.08V113.056H175.188L175.342 114.134C175.566 113.807 175.874 113.518 176.266 113.266C176.658 113.014 177.162 112.888 177.778 112.888C178.45 112.888 179.043 113.047 179.556 113.364C180.069 113.681 180.471 114.115 180.76 114.666C181.059 115.217 181.208 115.842 181.208 116.542C181.208 117.242 181.059 117.867 180.76 118.418C180.471 118.959 180.069 119.389 179.556 119.706C179.043 120.014 178.445 120.168 177.764 120.168C177.223 120.168 176.742 120.061 176.322 119.846C175.911 119.631 175.585 119.328 175.342 118.936V123.08H173.858ZM177.512 118.88C178.147 118.88 178.669 118.665 179.08 118.236C179.491 117.797 179.696 117.228 179.696 116.528C179.696 116.071 179.603 115.665 179.416 115.31C179.229 114.955 178.973 114.68 178.646 114.484C178.319 114.279 177.941 114.176 177.512 114.176C176.877 114.176 176.355 114.395 175.944 114.834C175.543 115.273 175.342 115.837 175.342 116.528C175.342 117.228 175.543 117.797 175.944 118.236C176.355 118.665 176.877 118.88 177.512 118.88ZM182.813 120V109.92H184.297V114.176C184.53 113.775 184.852 113.462 185.263 113.238C185.683 113.005 186.145 112.888 186.649 112.888C187.48 112.888 188.133 113.149 188.609 113.672C189.085 114.195 189.323 114.974 189.323 116.01V120H187.853V116.164C187.853 114.82 187.316 114.148 186.243 114.148C185.683 114.148 185.216 114.344 184.843 114.736C184.479 115.128 184.297 115.688 184.297 116.416V120H182.813ZM193.423 120.168C192.835 120.168 192.349 120.07 191.967 119.874C191.584 119.678 191.299 119.421 191.113 119.104C190.926 118.777 190.833 118.423 190.833 118.04C190.833 117.368 191.094 116.836 191.617 116.444C192.139 116.052 192.886 115.856 193.857 115.856H195.677V115.73C195.677 115.189 195.527 114.783 195.229 114.512C194.939 114.241 194.561 114.106 194.095 114.106C193.684 114.106 193.325 114.209 193.017 114.414C192.718 114.61 192.536 114.904 192.471 115.296H190.987C191.033 114.792 191.201 114.363 191.491 114.008C191.789 113.644 192.163 113.369 192.611 113.182C193.068 112.986 193.567 112.888 194.109 112.888C195.079 112.888 195.831 113.145 196.363 113.658C196.895 114.162 197.161 114.853 197.161 115.73V120H195.873L195.747 118.81C195.551 119.193 195.266 119.515 194.893 119.776C194.519 120.037 194.029 120.168 193.423 120.168ZM193.717 118.964C194.118 118.964 194.454 118.871 194.725 118.684C195.005 118.488 195.219 118.231 195.369 117.914C195.527 117.597 195.625 117.247 195.663 116.864H194.011C193.423 116.864 193.003 116.967 192.751 117.172C192.508 117.377 192.387 117.634 192.387 117.942C192.387 118.259 192.503 118.511 192.737 118.698C192.979 118.875 193.306 118.964 193.717 118.964ZM203.006 120.084C202.726 120.084 202.493 119.995 202.306 119.818C202.129 119.631 202.04 119.412 202.04 119.16C202.04 118.899 202.129 118.679 202.306 118.502C202.493 118.315 202.726 118.222 203.006 118.222C203.286 118.222 203.515 118.315 203.692 118.502C203.87 118.679 203.958 118.899 203.958 119.16C203.958 119.412 203.87 119.631 203.692 119.818C203.515 119.995 203.286 120.084 203.006 120.084ZM203.006 114.75C202.726 114.75 202.493 114.661 202.306 114.484C202.129 114.297 202.04 114.078 202.04 113.826C202.04 113.565 202.129 113.345 202.306 113.168C202.493 112.981 202.726 112.888 203.006 112.888C203.286 112.888 203.515 112.981 203.692 113.168C203.87 113.345 203.958 113.565 203.958 113.826C203.958 114.078 203.87 114.297 203.692 114.484C203.515 114.661 203.286 114.75 203.006 114.75ZM212.214 120.168C211.579 120.168 211.001 120.056 210.478 119.832C209.965 119.599 209.554 119.249 209.246 118.782C208.938 118.315 208.775 117.732 208.756 117.032H210.226C210.245 117.555 210.422 117.998 210.758 118.362C211.103 118.717 211.589 118.894 212.214 118.894C212.811 118.894 213.269 118.731 213.586 118.404C213.903 118.068 214.062 117.653 214.062 117.158C214.062 116.561 213.847 116.117 213.418 115.828C212.998 115.539 212.48 115.394 211.864 115.394H211.136V114.162H211.878C212.429 114.162 212.872 114.031 213.208 113.77C213.553 113.509 213.726 113.14 213.726 112.664C213.726 112.263 213.591 111.936 213.32 111.684C213.059 111.432 212.685 111.306 212.2 111.306C211.696 111.306 211.299 111.455 211.01 111.754C210.721 112.043 210.562 112.407 210.534 112.846H209.064C209.083 112.277 209.223 111.782 209.484 111.362C209.755 110.942 210.123 110.615 210.59 110.382C211.057 110.149 211.593 110.032 212.2 110.032C212.853 110.032 213.399 110.149 213.838 110.382C214.286 110.606 214.622 110.914 214.846 111.306C215.079 111.689 215.196 112.109 215.196 112.566C215.196 113.089 215.051 113.546 214.762 113.938C214.473 114.33 214.085 114.591 213.6 114.722C214.16 114.843 214.622 115.119 214.986 115.548C215.35 115.968 215.532 116.514 215.532 117.186C215.532 117.727 215.406 118.227 215.154 118.684C214.902 119.132 214.529 119.491 214.034 119.762C213.539 120.033 212.933 120.168 212.214 120.168ZM219.075 114.876C218.637 114.876 218.24 114.778 217.885 114.582C217.54 114.386 217.265 114.111 217.059 113.756C216.854 113.392 216.751 112.958 216.751 112.454C216.751 111.959 216.854 111.535 217.059 111.18C217.265 110.816 217.545 110.536 217.899 110.34C218.254 110.144 218.651 110.046 219.089 110.046C219.519 110.046 219.906 110.144 220.251 110.34C220.606 110.536 220.886 110.816 221.091 111.18C221.297 111.535 221.399 111.959 221.399 112.454C221.399 112.958 221.297 113.392 221.091 113.756C220.886 114.111 220.606 114.386 220.251 114.582C219.906 114.778 219.514 114.876 219.075 114.876ZM218.375 120L223.989 110.2H225.445L219.845 120H218.375ZM219.075 113.812C219.374 113.812 219.631 113.7 219.845 113.476C220.069 113.243 220.181 112.902 220.181 112.454C220.181 112.006 220.074 111.67 219.859 111.446C219.645 111.213 219.383 111.096 219.075 111.096C218.777 111.096 218.515 111.213 218.291 111.446C218.067 111.67 217.955 112.006 217.955 112.454C217.955 112.902 218.063 113.243 218.277 113.476C218.501 113.7 218.767 113.812 219.075 113.812ZM224.829 120.168C224.391 120.168 223.994 120.07 223.639 119.874C223.294 119.678 223.019 119.403 222.813 119.048C222.608 118.684 222.505 118.25 222.505 117.746C222.505 117.251 222.608 116.822 222.813 116.458C223.019 116.094 223.299 115.814 223.653 115.618C224.008 115.422 224.405 115.324 224.843 115.324C225.273 115.324 225.66 115.422 226.005 115.618C226.36 115.814 226.64 116.094 226.845 116.458C227.051 116.822 227.153 117.251 227.153 117.746C227.153 118.25 227.051 118.684 226.845 119.048C226.64 119.403 226.36 119.678 226.005 119.874C225.66 120.07 225.268 120.168 224.829 120.168ZM224.829 119.09C225.128 119.09 225.385 118.978 225.599 118.754C225.823 118.53 225.935 118.194 225.935 117.746C225.935 117.298 225.828 116.962 225.613 116.738C225.399 116.505 225.137 116.388 224.829 116.388C224.531 116.388 224.269 116.505 224.045 116.738C223.821 116.962 223.709 117.298 223.709 117.746C223.709 118.194 223.817 118.53 224.031 118.754C224.255 118.978 224.521 119.09 224.829 119.09Z" fill="#4D4D4D"/>
</svg>
