<svg width="145" height="47" viewBox="0 0 145 47" fill="none" xmlns="http://www.w3.org/2000/svg">
<path fill-rule="evenodd" clip-rule="evenodd" d="M52.5362 31.1842C55.4594 31.1842 58.7275 29.582 58.7275 25.8416C58.7275 20.0913 50.8713 21.5367 50.8713 19.3367C50.8713 18.7399 51.4681 18.2372 52.5048 18.2372C54.1394 18.2372 54.8626 19.3681 55.334 20.2167L58.6021 18.394C57.4075 16.3205 55.3653 15.0005 52.5999 15.0005C49.7081 15.0005 46.8486 16.4459 46.8486 19.6826C46.8486 25.3075 54.548 23.8934 54.548 26.2815C54.548 26.9107 53.9826 27.6956 52.4421 27.6956C50.3372 27.6956 49.7395 26.2188 49.3632 25.2448L46 26.7529C46.7232 29.0469 49.2054 31.1842 52.5362 31.1842Z" fill="white"/>
<path fill-rule="evenodd" clip-rule="evenodd" d="M67.0782 15C64.3129 15 61.7366 16.0054 59.8512 18.1427L62.9302 20.7189C64.1874 19.3049 65.5074 18.7081 66.8901 18.7081C68.6501 18.7081 69.6869 19.6194 69.6869 21.0335V21.3794H65.6015C64.0306 21.3794 62.7734 21.5989 61.768 22.1016C60.3539 22.8248 59.5366 24.1448 59.5366 25.9675C59.5366 29.0151 61.9561 31.1837 65.3183 31.1837C66.8901 31.1837 68.6187 30.6183 69.7182 29.0465L70.0328 30.8378H73.929V21.0335C73.929 17.3254 71.3204 15 67.0782 15ZM66.0101 27.6638C64.5647 27.6638 63.7788 26.9729 63.7788 26.0302C63.7788 25.5589 63.9669 25.1816 64.3442 24.9297C64.7215 24.6475 65.3183 24.5221 66.1983 24.5221H69.6869C69.6555 26.3124 67.9896 27.6638 66.0101 27.6638Z" fill="white"/>
<path fill-rule="evenodd" clip-rule="evenodd" d="M79.6566 30.8376H83.1452L89.4609 15.3457H84.8728L81.3852 25.2754L77.9906 15.3457H73.3398L79.6566 30.8376Z" fill="white"/>
<path fill-rule="evenodd" clip-rule="evenodd" d="M103.02 23.0443C103.02 18.52 100.6 15 95.7602 15C90.4185 15 88.2812 19.2108 88.2812 23.1708C88.2812 27.2238 90.4812 31.1837 96.012 31.1837C98.6833 31.1837 100.82 30.1783 102.486 28.3243L99.532 25.7156C98.5569 26.8789 97.332 27.3188 96.0434 27.3188C93.812 27.3188 92.7126 26.1556 92.5234 24.5221H102.926C102.988 23.9557 103.02 23.5157 103.02 23.0443ZM92.492 21.2853C92.6812 20.0281 93.5612 18.5513 95.7288 18.5513C97.4888 18.5513 98.9028 19.5881 98.9656 21.2853H92.492Z" fill="white"/>
<path fill-rule="evenodd" clip-rule="evenodd" d="M122.033 15C120.147 15 118.325 15.6281 117.036 18.08C116.062 15.6281 114.145 15 112.542 15C111.065 15 109.463 15.5341 108.426 17.294V15.3459H104.31L104.341 30.8378H108.614V25.3697C108.614 22.3535 108.237 18.7081 111.443 18.7081C113.831 18.7081 113.799 21.3481 113.799 22.1643V30.8378H118.041V25.3697C118.041 22.3535 117.633 18.7081 120.807 18.7081C123.007 18.7081 123.226 21.0021 123.226 22.1967V30.8378H127.47V20.9081C127.47 17.9535 125.772 15 122.033 15Z" fill="white"/>
<path fill-rule="evenodd" clip-rule="evenodd" d="M136.15 31.1837C141.021 31.1837 144.006 27.3816 144.006 23.0757C144.006 18.7395 141.053 15 136.15 15C131.217 15 128.294 18.7395 128.294 23.0757C128.294 27.3816 131.248 31.1837 136.15 31.1837ZM136.15 27.4443C133.416 27.4443 132.536 25.2757 132.536 23.0757C132.536 20.814 133.447 18.7081 136.15 18.7081C138.884 18.7081 139.764 20.814 139.764 23.0757C139.764 25.307 138.853 27.4443 136.15 27.4443Z" fill="white"/>
<path fill-rule="evenodd" clip-rule="evenodd" d="M1.13066 36.1584C-0.376888 34.6509 -0.376888 32.2069 1.13066 30.6998L23.8764 7.95361L35.0215 19.0993C37.6595 21.7372 37.6595 26.0142 35.0215 28.6527L19.0997 44.5745C16.4617 47.2125 12.1847 47.2125 9.54676 44.5745L1.13066 36.1584Z" fill="#D3D3D3"/>
<path fill-rule="evenodd" clip-rule="evenodd" d="M17.0525 1.13066C15.5455 -0.376888 13.101 -0.376888 11.5939 1.13066L1.13066 11.5939C-0.376888 13.101 -0.376888 15.5455 1.13066 17.0525L19.0997 35.022C21.7376 37.66 21.7376 41.937 19.0997 44.5749L35.0215 28.6531C37.6595 26.0151 37.6595 21.7376 35.0215 19.0997L17.0525 1.13066Z" fill="url(#paint0_linear)"/>
<path fill-rule="evenodd" clip-rule="evenodd" d="M17.0525 1.13066C15.5455 -0.376888 13.101 -0.376888 11.5939 1.13066L1.13066 11.5939C-0.376888 13.101 -0.376888 15.5455 1.13066 17.0525L19.0997 35.022C21.7376 37.66 21.7376 41.937 19.0997 44.5749L35.0215 28.6531C37.6595 26.0151 37.6595 21.7376 35.0215 19.0997L17.0525 1.13066Z" fill="white"/>
<defs>
<linearGradient id="paint0_linear" x1="6.36234" y1="6.36219" x2="31.8377" y2="31.8375" gradientUnits="userSpaceOnUse">
<stop stop-color="#00ECFF"/>
<stop offset="1" stop-color="#008AFC"/>
</linearGradient>
</defs>
</svg>
