<svg width="298" height="86" viewBox="0 0 298 86" fill="none" xmlns="http://www.w3.org/2000/svg">
<path d="M0.745047 83L2.22105 74.6H3.39705L5.38905 80.456L9.42105 74.6H10.609L9.13305 83H8.12505L9.27705 76.4L5.53305 81.8H4.77705L2.91705 76.412L1.75305 83H0.745047ZM13.0049 83.144C12.4049 83.144 11.9329 82.98 11.5889 82.652C11.2529 82.316 11.0849 81.84 11.0849 81.224C11.0849 81.112 11.0889 81 11.0969 80.888C11.1049 80.768 11.1209 80.648 11.1449 80.528L11.7689 77.048H12.7769L12.1769 80.42C12.1609 80.524 12.1449 80.624 12.1289 80.72C12.1209 80.816 12.1169 80.908 12.1169 80.996C12.1169 81.852 12.5369 82.28 13.3769 82.28C13.8809 82.28 14.3329 82.104 14.7329 81.752C15.1329 81.4 15.4009 80.896 15.5369 80.24L16.1009 77.048H17.1089L16.0649 83H15.1529L15.2729 81.92C15.0169 82.304 14.6889 82.604 14.2889 82.82C13.8889 83.036 13.4609 83.144 13.0049 83.144ZM19.8838 83C19.3878 83 19.0038 82.904 18.7318 82.712C18.4598 82.512 18.3238 82.176 18.3238 81.704C18.3238 81.624 18.3278 81.54 18.3358 81.452C18.3438 81.356 18.3558 81.256 18.3718 81.152L18.9478 77.9H18.0238L18.1798 77.048H19.1038L19.4878 75.62H20.3758L20.1118 77.048H21.8758L21.7198 77.9H19.9678L19.3798 81.152C19.3638 81.28 19.3558 81.392 19.3558 81.488C19.3558 81.736 19.4198 81.908 19.5478 82.004C19.6838 82.092 19.8998 82.136 20.1958 82.136H20.9758L20.8198 83H19.8838ZM24.3252 83.144C23.7252 83.144 23.2532 82.98 22.9092 82.652C22.5732 82.316 22.4052 81.84 22.4052 81.224C22.4052 81.112 22.4092 81 22.4172 80.888C22.4252 80.768 22.4412 80.648 22.4652 80.528L23.0892 77.048H24.0972L23.4972 80.42C23.4812 80.524 23.4652 80.624 23.4492 80.72C23.4412 80.816 23.4372 80.908 23.4372 80.996C23.4372 81.852 23.8572 82.28 24.6972 82.28C25.2012 82.28 25.6532 82.104 26.0532 81.752C26.4532 81.4 26.7212 80.896 26.8572 80.24L27.4212 77.048H28.4292L27.3852 83H26.4732L26.5932 81.92C26.3372 82.304 26.0092 82.604 25.6092 82.82C25.2092 83.036 24.7812 83.144 24.3252 83.144ZM30.9761 83.144C30.5281 83.144 30.1641 83.072 29.8841 82.928C29.6041 82.776 29.3961 82.58 29.2601 82.34C29.1241 82.092 29.0561 81.828 29.0561 81.548C29.0561 81.108 29.1801 80.728 29.4281 80.408C29.6761 80.088 30.0201 79.844 30.4601 79.676C30.9081 79.5 31.4281 79.412 32.0201 79.412H33.6161L33.6281 79.34C33.6521 79.204 33.6641 79.068 33.6641 78.932C33.6641 78.548 33.5521 78.256 33.3281 78.056C33.1121 77.856 32.8081 77.756 32.4161 77.756C32.0321 77.756 31.6761 77.856 31.3481 78.056C31.0201 78.248 30.7921 78.532 30.6641 78.908H29.6201C29.7481 78.476 29.9561 78.112 30.2441 77.816C30.5401 77.52 30.8881 77.296 31.2881 77.144C31.6881 76.984 32.1081 76.904 32.5481 76.904C33.2601 76.904 33.7921 77.072 34.1441 77.408C34.5041 77.744 34.6841 78.2 34.6841 78.776C34.6841 78.864 34.6801 78.956 34.6721 79.052C34.6641 79.148 34.6521 79.244 34.6361 79.34L34.0001 83H33.0881L33.2081 81.944C32.9841 82.28 32.6881 82.564 32.3201 82.796C31.9601 83.028 31.5121 83.144 30.9761 83.144ZM31.2761 82.292C31.6601 82.292 32.0041 82.192 32.3081 81.992C32.6201 81.792 32.8761 81.532 33.0761 81.212C33.2761 80.892 33.4081 80.556 33.4721 80.204V80.192H31.9601C31.3921 80.192 30.9441 80.304 30.6161 80.528C30.2961 80.744 30.1361 81.044 30.1361 81.428C30.1361 81.7 30.2321 81.912 30.4241 82.064C30.6241 82.216 30.9081 82.292 31.2761 82.292ZM35.5129 83L37.0489 74.36H38.0569L36.5209 83H35.5129ZM41.6904 83L43.1664 74.6H48.1584L48.0144 75.404H44.0304L43.5144 78.392H46.8624L46.7184 79.172H43.3704L42.6984 83H41.6904ZM50.1416 83.144C49.5416 83.144 49.0696 82.98 48.7256 82.652C48.3896 82.316 48.2216 81.84 48.2216 81.224C48.2216 81.112 48.2256 81 48.2336 80.888C48.2416 80.768 48.2576 80.648 48.2816 80.528L48.9056 77.048H49.9136L49.3136 80.42C49.2976 80.524 49.2816 80.624 49.2656 80.72C49.2576 80.816 49.2536 80.908 49.2536 80.996C49.2536 81.852 49.6736 82.28 50.5136 82.28C51.0176 82.28 51.4696 82.104 51.8696 81.752C52.2696 81.4 52.5376 80.896 52.6736 80.24L53.2376 77.048H54.2456L53.2016 83H52.2896L52.4096 81.92C52.1536 82.304 51.8256 82.604 51.4256 82.82C51.0256 83.036 50.5976 83.144 50.1416 83.144ZM54.8725 83L55.9165 77.048H56.8285L56.7085 78.128C56.9645 77.744 57.2925 77.444 57.6925 77.228C58.0925 77.012 58.5205 76.904 58.9765 76.904C59.5685 76.904 60.0365 77.072 60.3805 77.408C60.7245 77.736 60.8965 78.208 60.8965 78.824C60.8965 78.936 60.8885 79.052 60.8725 79.172C60.8645 79.284 60.8485 79.4 60.8245 79.52L60.2125 83H59.2045L59.7925 79.628C59.8085 79.524 59.8205 79.424 59.8285 79.328C59.8445 79.232 59.8525 79.14 59.8525 79.052C59.8525 78.196 59.4325 77.768 58.5925 77.768C58.0885 77.768 57.6365 77.944 57.2365 78.296C56.8445 78.648 56.5805 79.152 56.4445 79.808L55.8805 83H54.8725ZM64.4035 83.144C63.8915 83.144 63.4515 83.028 63.0835 82.796C62.7235 82.556 62.4475 82.236 62.2555 81.836C62.0635 81.436 61.9675 80.996 61.9675 80.516C61.9675 79.812 62.1155 79.192 62.4115 78.656C62.7155 78.112 63.1235 77.684 63.6355 77.372C64.1475 77.06 64.7195 76.904 65.3515 76.904C65.8795 76.904 66.3115 77.008 66.6475 77.216C66.9835 77.424 67.2315 77.7 67.3915 78.044L68.0395 74.36H69.0475L67.5235 83H66.5995L66.6835 82.016C66.4515 82.304 66.1515 82.564 65.7835 82.796C65.4155 83.028 64.9555 83.144 64.4035 83.144ZM64.6915 82.268C65.1475 82.268 65.5515 82.144 65.9035 81.896C66.2635 81.648 66.5435 81.316 66.7435 80.9C66.9515 80.476 67.0555 80.012 67.0555 79.508C67.0555 78.988 66.9075 78.572 66.6115 78.26C66.3155 77.94 65.9075 77.78 65.3875 77.78C64.9315 77.78 64.5235 77.896 64.1635 78.128C63.8035 78.36 63.5195 78.676 63.3115 79.076C63.1115 79.468 63.0115 79.916 63.0115 80.42C63.0115 80.948 63.1595 81.388 63.4555 81.74C63.7595 82.092 64.1715 82.268 64.6915 82.268ZM72.6865 83L74.1625 74.6H77.1265C77.9025 74.6 78.4745 74.772 78.8425 75.116C79.2185 75.46 79.4065 75.884 79.4065 76.388C79.4065 76.972 79.2345 77.464 78.8905 77.864C78.5465 78.256 78.0985 78.524 77.5465 78.668C77.9465 78.748 78.2705 78.94 78.5185 79.244C78.7665 79.54 78.8905 79.904 78.8905 80.336C78.8905 80.864 78.7465 81.328 78.4585 81.728C78.1785 82.128 77.7985 82.44 77.3185 82.664C76.8385 82.888 76.3105 83 75.7345 83H72.6865ZM74.5345 78.284H76.3945C76.9785 78.284 77.4505 78.128 77.8105 77.816C78.1705 77.496 78.3505 77.076 78.3505 76.556C78.3505 76.204 78.2265 75.924 77.9785 75.716C77.7385 75.508 77.3665 75.404 76.8625 75.404H75.0265L74.5345 78.284ZM73.8385 82.184H75.7705C76.4025 82.184 76.9145 82.012 77.3065 81.668C77.6985 81.324 77.8945 80.876 77.8945 80.324C77.8945 79.94 77.7505 79.636 77.4625 79.412C77.1745 79.188 76.7825 79.076 76.2865 79.076H74.3785L73.8385 82.184Z" fill="#888888"/>
<path d="M221.261 83.144C220.549 83.144 219.941 83.004 219.437 82.724C218.941 82.444 218.561 82.052 218.297 81.548C218.033 81.044 217.901 80.456 217.901 79.784C217.901 79.032 218.021 78.332 218.261 77.684C218.509 77.036 218.853 76.472 219.293 75.992C219.733 75.504 220.245 75.128 220.829 74.864C221.421 74.592 222.061 74.456 222.749 74.456C223.709 74.456 224.453 74.688 224.981 75.152C225.509 75.608 225.785 76.248 225.809 77.072H224.669C224.653 76.536 224.473 76.116 224.129 75.812C223.785 75.5 223.277 75.344 222.605 75.344C222.085 75.344 221.601 75.456 221.153 75.68C220.713 75.896 220.329 76.204 220.001 76.604C219.673 76.996 219.417 77.456 219.233 77.984C219.049 78.512 218.957 79.084 218.957 79.7C218.957 80.508 219.173 81.136 219.605 81.584C220.037 82.032 220.637 82.256 221.405 82.256C222.077 82.256 222.633 82.104 223.073 81.8C223.521 81.496 223.849 81.084 224.057 80.564H225.197C224.885 81.38 224.389 82.016 223.709 82.472C223.029 82.92 222.213 83.144 221.261 83.144ZM228.914 83.144C228.418 83.144 227.978 83.032 227.594 82.808C227.21 82.584 226.91 82.276 226.694 81.884C226.478 81.492 226.37 81.048 226.37 80.552C226.37 80.024 226.462 79.54 226.646 79.1C226.83 78.66 227.082 78.276 227.402 77.948C227.722 77.62 228.094 77.364 228.518 77.18C228.942 76.996 229.402 76.904 229.898 76.904C230.394 76.904 230.834 77.012 231.218 77.228C231.602 77.444 231.902 77.744 232.118 78.128C232.334 78.512 232.442 78.956 232.442 79.46C232.442 79.98 232.35 80.464 232.166 80.912C231.99 81.36 231.738 81.752 231.41 82.088C231.09 82.416 230.718 82.676 230.294 82.868C229.87 83.052 229.41 83.144 228.914 83.144ZM229.046 82.28C229.494 82.28 229.894 82.16 230.246 81.92C230.606 81.68 230.89 81.352 231.098 80.936C231.306 80.52 231.41 80.052 231.41 79.532C231.41 78.972 231.246 78.54 230.918 78.236C230.598 77.924 230.214 77.768 229.766 77.768C229.326 77.768 228.93 77.888 228.578 78.128C228.226 78.368 227.946 78.696 227.738 79.112C227.53 79.528 227.426 79.996 227.426 80.516C227.426 80.892 227.498 81.212 227.642 81.476C227.794 81.732 227.994 81.932 228.242 82.076C228.49 82.212 228.758 82.28 229.046 82.28ZM233.279 83L234.323 77.048H235.223L235.139 78.02C235.371 77.676 235.659 77.404 236.003 77.204C236.347 77.004 236.719 76.904 237.119 76.904C237.559 76.904 237.939 77.004 238.259 77.204C238.579 77.404 238.799 77.708 238.919 78.116C239.175 77.74 239.499 77.444 239.891 77.228C240.291 77.012 240.699 76.904 241.115 76.904C241.555 76.904 241.931 77 242.243 77.192C242.563 77.376 242.791 77.664 242.927 78.056C243.071 78.44 243.087 78.928 242.975 79.52L242.363 83H241.355L241.943 79.628C242.055 79.012 242.011 78.548 241.811 78.236C241.619 77.924 241.307 77.768 240.875 77.768C240.451 77.768 240.055 77.936 239.687 78.272C239.319 78.6 239.059 79.076 238.907 79.7L238.319 83H237.323L237.911 79.628C238.015 79.012 237.967 78.548 237.767 78.236C237.575 77.924 237.263 77.768 236.831 77.768C236.391 77.768 235.975 77.956 235.583 78.332C235.199 78.7 234.947 79.228 234.827 79.916L234.287 83H233.279ZM243.416 85.64L244.94 77.048H245.876L245.78 78.032C246.028 77.72 246.332 77.456 246.692 77.24C247.06 77.016 247.512 76.904 248.048 76.904C248.56 76.904 249 77.016 249.368 77.24C249.736 77.464 250.016 77.768 250.208 78.152C250.408 78.536 250.508 78.972 250.508 79.46C250.508 80.156 250.356 80.784 250.052 81.344C249.756 81.896 249.348 82.336 248.828 82.664C248.308 82.984 247.72 83.144 247.064 83.144C246.744 83.144 246.448 83.088 246.176 82.976C245.912 82.864 245.684 82.72 245.492 82.544C245.308 82.368 245.172 82.184 245.084 81.992L244.424 85.64H243.416ZM247.124 82.268C247.58 82.268 247.984 82.152 248.336 81.92C248.688 81.688 248.964 81.372 249.164 80.972C249.364 80.572 249.464 80.116 249.464 79.604C249.464 79.076 249.312 78.64 249.008 78.296C248.712 77.952 248.308 77.78 247.796 77.78C247.34 77.78 246.932 77.9 246.572 78.14C246.212 78.38 245.928 78.708 245.72 79.124C245.512 79.532 245.408 79.988 245.408 80.492C245.408 81.028 245.564 81.46 245.876 81.788C246.188 82.108 246.604 82.268 247.124 82.268ZM253.257 83.144C252.809 83.144 252.445 83.072 252.165 82.928C251.885 82.776 251.677 82.58 251.541 82.34C251.405 82.092 251.337 81.828 251.337 81.548C251.337 81.108 251.461 80.728 251.709 80.408C251.957 80.088 252.301 79.844 252.741 79.676C253.189 79.5 253.709 79.412 254.301 79.412H255.897L255.909 79.34C255.933 79.204 255.945 79.068 255.945 78.932C255.945 78.548 255.833 78.256 255.609 78.056C255.393 77.856 255.089 77.756 254.697 77.756C254.313 77.756 253.957 77.856 253.629 78.056C253.301 78.248 253.073 78.532 252.945 78.908H251.901C252.029 78.476 252.237 78.112 252.525 77.816C252.821 77.52 253.169 77.296 253.569 77.144C253.969 76.984 254.389 76.904 254.829 76.904C255.541 76.904 256.073 77.072 256.425 77.408C256.785 77.744 256.965 78.2 256.965 78.776C256.965 78.864 256.961 78.956 256.953 79.052C256.945 79.148 256.933 79.244 256.917 79.34L256.281 83H255.369L255.489 81.944C255.265 82.28 254.969 82.564 254.601 82.796C254.241 83.028 253.793 83.144 253.257 83.144ZM253.557 82.292C253.941 82.292 254.285 82.192 254.589 81.992C254.901 81.792 255.157 81.532 255.357 81.212C255.557 80.892 255.689 80.556 255.753 80.204V80.192H254.241C253.673 80.192 253.225 80.304 252.897 80.528C252.577 80.744 252.417 81.044 252.417 81.428C252.417 81.7 252.513 81.912 252.705 82.064C252.905 82.216 253.189 82.292 253.557 82.292ZM257.806 83L258.85 77.048H259.762L259.642 78.128C259.898 77.744 260.226 77.444 260.626 77.228C261.026 77.012 261.454 76.904 261.91 76.904C262.502 76.904 262.97 77.072 263.314 77.408C263.658 77.736 263.83 78.208 263.83 78.824C263.83 78.936 263.822 79.052 263.806 79.172C263.798 79.284 263.782 79.4 263.758 79.52L263.146 83H262.138L262.726 79.628C262.742 79.524 262.754 79.424 262.762 79.328C262.778 79.232 262.786 79.14 262.786 79.052C262.786 78.196 262.366 77.768 261.526 77.768C261.022 77.768 260.57 77.944 260.17 78.296C259.778 78.648 259.514 79.152 259.378 79.808L258.814 83H257.806ZM264.525 85.64L266.553 82.424H266.217L264.789 77.048H265.857L267.045 81.68L269.937 77.048H270.993L265.581 85.64H264.525ZM274.495 83L275.971 74.6H278.935C279.711 74.6 280.283 74.772 280.651 75.116C281.027 75.46 281.215 75.884 281.215 76.388C281.215 76.972 281.043 77.464 280.699 77.864C280.355 78.256 279.907 78.524 279.355 78.668C279.755 78.748 280.079 78.94 280.327 79.244C280.575 79.54 280.699 79.904 280.699 80.336C280.699 80.864 280.555 81.328 280.267 81.728C279.987 82.128 279.607 82.44 279.127 82.664C278.647 82.888 278.119 83 277.543 83H274.495ZM276.343 78.284H278.203C278.787 78.284 279.259 78.128 279.619 77.816C279.979 77.496 280.159 77.076 280.159 76.556C280.159 76.204 280.035 75.924 279.787 75.716C279.547 75.508 279.175 75.404 278.671 75.404H276.835L276.343 78.284ZM275.647 82.184H277.579C278.211 82.184 278.723 82.012 279.115 81.668C279.507 81.324 279.703 80.876 279.703 80.324C279.703 79.94 279.559 79.636 279.271 79.412C278.983 79.188 278.591 79.076 278.095 79.076H276.187L275.647 82.184ZM281.736 83L283.272 74.36H284.28L282.744 83H281.736ZM286.567 83.144C285.967 83.144 285.495 82.98 285.151 82.652C284.815 82.316 284.647 81.84 284.647 81.224C284.647 81.112 284.651 81 284.659 80.888C284.667 80.768 284.683 80.648 284.707 80.528L285.331 77.048H286.339L285.739 80.42C285.723 80.524 285.707 80.624 285.691 80.72C285.683 80.816 285.679 80.908 285.679 80.996C285.679 81.852 286.099 82.28 286.939 82.28C287.443 82.28 287.895 82.104 288.295 81.752C288.695 81.4 288.963 80.896 289.099 80.24L289.663 77.048H290.671L289.627 83H288.715L288.835 81.92C288.579 82.304 288.251 82.604 287.851 82.82C287.451 83.036 287.023 83.144 286.567 83.144ZM293.938 83.144C293.202 83.144 292.61 82.916 292.162 82.46C291.722 82.004 291.502 81.392 291.502 80.624C291.502 79.936 291.654 79.312 291.958 78.752C292.262 78.184 292.678 77.736 293.206 77.408C293.742 77.072 294.35 76.904 295.03 76.904C295.55 76.904 295.986 77.008 296.338 77.216C296.698 77.416 296.966 77.688 297.142 78.032C297.326 78.376 297.418 78.756 297.418 79.172C297.418 79.332 297.398 79.516 297.358 79.724C297.326 79.924 297.294 80.1 297.262 80.252H292.51C292.494 80.388 292.486 80.508 292.486 80.612C292.486 81.18 292.646 81.604 292.966 81.884C293.286 82.156 293.662 82.292 294.094 82.292C294.51 82.292 294.874 82.196 295.186 82.004C295.506 81.804 295.754 81.544 295.93 81.224H296.926C296.678 81.776 296.294 82.236 295.774 82.604C295.254 82.964 294.642 83.144 293.938 83.144ZM294.898 77.756C294.418 77.756 293.966 77.904 293.542 78.2C293.118 78.488 292.826 78.912 292.666 79.472H296.41C296.418 79.424 296.422 79.38 296.422 79.34C296.43 79.292 296.434 79.248 296.434 79.208C296.434 78.752 296.294 78.396 296.014 78.14C295.734 77.884 295.362 77.756 294.898 77.756Z" fill="#888888"/>
<g clip-path="url(#clip0)">
<path d="M249.845 9.5686H265.155V13.1568H249.845V9.5686Z" fill="#696E73"/>
<path d="M257.5 9.5686H265.155V13.1568H257.5V9.5686Z" fill="#4B5055"/>
<path d="M227 0V61H234.655L236.772 59.4069L248.988 59.6105L249.845 59.2059V57.4118V40.0686H251.639V0H227Z" fill="#59ABFF"/>
<path d="M263.361 0V21.0378H265.155V57.4118V59.2059L267.229 59.3255L279.811 59.8955L280.345 61H288V0H263.361Z" fill="#4B5055"/>
<path d="M258.577 23.7245V40.0687H260.371V57.4119V59.206L261.895 59.6106L272.402 60.4019L272.69 61.0001H280.345V11.1216L258.577 23.7245Z" fill="#59ABFF"/>
<path d="M234.535 7.65479H244.104V11.243H234.535V7.65479Z" fill="#F7F9FA"/>
<path d="M234.535 15.3096H244.104V18.8978H234.535V15.3096Z" fill="#F7F9FA"/>
<path d="M234.535 22.9646H244.104V26.5528H234.535V22.9646Z" fill="#F7F9FA"/>
<path d="M234.535 30.6196H244.104V34.2079H234.535V30.6196Z" fill="#F7F9FA"/>
<path d="M234.655 38.2744H272.69V60.9999H234.655V38.2744Z" fill="#00ECFF"/>
<path d="M257.5 38.2744H272.69V60.9999H257.5V38.2744Z" fill="#2CCCD9"/>
<path d="M243.147 47.843H246.974V51.4313H243.147V47.843Z" fill="#F7F9FA"/>
<path d="M251.759 47.843H255.586V51.4313H251.759V47.843Z" fill="#F7F9FA"/>
<path d="M260.371 47.843H264.198V51.4313H260.371V47.843Z" fill="#E5EAEE"/>
<path d="M266.112 28.7058H272.81V32.2941H266.112V28.7058Z" fill="#E5EAEE"/>
</g>
<g clip-path="url(#clip1)">
<path d="M17.9399 21.0051H61.3099V52.5569H17.9399V21.0051Z" fill="#95A5A5"/>
<path d="M57.3794 22.8457H64.7414V50.3663H57.3794V22.8457Z" fill="#D1D4D1"/>
<path d="M21.6204 49.8762H14.2583V23.8091H21.6204V49.8762Z" fill="#D1D4D1"/>
<path d="M55.2759 20.479H66.8446V23.1085C66.8446 24.2701 65.9031 25.2116 64.7415 25.2116H57.3795C56.2174 25.2116 55.2759 24.2701 55.2759 23.1085V20.479Z" fill="#BDC3C7"/>
<path d="M57.3795 48.3496H64.7415C65.9031 48.3496 66.8446 49.2916 66.8446 50.4532V53.0827H55.2759V50.4532C55.2759 49.2916 56.2174 48.3496 57.3795 48.3496Z" fill="#BDC3C7"/>
<path d="M21.6204 25.2116H14.2584C13.0968 25.2116 12.1553 24.2701 12.1553 23.1085V20.479H23.724V23.1085C23.724 24.2701 22.7825 25.2116 21.6204 25.2116Z" fill="#BDC3C7"/>
<path d="M23.724 53.0827H12.1553V50.4532C12.1553 49.2916 13.0968 48.3496 14.2584 48.3496H21.6204C22.7825 48.3496 23.724 49.2916 23.724 50.4532V53.0827Z" fill="#BDC3C7"/>
<path d="M11.1035 15.4312H68.9482V19.9534C68.9482 20.5342 68.4772 21.0052 67.8964 21.0052H12.1553C11.5745 21.0052 11.1035 20.5342 11.1035 19.9534V15.4312Z" fill="#802828"/>
<path d="M12.1553 52.5569H67.8964C68.4772 52.5569 68.9482 53.0279 68.9482 53.6087V58.8671H11.1035V53.6087C11.1035 53.0279 11.5745 52.5569 12.1553 52.5569Z" fill="#802828"/>
<path d="M68.9482 16.7985H10.0518C9.47098 16.7985 9 16.3275 9 15.7467V10.2113C8.99954 9.7515 9.29785 9.34474 9.73625 9.20699L38.565 0.261202C39.1742 0.0717869 39.8258 0.0717869 40.435 0.261202L69.2637 9.20699C69.7021 9.34474 70.0005 9.7515 70 10.2113V15.7467C70 16.3275 69.529 16.7985 68.9482 16.7985Z" fill="#C35B44"/>
<path d="M13.2065 12.5912V12.5353L39.1843 4.47193C39.3872 4.4091 39.6041 4.4091 39.807 4.47193L65.7932 12.5353V12.5912H13.2065Z" fill="#802828"/>
<path d="M51.0686 36.7809C51.0686 43.1703 45.8893 48.3496 39.4999 48.3496C33.1105 48.3496 27.9312 43.1703 27.9312 36.7809C27.9312 30.3915 33.1105 25.2117 39.4999 25.2117C45.8893 25.2117 51.0686 30.3915 51.0686 36.7809Z" fill="#7ED09E"/>
<path d="M10.0518 56.7634H68.9482C69.529 56.7634 70 57.2344 70 57.8152V59.9188C70 60.4996 69.529 60.9706 68.9482 60.9706H10.0518C9.47098 60.9706 9 60.4996 9 59.9188V57.8152C9 57.2344 9.47098 56.7634 10.0518 56.7634Z" fill="#C35B44"/>
<path d="M38.6867 46.4648L33.9004 38.095V36.979H34.4575C35.8082 36.979 36.838 36.7845 37.5471 36.3956C38.2731 36.0067 38.6952 35.305 38.8134 34.2905H33.9004V32.6672H38.788C38.6192 31.7203 38.1718 31.0355 37.4458 30.6128C36.7367 30.1901 35.7406 29.9787 34.4575 29.9787H33.9004V28.3555H44.3848V29.9787H39.5984C40.4088 30.6382 40.89 31.5343 41.0419 32.6672H44.3848V34.2905H41.0926C40.9744 35.5248 40.5017 36.4886 39.6744 37.1819C38.864 37.8582 37.7835 38.2894 36.4328 38.4754L41.2698 46.4648H38.6867Z" fill="#3DA867"/>
</g>
<path d="M73 34H219.5" stroke="white" stroke-dasharray="2 2"/>
<g clip-path="url(#clip2)">
<path d="M162.544 21.6665C162.518 21.6665 162.492 21.6645 162.466 21.6604C161.787 21.5536 161.263 21.1762 160.756 20.8113C160.453 20.5927 160.166 20.386 159.864 20.2514C158.883 19.8148 157.831 20.1753 156.737 21.3227C156.547 21.5217 156.232 21.5291 156.033 21.3393C155.834 21.1495 155.826 20.8343 156.016 20.6353C157.78 18.7861 159.302 18.9111 160.269 19.3416C160.665 19.518 161.007 19.7647 161.338 20.0033C161.769 20.3136 162.176 20.6066 162.62 20.6766C162.892 20.7193 163.078 20.9742 163.035 21.2459C162.996 21.4913 162.785 21.6665 162.544 21.6665Z" fill="#655E67"/>
<path d="M161.94 27.9173C161.804 27.9173 161.669 27.8621 161.57 27.7535C160.904 27.0175 160.647 26.087 160.399 25.1871C160.335 24.9538 160.274 24.7334 160.206 24.5155C159.916 23.5846 159.27 22.7854 158.52 22.4299C157.954 22.1616 157.362 22.1483 156.763 22.3902C156.507 22.493 156.217 22.3696 156.114 22.1146C156.011 21.8595 156.135 21.5694 156.39 21.4665C157.246 21.1211 158.13 21.143 158.946 21.5299C159.955 22.0078 160.781 23.0131 161.157 24.2191C161.23 24.4526 161.296 24.6913 161.359 24.9222C161.587 25.7462 161.801 26.5245 162.309 27.0851C162.493 27.2889 162.478 27.6039 162.274 27.7885C162.179 27.8748 162.059 27.9173 161.94 27.9173Z" fill="#655E67"/>
<path d="M156.658 14.0557C156.04 13.5112 155.324 13.3254 154.581 13.7807C154.127 14.0594 153.592 14.1006 153.134 13.8299C152.8 13.6325 152.435 13.5237 152.052 13.5237C151.668 13.5237 151.303 13.6326 150.969 13.8299C150.512 14.1006 149.976 14.0594 149.522 13.7807C148.78 13.3255 148.064 13.5113 147.445 14.0557C146.475 14.9096 146.111 16.3217 147.286 18.3207C148.126 19.7495 149.254 20.6309 150.183 20.706C150.683 21.3316 153.42 21.3316 153.92 20.706C154.85 20.6309 155.977 19.7495 156.817 18.3207C157.992 16.3217 157.629 14.9096 156.658 14.0557Z" fill="#C77E67"/>
<path d="M155.747 22.708H148.357C148.357 22.708 140 32.7042 140 36.7589C140 41.2948 144.028 43.4764 146.18 43.4764H157.923C160.076 43.4764 164.104 41.2948 164.104 36.7589C164.104 32.7042 155.747 22.708 155.747 22.708Z" fill="#C77E67"/>
<path d="M156.659 14.0556C156.04 13.5111 155.324 13.3253 154.581 13.7805C154.534 13.8097 154.485 13.8357 154.436 13.8595C154.511 13.9183 154.585 13.9836 154.657 14.0556C155.51 14.9095 155.83 16.3215 154.796 18.3206C154.058 19.7494 153.065 20.6308 152.248 20.7058C152.099 20.9169 151.726 21.0564 151.281 21.1251C152.275 21.26 153.589 21.1205 153.92 20.7058C154.85 20.6308 155.978 19.7494 156.817 18.3206C157.992 16.3216 157.629 14.9095 156.659 14.0556Z" fill="#AC583E"/>
<path d="M155.747 22.708H153.854C153.854 22.708 161.207 32.7042 161.207 36.7589C161.207 41.2948 157.664 43.4764 155.769 43.4764H157.923C160.076 43.4764 164.104 41.2948 164.104 36.7589C164.104 32.7043 155.747 22.708 155.747 22.708Z" fill="#AC583E"/>
<path d="M156.982 24.2441C156.238 23.2965 155.747 22.708 155.747 22.708H148.357C148.357 22.708 147.865 23.2964 147.121 24.2441H156.982Z" fill="#AC583E"/>
<path d="M152.051 21.8291C151.629 21.8291 151.26 21.6174 151.068 21.2833C150.786 21.0858 150.376 20.536 150.026 18.8968C149.917 18.3847 149.843 17.893 149.806 17.4357C149.784 17.1615 149.989 16.9215 150.263 16.8997C150.537 16.877 150.777 17.0824 150.799 17.3565C150.832 17.7707 150.9 18.219 151 18.6889C151.25 19.8574 151.525 20.3417 151.623 20.4477C151.769 20.5025 151.883 20.6232 151.927 20.7755C151.943 20.8325 152.047 20.8332 152.051 20.8332C152.056 20.8332 152.16 20.8325 152.176 20.7755C152.22 20.6232 152.334 20.5025 152.48 20.4477C152.578 20.3418 152.853 19.8575 153.103 18.6889C153.203 18.2209 153.271 17.7723 153.305 17.3555C153.327 17.0814 153.569 16.8774 153.842 16.8998C154.116 16.9222 154.32 17.1626 154.297 17.4367C154.26 17.8959 154.186 18.3871 154.077 18.8968C153.727 20.536 153.317 21.0858 153.035 21.2833C152.843 21.6175 152.473 21.8291 152.051 21.8291Z" fill="#7B3F2C"/>
<path d="M154.569 30.3845H153.708C153.641 30.0099 153.49 29.6578 153.262 29.352H154.569C154.844 29.352 155.067 29.129 155.067 28.854C155.067 28.579 154.844 28.356 154.569 28.356H149.534C149.259 28.356 149.036 28.5789 149.036 28.8539C149.036 29.1289 149.259 29.352 149.534 29.352H151.282C151.674 29.3523 152.043 29.5051 152.32 29.7824C152.492 29.9536 152.615 30.1597 152.685 30.3846H149.534C149.259 30.3846 149.036 30.6075 149.036 30.8825C149.036 31.1575 149.259 31.3805 149.534 31.3805H152.665C152.456 31.981 151.888 32.413 151.22 32.413H150.187C149.872 32.413 149.591 32.5891 149.454 32.8725C149.318 33.1559 149.354 33.4851 149.55 33.7315L152.59 37.5588C152.689 37.6825 152.834 37.747 152.98 37.747C153.089 37.747 153.198 37.7117 153.29 37.639C153.505 37.4679 153.541 37.1546 153.37 36.9393L150.566 33.4089H151.22C152.44 33.4089 153.461 32.5364 153.696 31.3804H154.569C154.844 31.3804 155.067 31.1575 155.067 30.8825C155.067 30.6074 154.844 30.3845 154.569 30.3845Z" fill="#F0E9E6"/>
<path d="M146.546 21.4052C146.546 22.1248 147.13 22.7081 147.849 22.7081H156.255C156.974 22.7081 157.558 22.1248 157.558 21.4052C157.558 20.6856 156.974 20.1023 156.255 20.1023H147.849C147.13 20.1023 146.546 20.6856 146.546 21.4052Z" fill="#655E67"/>
<path d="M156.254 20.1023H154.419C155.139 20.1023 155.722 20.6857 155.722 21.4052C155.722 22.1248 155.139 22.7081 154.419 22.7081H156.254C156.974 22.7081 157.557 22.1248 157.557 21.4052C157.557 20.6857 156.974 20.1023 156.254 20.1023Z" fill="#544F56"/>
<path d="M166.006 40.2568H157.311C156.422 40.2568 155.701 40.9776 155.701 41.8667C155.701 42.7557 156.422 43.4765 157.311 43.4765H166.006C166.895 43.4765 167.616 42.7557 167.616 41.8667C167.616 40.9776 166.895 40.2568 166.006 40.2568Z" fill="#F7E365"/>
<path d="M166.006 40.2568H164.16C165.049 40.2568 165.77 40.9776 165.77 41.8667C165.77 42.7558 165.049 43.4765 164.16 43.4765H166.006C166.895 43.4765 167.616 42.7557 167.616 41.8667C167.616 40.9776 166.895 40.2568 166.006 40.2568Z" fill="#ECC52E"/>
<path d="M166.006 37.0371H157.311C156.422 37.0371 155.701 37.7579 155.701 38.647C155.701 39.536 156.422 40.2568 157.311 40.2568H166.006C166.895 40.2568 167.616 39.536 167.616 38.647C167.616 37.7579 166.895 37.0371 166.006 37.0371Z" fill="#F7E365"/>
<path d="M166.006 39.0244H157.311C156.64 39.0244 156.066 38.6141 155.824 38.0308C155.745 38.2206 155.701 38.4287 155.701 38.647C155.701 39.5361 156.422 40.2568 157.311 40.2568H166.006C166.895 40.2568 167.616 39.5361 167.616 38.647C167.616 38.4287 167.572 38.2206 167.494 38.0308C167.252 38.6141 166.677 39.0244 166.006 39.0244Z" fill="#ECC52E"/>
<path d="M166.006 37.0371H164.16C165.049 37.0371 165.77 37.7579 165.77 38.647C165.77 39.536 165.049 40.2568 164.16 40.2568H166.006C166.895 40.2568 167.616 39.536 167.616 38.647C167.616 37.7579 166.895 37.0371 166.006 37.0371Z" fill="#ECC52E"/>
<path d="M172.784 41.0614L168.437 33.5313C167.992 32.7613 167.008 32.4974 166.238 32.942C165.468 33.3866 165.204 34.3712 165.649 35.1412L169.996 42.6714C170.441 43.4413 171.425 43.7052 172.195 43.2606C172.965 42.816 173.229 41.8314 172.784 41.0614Z" fill="#F7E365"/>
<path d="M172.784 41.0615L171.861 39.4624C172.306 40.2324 172.042 41.2169 171.272 41.6615C170.502 42.1061 169.517 41.8423 169.073 41.0723L169.996 42.6715C170.441 43.4414 171.425 43.7053 172.195 43.2607C172.965 42.8161 173.229 41.8315 172.784 41.0615Z" fill="#ECC52E"/>
</g>
<rect x="111" y="48" width="81" height="18" rx="9" fill="white"/>
<path d="M121.791 60V53H123.071V60H121.791ZM124.428 60V53H125.708L128.998 57.93V53H130.278V60H128.998L125.708 55.08V60H124.428ZM133.265 60V54.03H131.225V53H136.595V54.03H134.545V60H133.265ZM137.543 60V53H142.113V54.03H138.823V55.95H141.813V56.95H138.823V58.97H142.113V60H137.543ZM143.325 60V53H145.895C146.455 53 146.915 53.0967 147.275 53.29C147.641 53.4767 147.915 53.7333 148.095 54.06C148.275 54.38 148.365 54.7367 148.365 55.13C148.365 55.5567 148.251 55.9467 148.025 56.3C147.805 56.6533 147.458 56.91 146.985 57.07L148.435 60H146.965L145.665 57.24H144.605V60H143.325ZM144.605 56.3H145.815C146.241 56.3 146.555 56.1967 146.755 55.99C146.955 55.7833 147.055 55.51 147.055 55.17C147.055 54.8367 146.955 54.57 146.755 54.37C146.561 54.17 146.245 54.07 145.805 54.07H144.605V56.3ZM149.555 60V53H154.125V54.03H150.835V55.95H153.825V56.95H150.835V58.97H154.125V60H149.555ZM157.726 60.12C157.213 60.12 156.76 60.0333 156.366 59.86C155.973 59.68 155.663 59.4267 155.436 59.1C155.21 58.7667 155.093 58.3633 155.086 57.89H156.436C156.45 58.2167 156.566 58.4933 156.786 58.72C157.013 58.94 157.323 59.05 157.716 59.05C158.056 59.05 158.326 58.97 158.526 58.81C158.726 58.6433 158.826 58.4233 158.826 58.15C158.826 57.8633 158.736 57.64 158.556 57.48C158.383 57.32 158.15 57.19 157.856 57.09C157.563 56.99 157.25 56.8833 156.916 56.77C156.376 56.5833 155.963 56.3433 155.676 56.05C155.396 55.7567 155.256 55.3667 155.256 54.88C155.25 54.4667 155.346 54.1133 155.546 53.82C155.753 53.52 156.033 53.29 156.386 53.13C156.74 52.9633 157.146 52.88 157.606 52.88C158.073 52.88 158.483 52.9633 158.836 53.13C159.196 53.2967 159.476 53.53 159.676 53.83C159.883 54.13 159.993 54.4867 160.006 54.9H158.636C158.63 54.6533 158.533 54.4367 158.346 54.25C158.166 54.0567 157.913 53.96 157.586 53.96C157.306 53.9533 157.07 54.0233 156.876 54.17C156.69 54.31 156.596 54.5167 156.596 54.79C156.596 55.0233 156.67 55.21 156.816 55.35C156.963 55.4833 157.163 55.5967 157.416 55.69C157.67 55.7833 157.96 55.8833 158.286 55.99C158.633 56.11 158.95 56.25 159.236 56.41C159.523 56.57 159.753 56.7833 159.926 57.05C160.1 57.31 160.186 57.6467 160.186 58.06C160.186 58.4267 160.093 58.7667 159.906 59.08C159.72 59.3933 159.443 59.6467 159.076 59.84C158.71 60.0267 158.26 60.12 157.726 60.12ZM162.845 60V54.03H160.805V53H166.175V54.03H164.125V60H162.845ZM169.906 60L172.546 54.09H169.096V53H173.866V53.91L171.236 60H169.906ZM176.288 56.44C175.968 56.44 175.678 56.37 175.418 56.23C175.158 56.0833 174.951 55.8767 174.798 55.61C174.645 55.3433 174.568 55.0267 174.568 54.66C174.568 54.2933 174.645 53.9767 174.798 53.71C174.951 53.4433 175.158 53.24 175.418 53.1C175.678 52.9533 175.971 52.88 176.298 52.88C176.618 52.88 176.905 52.9533 177.158 53.1C177.418 53.24 177.625 53.4433 177.778 53.71C177.931 53.9767 178.008 54.2933 178.008 54.66C178.008 55.0267 177.931 55.3433 177.778 55.61C177.625 55.8767 177.418 56.0833 177.158 56.23C176.898 56.37 176.608 56.44 176.288 56.44ZM175.908 60L179.858 53H181.108L177.158 60H175.908ZM176.288 55.55C176.481 55.55 176.648 55.4767 176.788 55.33C176.928 55.1767 176.998 54.9533 176.998 54.66C176.998 54.3667 176.928 54.1433 176.788 53.99C176.655 53.8367 176.488 53.76 176.288 53.76C176.088 53.76 175.918 53.8367 175.778 53.99C175.645 54.1433 175.578 54.3667 175.578 54.66C175.578 54.9533 175.645 55.1767 175.778 55.33C175.918 55.4767 176.088 55.55 176.288 55.55ZM180.768 60.12C180.448 60.12 180.158 60.05 179.898 59.91C179.638 59.7633 179.431 59.5567 179.278 59.29C179.125 59.0233 179.048 58.7067 179.048 58.34C179.048 57.9733 179.125 57.66 179.278 57.4C179.431 57.1333 179.638 56.93 179.898 56.79C180.158 56.6433 180.451 56.57 180.778 56.57C181.098 56.57 181.385 56.6433 181.638 56.79C181.898 56.93 182.105 57.1333 182.258 57.4C182.411 57.66 182.488 57.9733 182.488 58.34C182.488 58.7067 182.411 59.0233 182.258 59.29C182.105 59.5567 181.898 59.7633 181.638 59.91C181.385 60.05 181.095 60.12 180.768 60.12ZM180.768 59.23C180.968 59.23 181.135 59.1567 181.268 59.01C181.408 58.8567 181.478 58.6333 181.478 58.34C181.478 58.0467 181.408 57.8233 181.268 57.67C181.135 57.5167 180.968 57.44 180.768 57.44C180.568 57.44 180.398 57.5167 180.258 57.67C180.125 57.8233 180.058 58.0467 180.058 58.34C180.058 58.6333 180.125 58.8567 180.258 59.01C180.398 59.1567 180.568 59.23 180.768 59.23Z" fill="black"/>
<defs>
<clipPath id="clip0">
<rect width="61" height="61" fill="white" transform="translate(227)"/>
</clipPath>
<clipPath id="clip1">
<rect width="61" height="61" fill="white" transform="translate(9)"/>
</clipPath>
<clipPath id="clip2">
<rect width="33" height="33" fill="white" transform="translate(140 12)"/>
</clipPath>
</defs>
</svg>
