<svg width="292" height="66" viewBox="0 0 292 66" fill="none" xmlns="http://www.w3.org/2000/svg">
<path d="M39 35C39 18.4315 52.4315 5 69 5H289.084C290.694 5 292 6.30573 292 7.91643V62.0836C292 63.6943 290.694 65 289.084 65H69C52.4315 65 39 51.5685 39 35Z" fill="white"/>
<path d="M81.662 28.168C80.962 28.168 80.3273 28.0327 79.758 27.762C79.198 27.482 78.75 27.0573 78.414 26.488C78.0873 25.9187 77.924 25.1953 77.924 24.318V18.2H79.408V24.332C79.408 25.1907 79.6133 25.8207 80.024 26.222C80.4347 26.6233 80.99 26.824 81.69 26.824C82.3807 26.824 82.9313 26.6233 83.342 26.222C83.7527 25.8207 83.958 25.1907 83.958 24.332V18.2H85.442V24.318C85.442 25.1953 85.2693 25.9187 84.924 26.488C84.588 27.0573 84.1307 27.482 83.552 27.762C82.9827 28.0327 82.3527 28.168 81.662 28.168ZM87.2896 31.08V21.056H88.6196L88.7736 22.134C88.9976 21.8073 89.3056 21.518 89.6976 21.266C90.0896 21.014 90.5936 20.888 91.2096 20.888C91.8816 20.888 92.4742 21.0467 92.9876 21.364C93.5009 21.6813 93.9022 22.1153 94.1916 22.666C94.4902 23.2167 94.6396 23.842 94.6396 24.542C94.6396 25.242 94.4902 25.8673 94.1916 26.418C93.9022 26.9593 93.5009 27.3887 92.9876 27.706C92.4742 28.014 91.8769 28.168 91.1956 28.168C90.6542 28.168 90.1736 28.0607 89.7536 27.846C89.3429 27.6313 89.0162 27.328 88.7736 26.936V31.08H87.2896ZM90.9436 26.88C91.5782 26.88 92.1009 26.6653 92.5116 26.236C92.9222 25.7973 93.1276 25.228 93.1276 24.528C93.1276 24.0707 93.0342 23.6647 92.8476 23.31C92.6609 22.9553 92.4042 22.68 92.0776 22.484C91.7509 22.2787 91.3729 22.176 90.9436 22.176C90.3089 22.176 89.7862 22.3953 89.3756 22.834C88.9742 23.2727 88.7736 23.8373 88.7736 24.528C88.7736 25.228 88.9742 25.7973 89.3756 26.236C89.7862 26.6653 90.3089 26.88 90.9436 26.88ZM99.0166 28.168C98.1393 28.168 97.416 27.9533 96.8466 27.524C96.2773 27.0947 95.9506 26.5253 95.8666 25.816H97.3646C97.4393 26.1333 97.6166 26.4087 97.8966 26.642C98.1766 26.866 98.5453 26.978 99.0026 26.978C99.4506 26.978 99.7773 26.8847 99.9826 26.698C100.188 26.5113 100.291 26.2967 100.291 26.054C100.291 25.6993 100.146 25.4613 99.8566 25.34C99.5766 25.2093 99.1846 25.0927 98.6806 24.99C98.2886 24.906 97.8966 24.794 97.5046 24.654C97.122 24.514 96.8 24.318 96.5386 24.066C96.2866 23.8047 96.1606 23.4547 96.1606 23.016C96.1606 22.4093 96.394 21.9053 96.8606 21.504C97.3273 21.0933 97.9806 20.888 98.8206 20.888C99.5953 20.888 100.221 21.0747 100.697 21.448C101.182 21.8213 101.467 22.3487 101.551 23.03H100.123C100.076 22.7313 99.936 22.498 99.7026 22.33C99.4786 22.162 99.1753 22.078 98.7926 22.078C98.4193 22.078 98.13 22.1573 97.9246 22.316C97.7193 22.4653 97.6166 22.6613 97.6166 22.904C97.6166 23.1467 97.7566 23.338 98.0366 23.478C98.326 23.618 98.704 23.744 99.1706 23.856C99.6373 23.9587 100.067 24.08 100.459 24.22C100.86 24.3507 101.182 24.5467 101.425 24.808C101.667 25.0693 101.789 25.452 101.789 25.956C101.798 26.5907 101.551 27.118 101.047 27.538C100.552 27.958 99.8753 28.168 99.0166 28.168ZM104.249 19.74C103.969 19.74 103.735 19.656 103.549 19.488C103.371 19.3107 103.283 19.0913 103.283 18.83C103.283 18.5687 103.371 18.354 103.549 18.186C103.735 18.0087 103.969 17.92 104.249 17.92C104.529 17.92 104.757 18.0087 104.935 18.186C105.121 18.354 105.215 18.5687 105.215 18.83C105.215 19.0913 105.121 19.3107 104.935 19.488C104.757 19.656 104.529 19.74 104.249 19.74ZM103.507 28V21.056H104.991V28H103.507ZM110.114 28.168C109.442 28.168 108.849 28.0093 108.336 27.692C107.822 27.3747 107.421 26.9407 107.132 26.39C106.842 25.8393 106.698 25.214 106.698 24.514C106.698 23.814 106.842 23.1933 107.132 22.652C107.421 22.1013 107.822 21.672 108.336 21.364C108.858 21.0467 109.456 20.888 110.128 20.888C110.678 20.888 111.159 20.9953 111.57 21.21C111.99 21.4247 112.316 21.728 112.55 22.12V17.92H114.034V28H112.704L112.55 26.922C112.326 27.2487 112.018 27.538 111.626 27.79C111.234 28.042 110.73 28.168 110.114 28.168ZM110.38 26.88C111.014 26.88 111.532 26.6607 111.934 26.222C112.344 25.7833 112.55 25.2187 112.55 24.528C112.55 23.828 112.344 23.2633 111.934 22.834C111.532 22.3953 111.014 22.176 110.38 22.176C109.745 22.176 109.222 22.3953 108.812 22.834C108.401 23.2633 108.196 23.828 108.196 24.528C108.196 24.9853 108.289 25.3913 108.476 25.746C108.662 26.1007 108.919 26.3807 109.246 26.586C109.582 26.782 109.96 26.88 110.38 26.88ZM119.153 28.168C118.471 28.168 117.865 28.0187 117.333 27.72C116.81 27.412 116.399 26.9873 116.101 26.446C115.802 25.9047 115.653 25.2747 115.653 24.556C115.653 23.828 115.797 23.1887 116.087 22.638C116.385 22.0873 116.796 21.658 117.319 21.35C117.851 21.042 118.467 20.888 119.167 20.888C119.848 20.888 120.441 21.042 120.945 21.35C121.449 21.6487 121.841 22.05 122.121 22.554C122.401 23.058 122.541 23.6133 122.541 24.22C122.541 24.3133 122.536 24.416 122.527 24.528C122.527 24.6307 122.522 24.7473 122.513 24.878H117.109C117.155 25.55 117.375 26.0633 117.767 26.418C118.168 26.7633 118.63 26.936 119.153 26.936C119.573 26.936 119.923 26.8427 120.203 26.656C120.492 26.46 120.707 26.1987 120.847 25.872H122.331C122.144 26.5253 121.771 27.0713 121.211 27.51C120.66 27.9487 119.974 28.168 119.153 28.168ZM119.153 22.106C118.658 22.106 118.219 22.2553 117.837 22.554C117.454 22.8433 117.221 23.282 117.137 23.87H121.057C121.029 23.3287 120.837 22.8993 120.483 22.582C120.128 22.2647 119.685 22.106 119.153 22.106ZM130.898 28.168C130.217 28.168 129.605 28.014 129.064 27.706C128.532 27.398 128.112 26.9733 127.804 26.432C127.505 25.8813 127.356 25.2467 127.356 24.528C127.356 23.8093 127.505 23.1793 127.804 22.638C128.112 22.0873 128.532 21.658 129.064 21.35C129.605 21.042 130.217 20.888 130.898 20.888C131.757 20.888 132.475 21.112 133.054 21.56C133.642 22.008 134.02 22.6147 134.188 23.38H132.634C132.541 22.9973 132.335 22.6987 132.018 22.484C131.701 22.2693 131.327 22.162 130.898 22.162C130.534 22.162 130.198 22.2553 129.89 22.442C129.582 22.6193 129.335 22.8853 129.148 23.24C128.961 23.5853 128.868 24.0147 128.868 24.528C128.868 25.0413 128.961 25.4753 129.148 25.83C129.335 26.1753 129.582 26.4413 129.89 26.628C130.198 26.8147 130.534 26.908 130.898 26.908C131.327 26.908 131.701 26.8007 132.018 26.586C132.335 26.3713 132.541 26.068 132.634 25.676H134.188C134.029 26.4227 133.656 27.0247 133.068 27.482C132.48 27.9393 131.757 28.168 130.898 28.168ZM138.149 28.168C137.561 28.168 137.076 28.07 136.693 27.874C136.311 27.678 136.026 27.4213 135.839 27.104C135.653 26.7773 135.559 26.4227 135.559 26.04C135.559 25.368 135.821 24.836 136.343 24.444C136.866 24.052 137.613 23.856 138.583 23.856H140.403V23.73C140.403 23.1887 140.254 22.7827 139.955 22.512C139.666 22.2413 139.288 22.106 138.821 22.106C138.411 22.106 138.051 22.2087 137.743 22.414C137.445 22.61 137.263 22.904 137.197 23.296H135.713C135.76 22.792 135.928 22.3627 136.217 22.008C136.516 21.644 136.889 21.3687 137.337 21.182C137.795 20.986 138.294 20.888 138.835 20.888C139.806 20.888 140.557 21.1447 141.089 21.658C141.621 22.162 141.887 22.8527 141.887 23.73V28H140.599L140.473 26.81C140.277 27.1927 139.993 27.5147 139.619 27.776C139.246 28.0373 138.756 28.168 138.149 28.168ZM138.443 26.964C138.845 26.964 139.181 26.8707 139.451 26.684C139.731 26.488 139.946 26.2313 140.095 25.914C140.254 25.5967 140.352 25.2467 140.389 24.864H138.737C138.149 24.864 137.729 24.9667 137.477 25.172C137.235 25.3773 137.113 25.634 137.113 25.942C137.113 26.2593 137.23 26.5113 137.463 26.698C137.706 26.8753 138.033 26.964 138.443 26.964ZM143.618 31.08V21.056H144.948L145.102 22.134C145.326 21.8073 145.634 21.518 146.026 21.266C146.418 21.014 146.922 20.888 147.538 20.888C148.21 20.888 148.802 21.0467 149.316 21.364C149.829 21.6813 150.23 22.1153 150.52 22.666C150.818 23.2167 150.968 23.842 150.968 24.542C150.968 25.242 150.818 25.8673 150.52 26.418C150.23 26.9593 149.829 27.3887 149.316 27.706C148.802 28.014 148.205 28.168 147.524 28.168C146.982 28.168 146.502 28.0607 146.082 27.846C145.671 27.6313 145.344 27.328 145.102 26.936V31.08H143.618ZM147.272 26.88C147.906 26.88 148.429 26.6653 148.84 26.236C149.25 25.7973 149.456 25.228 149.456 24.528C149.456 24.0707 149.362 23.6647 149.176 23.31C148.989 22.9553 148.732 22.68 148.406 22.484C148.079 22.2787 147.701 22.176 147.272 22.176C146.637 22.176 146.114 22.3953 145.704 22.834C145.302 23.2727 145.102 23.8373 145.102 24.528C145.102 25.228 145.302 25.7973 145.704 26.236C146.114 26.6653 146.637 26.88 147.272 26.88ZM155.211 28C154.53 28 153.989 27.8367 153.587 27.51C153.186 27.174 152.985 26.5813 152.985 25.732V22.302H151.795V21.056H152.985L153.167 19.292H154.469V21.056H156.429V22.302H154.469V25.732C154.469 26.1147 154.549 26.3807 154.707 26.53C154.875 26.67 155.16 26.74 155.561 26.74H156.359V28H155.211ZM160.521 28.168C159.681 28.168 159.019 27.9067 158.533 27.384C158.057 26.8613 157.819 26.082 157.819 25.046V21.056H159.303V24.892C159.303 26.236 159.854 26.908 160.955 26.908C161.506 26.908 161.959 26.712 162.313 26.32C162.668 25.928 162.845 25.368 162.845 24.64V21.056H164.329V28H163.013L162.901 26.782C162.687 27.2113 162.369 27.552 161.949 27.804C161.539 28.0467 161.063 28.168 160.521 28.168ZM166.217 28V21.056H167.547L167.673 22.372C167.916 21.9147 168.252 21.5553 168.681 21.294C169.12 21.0233 169.647 20.888 170.263 20.888V22.442H169.857C169.447 22.442 169.078 22.512 168.751 22.652C168.434 22.7827 168.177 23.0113 167.981 23.338C167.795 23.6553 167.701 24.0987 167.701 24.668V28H166.217ZM174.592 28.168C173.911 28.168 173.304 28.0187 172.772 27.72C172.25 27.412 171.839 26.9873 171.54 26.446C171.242 25.9047 171.092 25.2747 171.092 24.556C171.092 23.828 171.237 23.1887 171.526 22.638C171.825 22.0873 172.236 21.658 172.758 21.35C173.29 21.042 173.906 20.888 174.606 20.888C175.288 20.888 175.88 21.042 176.384 21.35C176.888 21.6487 177.28 22.05 177.56 22.554C177.84 23.058 177.98 23.6133 177.98 24.22C177.98 24.3133 177.976 24.416 177.966 24.528C177.966 24.6307 177.962 24.7473 177.952 24.878H172.548C172.595 25.55 172.814 26.0633 173.206 26.418C173.608 26.7633 174.07 26.936 174.592 26.936C175.012 26.936 175.362 26.8427 175.642 26.656C175.932 26.46 176.146 26.1987 176.286 25.872H177.77C177.584 26.5253 177.21 27.0713 176.65 27.51C176.1 27.9487 175.414 28.168 174.592 28.168ZM174.592 22.106C174.098 22.106 173.659 22.2553 173.276 22.554C172.894 22.8433 172.66 23.282 172.576 23.87H176.496C176.468 23.3287 176.277 22.8993 175.922 22.582C175.568 22.2647 175.124 22.106 174.592 22.106ZM183.047 28V21.056H184.377L184.503 22.372C184.746 21.9147 185.082 21.5553 185.511 21.294C185.95 21.0233 186.477 20.888 187.093 20.888V22.442H186.687C186.277 22.442 185.908 22.512 185.581 22.652C185.264 22.7827 185.007 23.0113 184.811 23.338C184.625 23.6553 184.531 24.0987 184.531 24.668V28H183.047ZM190.718 28.168C190.13 28.168 189.644 28.07 189.262 27.874C188.879 27.678 188.594 27.4213 188.408 27.104C188.221 26.7773 188.128 26.4227 188.128 26.04C188.128 25.368 188.389 24.836 188.912 24.444C189.434 24.052 190.181 23.856 191.152 23.856H192.972V23.73C192.972 23.1887 192.822 22.7827 192.524 22.512C192.234 22.2413 191.856 22.106 191.39 22.106C190.979 22.106 190.62 22.2087 190.312 22.414C190.013 22.61 189.831 22.904 189.766 23.296H188.282C188.328 22.792 188.496 22.3627 188.786 22.008C189.084 21.644 189.458 21.3687 189.906 21.182C190.363 20.986 190.862 20.888 191.404 20.888C192.374 20.888 193.126 21.1447 193.658 21.658C194.19 22.162 194.456 22.8527 194.456 23.73V28H193.168L193.042 26.81C192.846 27.1927 192.561 27.5147 192.188 27.776C191.814 28.0373 191.324 28.168 190.718 28.168ZM191.012 26.964C191.413 26.964 191.749 26.8707 192.02 26.684C192.3 26.488 192.514 26.2313 192.664 25.914C192.822 25.5967 192.92 25.2467 192.958 24.864H191.306C190.718 24.864 190.298 24.9667 190.046 25.172C189.803 25.3773 189.682 25.634 189.682 25.942C189.682 26.2593 189.798 26.5113 190.032 26.698C190.274 26.8753 190.601 26.964 191.012 26.964ZM198.961 28C198.28 28 197.739 27.8367 197.337 27.51C196.936 27.174 196.735 26.5813 196.735 25.732V22.302H195.545V21.056H196.735L196.917 19.292H198.219V21.056H200.179V22.302H198.219V25.732C198.219 26.1147 198.299 26.3807 198.457 26.53C198.625 26.67 198.91 26.74 199.311 26.74H200.109V28H198.961ZM202.549 19.74C202.269 19.74 202.036 19.656 201.849 19.488C201.672 19.3107 201.583 19.0913 201.583 18.83C201.583 18.5687 201.672 18.354 201.849 18.186C202.036 18.0087 202.269 17.92 202.549 17.92C202.829 17.92 203.058 18.0087 203.235 18.186C203.422 18.354 203.515 18.5687 203.515 18.83C203.515 19.0913 203.422 19.3107 203.235 19.488C203.058 19.656 202.829 19.74 202.549 19.74ZM201.807 28V21.056H203.291V28H201.807ZM208.499 28.168C207.836 28.168 207.239 28.0187 206.707 27.72C206.184 27.412 205.769 26.9873 205.461 26.446C205.153 25.8953 204.999 25.256 204.999 24.528C204.999 23.8 205.153 23.1653 205.461 22.624C205.778 22.0733 206.203 21.6487 206.735 21.35C207.267 21.042 207.859 20.888 208.513 20.888C209.175 20.888 209.768 21.042 210.291 21.35C210.823 21.6487 211.243 22.0733 211.551 22.624C211.868 23.1653 212.026 23.8 212.026 24.528C212.026 25.256 211.868 25.8953 211.551 26.446C211.243 26.9873 210.823 27.412 210.291 27.72C209.759 28.0187 209.161 28.168 208.499 28.168ZM208.499 26.894C208.853 26.894 209.18 26.8053 209.479 26.628C209.787 26.4507 210.034 26.1893 210.221 25.844C210.407 25.4893 210.501 25.0507 210.501 24.528C210.501 24.0053 210.407 23.5713 210.221 23.226C210.043 22.8713 209.801 22.6053 209.493 22.428C209.194 22.2507 208.867 22.162 208.513 22.162C208.158 22.162 207.827 22.2507 207.519 22.428C207.22 22.6053 206.977 22.8713 206.791 23.226C206.604 23.5713 206.511 24.0053 206.511 24.528C206.511 25.0507 206.604 25.4893 206.791 25.844C206.977 26.1893 207.22 26.4507 207.519 26.628C207.817 26.8053 208.144 26.894 208.499 26.894ZM214.219 28.084C213.939 28.084 213.706 27.9953 213.519 27.818C213.342 27.6313 213.253 27.412 213.253 27.16C213.253 26.8987 213.342 26.6793 213.519 26.502C213.706 26.3153 213.939 26.222 214.219 26.222C214.499 26.222 214.728 26.3153 214.905 26.502C215.083 26.6793 215.171 26.8987 215.171 27.16C215.171 27.412 215.083 27.6313 214.905 27.818C214.728 27.9953 214.499 28.084 214.219 28.084ZM214.219 22.75C213.939 22.75 213.706 22.6613 213.519 22.484C213.342 22.2973 213.253 22.078 213.253 21.826C213.253 21.5647 213.342 21.3453 213.519 21.168C213.706 20.9813 213.939 20.888 214.219 20.888C214.499 20.888 214.728 20.9813 214.905 21.168C215.083 21.3453 215.171 21.5647 215.171 21.826C215.171 22.078 215.083 22.2973 214.905 22.484C214.728 22.6613 214.499 22.75 214.219 22.75Z" fill="#4D4D4D"/>
<path d="M223.595 28.168C222.914 28.168 222.34 28.0373 221.873 27.776C221.406 27.5053 221.042 27.1553 220.781 26.726C220.52 26.2967 220.366 25.8347 220.319 25.34H221.985C222.06 25.7693 222.237 26.1007 222.517 26.334C222.806 26.5673 223.17 26.684 223.609 26.684C224.234 26.684 224.738 26.3993 225.121 25.83C225.504 25.2513 225.709 24.374 225.737 23.198C225.513 23.5807 225.172 23.898 224.715 24.15C224.267 24.402 223.772 24.528 223.231 24.528C222.69 24.528 222.181 24.3973 221.705 24.136C221.229 23.8747 220.842 23.506 220.543 23.03C220.244 22.554 220.095 21.994 220.095 21.35C220.095 20.762 220.24 20.216 220.529 19.712C220.818 19.208 221.22 18.802 221.733 18.494C222.246 18.186 222.848 18.032 223.539 18.032C224.276 18.032 224.897 18.1673 225.401 18.438C225.905 18.7087 226.306 19.0727 226.605 19.53C226.913 19.9873 227.132 20.496 227.263 21.056C227.403 21.616 227.473 22.19 227.473 22.778C227.473 23.87 227.319 24.822 227.011 25.634C226.712 26.4367 226.269 27.062 225.681 27.51C225.102 27.9487 224.407 28.168 223.595 28.168ZM223.651 23.016C223.996 23.016 224.309 22.9413 224.589 22.792C224.869 22.6333 225.088 22.428 225.247 22.176C225.406 21.9147 225.485 21.6253 225.485 21.308C225.485 20.804 225.308 20.3887 224.953 20.062C224.608 19.7353 224.169 19.572 223.637 19.572C223.114 19.572 222.68 19.7353 222.335 20.062C221.99 20.3793 221.817 20.7853 221.817 21.28C221.817 21.8027 221.99 22.2227 222.335 22.54C222.68 22.8573 223.119 23.016 223.651 23.016ZM232.468 28.168C231.787 28.168 231.213 28.0373 230.746 27.776C230.279 27.5053 229.915 27.1553 229.654 26.726C229.393 26.2967 229.239 25.8347 229.192 25.34H230.858C230.933 25.7693 231.11 26.1007 231.39 26.334C231.679 26.5673 232.043 26.684 232.482 26.684C233.107 26.684 233.611 26.3993 233.994 25.83C234.377 25.2513 234.582 24.374 234.61 23.198C234.386 23.5807 234.045 23.898 233.588 24.15C233.14 24.402 232.645 24.528 232.104 24.528C231.563 24.528 231.054 24.3973 230.578 24.136C230.102 23.8747 229.715 23.506 229.416 23.03C229.117 22.554 228.968 21.994 228.968 21.35C228.968 20.762 229.113 20.216 229.402 19.712C229.691 19.208 230.093 18.802 230.606 18.494C231.119 18.186 231.721 18.032 232.412 18.032C233.149 18.032 233.77 18.1673 234.274 18.438C234.778 18.7087 235.179 19.0727 235.478 19.53C235.786 19.9873 236.005 20.496 236.136 21.056C236.276 21.616 236.346 22.19 236.346 22.778C236.346 23.87 236.192 24.822 235.884 25.634C235.585 26.4367 235.142 27.062 234.554 27.51C233.975 27.9487 233.28 28.168 232.468 28.168ZM232.524 23.016C232.869 23.016 233.182 22.9413 233.462 22.792C233.742 22.6333 233.961 22.428 234.12 22.176C234.279 21.9147 234.358 21.6253 234.358 21.308C234.358 20.804 234.181 20.3887 233.826 20.062C233.481 19.7353 233.042 19.572 232.51 19.572C231.987 19.572 231.553 19.7353 231.208 20.062C230.863 20.3793 230.69 20.7853 230.69 21.28C230.69 21.8027 230.863 22.2227 231.208 22.54C231.553 22.8573 231.992 23.016 232.524 23.016Z" fill="#009377"/>
<path d="M77.994 52V42.2H81.172C82.32 42.2 83.2627 42.4007 84 42.802C84.7467 43.2033 85.2973 43.7727 85.652 44.51C86.016 45.238 86.198 46.106 86.198 47.114C86.198 48.1127 86.016 48.9807 85.652 49.718C85.2973 50.446 84.7467 51.0107 84 51.412C83.2627 51.804 82.32 52 81.172 52H77.994ZM79.478 50.74H81.116C82.0027 50.74 82.7027 50.5953 83.216 50.306C83.7387 50.0167 84.112 49.6013 84.336 49.06C84.5693 48.5187 84.686 47.87 84.686 47.114C84.686 46.358 84.5693 45.7047 84.336 45.154C84.112 44.6033 83.7387 44.1833 83.216 43.894C82.7027 43.5953 82.0027 43.446 81.116 43.446H79.478V50.74ZM91.0298 52.168C90.3671 52.168 89.7698 52.0187 89.2378 51.72C88.7151 51.412 88.2998 50.9873 87.9918 50.446C87.6838 49.8953 87.5298 49.256 87.5298 48.528C87.5298 47.8 87.6838 47.1653 87.9918 46.624C88.3091 46.0733 88.7338 45.6487 89.2658 45.35C89.7978 45.042 90.3904 44.888 91.0438 44.888C91.7064 44.888 92.2991 45.042 92.8218 45.35C93.3538 45.6487 93.7738 46.0733 94.0818 46.624C94.3991 47.1653 94.5577 47.8 94.5577 48.528C94.5577 49.256 94.3991 49.8953 94.0818 50.446C93.7738 50.9873 93.3538 51.412 92.8218 51.72C92.2898 52.0187 91.6924 52.168 91.0298 52.168ZM91.0298 50.894C91.3844 50.894 91.7111 50.8053 92.0098 50.628C92.3178 50.4507 92.5651 50.1893 92.7518 49.844C92.9384 49.4893 93.0318 49.0507 93.0318 48.528C93.0318 48.0053 92.9384 47.5713 92.7518 47.226C92.5744 46.8713 92.3318 46.6053 92.0238 46.428C91.7251 46.2507 91.3984 46.162 91.0438 46.162C90.6891 46.162 90.3578 46.2507 90.0498 46.428C89.7511 46.6053 89.5084 46.8713 89.3218 47.226C89.1351 47.5713 89.0418 48.0053 89.0418 48.528C89.0418 49.0507 89.1351 49.4893 89.3218 49.844C89.5084 50.1893 89.7511 50.4507 90.0498 50.628C90.3484 50.8053 90.6751 50.894 91.0298 50.894ZM97.2888 52L95.2448 45.056H96.7288L98.0728 50.292L99.5848 45.056H101.237L102.749 50.292L104.093 45.056H105.577L103.533 52H102.007L100.411 46.54L98.8148 52H97.2888ZM106.799 52V45.056H108.115L108.227 46.274C108.442 45.8447 108.755 45.5087 109.165 45.266C109.585 45.014 110.066 44.888 110.607 44.888C111.447 44.888 112.105 45.1493 112.581 45.672C113.067 46.1947 113.309 46.974 113.309 48.01V52H111.839V48.164C111.839 46.82 111.289 46.148 110.187 46.148C109.637 46.148 109.179 46.344 108.815 46.736C108.461 47.128 108.283 47.688 108.283 48.416V52H106.799ZM117.829 52.168C116.952 52.168 116.228 51.9533 115.659 51.524C115.09 51.0947 114.763 50.5253 114.679 49.816H116.177C116.252 50.1333 116.429 50.4087 116.709 50.642C116.989 50.866 117.358 50.978 117.815 50.978C118.263 50.978 118.59 50.8847 118.795 50.698C119 50.5113 119.103 50.2967 119.103 50.054C119.103 49.6993 118.958 49.4613 118.669 49.34C118.389 49.2093 117.997 49.0927 117.493 48.99C117.101 48.906 116.709 48.794 116.317 48.654C115.934 48.514 115.612 48.318 115.351 48.066C115.099 47.8047 114.973 47.4547 114.973 47.016C114.973 46.4093 115.206 45.9053 115.673 45.504C116.14 45.0933 116.793 44.888 117.633 44.888C118.408 44.888 119.033 45.0747 119.509 45.448C119.994 45.8213 120.279 46.3487 120.363 47.03H118.935C118.888 46.7313 118.748 46.498 118.515 46.33C118.291 46.162 117.988 46.078 117.605 46.078C117.232 46.078 116.942 46.1573 116.737 46.316C116.532 46.4653 116.429 46.6613 116.429 46.904C116.429 47.1467 116.569 47.338 116.849 47.478C117.138 47.618 117.516 47.744 117.983 47.856C118.45 47.9587 118.879 48.08 119.271 48.22C119.672 48.3507 119.994 48.5467 120.237 48.808C120.48 49.0693 120.601 49.452 120.601 49.956C120.61 50.5907 120.363 51.118 119.859 51.538C119.364 51.958 118.688 52.168 117.829 52.168ZM123.061 43.74C122.781 43.74 122.548 43.656 122.361 43.488C122.184 43.3107 122.095 43.0913 122.095 42.83C122.095 42.5687 122.184 42.354 122.361 42.186C122.548 42.0087 122.781 41.92 123.061 41.92C123.341 41.92 123.57 42.0087 123.747 42.186C123.934 42.354 124.027 42.5687 124.027 42.83C124.027 43.0913 123.934 43.3107 123.747 43.488C123.57 43.656 123.341 43.74 123.061 43.74ZM122.319 52V45.056H123.803V52H122.319ZM128.926 52.168C128.254 52.168 127.662 52.0093 127.148 51.692C126.635 51.3747 126.234 50.9407 125.944 50.39C125.655 49.8393 125.51 49.214 125.51 48.514C125.51 47.814 125.655 47.1933 125.944 46.652C126.234 46.1013 126.635 45.672 127.148 45.364C127.671 45.0467 128.268 44.888 128.94 44.888C129.491 44.888 129.972 44.9953 130.382 45.21C130.802 45.4247 131.129 45.728 131.362 46.12V41.92H132.846V52H131.516L131.362 50.922C131.138 51.2487 130.83 51.538 130.438 51.79C130.046 52.042 129.542 52.168 128.926 52.168ZM129.192 50.88C129.827 50.88 130.345 50.6607 130.746 50.222C131.157 49.7833 131.362 49.2187 131.362 48.528C131.362 47.828 131.157 47.2633 130.746 46.834C130.345 46.3953 129.827 46.176 129.192 46.176C128.558 46.176 128.035 46.3953 127.624 46.834C127.214 47.2633 127.008 47.828 127.008 48.528C127.008 48.9853 127.102 49.3913 127.288 49.746C127.475 50.1007 127.732 50.3807 128.058 50.586C128.394 50.782 128.772 50.88 129.192 50.88ZM137.965 52.168C137.284 52.168 136.677 52.0187 136.145 51.72C135.623 51.412 135.212 50.9873 134.913 50.446C134.615 49.9047 134.465 49.2747 134.465 48.556C134.465 47.828 134.61 47.1887 134.899 46.638C135.198 46.0873 135.609 45.658 136.131 45.35C136.663 45.042 137.279 44.888 137.979 44.888C138.661 44.888 139.253 45.042 139.757 45.35C140.261 45.6487 140.653 46.05 140.933 46.554C141.213 47.058 141.353 47.6133 141.353 48.22C141.353 48.3133 141.349 48.416 141.339 48.528C141.339 48.6307 141.335 48.7473 141.325 48.878H135.921C135.968 49.55 136.187 50.0633 136.579 50.418C136.981 50.7633 137.443 50.936 137.965 50.936C138.385 50.936 138.735 50.8427 139.015 50.656C139.305 50.46 139.519 50.1987 139.659 49.872H141.143C140.957 50.5253 140.583 51.0713 140.023 51.51C139.473 51.9487 138.787 52.168 137.965 52.168ZM137.965 46.106C137.471 46.106 137.032 46.2553 136.649 46.554C136.267 46.8433 136.033 47.282 135.949 47.87H139.869C139.841 47.3287 139.65 46.8993 139.295 46.582C138.941 46.2647 138.497 46.106 137.965 46.106ZM149.71 52.168C149.029 52.168 148.418 52.014 147.876 51.706C147.344 51.398 146.924 50.9733 146.616 50.432C146.318 49.8813 146.168 49.2467 146.168 48.528C146.168 47.8093 146.318 47.1793 146.616 46.638C146.924 46.0873 147.344 45.658 147.876 45.35C148.418 45.042 149.029 44.888 149.71 44.888C150.569 44.888 151.288 45.112 151.866 45.56C152.454 46.008 152.832 46.6147 153 47.38H151.446C151.353 46.9973 151.148 46.6987 150.83 46.484C150.513 46.2693 150.14 46.162 149.71 46.162C149.346 46.162 149.01 46.2553 148.702 46.442C148.394 46.6193 148.147 46.8853 147.96 47.24C147.774 47.5853 147.68 48.0147 147.68 48.528C147.68 49.0413 147.774 49.4753 147.96 49.83C148.147 50.1753 148.394 50.4413 148.702 50.628C149.01 50.8147 149.346 50.908 149.71 50.908C150.14 50.908 150.513 50.8007 150.83 50.586C151.148 50.3713 151.353 50.068 151.446 49.676H153C152.842 50.4227 152.468 51.0247 151.88 51.482C151.292 51.9393 150.569 52.168 149.71 52.168ZM156.962 52.168C156.374 52.168 155.889 52.07 155.506 51.874C155.123 51.678 154.839 51.4213 154.652 51.104C154.465 50.7773 154.372 50.4227 154.372 50.04C154.372 49.368 154.633 48.836 155.156 48.444C155.679 48.052 156.425 47.856 157.396 47.856H159.216V47.73C159.216 47.1887 159.067 46.7827 158.768 46.512C158.479 46.2413 158.101 46.106 157.634 46.106C157.223 46.106 156.864 46.2087 156.556 46.414C156.257 46.61 156.075 46.904 156.01 47.296H154.526C154.573 46.792 154.741 46.3627 155.03 46.008C155.329 45.644 155.702 45.3687 156.15 45.182C156.607 44.986 157.107 44.888 157.648 44.888C158.619 44.888 159.37 45.1447 159.902 45.658C160.434 46.162 160.7 46.8527 160.7 47.73V52H159.412L159.286 50.81C159.09 51.1927 158.805 51.5147 158.432 51.776C158.059 52.0373 157.569 52.168 156.962 52.168ZM157.256 50.964C157.657 50.964 157.993 50.8707 158.264 50.684C158.544 50.488 158.759 50.2313 158.908 49.914C159.067 49.5967 159.165 49.2467 159.202 48.864H157.55C156.962 48.864 156.542 48.9667 156.29 49.172C156.047 49.3773 155.926 49.634 155.926 49.942C155.926 50.2593 156.043 50.5113 156.276 50.698C156.519 50.8753 156.845 50.964 157.256 50.964ZM162.43 55.08V45.056H163.76L163.914 46.134C164.138 45.8073 164.446 45.518 164.838 45.266C165.23 45.014 165.734 44.888 166.35 44.888C167.022 44.888 167.615 45.0467 168.128 45.364C168.642 45.6813 169.043 46.1153 169.332 46.666C169.631 47.2167 169.78 47.842 169.78 48.542C169.78 49.242 169.631 49.8673 169.332 50.418C169.043 50.9593 168.642 51.3887 168.128 51.706C167.615 52.014 167.018 52.168 166.336 52.168C165.795 52.168 165.314 52.0607 164.894 51.846C164.484 51.6313 164.157 51.328 163.914 50.936V55.08H162.43ZM166.084 50.88C166.719 50.88 167.242 50.6653 167.652 50.236C168.063 49.7973 168.268 49.228 168.268 48.528C168.268 48.0707 168.175 47.6647 167.988 47.31C167.802 46.9553 167.545 46.68 167.218 46.484C166.892 46.2787 166.514 46.176 166.084 46.176C165.45 46.176 164.927 46.3953 164.516 46.834C164.115 47.2727 163.914 47.8373 163.914 48.528C163.914 49.228 164.115 49.7973 164.516 50.236C164.927 50.6653 165.45 50.88 166.084 50.88ZM174.024 52C173.342 52 172.801 51.8367 172.4 51.51C171.998 51.174 171.798 50.5813 171.798 49.732V46.302H170.608V45.056H171.798L171.98 43.292H173.282V45.056H175.242V46.302H173.282V49.732C173.282 50.1147 173.361 50.3807 173.52 50.53C173.688 50.67 173.972 50.74 174.374 50.74H175.172V52H174.024ZM179.334 52.168C178.494 52.168 177.831 51.9067 177.346 51.384C176.87 50.8613 176.632 50.082 176.632 49.046V45.056H178.116V48.892C178.116 50.236 178.667 50.908 179.768 50.908C180.319 50.908 180.771 50.712 181.126 50.32C181.481 49.928 181.658 49.368 181.658 48.64V45.056H183.142V52H181.826L181.714 50.782C181.499 51.2113 181.182 51.552 180.762 51.804C180.351 52.0467 179.875 52.168 179.334 52.168ZM185.03 52V45.056H186.36L186.486 46.372C186.728 45.9147 187.064 45.5553 187.494 45.294C187.932 45.0233 188.46 44.888 189.076 44.888V46.442H188.67C188.259 46.442 187.89 46.512 187.564 46.652C187.246 46.7827 186.99 47.0113 186.794 47.338C186.607 47.6553 186.514 48.0987 186.514 48.668V52H185.03ZM193.405 52.168C192.723 52.168 192.117 52.0187 191.585 51.72C191.062 51.412 190.651 50.9873 190.353 50.446C190.054 49.9047 189.905 49.2747 189.905 48.556C189.905 47.828 190.049 47.1887 190.339 46.638C190.637 46.0873 191.048 45.658 191.571 45.35C192.103 45.042 192.719 44.888 193.419 44.888C194.1 44.888 194.693 45.042 195.197 45.35C195.701 45.6487 196.093 46.05 196.373 46.554C196.653 47.058 196.793 47.6133 196.793 48.22C196.793 48.3133 196.788 48.416 196.779 48.528C196.779 48.6307 196.774 48.7473 196.765 48.878H191.361C191.407 49.55 191.627 50.0633 192.019 50.418C192.42 50.7633 192.882 50.936 193.405 50.936C193.825 50.936 194.175 50.8427 194.455 50.656C194.744 50.46 194.959 50.1987 195.099 49.872H196.583C196.396 50.5253 196.023 51.0713 195.463 51.51C194.912 51.9487 194.226 52.168 193.405 52.168ZM193.405 46.106C192.91 46.106 192.471 46.2553 192.089 46.554C191.706 46.8433 191.473 47.282 191.389 47.87H195.309C195.281 47.3287 195.089 46.8993 194.735 46.582C194.38 46.2647 193.937 46.106 193.405 46.106ZM201.86 52V45.056H203.19L203.316 46.372C203.559 45.9147 203.895 45.5553 204.324 45.294C204.763 45.0233 205.29 44.888 205.906 44.888V46.442H205.5C205.089 46.442 204.721 46.512 204.394 46.652C204.077 46.7827 203.82 47.0113 203.624 47.338C203.437 47.6553 203.344 48.0987 203.344 48.668V52H201.86ZM209.53 52.168C208.942 52.168 208.457 52.07 208.074 51.874C207.692 51.678 207.407 51.4213 207.22 51.104C207.034 50.7773 206.94 50.4227 206.94 50.04C206.94 49.368 207.202 48.836 207.724 48.444C208.247 48.052 208.994 47.856 209.964 47.856H211.784V47.73C211.784 47.1887 211.635 46.7827 211.336 46.512C211.047 46.2413 210.669 46.106 210.202 46.106C209.792 46.106 209.432 46.2087 209.124 46.414C208.826 46.61 208.644 46.904 208.578 47.296H207.094C207.141 46.792 207.309 46.3627 207.598 46.008C207.897 45.644 208.27 45.3687 208.718 45.182C209.176 44.986 209.675 44.888 210.216 44.888C211.187 44.888 211.938 45.1447 212.47 45.658C213.002 46.162 213.268 46.8527 213.268 47.73V52H211.98L211.854 50.81C211.658 51.1927 211.374 51.5147 211 51.776C210.627 52.0373 210.137 52.168 209.53 52.168ZM209.824 50.964C210.226 50.964 210.562 50.8707 210.832 50.684C211.112 50.488 211.327 50.2313 211.476 49.914C211.635 49.5967 211.733 49.2467 211.77 48.864H210.118C209.53 48.864 209.11 48.9667 208.858 49.172C208.616 49.3773 208.494 49.634 208.494 49.942C208.494 50.2593 208.611 50.5113 208.844 50.698C209.087 50.8753 209.414 50.964 209.824 50.964ZM217.774 52C217.092 52 216.551 51.8367 216.15 51.51C215.748 51.174 215.548 50.5813 215.548 49.732V46.302H214.358V45.056H215.548L215.73 43.292H217.032V45.056H218.992V46.302H217.032V49.732C217.032 50.1147 217.111 50.3807 217.27 50.53C217.438 50.67 217.722 50.74 218.124 50.74H218.922V52H217.774ZM221.362 43.74C221.082 43.74 220.849 43.656 220.662 43.488C220.485 43.3107 220.396 43.0913 220.396 42.83C220.396 42.5687 220.485 42.354 220.662 42.186C220.849 42.0087 221.082 41.92 221.362 41.92C221.642 41.92 221.871 42.0087 222.048 42.186C222.235 42.354 222.328 42.5687 222.328 42.83C222.328 43.0913 222.235 43.3107 222.048 43.488C221.871 43.656 221.642 43.74 221.362 43.74ZM220.62 52V45.056H222.104V52H220.62ZM227.311 52.168C226.648 52.168 226.051 52.0187 225.519 51.72C224.996 51.412 224.581 50.9873 224.273 50.446C223.965 49.8953 223.811 49.256 223.811 48.528C223.811 47.8 223.965 47.1653 224.273 46.624C224.59 46.0733 225.015 45.6487 225.547 45.35C226.079 45.042 226.672 44.888 227.325 44.888C227.988 44.888 228.58 45.042 229.103 45.35C229.635 45.6487 230.055 46.0733 230.363 46.624C230.68 47.1653 230.839 47.8 230.839 48.528C230.839 49.256 230.68 49.8953 230.363 50.446C230.055 50.9873 229.635 51.412 229.103 51.72C228.571 52.0187 227.974 52.168 227.311 52.168ZM227.311 50.894C227.666 50.894 227.992 50.8053 228.291 50.628C228.599 50.4507 228.846 50.1893 229.033 49.844C229.22 49.4893 229.313 49.0507 229.313 48.528C229.313 48.0053 229.22 47.5713 229.033 47.226C228.856 46.8713 228.613 46.6053 228.305 46.428C228.006 46.2507 227.68 46.162 227.325 46.162C226.97 46.162 226.639 46.2507 226.331 46.428C226.032 46.6053 225.79 46.8713 225.603 47.226C225.416 47.5713 225.323 48.0053 225.323 48.528C225.323 49.0507 225.416 49.4893 225.603 49.844C225.79 50.1893 226.032 50.4507 226.331 50.628C226.63 50.8053 226.956 50.894 227.311 50.894ZM236.559 52.084C236.279 52.084 236.046 51.9953 235.859 51.818C235.682 51.6313 235.593 51.412 235.593 51.16C235.593 50.8987 235.682 50.6793 235.859 50.502C236.046 50.3153 236.279 50.222 236.559 50.222C236.839 50.222 237.068 50.3153 237.245 50.502C237.423 50.6793 237.511 50.8987 237.511 51.16C237.511 51.412 237.423 51.6313 237.245 51.818C237.068 51.9953 236.839 52.084 236.559 52.084ZM236.559 46.75C236.279 46.75 236.046 46.6613 235.859 46.484C235.682 46.2973 235.593 46.078 235.593 45.826C235.593 45.5647 235.682 45.3453 235.859 45.168C236.046 44.9813 236.279 44.888 236.559 44.888C236.839 44.888 237.068 44.9813 237.245 45.168C237.423 45.3453 237.511 45.5647 237.511 45.826C237.511 46.078 237.423 46.2973 237.245 46.484C237.068 46.6613 236.839 46.75 236.559 46.75Z" fill="#4D4D4D"/>
<path d="M243.653 52V44.244L242.043 44.622V43.25L244.409 42.2H245.515V52H243.653ZM248.479 52V44.244L246.869 44.622V43.25L249.235 42.2H250.341V52H248.479ZM252.003 52V50.698C252.6 50.2033 253.179 49.7133 253.739 49.228C254.308 48.7427 254.812 48.262 255.251 47.786C255.699 47.31 256.054 46.848 256.315 46.4C256.586 45.9427 256.721 45.4993 256.721 45.07C256.721 44.6687 256.609 44.314 256.385 44.006C256.17 43.698 255.811 43.544 255.307 43.544C254.794 43.544 254.406 43.712 254.145 44.048C253.884 44.384 253.753 44.79 253.753 45.266H252.017C252.036 44.5473 252.194 43.95 252.493 43.474C252.792 42.9887 253.188 42.6293 253.683 42.396C254.178 42.1533 254.733 42.032 255.349 42.032C256.348 42.032 257.122 42.3073 257.673 42.858C258.233 43.3993 258.513 44.104 258.513 44.972C258.513 45.5133 258.387 46.0407 258.135 46.554C257.892 47.0673 257.57 47.562 257.169 48.038C256.768 48.514 256.334 48.962 255.867 49.382C255.4 49.7927 254.948 50.1753 254.509 50.53H258.751V52H252.003Z" fill="#FF725E"/>
<g clip-path="url(#clip0)">
<path d="M63.9939 35.6468C63.4595 35.6468 63.0262 35.2135 63.0262 34.6791C63.0262 31.7472 62.3213 29.7061 60.9311 28.6126C59.1848 27.2389 56.8269 27.7895 56.8033 27.7952C56.2853 27.921 55.7615 27.6044 55.634 27.0871C55.5064 26.5699 55.8189 26.0471 56.3356 25.9173C56.4678 25.8842 59.6063 25.1251 62.108 27.0761C64.0014 28.5527 64.9616 31.1107 64.9616 34.6791C64.9616 35.2135 64.5283 35.6468 63.9939 35.6468Z" fill="#EAAB92"/>
<path d="M17.6433 14.5327L13.8906 15.3659L10.2334 19.378V21.6987L18.7852 17.997L17.6433 14.5327Z" fill="#EAAB92"/>
<path d="M17.6434 13.7929C16.1896 12.0004 14.383 10.8985 12.9171 10.242C11.6563 9.67741 10.2334 10.6074 10.2334 11.9889V19.3782C12.253 17.4096 14.7667 15.7777 17.6434 14.5329L18.7853 14.1649L17.6434 13.7929Z" fill="#EDBCA4"/>
<path d="M3.82014 38.5833H6.00103C6.26937 38.5833 6.5112 38.749 6.60446 39.0006C8.1096 43.0621 10.7687 46.4139 14.911 48.826L15.2369 50.1919V54.3234C15.2369 56.6458 16.3772 58.0121 17.7837 58.0121H22.4865C23.8931 58.0121 25.0333 56.6458 25.0333 54.3234V53.6058L25.7794 52.5543C27.8594 52.8924 30.0319 53.0685 32.2675 53.0685C36.0276 53.0685 39.6104 52.6327 42.8724 51.7781L43.6806 52.7363V54.3233C43.6806 56.406 44.8208 58.012 46.2274 58.012H50.9302C52.3368 58.012 53.477 56.7579 53.477 54.3233V47.6845L54.1245 45.922C57.5968 42.851 59.6313 38.7023 59.6313 32.9732C58.9218 20.6561 46.9423 14.0288 32.2676 14.0288C30.3923 14.0288 28.561 14.1501 26.7915 14.3853C25.367 10.7219 22.4797 8.79881 20.3273 7.8348C19.0666 7.2702 17.6436 8.20008 17.6436 9.58152V16.8551C12.2823 19.1751 8.17925 22.8381 6.19198 27.5241H3.82014C1.7103 27.5243 0 29.2346 0 31.3445V33.6213C0 37.0737 1.7103 38.5833 3.82014 38.5833Z" fill="#FFD6BD"/>
<path d="M14.911 47.684C10.7688 45.2718 8.64832 41.92 7.14318 37.8585C7.04992 37.6068 6.80809 37.4412 6.53975 37.4412H3.82014C1.7103 37.4412 0 35.7309 0 33.6211V35.9435C0 38.0533 1.7103 39.7636 3.82014 39.7636H5.83025C7.38285 44.1195 10.7343 47.6868 15.2369 50.1919V48.2446C15.2369 48.0126 15.1113 47.8006 14.911 47.684Z" fill="#F9C6AA"/>
<path d="M22.4869 56.8696H17.7841C16.3775 56.8696 15.2373 55.7293 15.2373 54.3228V56.6451C15.2373 58.0517 16.3775 59.1919 17.7841 59.1919H22.4869C23.8935 59.1919 25.0337 58.0517 25.0337 56.6451V54.3228C25.0336 55.7293 23.8935 56.8696 22.4869 56.8696Z" fill="#F9C6AA"/>
<path d="M53.4775 45.6542V47.684C57.3446 44.3635 59.6656 39.8207 59.6656 34.1385C59.6656 33.7443 59.6539 33.356 59.6318 32.9727C59.3438 38.0114 57.1706 42.0984 53.6982 45.1694C53.559 45.2926 53.4775 45.4684 53.4775 45.6542Z" fill="#F9C6AA"/>
<path d="M43.6804 51.2587C43.6804 50.8358 43.2811 50.5285 42.8722 50.6358C39.6102 51.4903 36.0276 51.9261 32.2673 51.9261C30.0318 51.9261 27.8593 51.75 25.7792 51.4119C25.3877 51.3482 25.0332 51.6513 25.0332 52.048V53.6052C27.3378 54.0274 29.763 54.2483 32.2673 54.2483C36.3407 54.2483 40.2058 53.7369 43.6804 52.7358V51.2587Z" fill="#F9C6AA"/>
<path d="M50.9293 56.8696H46.2265C44.8199 56.8696 43.6797 55.7293 43.6797 54.3228V56.6451C43.6797 58.0517 44.8199 59.1919 46.2265 59.1919H50.9293C52.3359 59.1919 53.4761 58.0517 53.4761 56.6451V54.3228C53.476 55.7293 52.3357 56.8696 50.9293 56.8696Z" fill="#F9C6AA"/>
</g>
<path d="M10.6688 37.8198V28.3463H16.786V29.7403H12.4011V32.3929H15.9469V33.7598H12.4011V37.8198H10.6688ZM20.5995 37.9822C19.7604 37.9822 19.1108 37.7206 18.6506 37.1973C18.1995 36.674 17.974 35.9071 17.974 34.8966V31.1072H19.6927V34.7342C19.6927 35.3116 19.81 35.7537 20.0446 36.0605C20.2792 36.3672 20.6491 36.5206 21.1544 36.5206C21.6325 36.5206 22.025 36.3492 22.3318 36.0063C22.6476 35.6635 22.8054 35.1853 22.8054 34.5718V31.1072H24.5377V37.8198H23.0085L22.8731 36.683C22.6656 37.08 22.3634 37.3958 21.9664 37.6304C21.5784 37.8649 21.1228 37.9822 20.5995 37.9822ZM26.316 37.8198V31.1072H27.8453L27.9807 32.244C28.1882 31.847 28.4859 31.5312 28.8739 31.2967C29.2709 31.0621 29.7355 30.9448 30.2678 30.9448C31.0979 30.9448 31.743 31.2064 32.2031 31.7297C32.6633 32.253 32.8933 33.0199 32.8933 34.0304V37.8198H31.161V34.1928C31.161 33.6154 31.0438 33.1733 30.8092 32.8665C30.5746 32.5598 30.2092 32.4064 29.713 32.4064C29.2257 32.4064 28.8242 32.5778 28.5085 32.9207C28.2017 33.2635 28.0483 33.7417 28.0483 34.3552V37.8198H26.316ZM37.6355 37.9822C37.0039 37.9822 36.44 37.8288 35.9438 37.5221C35.4475 37.2153 35.0551 36.7958 34.7664 36.2635C34.4776 35.7311 34.3333 35.1266 34.3333 34.45C34.3333 33.7733 34.4776 33.1733 34.7664 32.65C35.0551 32.1177 35.4475 31.7027 35.9438 31.4049C36.44 31.0982 37.0039 30.9448 37.6355 30.9448C38.1407 30.9448 38.5828 31.0395 38.9618 31.229C39.3407 31.4185 39.6475 31.6846 39.882 32.0275V28.0757H41.6143V37.8198H40.0715L39.882 36.8589C39.6655 37.1567 39.3768 37.4183 39.0159 37.6439C38.664 37.8694 38.2039 37.9822 37.6355 37.9822ZM38.0009 36.4665C38.5603 36.4665 39.0159 36.2815 39.3678 35.9116C39.7287 35.5327 39.9091 35.05 39.9091 34.4635C39.9091 33.8771 39.7287 33.3989 39.3678 33.0289C39.0159 32.65 38.5603 32.4605 38.0009 32.4605C37.4505 32.4605 36.9949 32.6455 36.634 33.0154C36.2731 33.3853 36.0926 33.8635 36.0926 34.45C36.0926 35.0364 36.2731 35.5191 36.634 35.8981C36.9949 36.277 37.4505 36.4665 38.0009 36.4665ZM46.0347 37.8198L49.4993 28.3463H51.4481L54.9127 37.8198H53.0722L52.3143 35.6274H48.6196L47.8482 37.8198H46.0347ZM49.0933 34.274H51.8406L50.4602 30.3358L49.0933 34.274Z" fill="#C95629"/>
<defs>
<clipPath id="clip0">
<rect width="64.961" height="64.961" fill="white" transform="translate(0 0.519531)"/>
</clipPath>
</defs>
</svg>
